<svg xmlns="http://www.w3.org/2000/svg" width="78.134" height="73.5" viewBox="0 0 78.134 73.5"><defs><style>.a{opacity:0.46;mix-blend-mode:overlay;isolation:isolate;}.b{fill:#e5f2fc;}.c{fill:#c3d9eb;}.d{fill:#95b8d3;}.e{fill:#ffb2a8;}.f{fill:#084596;}.g{fill:#eb9076;}.h{fill:#053473;}.i{fill:#ff5876;}.j{fill:#f74363;}.k{fill:#2d2d7a;}.l{fill:#000062;}.m{fill:#fed296;}.n{fill:#fff;}.o{fill:#e33453;}.p{fill:#ffbf69;}.q{fill:#bfd772;}.r{fill:#feb149;}.s{fill:#8ea2af;}.t{fill:#80579a;}.u{fill:#93631a;}.v{fill:#f4d223;}.w{fill:#e4e9b2;}.x{fill:#b8d193;}.y{fill:#e1a23d;}.z{fill:#efc641;}.aa{fill:#af7232;}.ab{fill:#c48b42;}.ac{fill:#262425;}.ad{fill:#a06a2e;}.ae{fill:#95be7b;}.af{fill:#e3a61a;}.ag{fill:#779e65;}.ah{fill:#e4a94a;}.ai{fill:#e5e6e8;}.aj{fill:#688256;}.ak{fill:#b8d199;}.al{fill:#80a36a;}.am{fill:#c63434;}.an{fill:#db9c54;}.ao{fill:#e9c78a;}.ap{fill:#6f9cae;}.aq{fill:#88c3db;}.ar{fill:#94b93a;}.as{fill:#374f2a;}.at{fill:#47acde;}.au{fill:#3984a8;}.av{fill:#9cccdf;}.aw{fill:#7bbee5;}.ax{fill:#afc650;}.ay{fill:#8c2b25;}.az{fill:#6f8b5c;}.ba{fill:#d68027;}.bb{fill:#eaba25;}.bc{fill:#fdfae3;}.bd{fill:#7b5a2a;}.be{fill:#a87216;}.bf{fill:#f1cc12;}.bg{fill:#9e7db2;}.bh{fill:#e7b225;}.bi{fill:#fff287;}.bj{fill:#d5a656;}.bk{fill:#9ebfd6;}.bl{fill:#5d6a71;}.bm{fill:#c4e1f8;}</style></defs><g transform="translate(-340 -223.5)"><g class="a" transform="translate(284.655 130.864)"><g transform="translate(102.637 92.636)"><rect class="b" width="30.843" height="62.072" transform="translate(0)"/><rect class="c" width="26.978" height="58.516" transform="translate(1.932 1.778)"/><rect class="b" width="28.601" height="2.087" transform="translate(1.159 12.445)"/><rect class="b" width="28.601" height="2.087" transform="translate(1.159 27.132)"/><rect class="b" width="28.601" height="2.087" transform="translate(1.159 44.525)"/><rect class="d" width="4.019" height="8.18" transform="translate(3.458 4.265)"/><path class="d" d="M309.037,248.392h-4.673v12.781h6.823v-9.09Z" transform="translate(-300.906 -216.649)"/><path class="d" d="M351,248.392h-4.673v12.781h6.823v-9.09Z" transform="translate(-334.316 -216.649)"/><rect class="d" width="4.019" height="8.18" transform="translate(8.271 4.265)"/><rect class="d" width="4.019" height="8.18" transform="translate(13.085 4.265)"/><rect class="d" width="4.019" height="8.18" transform="translate(17.898 4.265)"/><rect class="d" width="5.67" height="11.589" transform="translate(21.496 48.704)"/><path class="d" d="M307.137,176.782v-.577h.249v-.654h-1.869v.654h.249v.577c0,.358-1.4.358-1.4,1.994v7.009h4.175v-7.009C308.539,177.14,307.137,177.14,307.137,176.782Z" transform="translate(-300.906 -158.653)"/><path class="d" d="M357.812,176.782v-.577h.249v-.654h-1.869v.654h.249v.577c0,.358-1.4.358-1.4,1.994v7.009h4.175v-7.009C359.214,177.14,357.812,177.14,357.812,176.782Z" transform="translate(-341.253 -158.653)"/><path class="d" d="M383.15,176.782v-.577h.249v-.654H381.53v.654h.249v.577c0,.358-1.4.358-1.4,1.994v7.009h4.175v-7.009C384.552,177.14,383.15,177.14,383.15,176.782Z" transform="translate(-361.428 -158.653)"/><path class="d" d="M408.487,176.782v-.577h.249v-.654h-1.869v.654h.249v.577c0,.358-1.4.358-1.4,1.994v7.009h4.175v-7.009C409.889,177.14,408.487,177.14,408.487,176.782Z" transform="translate(-381.601 -158.653)"/></g><g transform="translate(55.345 108.63)"><rect class="b" width="45.138" height="46.077"/><rect class="c" width="41.034" height="42.338" transform="translate(2.052 1.869)"/><rect class="b" width="41.858" height="1.549" transform="translate(1.697 9.238)"/><rect class="b" width="41.858" height="1.549" transform="translate(1.697 20.141)"/><rect class="b" width="41.858" height="1.549" transform="translate(1.697 33.051)"/><rect class="d" width="3.77" height="16.053" transform="translate(19.431 40.438) rotate(90)"/><rect class="d" width="3.77" height="16.053" transform="translate(22.696 36.668) rotate(90)"/><rect class="d" width="4.611" height="6.885" transform="translate(3.676 13.256)"/><rect class="d" width="4.611" height="6.885" transform="translate(15.639 13.256)"/><rect class="d" width="4.611" height="6.885" transform="translate(21.621 13.256)"/><rect class="d" width="4.611" height="6.885" transform="translate(33.584 13.256)"/><path class="d" d="M80.17,284.309v-.576h.259v-.654H78.484v.654h.259v.576c0,.358-1.458.358-1.458,1.994v7.009h4.343V286.3C81.628,284.667,80.17,284.667,80.17,284.309Z" transform="translate(-72.814 -260.261)"/><path class="d" d="M117.742,284.309v-.576H118v-.654h-1.945v.654h.259v.576c0,.358-1.459.358-1.459,1.994v7.009H119.2V286.3C119.2,284.667,117.742,284.667,117.742,284.309Z" transform="translate(-102.728 -260.261)"/><path class="d" d="M155.315,284.309v-.576h.259v-.654h-1.945v.654h.259v.576c0,.358-1.458.358-1.458,1.994v7.009h4.343V286.3C156.773,284.667,155.315,284.667,155.315,284.309Z" transform="translate(-132.644 -260.261)"/><path class="d" d="M230.459,284.309v-.576h.259v-.654h-1.945v.654h.259v.576c0,.358-1.459.358-1.459,1.994v7.009h4.343V286.3C231.917,284.667,230.459,284.667,230.459,284.309Z" transform="translate(-192.474 -260.261)"/><circle class="d" cx="2.532" cy="2.532" r="2.532" transform="translate(3.925 4.175)"/><circle class="d" cx="2.532" cy="2.532" r="2.532" transform="translate(10.25 4.175)"/><circle class="d" cx="2.532" cy="2.532" r="2.532" transform="translate(16.574 4.175)"/><circle class="d" cx="2.532" cy="2.532" r="2.532" transform="translate(22.898 4.175)"/><circle class="d" cx="2.532" cy="2.532" r="2.532" transform="translate(35.547 4.175)"/></g></g><g transform="translate(16.856 196.204)"><path class="e" d="M409.262,217.867l.65,2.405s.967.962,1.679.806.856-1.372.856-1.372l-.681-1.839Z" transform="translate(-50.953 -121.743)"/><path class="e" d="M364.049,219.9l.63-1.234-2-.8-1.165,2.6s.58,1.128,1.419.991S364.049,219.9,364.049,219.9Z" transform="translate(-20.203 -121.743)"/><path class="e" d="M403.793,76.046l2.228,1.47,9.671.9-.379,1.707s-8.481,1.76-11.283,1.517-5.168-5.023-5.168-5.023Z" transform="translate(-44.255 -30.408)"/><path class="f" d="M375.788,113.108l-1.918,19.521L363.71,151.624a.2.2,0,0,1-.129.1c-.565.147-3.714.867-4.8-1.113a.206.206,0,0,1-.01-.173l8.02-20.829.572-17.072Z" transform="translate(-18.427 -53.909)"/><path class="g" d="M405.576,82.822a21.632,21.632,0,0,0,1.654-4.671h0l-4.795,1.89A7.678,7.678,0,0,0,405.576,82.822Z" transform="translate(-46.557 -31.764)"/><path class="h" d="M389.371,138.383,387.61,136.5l-6.077,2.817-.184,5.482,1.688,13.325,5.383-10.063Z" transform="translate(-32.977 -69.342)"/><path class="h" d="M399.265,121.447l.762-7.752-3.633-.246Z" transform="translate(-42.666 -54.496)"/><path class="f" d="M391,145.917a5.239,5.239,0,0,1-4.862-.021.142.142,0,0,1-.063-.075c-.414-1.179-8.14-23.241-9.456-31.077a12.041,12.041,0,0,1-1.654-4.233,8.7,8.7,0,0,1-.053-2.812,7.38,7.38,0,0,1,.562-1.906c1.525-3.393,6.261.671,8.307,2.661.59.576.957.979.957.979l.287,1.65,6.046,34.691A.136.136,0,0,1,391,145.917Z" transform="translate(-28.77 -48.723)"/><path class="h" d="M385.021,116.892c-2.875,1.081-6.287.247-7.717-.221a8.592,8.592,0,0,0-2.344-.35,8.7,8.7,0,0,1-.053-2.812l8.869.754c.59.576.957.979.957.979Z" transform="translate(-28.77 -54.534)"/><path class="i" d="M394.177,55.87s4.276,4.345,7.15,7.408a.353.353,0,0,1,.116.4,17.5,17.5,0,0,1-3,4.445S390.906,62.341,394.177,55.87Z" transform="translate(-40.709 -17.414)"/><path class="j" d="M402.455,68.247l-1.7,5.385A16.452,16.452,0,0,0,403.21,76.1a10.309,10.309,0,0,0,1.687-2.121A10.431,10.431,0,0,0,402.455,68.247Z" transform="translate(-45.475 -25.385)"/><path class="i" d="M385.382,77.827c-4.637,2.41-10-.289-12.538-.142-.251.015-.235-.254-.2-.424,2.286-11.306,3.2-18.342,6.277-22.079a8.208,8.208,0,0,1,.712-.771,41.612,41.612,0,0,1,3.482,3.215,10.931,10.931,0,0,1,2.665,6.854,58.215,58.215,0,0,0-.2,12.954A.386.386,0,0,1,385.382,77.827Z" transform="translate(-27.358 -16.475)"/><path class="j" d="M383.388,87.159a15.559,15.559,0,0,0,.355,1.615c.142.532.3,1.059.492,1.576a18.655,18.655,0,0,0,1.369,3,15.634,15.634,0,0,0,1.9,2.684c.088.105.181.207.276.306l.284.3c.2.19.389.389.6.567a14.935,14.935,0,0,0,1.284,1.04,12.747,12.747,0,0,1-2.532-2.133,14.954,14.954,0,0,1-1.949-2.687,17.693,17.693,0,0,1-1.346-3.034A15.742,15.742,0,0,1,383.388,87.159Z" transform="translate(-34.29 -37.565)"/><path class="j" d="M381.394,76.994c-.07.65-.129,1.3-.173,1.953s-.085,1.3-.11,1.956c-.05,1.305-.062,2.612,0,3.915.03.651.074,1.3.144,1.951s.172,1.292.294,1.933a13.829,13.829,0,0,0,.51,1.885,8.008,8.008,0,0,0,.842,1.762,9.91,9.91,0,0,1-1.469-3.622,24.386,24.386,0,0,1-.476-3.9q-.077-1.964.034-3.928C381.069,79.591,381.191,78.286,381.394,76.994Z" transform="translate(-32.704 -31.018)"/><path class="k" d="M376.391,101.553s4.694-1.955,6.825-4.079l.654.738s-5.25,4.253-7.744,4.625Z" transform="translate(-29.613 -44.208)"/><path class="j" d="M392.531,65.952l-3.348.516s-1.079,6.251.738,10.832l5.986-1.231q.051-.909.129-1.91C395.17,71.66,393.555,67.243,392.531,65.952Z" transform="translate(-37.817 -23.907)"/><path class="e" d="M409.288,88.481c-2.275,1.658-11.756,3.46-13.511,2.939s-3.745-6.305-3.745-6.305l1.888-.65,3.563,2.4H408.34Z" transform="matrix(0.559, 0.829, -0.829, 0.559, 206.282, -326.594)"/><path class="g" d="M393.509,91.531a7.426,7.426,0,0,0,3.715-2.558s-3.027.027-4.761.059C392.661,89.565,393.036,90.531,393.509,91.531Z" transform="translate(-40.134 -38.733)"/><path class="i" d="M391.007,61.957c-3.3,0-.711,11.663-.711,11.663s1.991.213,5.12-2.2C395.416,71.415,393.781,61.957,391.007,61.957Z" transform="translate(-38.117 -21.334)"/><g transform="translate(358.309 97.963)"><path class="l" d="M418.88,228.982h0a.391.391,0,0,1-.391.391H413.14a8.279,8.279,0,0,0-1.374-.274c-.389,0-.4.274-.4.274h-2.1v-.391S416.535,228.533,418.88,228.982Z" transform="translate(-409.262 -226.735)"/><path class="m" d="M409.912,223.6a2.386,2.386,0,0,0,2.535-.566,26.82,26.82,0,0,1,3.15,1.026c.947.432,3.263.342,3.282,1.221h-9.618A2.6,2.6,0,0,1,409.912,223.6Z" transform="translate(-409.262 -223.032)"/><g transform="translate(3.063 0.195)"><path class="l" d="M417.9,224.157a.029.029,0,0,0,.018-.006l.655-.518a.029.029,0,0,0,0-.041.029.029,0,0,0-.041,0l-.655.518a.029.029,0,0,0,0,.041A.029.029,0,0,0,417.9,224.157Z" transform="translate(-417.866 -223.58)"/></g><g transform="translate(3.459 0.348)"><path class="l" d="M419.007,224.587a.033.033,0,0,0,.018-.006l.654-.518a.029.029,0,0,0,0-.041.03.03,0,0,0-.041,0l-.655.518a.029.029,0,0,0,.018.052Z" transform="translate(-418.978 -224.01)"/></g><g transform="translate(3.898 0.505)"><path class="l" d="M420.242,225.026a.029.029,0,0,0,.018-.006l.655-.518a.029.029,0,0,0,0-.041.029.029,0,0,0-.041,0l-.655.518a.029.029,0,0,0,0,.041A.028.028,0,0,0,420.242,225.026Z" transform="translate(-420.213 -224.449)"/></g><g transform="translate(4.338 0.651)"><path class="l" d="M421.477,225.438a.029.029,0,0,0,.018-.006l.655-.518a.029.029,0,0,0-.036-.046l-.655.518a.029.029,0,0,0-.005.041A.031.031,0,0,0,421.477,225.438Z" transform="translate(-421.447 -224.861)"/></g></g><g transform="translate(340.661 98.159)"><path class="l" d="M369.305,229.531h0a.391.391,0,0,1-.391.391h-5.349a8.273,8.273,0,0,0-1.374-.274c-.389,0-.4.274-.4.274h-2.1v-.391S366.961,229.082,369.305,229.531Z" transform="translate(-359.688 -227.284)"/><path class="m" d="M360.338,224.147a2.386,2.386,0,0,0,2.535-.566,26.816,26.816,0,0,1,3.15,1.026c.947.432,3.263.342,3.282,1.221h-9.617A2.6,2.6,0,0,1,360.338,224.147Z" transform="translate(-359.688 -223.581)"/><g transform="translate(3.063 0.195)"><path class="l" d="M368.321,224.706a.028.028,0,0,0,.018-.006l.655-.518a.029.029,0,0,0-.036-.046l-.655.518a.029.029,0,0,0,.018.052Z" transform="translate(-368.291 -224.129)"/></g><g transform="translate(3.459 0.348)"><path class="l" d="M369.433,225.136a.029.029,0,0,0,.018-.006l.655-.518a.029.029,0,0,0-.036-.046l-.655.518a.029.029,0,0,0-.005.041A.031.031,0,0,0,369.433,225.136Z" transform="translate(-369.403 -224.559)"/></g><g transform="translate(3.898 0.505)"><path class="l" d="M370.668,225.575a.029.029,0,0,0,.018-.006l.655-.518A.029.029,0,0,0,371.3,225l-.654.518a.029.029,0,0,0,0,.041A.031.031,0,0,0,370.668,225.575Z" transform="translate(-370.638 -224.998)"/></g><g transform="translate(4.338 0.651)"><path class="l" d="M371.9,225.986a.029.029,0,0,0,.018-.006l.654-.518a.029.029,0,1,0-.036-.046l-.654.518a.029.029,0,0,0,0,.041A.03.03,0,0,0,371.9,225.986Z" transform="translate(-371.873 -225.41)"/></g></g><g transform="translate(350.145 28.83)"><g transform="translate(0.39 2.339)"><path class="k" d="M387.508,42.418s-.341.44.344.914.488.895,1.2,1.1,1.047-3.362,1.047-3.362Z" transform="translate(-387.423 -39.049)"/><path class="e" d="M394.276,47.04s-1.486,1.874-.954,3.676-2.488-.828-2.488-.828l.7-3.966Z" transform="translate(-389.62 -42.176)"/><path class="g" d="M395.811,48.15l-2.3-.921s.66,2.556,1.464,2.966A5.462,5.462,0,0,1,395.811,48.15Z" transform="translate(-391.344 -43.018)"/><path class="e" d="M391.674,39.145s1.005,2.324,3.07,2.237,2.537-4.147,1.625-5.17-3.646-1.709-4.409,1.963c0,0-.249-.531-.595-.191S390.767,39.8,391.674,39.145Z" transform="translate(-389.758 -35.4)"/><path class="k" d="M400.624,39.347a3.134,3.134,0,0,1-2.27,1.018s1.009-.314,1.132-.685A.809.809,0,0,1,400.624,39.347Z" transform="translate(-394.463 -37.862)"/><path class="n" d="M400.571,48.78l1.453.166s-.342.683-.9.591S400.571,48.78,400.571,48.78Z" transform="translate(-395.89 -44.017)"/><path class="g" d="M402.613,46.388a.431.431,0,0,0,.687.061A.715.715,0,0,1,402.613,46.388Z" transform="translate(-397.206 -42.476)"/><path class="l" d="M400.477,43.7s.58-.616.863.124A.745.745,0,0,0,400.477,43.7Z" transform="translate(-395.83 -40.591)"/><path class="g" d="M392.155,43.526c-.053.221-.176.382-.275.358s-.137-.222-.085-.443.176-.382.275-.358S392.207,43.3,392.155,43.526Z" transform="translate(-390.223 -40.346)"/><path class="k" d="M392.793,39.949s.21.306.473.216.643-1.214,2.175-1.72-3.1-.2-3.1-.2Z" transform="translate(-390.592 -37.173)"/></g><g transform="translate(0 0)"><path class="o" d="M401.373,38.42s4.364,1.6,5.478.012a.151.151,0,0,0-.085-.229l-2.61-.743Z" transform="translate(-396.017 -34.388)"/><path class="m" d="M394.466,32.005s-5.385,2.392-7.663,2.636c0,0-1.3-3.01.407-4.181a19.591,19.591,0,0,1,1.953-1.269,9.185,9.185,0,0,1,3.091-.082C393.165,29.418,394.125,31.013,394.466,32.005Z" transform="translate(-386.328 -28.933)"/><path class="o" d="M393.092,29.179c.032.108.239.141.463.075s.38-.207.348-.315-.239-.141-.463-.075S393.06,29.071,393.092,29.179Z" transform="translate(-390.682 -28.83)"/><g transform="translate(1.969 0.669)"><path class="p" d="M392.678,34.912a15.981,15.981,0,0,1-.813-2.929,11.062,11.062,0,0,1,.441-1.274l.056.023A11.354,11.354,0,0,0,391.924,32a16.73,16.73,0,0,0,.811,2.9Z" transform="translate(-391.859 -30.709)"/></g><g transform="translate(3.642 0.277)"><path class="p" d="M399.3,32.74a19.221,19.221,0,0,0-1.2-2.417,3.521,3.521,0,0,0-1.544-.656l.011-.059a3.484,3.484,0,0,1,1.58.678,18.683,18.683,0,0,1,1.209,2.431Z" transform="translate(-396.558 -29.607)"/></g></g></g><path class="e" d="M394.507,57.57c-1.174.467-3.448-1.688-4.194-2.444a8.541,8.541,0,0,1,.711-.8A45.58,45.58,0,0,1,394.507,57.57Z" transform="translate(-38.75 -16.418)"/><path class="j" d="M398.935,73.631a8.716,8.716,0,0,1,.246,1.671A9.481,9.481,0,0,1,399.124,77a7.347,7.347,0,0,1-.409,1.646,5.628,5.628,0,0,1-.837,1.467q.105-.184.213-.363c.035-.061.074-.118.1-.182l.088-.19c.057-.127.127-.248.174-.38l.144-.392a8.939,8.939,0,0,0,.367-1.626,12.368,12.368,0,0,0,.092-1.669c0-.279-.015-.559-.038-.838S398.973,73.909,398.935,73.631Z" transform="translate(-43.622 -28.853)"/><path class="j" d="M402.737,77.69a6.551,6.551,0,0,1,.223.937,7.4,7.4,0,0,1,.1.96,5.26,5.26,0,0,1-.043.967,2.793,2.793,0,0,1-.282.923,4.241,4.241,0,0,0,.161-.936,8.185,8.185,0,0,0,.008-.948c-.01-.316-.037-.633-.066-.95S402.776,78.009,402.737,77.69Z" transform="translate(-46.751 -31.467)"/><path class="e" d="M436.969,90.373a2.753,2.753,0,0,1,1.4-.61c.761-.059,1.21-1.269,1.529-.537.234.537-.431,1.028-1.017,1.146h2.884a.06.06,0,0,1,.043.1,4.683,4.683,0,0,1-3.888,1.512C435.4,91.695,436.969,90.373,436.969,90.373Z" transform="matrix(0.559, 0.829, -0.829, 0.559, 193.178, -352.287)"/><path class="e" d="M436.969,90.373a2.753,2.753,0,0,1,1.4-.61c.761-.059,1.21-1.269,1.529-.537.234.537-.431,1.028-1.017,1.146h2.884a.06.06,0,0,1,.043.1,4.683,4.683,0,0,1-3.888,1.512C435.4,91.695,436.969,90.373,436.969,90.373Z" transform="translate(-66.485 -41.895)"/><path class="h" d="M381.35,132.846c.364,1.176.741,2.346,1.118,3.514.193.583.382,1.167.583,1.746s.4,1.161.609,1.736.421,1.152.647,1.721.457,1.137.7,1.7.508,1.114.794,1.655a11.718,11.718,0,0,0,.962,1.566,13.459,13.459,0,0,1-1.977-3.119,35.714,35.714,0,0,1-1.423-3.415q-.625-1.741-1.131-3.518C381.9,135.247,381.6,134.052,381.35,132.846Z" transform="translate(-32.977 -66.988)"/><path class="h" d="M393.061,169.883c.183.813.377,1.624.592,2.428s.432,1.608.666,2.406.481,1.592.746,2.38.538,1.573.838,2.347.609,1.545.95,2.3c.164.381.347.754.524,1.129s.37.743.569,1.106a23.225,23.225,0,0,0,1.283,2.132,17.185,17.185,0,0,0,1.535,1.964,17.119,17.119,0,0,1-3.032-3.977c-.423-.723-.8-1.473-1.15-2.232s-.673-1.532-.973-2.313a47.5,47.5,0,0,1-1.526-4.774A45.1,45.1,0,0,1,393.061,169.883Z" transform="translate(-40.519 -90.84)"/><path class="h" d="M371.305,167.4c-.446,1.522-.88,3.047-1.315,4.569s-.852,3.051-1.25,4.583-.773,3.07-1.1,4.616a30.6,30.6,0,0,0-.7,4.69,23.181,23.181,0,0,1,.464-4.736c.283-1.563.638-3.113,1.041-4.648s.839-3.061,1.319-4.574S370.745,168.889,371.305,167.4Z" transform="translate(-23.689 -89.244)"/><path class="g" d="M409.927,92.871a24.973,24.973,0,0,1-5.609,0Z" transform="translate(-47.769 -41.243)"/><g transform="translate(353.689 62.913)"><path class="h" d="M396.323,128.339a.039.039,0,0,1-.014-.076c1.819-.66,2.116-3.624,2.119-3.653a.04.04,0,0,1,.043-.035.039.039,0,0,1,.035.042c0,.031-.305,3.043-2.17,3.72Z" transform="translate(-396.284 -124.574)"/></g><g transform="translate(353.689 67.12)"><path class="h" d="M402.632,165.982a.039.039,0,0,1-.038-.031l-6.308-29.512a.039.039,0,0,1,.03-.046.04.04,0,0,1,.046.03l6.308,29.512a.039.039,0,0,1-.03.046Z" transform="translate(-396.284 -136.392)"/></g><g transform="translate(343.336 80.939)"><path class="h" d="M367.241,190.591a.038.038,0,0,1-.016,0,.039.039,0,0,1-.02-.052l6.824-15.3a.039.039,0,1,1,.071.032l-6.824,15.3A.039.039,0,0,1,367.241,190.591Z" transform="translate(-367.202 -175.211)"/></g><g transform="translate(330.144 33.974)"><path class="m" d="M345.765,71.642,330.451,68.85a.375.375,0,0,1-.3-.436L334.3,45.643l16.051,2.926L346.2,71.341A.375.375,0,0,1,345.765,71.642Z" transform="translate(-330.144 -44.802)"/><path class="q" d="M338.806,47.075l-.262-.048a.236.236,0,0,1-.19-.275l.616-3.377a.117.117,0,0,1,.136-.094l.612.111-.637,3.492A.236.236,0,0,1,338.806,47.075Z" transform="translate(-335.429 -43.279)"/><rect class="q" width="0.739" height="16.792" transform="matrix(0.179, -0.984, 0.984, 0.179, 3.685, 0.754)"/><g transform="translate(4.015 1.446)"><path class="r" d="M354.8,54.379l-12.321-2.246a1.285,1.285,0,0,1-1.033-1.493l.575-3.154a.176.176,0,0,1,.347.063l-.575,3.154a.933.933,0,0,0,.75,1.084l12.321,2.246a.933.933,0,0,0,1.084-.75l.575-3.154a.176.176,0,1,1,.346.063l-.575,3.154A1.285,1.285,0,0,1,354.8,54.379Z" transform="translate(-341.421 -47.341)"/></g><g transform="translate(0.6 6.565)"><path class="p" d="M343.3,80.867c-1.012-.184-2.337-.428-4.075-.748C335.61,79.452,332,78.779,332,78.779l-.172-.032,3.078-16.881a.176.176,0,0,1,.346.063l-3.014,16.536c3.8.708,12.865,2.389,14.153,2.59l3.016-16.545a.176.176,0,1,1,.346.063l-3.059,16.78-.06.042C346.567,81.441,346.543,81.458,343.3,80.867Z" transform="translate(-331.829 -61.722)"/></g><g transform="translate(4.142 7.685)"><path class="r" d="M355.232,67.644l-13.31-2.427a.176.176,0,0,1,.063-.346L355.3,67.3a.176.176,0,1,1-.063.346Z" transform="translate(-341.778 -64.868)"/></g><g transform="translate(2.702 10.242)"><path class="p" d="M349.508,84.565l-11.775-2.147L339.614,72.1a.066.066,0,0,1,.13.024l-1.857,10.185,11.514,2.1,1.845-10.12L340.2,72.278l4.364,6.392,6.072-4.068a.067.067,0,0,1,.092.018.066.066,0,0,1-.018.091l-6.181,4.14-4.616-6.761,11.49,2.095Z" transform="translate(-337.733 -72.05)"/></g></g><path class="k" d="M384.525,63.134s2.385-2.817,4.95-.739,3.794,7.394,2.637,8.581l.438,1.13s2.576-5.305-2.526-9.975a3.9,3.9,0,0,0-5.3-.06Z" transform="translate(-35.022 -20.737)"/></g><g transform="translate(219.33 37.655)"><g transform="translate(157.67 220.315)"><path class="s" d="M226.49,222.877a2.412,2.412,0,0,1,1.886.93c.985,1.009,1.282,3.872,1.282,3.872l.679-.5a13.019,13.019,0,0,0-1.106-3.746,5.9,5.9,0,0,0-2.54-1.408Z" transform="translate(-215.17 -221.741)"/><path class="t" d="M310.8,251.576s.283.415-.321,2.489a8.212,8.212,0,0,1-2.584,4.243c-.811.509-2.508-1.829-2.489-2.206s.811-2.527.773-2.81.679-.352.679-.352a24.56,24.56,0,0,1,2.206-2.156c.509-.321,1.056.019,1.15,0A1.06,1.06,0,0,1,310.8,251.576Z" transform="translate(-281.107 -245.657)"/><g transform="translate(34.214 5.707)"><path class="u" d="M390.219,255.725l.131-.326a.623.623,0,0,1,.26-.359.319.319,0,0,1,.4.131.518.518,0,0,1,.048.249.835.835,0,0,1-.113.457.432.432,0,0,1-.4.206.3.3,0,0,1-.25-.341" transform="translate(-386.182 -255.012)"/><path class="v" d="M369.007,257.911a6.006,6.006,0,0,1,.755-.551.3.3,0,0,1,.147-.046.271.271,0,0,1,.154.067.892.892,0,0,1,.313.663,1.675,1.675,0,0,1-.16.732,3.017,3.017,0,0,1-3.674,1.679,1.291,1.291,0,0,1-.753-.514.823.823,0,0,1-.037-.753c.288-.62,1.028-.442,1.575-.544A4.049,4.049,0,0,0,369.007,257.911Z" transform="translate(-365.677 -256.936)"/></g><g transform="translate(32.164 2.844)"><path class="u" d="M369.385,238.521l-.045-.349a.624.624,0,0,1,.052-.44.32.32,0,0,1,.417-.084.521.521,0,0,1,.164.194.835.835,0,0,1,.125.454.432.432,0,0,1-.251.377.3.3,0,0,1-.385-.176" transform="translate(-366.675 -237.604)"/><path class="v" d="M355.434,241.678a5.987,5.987,0,0,1,.39-.849.306.306,0,0,1,.106-.112.271.271,0,0,1,.167-.016.891.891,0,0,1,.6.426,1.673,1.673,0,0,1,.217.717,3.017,3.017,0,0,1-2.387,3.259,1.289,1.289,0,0,1-.908-.082.822.822,0,0,1-.4-.638c-.051-.682.681-.887,1.109-1.243A4.05,4.05,0,0,0,355.434,241.678Z" transform="translate(-353.214 -240.187)"/></g><g transform="translate(32.912 4.445)"><path class="u" d="M379.371,248.152l.058-.347a.625.625,0,0,1,.177-.407.319.319,0,0,1,.423.04.52.52,0,0,1,.1.233.834.834,0,0,1-.012.471.431.431,0,0,1-.349.289.3.3,0,0,1-.318-.279" transform="translate(-375.816 -247.336)"/><path class="v" d="M360.68,250.817a6.008,6.008,0,0,1,.618-.7.3.3,0,0,1,.134-.076.272.272,0,0,1,.165.033.892.892,0,0,1,.449.579,1.672,1.672,0,0,1,0,.75,3.017,3.017,0,0,1-3.224,2.434,1.29,1.29,0,0,1-.846-.34.822.822,0,0,1-.2-.727c.147-.668.908-.653,1.42-.871A4.05,4.05,0,0,0,360.68,250.817Z" transform="translate(-357.759 -249.593)"/></g><path class="w" d="M255.167,235.83a1.229,1.229,0,0,0,.325-.053.847.847,0,0,1,.7.19c.105.091.188.209.3.29a2.874,2.874,0,0,0,.275.147,1.413,1.413,0,0,1,.57,1.5,2.267,2.267,0,0,1-1.515,1.681,2.522,2.522,0,0,1-2.249-.4,1.837,1.837,0,0,1-.693-2.2c.213-.523.311-1.061.872-1.305a1.328,1.328,0,0,1,.717-.12C254.721,235.6,254.92,235.809,255.167,235.83Z" transform="translate(-237.107 -233.049)"/><path class="x" d="M243.488,241.1a2.985,2.985,0,0,1,1.243-2.639,1.085,1.085,0,0,1,1.121-.1,1.339,1.339,0,0,1,.468.961,1.719,1.719,0,0,0,.381,1.012c.151.144.379.272.359.479a.934.934,0,0,1-.1.248.893.893,0,0,0,.187.8,1.674,1.674,0,0,1,.375.758.911.911,0,0,1-.718.869,2.244,2.244,0,0,1-1.2-.1C244.443,243.037,243.518,242.393,243.488,241.1Z" transform="translate(-229.371 -235.293)"/><path class="x" d="M260.978,245.526a1.051,1.051,0,0,1,.274-.333c.17-.1.417-.067.546-.218a.748.748,0,0,0,.1-.208.881.881,0,0,1,1.433-.29,1.5,1.5,0,0,1,.349,1.062,4.694,4.694,0,0,1-.2,1.459,2.109,2.109,0,0,1-.519.935,1.955,1.955,0,0,1-.636.38,2.594,2.594,0,0,1-1.563.147,1.712,1.712,0,0,1-1.185-.978,1.268,1.268,0,0,1,.227-1.344c.166-.125.391-.087.589-.161A1.25,1.25,0,0,0,260.978,245.526Z" transform="translate(-242.737 -240.291)"/><path class="y" d="M219.556,241.309a4.452,4.452,0,0,0-.729,1.836c.05.427,2.572,1.955,2.665,1.961a3.284,3.284,0,0,0,.93-.93c0-.151.352-.905.277-1.031s-.226-.729-.478-.88-1.534-.98-1.634-.98S219.556,241.309,219.556,241.309Z" transform="translate(-208.764 -237.835)"/><path class="z" d="M226.033,239.513a24.739,24.739,0,0,1-2.766-2.213c-.075-.277,1.559-1.031,2.238-.754s1.106,2.489,1.157,2.741S226.285,239.79,226.033,239.513Z" transform="translate(-212.475 -233.826)"/><g transform="translate(18.887 3.981)"><path class="aa" d="M272.5,251.754s-.091-4.512.91-6.265,2.064-.822,2.414.344a34.617,34.617,0,0,1,.35,6.856c-.123.8-1.233,1.478-1.233,1.478Z" transform="translate(-272.496 -244.517)"/><path class="ab" d="M279.751,279.952a2.637,2.637,0,0,1-.422-.2c-.153-.087-.3-.18-.454-.267-.076-.044-.15-.091-.225-.137-.039-.025-.132-.076-.168-.017s.041.14.085.183c.067.064.136.125.206.185a3.175,3.175,0,0,0,.458.318,2.547,2.547,0,0,0,.459.214c.141.048.378.125.481-.025a.053.053,0,0,0,0-.06C280.1,280.006,279.889,280,279.751,279.952Z" transform="translate(-277.488 -273.583)"/><g transform="translate(1.438 3.902)"><path class="ab" d="M282.665,268.819a3.168,3.168,0,0,1-.319-.1c-.106-.042-.211-.091-.313-.141s-.229-.116-.344-.173c-.07-.035-.139-.069-.21-.1a.386.386,0,0,0-.2-.064.038.038,0,0,0-.033.049.292.292,0,0,0,.117.13c.057.044.112.089.17.132q.14.1.286.2a2.408,2.408,0,0,0,.646.308c.1.031.282.081.361-.02,0,0,.027-.058.022-.041a.149.149,0,0,0,0-.018.138.138,0,0,0,0-.016s0-.023-.006-.03C282.816,268.864,282.733,268.838,282.665,268.819Z" transform="translate(-281.24 -268.242)"/><path class="ac" d="M290.98,272.861h0C290.978,272.867,290.977,272.871,290.98,272.861Z" transform="translate(-289.377 -272.101)"/><path class="ac" d="M291,272.6c0-.01,0,0,0,0S291,272.606,291,272.6Z" transform="translate(-289.396 -271.878)"/></g><path class="ab" d="M284.08,256.947a.633.633,0,0,0-.143-.128,1.129,1.129,0,0,0-.169-.076c-.118-.049-.239-.092-.358-.14s-.231-.1-.343-.15c-.059-.028-.119-.055-.179-.081a.494.494,0,0,0-.181-.053.058.058,0,0,0-.045.09.74.74,0,0,0,.27.226c.1.065.21.123.318.178s.213.1.323.144a.828.828,0,0,0,.335.081.44.44,0,0,0,.159-.023A.041.041,0,0,0,284.08,256.947Z" transform="translate(-280.982 -254.378)"/></g><g transform="translate(20.818 4.156)"><path class="ab" d="M284.236,252.656s1.5-4.878,3.2-6.406,2.508-.151,2.47,1.226a39.15,39.15,0,0,1-2.056,7.487c-.415.811-1.848,1.15-1.848,1.15Z" transform="translate(-284.236 -245.581)"/><path class="ad" d="M294.9,282.061a2.98,2.98,0,0,1-.382-.364c-.133-.147-.26-.3-.393-.448-.066-.074-.129-.151-.193-.227-.034-.04-.114-.128-.175-.078s-.006.165.026.226c.049.092.1.183.156.272a3.573,3.573,0,0,0,.379.5,2.866,2.866,0,0,0,.418.392c.134.1.362.269.526.144a.059.059,0,0,0,.026-.063C295.261,282.242,295.035,282.162,294.9,282.061Z" transform="translate(-292.168 -275.115)"/><g transform="translate(2.709 4.017)"><path class="ad" d="M302.048,271.113a3.6,3.6,0,0,1-.309-.215c-.1-.083-.194-.173-.287-.263s-.205-.206-.308-.308c-.062-.062-.125-.123-.189-.183s-.116-.128-.2-.141a.043.043,0,0,0-.053.04.33.33,0,0,0,.08.181c.046.067.089.136.136.2q.114.161.236.317a2.723,2.723,0,0,0,.584.56c.1.07.274.187.4.107,0,0,.05-.053.038-.036a.2.2,0,0,0,.011-.018.161.161,0,0,0,0-.018c0-.006,0-.026,0-.034C302.194,271.216,302.114,271.157,302.048,271.113Z" transform="translate(-300.707 -270.002)"/><path class="ac" d="M309.614,278.337h0C309.61,278.343,309.608,278.346,309.614,278.337Z" transform="translate(-308.146 -276.966)"/><path class="ac" d="M309.73,278.062c0-.012,0,0,0,0S309.729,278.069,309.73,278.062Z" transform="translate(-308.245 -276.731)"/></g><path class="ad" d="M307.734,258.874a.723.723,0,0,0-.108-.188,1.285,1.285,0,0,0-.154-.142c-.11-.094-.224-.184-.335-.277s-.214-.185-.315-.283c-.053-.051-.109-.1-.164-.15a.556.556,0,0,0-.176-.121c-.052-.018-.087.035-.08.08a.834.834,0,0,0,.21.339c.087.106.182.207.279.3s.193.184.3.269a.936.936,0,0,0,.33.206.5.5,0,0,0,.179.032A.046.046,0,0,0,307.734,258.874Z" transform="translate(-302.754 -255.714)"/></g><path class="ae" d="M358.61,261.209a2.428,2.428,0,0,0,.664-.227c.2-.129.334-.348.553-.433a.917.917,0,0,1,.857.241.853.853,0,0,1,.379.588c.007.194-.1.378-.1.572,0,.546.78.8.876,1.337a1.754,1.754,0,0,1-.152.761.425.425,0,0,0-.018.215c.038.156.211.228.346.316a.945.945,0,0,1,.349,1.1,2.165,2.165,0,0,0-.253.61,1.221,1.221,0,0,0,.22.616,1.412,1.412,0,0,1,.184.933c-.045.211-.161.4-.21.611-.028.12-.034.244-.07.362a.931.931,0,0,1-.777.6,1.732,1.732,0,0,1-1-.216,1.768,1.768,0,0,1-.664-.536c-.315-.45-.319-1.09-.718-1.467a2.5,2.5,0,0,0-.973-.437,2.581,2.581,0,0,1-.968-.548,1.52,1.52,0,0,1-.491-.978c-.036-.533.27-1.043.24-1.576a1.216,1.216,0,0,1,.141-.819c.121-.2.228-.4.341-.609A2.141,2.141,0,0,1,358.61,261.209Z" transform="translate(-323.914 -253.899)"/><path class="x" d="M330.532,258.688a.929.929,0,0,1,.018-.743c.122-.236.368-.4.458-.648.1-.27,0-.6.163-.835.2-.282.668-.248.876-.525a1.084,1.084,0,0,0,.133-.3,1.772,1.772,0,0,1,1.449-1.23c.193-.013.387.014.581.013.338,0,.673-.088,1.01-.064a.844.844,0,0,1,.79.527c.072.263-.054.545,0,.813.067.351.426.618.411.976a.894.894,0,0,1-.187.449,1.612,1.612,0,0,0-.445,1.089c.055.323.341.613.259.93-.064.246-.32.379-.5.559-.222.221-.338.532-.568.746a1.92,1.92,0,0,1-1.179.381,1.985,1.985,0,0,1-1.228-.17c-.281-.176-.465-.481-.754-.644-.163-.092-.351-.132-.515-.223-.206-.115-.255-.309-.376-.491A3.039,3.039,0,0,1,330.532,258.688Z" transform="translate(-302.041 -248.754)"/><circle class="af" cx="1.936" cy="1.936" r="1.936" transform="translate(28.019 12.586) rotate(-70.296)"/><path class="af" d="M321.127,292.755a1.936,1.936,0,1,1-1.91-1.962A1.936,1.936,0,0,1,321.127,292.755Z" transform="translate(-291.006 -279.2)"/><circle class="af" cx="1.936" cy="1.936" r="1.936" transform="translate(28.398 13.223) rotate(-18.306)"/><g transform="translate(13.917 4.179)"><path class="ae" d="M256.872,247.879a4.339,4.339,0,0,1,.258-1.2c.181-.314.412-.154.406.007s-.026.5-.026.5a3.624,3.624,0,0,1,.679-1.228c.42-.417.536-.2.493.043a12.465,12.465,0,0,1-.5,1.284,2.343,2.343,0,0,1,.618-.5c.272-.111.366.051.289.285a4.994,4.994,0,0,1-1.112,1.333C257.722,248.542,256.756,248.158,256.872,247.879Z" transform="translate(-254.464 -245.721)"/><path class="ag" d="M258.62,252.3a2.674,2.674,0,0,1,.159-.738c.112-.193.254-.095.25,0s-.016.308-.016.308a2.229,2.229,0,0,1,.418-.756c.259-.256.33-.126.3.027a7.677,7.677,0,0,1-.306.79,1.441,1.441,0,0,1,.38-.306c.167-.068.225.031.178.175a3.072,3.072,0,0,1-.684.82C259.143,252.707,258.548,252.471,258.62,252.3Z" transform="translate(-255.927 -250.109)"/><path class="ah" d="M242.44,263.28c-.694-.393,1.035-5.292,1.491-5.939s2.757.155,2.678,1.124-3.339,5.225-4.077,4.792" transform="translate(-242.278 -255.235)"/></g><g transform="translate(11.978 4.133)"><path class="ae" d="M234.869,248.094a4.343,4.343,0,0,1-.226-1.207c.046-.36.321-.3.377-.151s.17.471.17.471a3.624,3.624,0,0,1,.151-1.4c.226-.547.415-.4.471-.151a12.461,12.461,0,0,1,.038,1.377,2.343,2.343,0,0,1,.377-.7c.207-.207.357-.1.377.151a5,5,0,0,1-.509,1.66C235.909,248.376,234.869,248.4,234.869,248.094Z" transform="translate(-233.956 -245.439)"/><path class="ag" d="M236.848,253.764a2.678,2.678,0,0,1-.139-.743c.028-.222.2-.186.232-.093s.1.29.1.29a2.231,2.231,0,0,1,.093-.859c.139-.337.255-.244.29-.093a7.666,7.666,0,0,1,.023.848,1.446,1.446,0,0,1,.232-.43c.128-.128.22-.059.232.093a3.078,3.078,0,0,1-.314,1.022C237.489,253.937,236.848,253.949,236.848,253.764Z" transform="translate(-235.684 -251.029)"/><path class="ah" d="M231.463,266.225c-.792-.094-1.094-5.28-.924-6.053s2.6-.924,2.9,0-1.056,6.11-1.9,6" transform="translate(-230.493 -257.215)"/></g><path class="ae" d="M199.376,241.584a1.747,1.747,0,0,1-1.4-.867,1.039,1.039,0,0,1,.981-.566,2.581,2.581,0,0,1,.339-1.848,2.648,2.648,0,0,1,1.207,1.018s.339-.641.83-.679a1.822,1.822,0,0,1,.113,1.848C200.96,241.584,199.376,241.584,199.376,241.584Z" transform="translate(-191.35 -235.344)"/><path class="ag" d="M203.1,245.876a1.285,1.285,0,0,1-1.027-.638.764.764,0,0,1,.721-.416,1.9,1.9,0,0,1,.25-1.359,1.948,1.948,0,0,1,.888.749s.25-.472.61-.5a1.341,1.341,0,0,1,.083,1.359C204.262,245.876,203.1,245.876,203.1,245.876Z" transform="translate(-194.767 -239.655)"/><path class="v" d="M200.183,258.338s-.836.36-1.314-2.383-.63-5.138,2.468-5.665c2.938-.5,3.543,4.721,3.344,6.2S200.78,258.653,200.183,258.338Z" transform="translate(-191.872 -245.332)"/><path class="ai" d="M300.009,288.618a3.6,3.6,0,0,1,.075-1.861,1.9,1.9,0,0,1,1.132-.981v-1.232h1.232v1.276s.955.082,1.081,1.666a11.807,11.807,0,0,1,.025,2.288l-3.42.3Z" transform="translate(-276.519 -273.98)"/><g transform="translate(34.742 12.156)"><path class="aj" d="M370.287,294.224c-1.441.133-1.537,2.195-1.3,4.064s-.362,6.307.263,6.876,1.745,1.238,2.383-.567S372.506,294.019,370.287,294.224Z" transform="translate(-368.889 -294.221)"/><g transform="translate(0.264 0.004)"><path class="ak" d="M380.519,304.391a2.309,2.309,0,0,0,.106-.657,6.082,6.082,0,0,1-.127-.632c.016-.4.331-.726.3-1.139a1,1,0,0,0-.077-.279.5.5,0,0,1,0-.346,1.4,1.4,0,0,0,.025-.64c-.039-.207-.106-.409-.136-.618a1.733,1.733,0,0,1,.076-.652,1.237,1.237,0,0,0,0-.66,2.876,2.876,0,0,1-.176-.6,2.968,2.968,0,0,0-.153-1.182,1.5,1.5,0,0,1-.181-.337,1.275,1.275,0,0,1-.017-.341,1.751,1.751,0,0,0-.012-.336.964.964,0,0,0-.127-.319.588.588,0,0,1-.092-.351,1.921,1.921,0,0,0,0-.352,1.094,1.094,0,0,0-.058-.232.891.891,0,0,0-.2-.123,1.033,1.033,0,0,1,.1.4,1.667,1.667,0,0,0,.014.621c.034.083.086.158.122.241a.675.675,0,0,1,.044.31,1.666,1.666,0,0,0,.016.577c.061.2.212.347.256.553a2.613,2.613,0,0,1,.025.586,2,2,0,0,0,.054.573,2.117,2.117,0,0,1,.173.6,4.681,4.681,0,0,1-.144.655,1.566,1.566,0,0,0,.035.6,4.378,4.378,0,0,1,.12.584c.019.224-.1.423-.089.643.006.2.138.36.108.567a2.356,2.356,0,0,1-.183.515,1.267,1.267,0,0,0-.112.554c.015.213.131.411.125.625-.007.24-.123.463-.148.7a1.172,1.172,0,0,0,.026.345c.023.122-.066.2-.111.308a2.873,2.873,0,0,0-.081.717s0,.01,0,.015a1.419,1.419,0,0,0,.325-.361.871.871,0,0,1,.025-.2c.03-.112.112-.2.144-.307a.64.64,0,0,0-.012-.31A.824.824,0,0,1,380.519,304.391Z" transform="translate(-378.16 -294.538)"/><path class="ak" d="M371.33,308.828a.8.8,0,0,0-.056-.142c-.042-.1-.088-.2-.139-.3a1.185,1.185,0,0,1-.176-.514c0-.2.126-.37.072-.579-.037-.14-.169-.286-.156-.434a1.037,1.037,0,0,1,.076-.229.536.536,0,0,0,.028-.286.981.981,0,0,0-.107-.225.386.386,0,0,1-.036-.22,2.692,2.692,0,0,1,.153-.517,1.587,1.587,0,0,0,.077-.549c-.007-.2-.045-.393-.059-.591a1.085,1.085,0,0,1,.1-.549.835.835,0,0,0,.1-.547c-.043-.182-.137-.345-.178-.528a1.653,1.653,0,0,1-.023-.6,4.254,4.254,0,0,0,.1-.608,1.5,1.5,0,0,0-.154-.564,2.428,2.428,0,0,1-.157-.576,2.646,2.646,0,0,1,0-.677,2.059,2.059,0,0,0,.007-.67,3.514,3.514,0,0,1-.165-.844,2.012,2.012,0,0,0-.143.286c.008.061.019.122.032.179a2.4,2.4,0,0,1,.1.606c-.006.218-.066.429-.082.646a2.7,2.7,0,0,0,.187,1.192,1.87,1.87,0,0,1,.1.266.822.822,0,0,1,0,.34,3.8,3.8,0,0,0-.1.615,1.919,1.919,0,0,0,.078.591c.052.175.182.367.147.557s-.163.361-.2.559a1.982,1.982,0,0,0,.012.584,1.789,1.789,0,0,1,.013.6c-.04.179-.127.345-.184.52a.88.88,0,0,0-.029.533c.025.081.076.142.108.219s-.014.169-.045.25a.664.664,0,0,0,.038.577.452.452,0,0,1,.075.259c-.014.111-.068.213-.081.325a1.19,1.19,0,0,0,.158.645c.037.076.075.153.115.227a2.2,2.2,0,0,0,.4.226A.265.265,0,0,0,371.33,308.828Z" transform="translate(-370.494 -297.448)"/><path class="ak" d="M375.682,305.51c-.014.087-.031.17-.051.252a1.008,1.008,0,0,0,.335.022c.043-.206.071-.417.106-.625a4.6,4.6,0,0,0,.137-1.286,1.175,1.175,0,0,0-.076-.293.8.8,0,0,1-.09-.293,2.309,2.309,0,0,1,.122-.619,1.981,1.981,0,0,0,.092-.618,2.117,2.117,0,0,0-.167-.565.953.953,0,0,1,.073-.589,1.605,1.605,0,0,0,.063-.647,4.294,4.294,0,0,1-.052-.646c.01-.2.042-.393.05-.591a1.568,1.568,0,0,0-.082-.606c-.068-.181-.2-.329-.267-.511a1.75,1.75,0,0,1-.006-.639,1.788,1.788,0,0,0-.1-.587,1.68,1.68,0,0,1-.123-.626,5.846,5.846,0,0,0,.113-.673.75.75,0,0,0-.078-.312,1.074,1.074,0,0,1-.133-.315.884.884,0,0,1,.14-.5,1.4,1.4,0,0,0-.222.039,1.05,1.05,0,0,0-.091.239.741.741,0,0,0,.08.529.723.723,0,0,1,.1.277,1.017,1.017,0,0,1-.059.331,1.534,1.534,0,0,0-.079.57,3.143,3.143,0,0,0,.146.573,1.3,1.3,0,0,1,.051.577,1.213,1.213,0,0,0,.027.642c.068.175.2.32.257.5a3.722,3.722,0,0,1-.03,1.19c0,.217.044.43.059.646a1.617,1.617,0,0,1-.12.62.971.971,0,0,0-.012.629,1.466,1.466,0,0,1,.146.541,8.991,8.991,0,0,0-.212,1.222,1.243,1.243,0,0,0,.114.348.927.927,0,0,1,.059.326,3.724,3.724,0,0,1-.08.671Z" transform="translate(-374.552 -294.244)"/></g></g><g transform="translate(32.139 10.788)"><path class="al" d="M353.971,285.95c-1.367.477-.961,2.5-.276,4.257s1.173,6.207,1.917,6.608,1.992.78,2.175-1.126S356.075,285.215,353.971,285.95Z" transform="translate(-353.063 -285.905)"/><g transform="translate(0.029 0.01)"><path class="ak" d="M364.074,295.267a2.3,2.3,0,0,0-.056-.664,6.062,6.062,0,0,1-.276-.582c-.081-.392.146-.784.014-1.177a1,1,0,0,0-.142-.252.5.5,0,0,1-.084-.335,1.4,1.4,0,0,0-.13-.627c-.087-.192-.2-.371-.281-.567a1.734,1.734,0,0,1-.084-.651,1.237,1.237,0,0,0-.159-.641,2.87,2.87,0,0,1-.316-.54,2.971,2.971,0,0,0-.434-1.11,1.5,1.5,0,0,1-.257-.283,1.276,1.276,0,0,1-.1-.327,1.752,1.752,0,0,0-.093-.323.964.964,0,0,0-.2-.278.588.588,0,0,1-.174-.319,1.926,1.926,0,0,0-.081-.343,1.1,1.1,0,0,0-.113-.211.887.887,0,0,0-.227-.07,1.034,1.034,0,0,1,.2.367c.059.206.031.419.164.6.053.073.122.133.177.2a.675.675,0,0,1,.117.29,1.664,1.664,0,0,0,.155.556c.107.178.289.285.382.475a2.63,2.63,0,0,1,.166.562,2,2,0,0,0,.191.543,2.12,2.12,0,0,1,.314.545,4.692,4.692,0,0,1,.019.67,1.565,1.565,0,0,0,.18.577,4.369,4.369,0,0,1,.258.538c.072.213.009.434.069.646.055.193.221.316.242.524a2.346,2.346,0,0,1-.053.544,1.27,1.27,0,0,0,.025.565c.066.2.227.367.272.576.051.235-.007.479.026.716a1.165,1.165,0,0,0,.108.328c.051.113-.016.21-.033.326a2.864,2.864,0,0,0,.095.716s0,.011,0,.015a1.415,1.415,0,0,0,.228-.428.877.877,0,0,1-.023-.2c0-.115.061-.218.066-.333a.64.64,0,0,0-.086-.3A.827.827,0,0,1,364.074,295.267Z" transform="translate(-359.626 -285.968)"/><path class="ak" d="M356.58,301.619a.79.79,0,0,0-.089-.124c-.066-.091-.135-.175-.208-.261a1.184,1.184,0,0,1-.295-.456c-.048-.2.033-.39-.07-.579-.07-.127-.233-.236-.256-.383a1.042,1.042,0,0,1,.019-.241.538.538,0,0,0-.041-.284.984.984,0,0,0-.158-.192.387.387,0,0,1-.088-.2,2.69,2.69,0,0,1,.023-.539,1.588,1.588,0,0,0-.058-.551c-.055-.191-.139-.371-.2-.56a1.084,1.084,0,0,1-.034-.557.835.835,0,0,0-.038-.554c-.086-.166-.216-.3-.3-.469a1.658,1.658,0,0,1-.167-.574,4.266,4.266,0,0,0-.049-.615,1.5,1.5,0,0,0-.286-.51,2.429,2.429,0,0,1-.291-.521,2.638,2.638,0,0,1-.163-.657,2.06,2.06,0,0,0-.155-.652,3.53,3.53,0,0,1-.365-.779,2.009,2.009,0,0,0-.069.312c.023.057.047.113.074.166a2.4,2.4,0,0,1,.246.563c.047.213.039.433.076.647a2.7,2.7,0,0,0,.469,1.112,1.868,1.868,0,0,1,.16.235.819.819,0,0,1,.078.331,3.8,3.8,0,0,0,.05.621,1.919,1.919,0,0,0,.219.554c.093.158.265.312.277.5s-.071.389-.057.591a1.982,1.982,0,0,0,.152.564,1.792,1.792,0,0,1,.159.583c0,.184-.04.366-.052.549a.878.878,0,0,0,.1.525c.044.072.108.12.158.186s.027.167.017.253a.664.664,0,0,0,.177.551.453.453,0,0,1,.135.233c.013.111-.015.223,0,.335a1.19,1.19,0,0,0,.309.588c.054.065.109.13.166.193a2.192,2.192,0,0,0,.441.123A.273.273,0,0,0,356.58,301.619Z" transform="translate(-353.241 -290.469)"/><path class="ak" d="M360.087,297.113c.007.088.011.173.011.257a1.009,1.009,0,0,0,.331-.059c-.008-.211-.032-.422-.049-.632a4.6,4.6,0,0,0-.177-1.281,1.184,1.184,0,0,0-.145-.266.8.8,0,0,1-.158-.263,2.3,2.3,0,0,1-.031-.63,1.98,1.98,0,0,0-.06-.622,2.108,2.108,0,0,0-.3-.508.954.954,0,0,1-.072-.589,1.6,1.6,0,0,0-.1-.643,4.278,4.278,0,0,1-.206-.614c-.038-.194-.054-.392-.095-.586a1.567,1.567,0,0,0-.226-.568c-.11-.16-.275-.271-.383-.431a1.744,1.744,0,0,1-.16-.618,1.788,1.788,0,0,0-.24-.545,1.676,1.676,0,0,1-.271-.578,5.869,5.869,0,0,0-.053-.68.752.752,0,0,0-.151-.283,1.079,1.079,0,0,1-.206-.274.885.885,0,0,1,.015-.518,1.393,1.393,0,0,0-.206.092,1.06,1.06,0,0,0-.031.254.743.743,0,0,0,.205.494.715.715,0,0,1,.162.245,1.008,1.008,0,0,1,.023.335,1.538,1.538,0,0,0,.061.573,3.148,3.148,0,0,0,.28.521,1.3,1.3,0,0,1,.189.548,1.216,1.216,0,0,0,.182.616c.108.153.267.264.369.421a3.723,3.723,0,0,1,.258,1.162c.054.211.147.406.214.613a1.622,1.622,0,0,1,.033.631.97.97,0,0,0,.14.613,1.465,1.465,0,0,1,.272.49,8.981,8.981,0,0,0,.09,1.237,1.244,1.244,0,0,0,.195.31.928.928,0,0,1,.136.3,3.732,3.732,0,0,1,.085.671Q360.055,296.71,360.087,297.113Z" transform="translate(-356.49 -286.146)"/></g></g><g transform="translate(16.118 7.559)"><path class="am" d="M259.444,269.525a1.936,1.936,0,1,1-1.27-2.426A1.936,1.936,0,0,1,259.444,269.525Z" transform="translate(-255.659 -266.888)"/><path class="ae" d="M262.351,266.762s-.672-.21-.918.24a1.183,1.183,0,0,0,.924.078,1.771,1.771,0,0,0,.166.816.705.705,0,0,0,.354-.627,1.236,1.236,0,0,0,.764,0,.964.964,0,0,0-.669-.473.646.646,0,0,0-.256-.528S262.345,266.444,262.351,266.762Z" transform="translate(-260.483 -266.27)"/></g><g transform="translate(14.126 9.9)"><path class="am" d="M246.954,283.062a1.7,1.7,0,1,1-1.576-1.823A1.7,1.7,0,0,1,246.954,283.062Z" transform="translate(-243.551 -281.114)"/><path class="ae" d="M248.494,281s-.618-.045-.738.39a1.041,1.041,0,0,0,.807-.119,1.557,1.557,0,0,0,.307.665.621.621,0,0,0,.177-.608,1.086,1.086,0,0,0,.654-.152.849.849,0,0,0-.668-.27.569.569,0,0,0-.326-.4S248.425,280.727,248.494,281Z" transform="translate(-247.064 -280.504)"/></g><g transform="translate(16.503 10.069)"><circle class="am" cx="1.936" cy="1.936" r="1.936" transform="translate(0 0.312) rotate(-4.629)"/><path class="ae" d="M263.439,282.285s-.7-.009-.811.492a1.183,1.183,0,0,0,.908-.189,1.772,1.772,0,0,0,.392.735.706.706,0,0,0,.16-.7,1.235,1.235,0,0,0,.732-.216.964.964,0,0,0-.776-.262.646.646,0,0,0-.4-.433A.626.626,0,0,0,263.439,282.285Z" transform="translate(-261.867 -281.68)"/></g><g transform="translate(14.475 11.949)"><circle class="am" cx="1.936" cy="1.936" r="1.936" transform="translate(0 1.298) rotate(-19.583)"/><path class="ae" d="M256.9,296.5s-.648-.275-.937.148a1.183,1.183,0,0,0,.912.169,1.772,1.772,0,0,0,.085.828.706.706,0,0,0,.414-.589,1.235,1.235,0,0,0,.76.077.964.964,0,0,0-.619-.536.646.646,0,0,0-.2-.551S256.928,296.187,256.9,296.5Z" transform="translate(-254.272 -295.542)"/></g><path class="an" d="M303.8,312.366l-1.232.779-.1,7.418,1.333.126.754-5.356Z" transform="translate(-278.648 -297.225)"/><rect class="ao" width="10.083" height="8.323" transform="translate(25.149 15.141)"/><path class="ap" d="M239.353,280.952a4.777,4.777,0,0,1,1.282.453s.151,4.9.075,5.507-1.4-.339-1.546-.377a10.466,10.466,0,0,1-.377-2.188C238.75,284.045,239.353,280.952,239.353,280.952Z" transform="translate(-225.443 -270.978)"/><path class="aq" d="M203.693,287.412s-.566-5.582-.679-5.7a27.481,27.481,0,0,1,6.45-.792s.113,4.413.075,5.7S203.693,287.412,203.693,287.412Z" transform="translate(-195.554 -270.951)"/><circle class="ar" cx="5.393" cy="5.393" r="5.393" transform="translate(7.668 12.878)"/><g transform="translate(7.692 12.901)"><path class="as" d="M224.925,313.205a.754.754,0,0,0,.174-.328.875.875,0,0,0,.018-.178,1.983,1.983,0,0,1-.035-.242c.026-.015.063-.031.077-.038a2.607,2.607,0,0,0,.288-.144,1.292,1.292,0,0,0,.462-.525,1.267,1.267,0,0,0,.111-.357,1.356,1.356,0,0,1,.036-.368c.058-.115.26-.18.363-.249a1.389,1.389,0,0,0,.506-.57,2.679,2.679,0,0,1,.306-.595c.158-.192.357-.347.517-.538a2.132,2.132,0,0,0,.476-1.487.966.966,0,0,1,.171-.642,5.745,5.745,0,0,0,.444-.6,1.862,1.862,0,0,0,.21-.7,2.7,2.7,0,0,0-.089-.784.276.276,0,0,1,.1-.289,1.244,1.244,0,0,0,.318-.686,5.413,5.413,0,0,0-.584-.416.729.729,0,0,1-.02.382c-.061.174-.2.261-.321.392a.837.837,0,0,0-.194.733,2.092,2.092,0,0,1,.076.631,1.193,1.193,0,0,1-.258.574,2.053,2.053,0,0,0-.591,1.244,2.908,2.908,0,0,1-.04.672,1.258,1.258,0,0,1-.323.546c-.156.162-.328.308-.472.481a2.4,2.4,0,0,0-.343.6.8.8,0,0,1-.3.4,2.61,2.61,0,0,0-.483.339.957.957,0,0,0-.256.638.6.6,0,0,1-.166.463c-.159.146-.39.181-.556.326a.729.729,0,0,0-.228.694c.018.128.056.086-.05.154s-.23.123-.344.182l-.143.076a5.35,5.35,0,0,0,1.016.335A.979.979,0,0,0,224.925,313.205Z" transform="translate(-220.594 -302.693)"/><path class="as" d="M242.954,313.808a1.4,1.4,0,0,0,.258-.654,1.332,1.332,0,0,0,0-.336c-.016-.136-.077-.265-.091-.4-.026-.239.164-.486.243-.7a2.12,2.12,0,0,0,.118-.547,5.4,5.4,0,0,0-.811-1.246,3.919,3.919,0,0,0,.125.469,1.672,1.672,0,0,1-.133,1.265,1.961,1.961,0,0,0-.23.589,4.521,4.521,0,0,0,.068.714c0,.429-.408.673-.638.988a2.924,2.924,0,0,0-.4,1.141,2.164,2.164,0,0,1-.141.47,1.468,1.468,0,0,1-.4.445,2.108,2.108,0,0,0-.6,1.1.923.923,0,0,1-.259.487,1.4,1.4,0,0,1-.5.226.739.739,0,0,0-.479.419c-.068.189.023.4-.119.551a.749.749,0,0,1-.062.054,5.387,5.387,0,0,0,.854-.116s0,0,0-.007a1.853,1.853,0,0,0-.02-.242.745.745,0,0,0,.142-.05,1.706,1.706,0,0,0,.585-.337,1.416,1.416,0,0,0,.341-.521c.083-.214.113-.458.216-.663.092-.184.291-.276.445-.4a1.9,1.9,0,0,0,.449-.487,4.525,4.525,0,0,0,.374-1.217,1.3,1.3,0,0,1,.228-.495C242.656,314.134,242.822,313.988,242.954,313.808Z" transform="translate(-233.231 -308.086)"/><path class="as" d="M207.1,301.705c.138-.318.02-.709.239-.987a3.349,3.349,0,0,1,.673-.542,1.79,1.79,0,0,0,.689-.82,1.951,1.951,0,0,1,.077-.306c.05-.089.178-.132.267-.176s.185-.086.279-.127a5.371,5.371,0,0,0-1.188.243,1.593,1.593,0,0,1-.051.171.831.831,0,0,1-.229.312c-.462.432-1.158.686-1.275,1.385a2.367,2.367,0,0,1-.078.6,1.024,1.024,0,0,1-.267.322c-.248.222-.54.394-.77.637a1.445,1.445,0,0,0-.4,1,.879.879,0,0,1-.154.569,5.424,5.424,0,0,0-.417.534c-.021.036-.037.073-.055.11a5.357,5.357,0,0,0,.456,1.716,6.282,6.282,0,0,1,.076-1.2c.1-.406.444-.633.627-.994a1.426,1.426,0,0,0,.135-.626.94.94,0,0,1,.1-.516C206.161,302.486,206.837,302.3,207.1,301.705Z" transform="translate(-204.437 -298.747)"/><path class="as" d="M214.9,308.735a3.272,3.272,0,0,1-.044-.359,1.9,1.9,0,0,1,.324-1.185,2.775,2.775,0,0,0,.494-1.216c.04-.389-.062-.874.165-1.218s.6-.54.792-.913.232-.828.4-1.227a3.035,3.035,0,0,1,.7-1,2.845,2.845,0,0,0,.828-1.013c.156-.427.147-.849.475-1.2a1.585,1.585,0,0,1,.437-.329,5.361,5.361,0,0,0-.929-.2,2.17,2.17,0,0,0-.5.749,5.8,5.8,0,0,0-.162.633,1.114,1.114,0,0,1-.368.538,5.226,5.226,0,0,0-.921,1.033,4.759,4.759,0,0,0-.5,1.307,1.273,1.273,0,0,1-.251.52c-.148.168-.33.3-.478.47a1.951,1.951,0,0,0-.433,1.331,2.962,2.962,0,0,1-.044.628,2.085,2.085,0,0,1-.308.617,2.828,2.828,0,0,0-.49,1.364A5.413,5.413,0,0,0,214.9,308.735Z" transform="translate(-212.486 -298.855)"/></g><path class="at" d="M262.132,300.635c.329.585,1.169.754,3.47.754s3.13-.076,3.47-.377.226-5.129-.076-7.091a4.815,4.815,0,0,0-2.187-3.658v-1.056h-1.773v1.018s-1.471-.038-2.225,3.017S261.793,300.032,262.132,300.635Z" transform="translate(-244.828 -277.875)"/><rect class="au" width="2.364" height="0.955" rx="0.478" transform="translate(19.882 10.64)"/><rect class="av" width="1.898" height="0.83" rx="0.415" transform="translate(24.351 10.112)"/><rect class="n" width="4.727" height="2.766" rx="1.383" transform="translate(18.731 16.599)"/><path class="z" d="M223.682,246.046a.166.166,0,0,0-.043-.074l-.034-.026a.167.167,0,0,0-.084-.023h-.02a.126.126,0,0,0-.064.014.122.122,0,0,0-.054.035.125.125,0,0,0-.035.054.126.126,0,0,0-.014.064l.006.044a.166.166,0,0,0,.043.074l.034.026a.165.165,0,0,0,.084.023h.02a.171.171,0,0,0,.167-.167Z" transform="translate(-212.533 -241.711)"/><path class="z" d="M226.584,248.852a.383.383,0,0,0-.1-.17l-.078-.06a.385.385,0,0,0-.195-.053.292.292,0,0,0-.149.033.4.4,0,0,0-.237.352l.014.1a.385.385,0,0,0,.1.17l.078.06a.383.383,0,0,0,.195.053.4.4,0,0,0,.386-.386Z" transform="translate(-214.616 -243.921)"/><path class="z" d="M230.509,254.366a.212.212,0,0,0-.054-.093l-.043-.033a.213.213,0,0,0-.107-.029.218.218,0,0,0-.212.212l.008.056a.212.212,0,0,0,.055.094l.043.033a.209.209,0,0,0,.107.029.218.218,0,0,0,.212-.212Z" transform="translate(-218.18 -248.635)"/><path class="y" d="M229.78,240.339a.334.334,0,0,0-.086-.148l-.068-.052a.334.334,0,0,0-.169-.046.344.344,0,0,0-.335.335l.012.089a.336.336,0,0,0,.086.148l.068.052a.333.333,0,0,0,.169.046.253.253,0,0,0,.129-.029.344.344,0,0,0,.206-.306Z" transform="translate(-217.369 -236.84)"/><path class="y" d="M234.027,244.408a.191.191,0,0,0-.049-.085l-.039-.03a.192.192,0,0,0-.1-.026.2.2,0,0,0-.192.192l.007.051a.19.19,0,0,0,.049.085l.039.03a.189.189,0,0,0,.1.026.144.144,0,0,0,.074-.016.2.2,0,0,0,.118-.175Z" transform="translate(-221.153 -240.328)"/><path class="y" d="M236.034,239.945a.271.271,0,0,0-.07-.12l-.055-.042a.27.27,0,0,0-.137-.037.2.2,0,0,0-.1.024.2.2,0,0,0-.087.056.3.3,0,0,0-.08.192l.01.072a.271.271,0,0,0,.07.12l.055.042a.269.269,0,0,0,.137.037.3.3,0,0,0,.192-.08.3.3,0,0,0,.079-.192Z" transform="translate(-222.698 -236.549)"/><path class="al" d="M328.2,241.961c.054-.3.528-.05.5.176a2.187,2.187,0,0,1-.4.981,1.472,1.472,0,0,1,.352,1.333.588.588,0,0,1-.509-.368s-.226.075-.578.226a1.439,1.439,0,0,1-.1-.679,1.314,1.314,0,0,1-.849-.185,1.7,1.7,0,0,1,1.106-.428A2.908,2.908,0,0,0,328.2,241.961Z" transform="translate(-298.829 -238.285)"/><path class="s" d="M242.147,368.01a13.315,13.315,0,0,1-.276,3.746c-.427,1.307-1.025,2.571-1.1,3.149s-.258,2.558-.258,2.558l-1.182-.83a10.566,10.566,0,0,1,.679-3.143,13.59,13.59,0,0,0,1.081-5.481Z" transform="translate(-225.899 -343.717)"/><g transform="translate(18.685 12.902)"><path class="aw" d="M272.679,298.965a.3.3,0,0,0-.277-.211c-.211-.021-.377.212-.5.357a2.793,2.793,0,0,0-.314.462c-.086.163-.161.332-.231.5a.637.637,0,0,0,.027.713.332.332,0,0,0,.324.086c.261-.069.332-.32.414-.543.013-.036.027-.072.041-.108l.016-.039h0v0l.006-.014c.017-.041.011-.015,0,0a.763.763,0,0,0,.039-.094q.027-.059.056-.118c.069-.139.137-.278.206-.416C272.576,299.379,272.751,299.158,272.679,298.965Z" transform="translate(-271.266 -298.753)"/><path class="aw" d="M276.849,307.4l.007-.011a.083.083,0,0,1-.007.01Z" transform="translate(-275.931 -305.973)"/></g><path class="aw" d="M270.782,313.685c0-.008,0-.016-.005-.025a.263.263,0,0,0-.037-.112.494.494,0,0,0-.047-.06l-.007-.006-.013-.012-.049-.038a.181.181,0,0,0-.091-.029.12.12,0,0,0-.065,0,.18.18,0,0,0-.091.029.3.3,0,0,0-.083.059.326.326,0,0,0-.075.128l0,.011-.008.028-.006.025a.345.345,0,0,0,0,.174c0,.009.006.018.009.027l0,.011a.216.216,0,0,0,.051.1.144.144,0,0,0,.026.032.315.315,0,0,0,.2.083l.075-.01a.282.282,0,0,0,.125-.073l0,0a.215.215,0,0,0,.059-.092.278.278,0,0,0,.017-.042l.007-.024,0-.014c0-.014,0-.028.006-.043A.229.229,0,0,0,270.782,313.685Z" transform="translate(-251.683 -298.087)"/><path class="at" d="M279.74,286.586a1.389,1.389,0,0,0-.033-.232.083.083,0,0,0-.161,0,1.137,1.137,0,0,0-.012.212c0,.037.006.074.011.11a.215.215,0,0,0,.032.1.081.081,0,0,0,.024.046.074.074,0,0,0,.089.012c.048-.027.05-.09.052-.141S279.742,286.623,279.74,286.586Z" transform="translate(-259.488 -275.439)"/><path class="at" d="M281.94,286.586a1.371,1.371,0,0,0-.033-.232.083.083,0,0,0-.161,0,1.137,1.137,0,0,0-.012.212c0,.037.006.074.011.11a.214.214,0,0,0,.032.1.081.081,0,0,0,.024.046.074.074,0,0,0,.089.012c.048-.027.05-.09.052-.141S281.942,286.623,281.94,286.586Z" transform="translate(-261.326 -275.439)"/><path class="at" d="M284.139,286.586a1.39,1.39,0,0,0-.033-.232.083.083,0,0,0-.161,0,1.14,1.14,0,0,0-.012.212c0,.037.006.074.011.11a.214.214,0,0,0,.032.1.08.08,0,0,0,.024.046.074.074,0,0,0,.089.012c.048-.027.05-.09.052-.141S284.141,286.623,284.139,286.586Z" transform="translate(-263.164 -275.439)"/><path class="at" d="M286.339,286.586a1.374,1.374,0,0,0-.033-.232.082.082,0,0,0-.161,0,1.137,1.137,0,0,0-.012.212c0,.037.006.074.011.11a.217.217,0,0,0,.032.1.081.081,0,0,0,.024.046.074.074,0,0,0,.089.012c.048-.027.05-.09.052-.141S286.341,286.623,286.339,286.586Z" transform="translate(-265.002 -275.439)"/><path class="at" d="M288.539,286.586a1.39,1.39,0,0,0-.033-.232.083.083,0,0,0-.161,0,1.124,1.124,0,0,0-.012.212c0,.037.006.074.011.11a.214.214,0,0,0,.032.1.08.08,0,0,0,.024.046.074.074,0,0,0,.089.012c.048-.027.05-.09.051-.141S288.541,286.623,288.539,286.586Z" transform="translate(-266.84 -275.439)"/><path class="at" d="M290.738,286.586a1.39,1.39,0,0,0-.033-.232.083.083,0,0,0-.161,0,1.14,1.14,0,0,0-.012.212c0,.037.006.074.011.11a.214.214,0,0,0,.032.1.08.08,0,0,0,.024.046.074.074,0,0,0,.089.012c.048-.027.05-.09.052-.141S290.74,286.623,290.738,286.586Z" transform="translate(-268.677 -275.439)"/><path class="n" d="M303.271,294.159a.318.318,0,0,0-.306-.072.535.535,0,0,0-.208.129,2.37,2.37,0,0,0-.189.186,1.648,1.648,0,0,0-.193.271q-.035.059-.067.12a.5.5,0,0,0-.046.352.327.327,0,0,0,.477.194.51.51,0,0,0,.174-.167c.016-.029.027-.062.042-.093q.045-.095.1-.186a3.532,3.532,0,0,1,.2-.351l-.046.059c.033-.041.065-.083.094-.126l-.041.053a.31.31,0,0,0,.074-.129A.255.255,0,0,0,303.271,294.159Z" transform="translate(-278.468 -281.944)"/><path class="av" d="M283.044,325.063a.8.8,0,0,0-.2-.351l-.161-.125a.793.793,0,0,0-.4-.109.818.818,0,0,0-.8.8l.028.212a.8.8,0,0,0,.2.351l.161.125a.793.793,0,0,0,.4.109.818.818,0,0,0,.8-.8Z" transform="translate(-261.114 -307.345)"/><path class="ax" d="M232.957,300.138a.223.223,0,0,0-.053-.1.149.149,0,0,0-.053-.054.225.225,0,0,0-.1-.053.356.356,0,0,0-.174,0l-.029.006a.321.321,0,0,0-.123.049c-.032.022-.063.045-.094.068l-.048.036-.083.064a.4.4,0,0,0-.072.087.365.365,0,0,0-.068.2c0,.014,0,.029,0,.043a.222.222,0,0,0,.025.113.22.22,0,0,0,.061.094l.059.046a.292.292,0,0,0,.148.04l.045,0a.385.385,0,0,0,.209-.064.883.883,0,0,0,.147-.125l.082-.076a.339.339,0,0,0,.077-.106l.013-.027a.354.354,0,0,0,.045-.165Z" transform="translate(-219.821 -286.825)"/><path class="ax" d="M230.636,305.68a.3.3,0,0,0-.125-.163l-.065-.027a.275.275,0,0,0-.145,0l-.065.027a.274.274,0,0,0-.075.068.21.21,0,0,0-.034.044h0a.2.2,0,0,0-.018.038l-.014.034c0,.008-.01.066-.01.075s0,0,0,.005,0,.012,0,.019a.25.25,0,0,0,.034.127.19.19,0,0,0,.065.07.188.188,0,0,0,.085.045.252.252,0,0,0,.133,0l.014,0a.178.178,0,0,0,.046-.016.193.193,0,0,0,.091-.059l.046-.06.011-.014a.2.2,0,0,0,.032-.1A.206.206,0,0,0,230.636,305.68Z" transform="translate(-218.173 -291.471)"/><path class="ax" d="M215.172,306.539a.2.2,0,0,0-.006-.038.3.3,0,0,0-.012-.031.152.152,0,0,0-.042-.065.2.2,0,0,0-.09-.052.215.215,0,0,0-.139-.006.118.118,0,0,0-.033.013.176.176,0,0,0-.076.049l-.015.012q-.033.027-.063.055l-.029.028-.013.013a.287.287,0,0,0-.069.118l-.011.036,0,.017a.268.268,0,0,0,0,.13.248.248,0,0,0,.1.132l.053.022a.223.223,0,0,0,.118,0,.245.245,0,0,0,.088-.042l.02-.012a.256.256,0,0,0,.079-.072c.021-.027.04-.056.061-.083l.01-.012.008-.01a.176.176,0,0,0,.049-.076.152.152,0,0,0,.013-.033A.176.176,0,0,0,215.172,306.539Z" transform="translate(-205.204 -292.188)"/><path class="ax" d="M245.829,304.314l-.013-.1v0l-.007-.02-.034-.08a.254.254,0,0,0-.086-.094.169.169,0,0,0-.074-.043.253.253,0,0,0-.129-.029h-.016c-.018,0-.033,0-.054.007a.117.117,0,0,0-.053.008l-.088.037-.075.058,0,0-.011.011-.02.02a1.039,1.039,0,0,0-.127.165.289.289,0,0,0-.047.146.4.4,0,0,0,.187.39l.094.039a.393.393,0,0,0,.208,0l.094-.039a.4.4,0,0,0,.141-.141l.027-.048a1.019,1.019,0,0,0,.059-.139c.006-.016.013-.033.019-.049l.013-.1Z" transform="translate(-230.619 -290.191)"/><path class="ax" d="M258.065,311.1c0-.031-.008-.062-.012-.093l0-.029a.2.2,0,0,0-.017-.055.507.507,0,0,0-.041-.077.253.253,0,0,0-.082-.082l-.054-.023a.173.173,0,0,0-.091,0,.226.226,0,0,0-.108.045.222.222,0,0,0-.082.118c0,.017-.009.035-.013.052a.353.353,0,0,0,0,.118.374.374,0,0,0,.038.171.391.391,0,0,0,.067.078.222.222,0,0,0,.155.064.211.211,0,0,0,.155-.064c.02-.026.042-.051.06-.078l.025-.06.009-.067A.105.105,0,0,0,258.065,311.1Z" transform="translate(-241.124 -295.863)"/><path class="ay" d="M252.812,295.842c-.144-.1-.368-.037-.53,0a2.526,2.526,0,0,0-.538.174,2.414,2.414,0,0,0-.706.487.567.567,0,0,0-.157.206.04.04,0,0,0,.057.044.922.922,0,0,0,.185-.165,2.289,2.289,0,0,1,.215-.179,2.6,2.6,0,0,1,.461-.269,2.374,2.374,0,0,1,.5-.162,2.282,2.282,0,0,1,.275-.039.433.433,0,0,0,.232-.058A.02.02,0,0,0,252.812,295.842Z" transform="translate(-235.548 -283.374)"/><path class="ay" d="M266.458,297.7c-.025-.047-.046-.1-.075-.14a1.163,1.163,0,0,0-.246-.25c-.043-.036-.091-.065-.136-.1a1.411,1.411,0,0,0-.134-.091.466.466,0,0,0-.3-.088.028.028,0,0,0-.012.046.5.5,0,0,0,.115.073,1.264,1.264,0,0,1,.13.081c.04.028.079.056.116.087s.073.073.112.108a1.12,1.12,0,0,1,.211.215c.027.043.048.089.072.133a.684.684,0,0,0,.037.062c.008.012.017.023.025.034s.021.03.012.016a.074.074,0,0,0,.1.026l.006,0a.077.077,0,0,0,.038-.067C266.532,297.788,266.481,297.742,266.458,297.7Z" transform="translate(-247.804 -284.408)"/><path class="ay" d="M257.1,281.2a.244.244,0,0,0-.151-.027.972.972,0,0,0-.184.07,1.824,1.824,0,0,0-.329.189c-.02.015-.039.031-.058.047a.071.071,0,0,0-.008-.018,1.447,1.447,0,0,0-.576-.461,1.535,1.535,0,0,0-.361-.114q-.092-.015-.186-.024a.189.189,0,0,0-.148.019.046.046,0,0,0,.02.076,3.422,3.422,0,0,1,.623.193,1.72,1.72,0,0,1,.5.411.072.072,0,0,0,.022.015,1.831,1.831,0,0,0-.338.411,1.89,1.89,0,0,0-.25.749c-.008.071-.039.673.124.6.08-.036.039-.177.036-.242a2.058,2.058,0,0,1,.011-.357,1.7,1.7,0,0,1,.246-.691,1.673,1.673,0,0,1,.46-.481,1.76,1.76,0,0,1,.289-.164c.051-.023.1-.038.156-.061a.31.31,0,0,0,.115-.1A.023.023,0,0,0,257.1,281.2Z" transform="translate(-239.061 -270.896)"/><path class="ay" d="M272.094,282.662a2.031,2.031,0,0,0-.671-.38,1.733,1.733,0,0,0-.373-.081c-.034,0-.291-.036-.268.047.011.039.056.043.091.048.057.008.114.016.171.027a2.411,2.411,0,0,1,.343.089,1.949,1.949,0,0,1,.612.346.069.069,0,0,0,.082.011.085.085,0,0,0,.024-.024A.069.069,0,0,0,272.094,282.662Z" transform="translate(-252.176 -272.014)"/><path class="ay" d="M249.2,281.036a.115.115,0,0,0-.091-.029.849.849,0,0,0-.1.013,1.31,1.31,0,0,0-.168.041,1.435,1.435,0,0,0-.166.065.288.288,0,0,0-.148.1.048.048,0,0,0,.041.072.418.418,0,0,0,.161-.059,1.257,1.257,0,0,1,.147-.052,1.336,1.336,0,0,1,.158-.035c.055-.009.121,0,.161-.048A.051.051,0,0,0,249.2,281.036Z" transform="translate(-233.581 -271.024)"/><path class="az" d="M253.61,283.521a.06.06,0,0,0-.01-.023.1.1,0,0,0-.131-.034.1.1,0,0,0-.034.034.033.033,0,0,0-.005.012.072.072,0,0,0-.008.037h0a.072.072,0,0,0,.008.037.049.049,0,0,0,.012.021l.008.01h0a.068.068,0,0,0,.03.02.071.071,0,0,0,.036.008l.025,0a.093.093,0,0,0,.042-.024h0a.073.073,0,0,0,.02-.031.049.049,0,0,0,.007-.024.031.031,0,0,0,0-.013Z" transform="translate(-237.671 -273.065)"/><path class="az" d="M262.722,299.59a.115.115,0,0,0-.03-.051l-.023-.018a.116.116,0,0,0-.058-.016.087.087,0,0,0-.044.01.118.118,0,0,0-.07.1l0,.03a.116.116,0,0,0,.03.051l.023.018a.114.114,0,0,0,.058.016.125.125,0,0,0,.081-.034.127.127,0,0,0,.034-.081Z" transform="translate(-245.254 -286.48)"/><path class="az" d="M269.354,285.362a.1.1,0,0,0-.026-.045l0,0a.072.072,0,0,0-.019-.012h0l0,0h0a.1.1,0,0,0-.052-.014.113.113,0,0,0-.072.03l-.016.02a.1.1,0,0,0-.014.051l0,.027a.1.1,0,0,0,.026.045l0,0h0l0,0a.076.076,0,0,0,.033.021.093.093,0,0,0,.079,0,.076.076,0,0,0,.033-.021l.016-.021a.1.1,0,0,0,.014-.051Z" transform="translate(-250.812 -274.597)"/><path class="ba" d="M246.176,273.358a.053.053,0,0,0-.1-.014c-.06.2-.08.416-.123.622q-.032.153-.073.3c-.024.089-.058.178-.076.269a.062.062,0,0,0-.008.042h0c.008.067.106.131.154.042a1.422,1.422,0,0,0,.1-.308q.042-.157.073-.316A2.106,2.106,0,0,0,246.176,273.358Z" transform="translate(-231.297 -264.59)"/><path class="ba" d="M236.227,261.509a.7.7,0,0,0-.38-.153,2.275,2.275,0,0,0-.866-.014,1.788,1.788,0,0,0-.217.052c-.054.016-.114.027-.145.078a.037.037,0,0,0,.013.049c.053.032.108,0,.164-.01s.127-.029.191-.041a2.169,2.169,0,0,1,.825.014,1.46,1.46,0,0,0,.39.086A.036.036,0,0,0,236.227,261.509Z" transform="translate(-221.958 -254.564)"/><path class="ba" d="M237.767,275.384a.357.357,0,0,0-.252-.094,2.31,2.31,0,0,0-.316-.013,2.333,2.333,0,0,0-.31.028,1.434,1.434,0,0,0-.145.028.249.249,0,0,0-.126.057.021.021,0,0,0,0,.033.231.231,0,0,0,.114.008c.049,0,.1-.009.146-.013.1-.008.2-.011.306-.01s.2.009.3.02a.474.474,0,0,0,.274-.007A.026.026,0,0,0,237.767,275.384Z" transform="translate(-223.627 -266.236)"/><path class="ba" d="M255.2,260.806a.448.448,0,0,0-.124-.078,2.388,2.388,0,0,0-.357-.123,2.6,2.6,0,0,0-.364-.072.647.647,0,0,0-.345.011.007.007,0,0,0,0,.012.893.893,0,0,0,.308.08c.108.021.216.047.323.077s.212.066.315.105c.045.017.09.033.134.053a.513.513,0,0,1,.137.076c.015.015.045,0,.038-.022A.291.291,0,0,0,255.2,260.806Z" transform="translate(-238.159 -253.903)"/><path class="ba" d="M251.2,275.1a1.492,1.492,0,0,0-.213-.1,1.24,1.24,0,0,0-.217-.062.5.5,0,0,0-.225,0,.01.01,0,0,0,0,.018,1.045,1.045,0,0,0,.194.08c.068.025.137.05.2.081a2.041,2.041,0,0,1,.189.1.391.391,0,0,0,.2.072.017.017,0,0,0,.017-.022A.284.284,0,0,0,251.2,275.1Z" transform="translate(-235.264 -265.937)"/><path class="bb" d="M205.755,257.551a5.717,5.717,0,0,1-1.02-.124c-.091-.021-.182-.044-.272-.068.113-.072.227-.141.344-.208a3.146,3.146,0,0,0,.774-.478.021.021,0,0,0-.015-.036,1.881,1.881,0,0,0-.829.326c-.178.1-.35.21-.52.322q-.243-.078-.48-.175a8.489,8.489,0,0,1-1.137-.582,8.183,8.183,0,0,1,1.04-.84c.147-.1.3-.193.451-.284.036-.022.082-.048.128-.077.166.079.334.155.5.226a3.472,3.472,0,0,0,.481.183c.115.028.279.026.341-.1a.036.036,0,0,0-.021-.053,6.527,6.527,0,0,1-.844-.3l-.287-.114a.229.229,0,0,0,.055-.143.048.048,0,0,0-.034-.045.419.419,0,0,0-.292.077c-.112-.047-.224-.094-.335-.145q-.434-.2-.854-.43c-.084-.046-.168-.095-.251-.144l.007,0a.78.78,0,0,0,.286-.262.061.061,0,0,0-.052-.091.771.771,0,0,0-.365.161l-.1.066c-.123-.072-.247-.142-.374-.2-.029-.014-.064.024-.037.048a3.139,3.139,0,0,0,.3.23l-.127.087c-.227.159-.451.324-.663.5a4.612,4.612,0,0,0-.585.58l-.006.008a1.136,1.136,0,0,0-.138-.065c-.012,0-.018.012-.011.019a1.106,1.106,0,0,0,.1.1c-.063.079-.124.159-.179.243a1.007,1.007,0,0,0-.187.365.058.058,0,0,0,.1.056,1.825,1.825,0,0,0,.239-.306c.062-.078.128-.153.195-.228.067.049.135.1.2.144q.223.164.446.325.262.188.53.368a7.773,7.773,0,0,0-.745.889c-.073.1-.14.209-.208.315l-.054-.022c-.28-.121-.549-.266-.826-.392-.007,0-.017.006-.009.012a4.762,4.762,0,0,0,.824.5l-.021.032a1.664,1.664,0,0,0-.227.48.037.037,0,0,0,.061.036,2.346,2.346,0,0,0,.275-.355l.081-.111a8.254,8.254,0,0,0,.908.374q.263.09.532.16c-.082.086-.207.2-.21.318a.015.015,0,0,0,.015.015c.123-.013.224-.143.311-.222l.073-.065c.111.026.223.05.335.071.082.015.164.028.247.039a.434.434,0,0,0,.265-.012.138.138,0,0,0,.026-.24.026.026,0,0,0-.039.022c0,.052-.39-.026-.438-.034s-.124-.024-.187-.035l.068-.061c.231-.2.468-.393.718-.57.055-.039.113-.076.169-.114.15.054.3.1.457.142a3.685,3.685,0,0,0,.62.11.5.5,0,0,0,.493-.179A.031.031,0,0,0,205.755,257.551Zm-3.884-1.484q-.252-.166-.5-.336c-.071-.048-.143-.1-.217-.151a6.237,6.237,0,0,1,.574-.539c.207-.171.424-.331.645-.484l.194-.131c.111.068.223.135.333.2q.443.263.9.494l.128.063c-.125.075-.249.151-.37.231a8.479,8.479,0,0,0-.763.575c-.149.126-.29.259-.427.395Q202.118,256.229,201.871,256.067Zm2.06,1.414a8.371,8.371,0,0,0-.724.585c-.058.053-.115.107-.171.162l-.022,0c-.3-.063-.592-.137-.883-.227-.215-.066-.426-.144-.635-.227.039-.053.077-.108.117-.16a8.794,8.794,0,0,1,.606-.7c.088-.093.178-.182.269-.271.06.039.119.079.18.117a8.737,8.737,0,0,0,1.323.687Z" transform="translate(-193.389 -248.45)"/><path class="w" d="M249.369,241.773c-.006-.025-.04-.017-.043.006a.8.8,0,0,1-.254.466,1.8,1.8,0,0,1-.5.287,1.965,1.965,0,0,0-.465.263.8.8,0,0,0-.215.254c-.012-.131-.024-.262-.029-.393a2.447,2.447,0,0,1,.124-.864,2.412,2.412,0,0,1,.191-.424q.051-.09.108-.175c.023-.034.09-.159.138-.151a.011.011,0,0,0,.014-.011c-.006-.085-.109-.045-.148-.009a1.428,1.428,0,0,0-.254.381,2.526,2.526,0,0,0-.206.532l-.009-.012a.518.518,0,0,1-.064-.156.532.532,0,0,1-.006-.168c0-.028.006-.056.01-.083s.015-.055.017-.082a.016.016,0,0,0-.023-.013.208.208,0,0,0-.066.069.281.281,0,0,0-.041.091.467.467,0,0,0,0,.211.475.475,0,0,0,.086.187.345.345,0,0,0,.067.066,2.546,2.546,0,0,0-.045.266,5.9,5.9,0,0,0,.034,1.015,2.837,2.837,0,0,1,0,.483c0,.009,0,.017,0,.025-.046-.075-.112-.144-.156-.21a.446.446,0,0,1-.067-.233,1.515,1.515,0,0,0-.031-.251.018.018,0,0,0-.033,0,.566.566,0,0,0,0,.505,1.413,1.413,0,0,0,.164.214,1.085,1.085,0,0,1,.077.119c.005.009.011.015.016.023a1.353,1.353,0,0,0-.06.3c0,.021.024.026.037.015.2-.157.2-.523.2-.755,0-.113-.01-.226-.02-.338a.041.041,0,0,0,.025-.016,2.216,2.216,0,0,1,.145-.219.993.993,0,0,1,.209-.171,4.889,4.889,0,0,1,.523-.253,1.237,1.237,0,0,0,.447-.325.65.65,0,0,0,.125-.221A.454.454,0,0,0,249.369,241.773Z" transform="translate(-232.669 -237.582)"/><path class="w" d="M269.178,251.784a.515.515,0,0,0-.16.058.68.68,0,0,0-.134.117,1.021,1.021,0,0,0-.195.324,1.446,1.446,0,0,0-.078.4c-.005.067,0,.134-.009.2,0,.038-.008.079-.009.119-.074.05-.152.094-.229.138l-.124.068a.289.289,0,0,0-.1.073.008.008,0,0,0,0,.012.247.247,0,0,0,.132-.015,1.037,1.037,0,0,0,.128-.047.5.5,0,0,0,.392.207.185.185,0,0,0,.152-.051.02.02,0,0,0-.009-.032.2.2,0,0,0-.042-.009.455.455,0,0,0-.125-.007.624.624,0,0,1-.125-.022.6.6,0,0,1-.2-.106,1.755,1.755,0,0,0,.241-.137,2.034,2.034,0,0,0,.243-.188.29.29,0,0,0,.118-.243.021.021,0,0,0-.038-.01,1.032,1.032,0,0,1-.189.187c-.04.035-.083.066-.125.1.007-.042.008-.086.01-.117a1.8,1.8,0,0,1,.068-.4.927.927,0,0,1,.172-.331,1.482,1.482,0,0,1,.121-.124c.044-.041.08-.088.125-.128A.017.017,0,0,0,269.178,251.784Z" transform="translate(-249.969 -246.608)"/><g transform="translate(16.962 2.906)"><path class="bc" d="M267.256,239.627h0Z" transform="translate(-266.193 -239.356)"/><path class="bc" d="M267.272,239.633h0l.012.005Z" transform="translate(-266.204 -239.361)"/><path class="bc" d="M263.173,238.721c-.018-.006-.035-.009-.053-.014a.029.029,0,0,0-.036.028v0c-.035.012-.07.025-.106.035a.719.719,0,0,1-.2.022.793.793,0,0,1-.37-.127.393.393,0,0,0-.343-.048.925.925,0,0,0-.17.106,2.975,2.975,0,0,1,.21-.436l0,0c.017-.024,0-.053-.028-.062-.043-.015-.078.022-.1.055s-.024.044-.036.067a.418.418,0,0,1-.04-.042l-.008-.011-.006-.01-.011-.014a.069.069,0,0,0-.027-.016.051.051,0,0,0-.042,0,.049.049,0,0,0-.029.033l0,.011a.073.073,0,0,0,0,.033.075.075,0,0,0,.009.019l.015.023a.346.346,0,0,0,.046.052.255.255,0,0,0,.039.028q-.037.073-.073.146c-.053.107-.1.214-.148.324-.019.046-.042.095-.059.144-.036-.023-.076-.039-.113-.06a.885.885,0,0,1-.134-.092,1.9,1.9,0,0,1-.248-.252.86.86,0,0,1-.167-.308.622.622,0,0,1-.023-.169,1.559,1.559,0,0,0-.014-.184.018.018,0,0,0-.031-.013.246.246,0,0,0-.087.16.612.612,0,0,0,.014.205.95.95,0,0,0,.181.37,1.677,1.677,0,0,0,.284.293.507.507,0,0,0,.315.144.26.26,0,0,0,0,.09.02.02,0,0,0,.028.012.452.452,0,0,0,.14-.222c.031-.077.065-.153.1-.23.074.056.218-.081.293-.091.127-.017.24.1.348.146a.808.808,0,0,0,.352.08.517.517,0,0,0,.351-.11A.069.069,0,0,0,263.173,238.721Z" transform="translate(-260.791 -237.982)"/></g><path class="bc" d="M262.284,246.449l0,0,0-.009-.006-.008,0,0,0,0-.01-.014-.007-.009,0,0-.005-.007c-.005-.007-.01-.015-.016-.021l-.012-.013-.006-.007v0a.2.2,0,0,0-.015-.019l-.012-.013-.011-.013,0-.005,0,0-.019-.026c-.007-.01-.014-.02-.02-.03a.016.016,0,0,0-.029.008.39.39,0,0,0,0,.039.166.166,0,0,0,0,.024l0,.01s0,.01,0,.005,0,0,0,0v.01l0,.01c0,.007,0,.013.006.02a.174.174,0,0,0,.021.042.209.209,0,0,0,.03.038.262.262,0,0,0,.038.028l.019.01.011,0,.011,0a.058.058,0,0,0,.028,0,.024.024,0,0,0,.02-.018A.037.037,0,0,0,262.284,246.449Z" transform="translate(-244.919 -241.97)"/><path class="bc" d="M269.058,247.143a.147.147,0,0,0-.064,0,.254.254,0,0,0-.076.025l-.127.068c-.041.022-.083.041-.124.064a.354.354,0,0,0-.115.087.027.027,0,0,0,.016.04.293.293,0,0,0,.14-.018,1.162,1.162,0,0,0,.143-.06,1.369,1.369,0,0,0,.128-.067.235.235,0,0,0,.058-.049.151.151,0,0,0,.034-.064A.021.021,0,0,0,269.058,247.143Z" transform="translate(-250.311 -242.726)"/><path class="ab" d="M333.951,322.862a2.022,2.022,0,0,0-.52-.893l-.409-.316a2.014,2.014,0,0,0-1.021-.276,2.08,2.08,0,0,0-2.023,2.023l.072.538a2.019,2.019,0,0,0,.52.893l.41.316a2.015,2.015,0,0,0,1.021.276,2.079,2.079,0,0,0,2.023-2.023Z" transform="translate(-301.634 -304.753)"/><path class="bd" d="M337.556,326.247a.138.138,0,0,0-.089-.024c.006-.024.013-.048.019-.071a1.744,1.744,0,0,0,.035-.184,1.779,1.779,0,0,0,.016-.189.2.2,0,0,0-.033-.15.117.117,0,0,0-.153.006,1.8,1.8,0,0,0-.142.113q-.068.059-.131.124a.665.665,0,0,0-.066.077c0-.048-.007-.1-.014-.143a.054.054,0,0,0-.089-.023,1.251,1.251,0,0,0-.272.391,1.288,1.288,0,0,0-.074.213l-.009.037a1.818,1.818,0,0,0-.057-.192.063.063,0,0,0-.092-.037.919.919,0,0,0-.3.384.823.823,0,0,0-.063.233.7.7,0,0,0,0,.091,1.12,1.12,0,0,0-.105-.152.935.935,0,0,0-.2-.177.12.12,0,0,0-.13-.015.139.139,0,0,0-.052.121,1.38,1.38,0,0,0,.055.632,1.136,1.136,0,0,0,.176.282l.108.134a.787.787,0,0,0,.05.063h0l-.1.138c-.032.045-.064.089-.095.135a.321.321,0,0,0-.042.077.148.148,0,0,0,0,.077.022.022,0,0,0,.027.015.14.14,0,0,0,.073-.029.352.352,0,0,0,.058-.067c.033-.046.066-.092.1-.139l.093-.136.005-.008a.744.744,0,0,0,.176.091,1.071,1.071,0,0,0,.424.067.824.824,0,0,0,.654-.361.072.072,0,0,0-.026-.1,1.223,1.223,0,0,0-.188-.067c.018-.018.036-.037.051-.055.052-.058.1-.118.15-.181a.755.755,0,0,0,.168-.425.1.1,0,0,0-.059-.1c.023-.027.046-.053.066-.082a1.129,1.129,0,0,0,.076-.125.454.454,0,0,0,.054-.133A.138.138,0,0,0,337.556,326.247Zm-.541-.2a.462.462,0,0,0,.113-.093q.051-.052.105-.1c.038-.033.076-.065.116-.1.02-.015.041-.031.062-.045l.021-.01h0c-.006.043,0,.09,0,.133a1.555,1.555,0,0,1-.021.159c-.009.049-.021.1-.034.146s-.025.075-.036.113l-.023.011c-.045.024-.09.049-.133.077a1.975,1.975,0,0,0-.221.166A1.683,1.683,0,0,0,337.015,326.048Zm-.424.586a.024.024,0,0,0,.01-.01.943.943,0,0,0,.049-.194,1.164,1.164,0,0,1,.076-.216,1.206,1.206,0,0,1,.178-.266,1.576,1.576,0,0,1-.052.527,1.6,1.6,0,0,1-.112.292,1.285,1.285,0,0,0-.128.254c-.013.011-.027.02-.039.031A1.378,1.378,0,0,0,336.591,326.634Zm-.487.374h0l0,0h0a.041.041,0,0,0,.013-.019.392.392,0,0,0,.03-.142.959.959,0,0,1,.053-.2.785.785,0,0,1,.2-.288,1.388,1.388,0,0,1,.056.624,1.065,1.065,0,0,1-.1.306,1,1,0,0,1-.076.127.486.486,0,0,1-.1.117h0c0-.013,0-.027,0-.038a1.071,1.071,0,0,0-.025-.264,1.085,1.085,0,0,0-.073-.217A.025.025,0,0,0,336.1,327.008Zm-.287.4a.873.873,0,0,1-.132-.495c0-.045,0-.089,0-.134,0-.02,0-.04,0-.06h0l.039.033a.921.921,0,0,1,.284.472.926.926,0,0,1,.029.25.829.829,0,0,1-.01.116.343.343,0,0,0-.009.073.056.056,0,0,0-.03.016c-.012-.022-.024-.042-.034-.059C335.919,327.548,335.864,327.48,335.817,327.408Zm1.312.234a.7.7,0,0,1-.483.221.962.962,0,0,1-.347-.051.553.553,0,0,1-.131-.061.242.242,0,0,1-.036-.031.1.1,0,0,0,.023-.023.041.041,0,0,0,.032.021c.081.008.165-.057.24-.083a1.06,1.06,0,0,1,.7.007Zm.185-.765c0,.015-.007.03-.012.045a.6.6,0,0,1-.047.11,1.184,1.184,0,0,1-.132.192c-.024.029-.048.057-.073.085l-.043.047-.02.021c-.006,0-.007.006-.007.008a.075.075,0,0,0-.075.063,1.085,1.085,0,0,0-.227,0,1.174,1.174,0,0,0-.3.069l-.011,0a1.064,1.064,0,0,0,.139-.258,3.3,3.3,0,0,1,.249-.22,1.188,1.188,0,0,1,.4-.182.823.823,0,0,1,.1-.02c.019,0,.039,0,.058,0h0C337.316,326.848,337.316,326.87,337.314,326.877Zm.082-.334a1.2,1.2,0,0,1-.089.117.689.689,0,0,0-.051.062,1.5,1.5,0,0,0-.156.033,1.285,1.285,0,0,0-.3.134l.02-.038a1.619,1.619,0,0,0,.093-.213.051.051,0,0,0,.062-.006,1.833,1.833,0,0,1,.261-.194c.041-.025.083-.048.125-.07l.012,0a.053.053,0,0,0,.047-.027l0-.005a.1.1,0,0,1,.054-.006C337.532,326.343,337.413,326.518,337.4,326.543Z" transform="translate(-306.283 -308.284)"/><path class="n" d="M209.6,289.7a2.868,2.868,0,0,0-.071-.345,3.021,3.021,0,0,0-.279-.679.165.165,0,0,0-.3.039l-.126.5c-.139-.137-.281-.271-.429-.4a.165.165,0,0,0-.178-.034.16.16,0,0,0-.1.149q.032.3.064.6c.011.1.023.2.034.3a.759.759,0,0,0,.064.316.144.144,0,0,0,.26-.034.735.735,0,0,0-.006-.309c-.009-.1-.018-.19-.028-.285l-.019-.178q.16.152.311.312a.164.164,0,0,0,.273-.072l.082-.328c.023.066.045.133.063.2a2.592,2.592,0,0,1,.068.334.642.642,0,0,0,.084.347.142.142,0,0,0,.2,0,.13.13,0,0,0,.02-.031l0,0C209.663,290,209.617,289.822,209.6,289.7Z" transform="translate(-199.819 -277.367)"/><path class="n" d="M220.342,288.975c-.017-.122-.039-.244-.068-.364a2.6,2.6,0,0,0-.11-.354c-.037-.093-.085-.278-.2-.3a.075.075,0,0,0-.079.032c-.063.081.007.248.026.337.026.121.052.242.073.365s.035.226.046.339.013.231.026.345a.129.129,0,0,0,0,.018c0,.008,0,.016,0,.025h0a.152.152,0,0,0,.073.1.161.161,0,0,0,.24-.138A1.89,1.89,0,0,0,220.342,288.975Z" transform="translate(-209.631 -276.83)"/><path class="n" d="M226.33,288.885a.162.162,0,0,0-.122-.061.1.1,0,0,0-.049,0l-.029.012h0l.015-.006a.11.11,0,0,0-.024.007h-.011l-.068.01c-.06.01-.12.018-.18.033s-.11.034-.165.051a1.822,1.822,0,0,0-.013-.275,3.972,3.972,0,0,0-.059-.408,2.308,2.308,0,0,0-.115-.379c-.025-.066-.09-.267-.2-.218s-.042.227-.034.3c.012.123.028.247.044.37s.029.24.039.36a1.517,1.517,0,0,0,.049.391.138.138,0,0,0,.213.069l.016,0,.059.008h.029c.039,0,.077.01.117.012l.088,0c.063,0,.127,0,.189-.011.1-.009.209-.033.236-.145A.154.154,0,0,0,226.33,288.885Z" transform="translate(-214.142 -276.574)"/><path class="n" d="M234.4,288.546a2.993,2.993,0,0,0-.276-.269l-.136-.127c-.017-.016-.045-.038-.07-.06l.009-.011.069-.087c.048-.061.093-.123.139-.185s.085-.111.123-.169a.364.364,0,0,0,.091-.206.082.082,0,0,0-.1-.077.37.37,0,0,0-.18.136c-.054.056-.1.117-.153.176s-.1.119-.15.179c-.021.026-.048.054-.073.083-.018-.085-.037-.17-.061-.254a1.315,1.315,0,0,0-.115-.309.089.089,0,0,0-.165.045,2.039,2.039,0,0,0,.031.311q.018.151.032.3c.02.207.024.416.044.622a.161.161,0,0,0,.182.158.159.159,0,0,0,.136-.158h0a2.327,2.327,0,0,0-.019-.328l.112.108a3.821,3.821,0,0,0,.364.334.135.135,0,0,0,.175-.035A.139.139,0,0,0,234.4,288.546Z" transform="translate(-220.898 -276.301)"/><path class="be" d="M334.435,291.89c-.031-.066-.113-.09-.176-.113a2.156,2.156,0,0,0-.245-.077,2.4,2.4,0,0,0-.487-.071,2.273,2.273,0,0,0-1,.187,1.781,1.781,0,0,0-1.064-1.019,1.358,1.358,0,0,0-.234-.063.436.436,0,0,0-.254,0,.065.065,0,0,0,0,.112.669.669,0,0,0,.218.063,2.1,2.1,0,0,1,.211.07,1.647,1.647,0,0,1,.39.225,1.619,1.619,0,0,1,.534.7.138.138,0,0,0,.007.013,1.929,1.929,0,0,0-.505.406,2.089,2.089,0,0,0-.457.877,1.538,1.538,0,0,0,.048,1c.033.067.155.038.146-.04a4.106,4.106,0,0,1-.052-.449,1.845,1.845,0,0,1,.052-.454,1.875,1.875,0,0,1,.416-.8,1.978,1.978,0,0,1,1.763-.6,2.2,2.2,0,0,1,.48.128c.057.022.126.057.186.022A.083.083,0,0,0,334.435,291.89Z" transform="translate(-302.439 -279.133)"/><path class="bf" d="M346.083,279.6a.069.069,0,0,0,0-.012.12.12,0,0,0-.067-.1.265.265,0,0,0-.062-.024.3.3,0,0,0-.045-.007.172.172,0,0,0-.045.005.116.116,0,0,0-.09.076l.023-.039a.224.224,0,0,0-.025.033.074.074,0,0,0,.044.107l.015,0a.208.208,0,0,0,.049.011l-.026,0,.014,0,.031.005h0l-.02,0a.164.164,0,0,1,.03.008l.01.005a.146.146,0,0,0,.034.015.107.107,0,0,0,.031,0,.076.076,0,0,0,.015,0,.081.081,0,0,0,.039-.011h0a.076.076,0,0,0,.021-.012A.092.092,0,0,0,346.083,279.6Z" transform="translate(-314.822 -269.724)"/><path class="bf" d="M347.293,281.192a.066.066,0,0,0,0-.008.06.06,0,0,0-.017-.027.055.055,0,0,0-.013-.013.041.041,0,0,0-.042,0l0,0h0a.1.1,0,0,0-.014,0l-.006,0-.007,0a.114.114,0,0,0-.026.009h0a.132.132,0,0,1-.03.008l.014,0h0l-.013,0h-.025l-.021,0-.021,0a.078.078,0,0,0-.04.028.075.075,0,0,0-.015.037.073.073,0,0,0,.009.05.163.163,0,0,0,.051.049.174.174,0,0,0,.076.02.142.142,0,0,0,.058-.01.3.3,0,0,0,.037-.016l.007,0a.1.1,0,0,0,.034-.034l0-.007a.1.1,0,0,0,.013-.026l0-.006A.085.085,0,0,0,347.293,281.192Z" transform="translate(-315.866 -271.134)"/><g transform="translate(31.443 9.877)"><path class="bf" d="M349.055,280.467v-.008l-.01-.024h0l-.006-.01-.019-.024,0,0h0l-.021-.016-.011-.007a.113.113,0,0,0-.077-.01l-.024.01a.077.077,0,0,0-.028.026.05.05,0,0,0-.013.022.074.074,0,0,0-.009.039l0,.027a.1.1,0,0,0,.026.044l.007.007a.282.282,0,0,0,.027.021l-.021-.016.009.008a.2.2,0,0,0,.028.022h0l.023.01.025,0,.026,0h0l.011,0a.046.046,0,0,0,.02-.012.031.031,0,0,0,.01-.007l.008-.01a.05.05,0,0,0,.013-.022.047.047,0,0,0,.007-.024A.074.074,0,0,0,349.055,280.467Z" transform="translate(-348.833 -280.361)"/><path class="bf" d="M349.777,281.725Z" transform="translate(-349.62 -281.501)"/></g><g transform="translate(31.593 10.164)"><path class="bf" d="M349.969,282.156a.094.094,0,0,0-.033-.033.1.1,0,0,0-.067-.011h-.012l-.012,0h0l-.019.008h0l-.008,0,.008,0a.081.081,0,0,0-.037.011l-.01.008h0l0,0,0,0,0,0a.071.071,0,0,0-.016.016.069.069,0,0,0,0,.071l0,0a.083.083,0,0,0,.036.045l.009,0a.2.2,0,0,0,.029.012.247.247,0,0,0,.034,0,.12.12,0,0,0,.065-.016l0,0,0,0,.019-.015,0,0a.093.093,0,0,0,.024-.041l0-.025A.092.092,0,0,0,349.969,282.156Z" transform="translate(-349.74 -282.111)"/><path class="bf" d="M350.154,282.159l.015,0,.015-.006A.128.128,0,0,1,350.154,282.159Z" transform="translate(-350.086 -282.144)"/><path class="bf" d="M350.243,282.19h0Z" transform="translate(-350.16 -282.177)"/></g><path class="bf" d="M339.234,301.064s0,0,0-.007a.071.071,0,0,0-.009-.023l-.007-.009a.045.045,0,0,0-.015-.015.054.054,0,0,0-.021-.012.129.129,0,0,0-.046-.01.149.149,0,0,0-.035,0l-.007,0a.119.119,0,0,0-.027.012.166.166,0,0,0-.049.05.106.106,0,0,0-.015.081l0-.018s0,.008,0,.012a.06.06,0,0,0,.087.054h0l.018-.008.01-.005.011-.006h.007a.071.071,0,0,0,.037,0h0l.013,0a.072.072,0,0,0,.05-.05A.093.093,0,0,0,339.234,301.064Z" transform="translate(-309.17 -287.718)"/><g transform="translate(30.099 13.371)"><path class="bf" d="M341.305,301.881h0C341.3,301.886,341.3,301.885,341.305,301.881Z" transform="translate(-341.198 -301.835)"/><path class="bf" d="M340.991,302.377l.008-.019v0Z" transform="translate(-340.937 -302.233)"/><path class="bf" d="M340.879,301.709a.086.086,0,0,0-.01-.026.07.07,0,0,0-.013-.014l0-.006-.007-.007s0,0,0-.006a.06.06,0,0,0-.009-.01l-.009-.007s0,0,0,0,0,0,0,0l-.006-.005-.008-.006a.216.216,0,0,0-.022-.016.017.017,0,0,0-.025.019.135.135,0,0,1,0,.016.029.029,0,0,1,0,0v0s0,0,0,0a.052.052,0,0,0-.006.018l0,0v0a.083.083,0,0,0-.012.014l-.008.014-.009.014a.081.081,0,0,0-.006.015c-.007.016-.013.033-.019.05l-.005.011a.1.1,0,0,0-.013.045l.009-.034c-.006.012-.012.023-.017.035a.073.073,0,0,0,0,.008h0c-.027.012-.013.057.015.055h0a.067.067,0,0,0,.026.008.1.1,0,0,0,.039,0l.012,0s0,0,0,0a.077.077,0,0,0,.026-.008.171.171,0,0,0,.052-.043.149.149,0,0,0,.039-.1A.275.275,0,0,0,340.879,301.709Z" transform="translate(-340.66 -301.604)"/></g><path class="bf" d="M341.454,299.716a.063.063,0,0,0-.007-.023.085.085,0,0,0-.034-.044.088.088,0,0,0-.026-.011.219.219,0,0,0-.039-.005.1.1,0,0,0-.038.005.216.216,0,0,0-.034.015.194.194,0,0,0-.028.021.1.1,0,0,0-.029.045.121.121,0,0,0,0,.063.062.062,0,0,0,.043.043.06.06,0,0,0,.049-.01h.005l0,0,.008,0,.009,0,.012,0,.031,0-.023,0h.018a.089.089,0,0,0,.051-.014h0a.027.027,0,0,0,.035-.01.059.059,0,0,0,.006-.033A.056.056,0,0,0,341.454,299.716Z" transform="translate(-311.022 -286.586)"/><path class="bf" d="M342.964,300.669a.025.025,0,0,0,0,0,.053.053,0,0,0,0-.008.062.062,0,0,0-.01-.029.116.116,0,0,0-.01-.021.026.026,0,0,0-.026-.012.027.027,0,0,0-.021.018c0-.006,0,0,0,0l-.009.007h-.011a.123.123,0,0,0-.023.01.168.168,0,0,0-.026.02l.017-.013a.23.23,0,0,0-.034.026l-.016.015.016-.013a.1.1,0,0,0-.031.031s0,0,0,.007a.062.062,0,0,0-.014.057.064.064,0,0,0,.044.044l.007,0s.007.006.011.007a.087.087,0,0,0,.045,0l.01,0a.128.128,0,0,0,.055-.029.257.257,0,0,0,.027-.033.086.086,0,0,0,.012-.027.091.091,0,0,0,0-.044S342.965,300.672,342.964,300.669Z" transform="translate(-312.312 -287.39)"/><path class="bf" d="M344.82,299.1a.072.072,0,0,0-.026-.026l0,0h0l-.018-.008a.082.082,0,0,0-.042,0l-.018.008h0l0,0a.075.075,0,0,0-.026.026.073.073,0,0,0,0,.074.074.074,0,0,0,.026.026.166.166,0,0,0,.026.011l.021,0h.011a.055.055,0,0,0,.029-.01l0,0a.073.073,0,0,0,.026-.026.073.073,0,0,0,0-.073Z" transform="translate(-313.908 -286.106)"/><g transform="translate(28.739 12.03)"><path class="bf" d="M332.637,293.569l0,.016a.056.056,0,0,0,0-.023.074.074,0,0,0-.032-.055.229.229,0,0,0-.043-.032.188.188,0,0,0-.1-.024l-.02,0a.044.044,0,0,0-.022.007l-.008.006s0,0,0,0h0l0,0,0,0a.048.048,0,0,0-.016.062.061.061,0,0,0,.014.023l.012.01,0,0a.119.119,0,0,0,.019.014l.013.009.028.019.028.017.014.01a.074.074,0,0,0,.042.009.077.077,0,0,0,.021,0,.058.058,0,0,0,.037-.013.056.056,0,0,0,.014-.032A.093.093,0,0,0,332.637,293.569Z" transform="translate(-332.39 -293.45)"/><path class="bf" d="M332.416,293.911h0a.034.034,0,0,1,0,0A.011.011,0,0,0,332.416,293.911Z" transform="translate(-332.41 -293.83)"/><path class="bf" d="M332.425,293.94h0S332.426,293.943,332.425,293.94Z" transform="translate(-332.419 -293.859)"/></g><g transform="translate(28.896 12.382)"><path class="bf" d="M333.545,295.64a.041.041,0,0,0-.012-.032.016.016,0,0,1,.006.007l0,0-.006-.012a.019.019,0,0,0-.033,0v0h-.02l.016,0-.007,0h-.01a.129.129,0,0,0-.055,0l-.011,0-.006,0a.074.074,0,0,0-.033.02l0,0a.007.007,0,0,0-.009.007l-.006.008-.006.014a.043.043,0,0,0,0,.023.053.053,0,0,0,.008.016.063.063,0,0,0,.031.044.132.132,0,0,0,.06.016h.006a.139.139,0,0,0,.023,0l.02-.008.006,0a.067.067,0,0,0,.014-.014l.013-.013h0l.006-.007,0-.007a.074.074,0,0,0,.012-.037A.061.061,0,0,0,333.545,295.64Z" transform="translate(-333.346 -295.59)"/><path class="bf" d="M334.521,295.748h0S334.522,295.75,334.521,295.748Z" transform="translate(-334.328 -295.722)"/><path class="bf" d="M334.248,295.654h0Z" transform="translate(-334.099 -295.643)"/></g><g transform="translate(29.216 12.204)"><path class="bf" d="M335.87,294.582l0,0,.007,0Z" transform="translate(-335.771 -294.568)"/><path class="bf" d="M335.887,294.587h0Z" transform="translate(-335.789 -294.575)"/><path class="bf" d="M335.441,294.6a.123.123,0,0,0-.016-.04l-.007-.01a.132.132,0,0,0-.013-.017l-.005,0-.006,0,0,0,.008.006a.08.08,0,0,0-.026-.015l.011,0a.058.058,0,0,0-.048-.01.058.058,0,0,0-.041.041v0a.028.028,0,0,0,0,.008.093.093,0,0,0,0,.021v.013a.091.091,0,0,0,0,.029l.005.013a.081.081,0,0,0,.034.044.075.075,0,0,0,.057.007.074.074,0,0,0,.051-.091Z" transform="translate(-335.289 -294.51)"/></g><path class="bf" d="M335.363,296.247a.08.08,0,0,0-.03-.04.056.056,0,0,0-.014-.011l0-.006a.022.022,0,0,0-.019-.011.023.023,0,0,0-.019.011l0,.006h0a.087.087,0,0,0-.018.005l0,0a.092.092,0,0,0-.022.009.164.164,0,0,0-.025.018l0,0,0,0a.06.06,0,0,0-.022.022.046.046,0,0,0-.007.022.048.048,0,0,0,0,.024.061.061,0,0,0,.015.027.163.163,0,0,0,.029.02.1.1,0,0,0,.045.013.117.117,0,0,0,.032,0,.111.111,0,0,0,.051-.033.089.089,0,0,0,.021-.036A.081.081,0,0,0,335.363,296.247Z" transform="translate(-305.971 -283.701)"/><path class="bg" d="M323.229,254.915a.336.336,0,0,0-.251.075c-.063.046-.125.095-.186.145s-.1.087-.151.132a1.048,1.048,0,0,0-.076.074.18.18,0,0,0-.06.165.128.128,0,0,0,.125.125h.033a.193.193,0,0,0,.127-.058c.025-.022.048-.046.073-.069q.072-.069.149-.134l.072-.06.041-.033.014-.011h0a.4.4,0,0,0,.172-.206A.119.119,0,0,0,323.229,254.915Z" transform="translate(-295.391 -249.221)"/><path class="bg" d="M320.842,259.894a.083.083,0,0,0,0-.014l0-.017a.049.049,0,0,0-.011-.022.06.06,0,0,0-.033-.023h-.027a.088.088,0,0,0-.033,0l-.008,0a.139.139,0,0,0-.035.014l-.014.007a.119.119,0,0,0-.031.028l-.016.02a.076.076,0,0,0-.009.028l0,.006v0h0a.051.051,0,0,0,0,.026h0a.09.09,0,0,0,.024.059.094.094,0,0,0,.041.024.093.093,0,0,0,.023,0,.076.076,0,0,0,.024,0,.05.05,0,0,0,.025-.007.074.074,0,0,0,.032-.021l.013-.01a.149.149,0,0,0,.023-.033.114.114,0,0,0,.016-.091Z" transform="translate(-293.814 -253.317)"/><path class="ae" d="M330.3,250.249c-.01-.007,0,0-.006,0a.109.109,0,0,0-.036-.024.149.149,0,0,0-.033,0l-.022,0a.458.458,0,0,0-.106.017.756.756,0,0,0-.085.025.307.307,0,0,0-.051.024.338.338,0,0,0-.043.032.058.058,0,0,0,.025.1.3.3,0,0,0,.109.008.914.914,0,0,0,.092-.015.467.467,0,0,0,.1-.031.193.193,0,0,0,.045-.03.145.145,0,0,0,.027-.043A.037.037,0,0,0,330.3,250.249Z" transform="translate(-301.575 -245.297)"/><path class="x" d="M370.174,276.59a.023.023,0,0,0-.039-.01.5.5,0,0,1-.175.1.606.606,0,0,1-.247.042,1.225,1.225,0,0,0-.5.069,1.305,1.305,0,0,0-.38.258,2.123,2.123,0,0,0-.18.183,2.291,2.291,0,0,0,.031-.385,4.987,4.987,0,0,0-.063-.6.044.044,0,0,0,0-.023.065.065,0,0,0-.006-.013,2.742,2.742,0,0,1-.028-.378,1.336,1.336,0,0,1,.024-.244.055.055,0,0,0,.015.007.378.378,0,0,0,.167-.027,1.184,1.184,0,0,0,.16-.061,1.038,1.038,0,0,0,.521-.428.018.018,0,0,0-.024-.024c-.148.083-.284.186-.431.272a1.785,1.785,0,0,1-.226.112l-.117.05c-.013.006-.031.012-.048.02a.916.916,0,0,1,.039-.114,1.432,1.432,0,0,1,.108-.2c.029-.047.072-.089.071-.147a.013.013,0,0,0-.009-.013c-.094-.017-.2.095-.245.163a.914.914,0,0,0-.145.347,1.784,1.784,0,0,0-.022.521l-.05-.029a1.029,1.029,0,0,1-.237-.2.7.7,0,0,1-.134-.251c-.016-.049-.03-.1-.046-.146a.267.267,0,0,1-.019-.055c0-.027,0-.052-.007-.079a.026.026,0,0,0-.043-.011.189.189,0,0,0-.035.065c-.009.028-.023.053-.032.08a.374.374,0,0,0,0,.182.771.771,0,0,0,.167.326,1.042,1.042,0,0,0,.443.308l.016.005c.006.055.013.11.019.164a2.354,2.354,0,0,1-.059.913,2.22,2.22,0,0,1-.153.4c-.014.028-.028.057-.043.085a.879.879,0,0,0-.169-.28c-.138-.147-.353-.164-.508-.287a1.112,1.112,0,0,1-.351-.956c0-.025-.033-.03-.044-.012a.835.835,0,0,0,.164,1.02.959.959,0,0,0,.219.172c.094.053.2.076.3.121a.485.485,0,0,1,.217.214c.028.049.048.1.071.155-.03.031-.066.062-.089.054-.053-.017-.082.051-.051.087.228.262.455-.175.534-.351a2.056,2.056,0,0,0,.095-.264.066.066,0,0,0,.043,0,.659.659,0,0,0,.175-.156c.059-.063.117-.125.181-.182a.921.921,0,0,1,.415-.228c.181-.038.368.028.548-.023A.266.266,0,0,0,370.174,276.59Z" transform="translate(-332.589 -266.031)"/><path class="ae" d="M346.675,259.806a.376.376,0,0,0-.219-.065,1.106,1.106,0,0,0-.245.054c-.076.024-.152.049-.229.072-.037.011-.075.019-.112.029.026-.026.049-.054.076-.079.117-.107.259-.182.372-.291a.038.038,0,0,0-.027-.065,1.111,1.111,0,0,0-.7.469,3.212,3.212,0,0,0-.4.649c-.011-.052-.028-.1-.036-.145a1.662,1.662,0,0,1-.035-.32,4.488,4.488,0,0,1,.083-.655.028.028,0,0,0-.047-.027.937.937,0,0,0-.234.725,1.183,1.183,0,0,0,.071.388.436.436,0,0,0,.089.163.309.309,0,0,0,.035.028c-.126.277-.237.562-.376.833a3.48,3.48,0,0,1-.252.423l-.017.022c-.033-.069-.073-.136-.107-.2a2.314,2.314,0,0,1-.162-.415,1.266,1.266,0,0,1-.043-.448c.014-.164.015-.323.017-.487a.029.029,0,0,0-.054-.015,1.146,1.146,0,0,0-.181.469,1.441,1.441,0,0,0,.041.511,2.094,2.094,0,0,0,.184.447,1.592,1.592,0,0,0,.181.295l-.005.007c-.032.036-.115.177-.163.183a.044.044,0,0,0-.037.065c.071.152.263.006.336-.066a2.124,2.124,0,0,0,.294-.386c.014-.022.025-.046.038-.068a.859.859,0,0,0,.461.07,1.43,1.43,0,0,0,.593-.177,5.2,5.2,0,0,0,.594-.346c.076-.055.133-.109.109-.206a.083.083,0,0,0-.075-.074c-.023,0-.034.017-.034.036a.1.1,0,0,0-.035.009.7.7,0,0,0-.115.048c-.082.043-.162.093-.242.14-.143.085-.284.177-.432.254a1.423,1.423,0,0,1-.434.137c-.112.017-.228.007-.34.018a8.317,8.317,0,0,0,.343-.766,4.584,4.584,0,0,1,.447-.874,2.292,2.292,0,0,1,.146-.189.285.285,0,0,0,.169.03,1.319,1.319,0,0,0,.246-.048c.077-.02.153-.044.232-.059a1.062,1.062,0,0,0,.109-.025.684.684,0,0,1,.122-.039C346.682,259.836,346.692,259.815,346.675,259.806Z" transform="translate(-313.289 -252.989)"/><path class="bh" d="M366.264,242.39a.009.009,0,0,0-.013,0c-.071.056-.076.188-.1.271-.026.11-.053.219-.084.327a5.73,5.73,0,0,1-.235.665,6,6,0,0,1-.3.6c-.059.1-.122.2-.186.3s-.122.162-.092.273a.048.048,0,0,0,.045.035c.111-.006.157-.081.216-.167.07-.1.134-.21.2-.318a4.766,4.766,0,0,0,.3-.654,4.719,4.719,0,0,0,.2-.682c.025-.116.045-.233.06-.351C366.284,242.605,366.322,242.466,366.264,242.39Z" transform="translate(-331.105 -238.756)"/><path class="bh" d="M366.087,255.8a.232.232,0,0,0-.187.093,2.25,2.25,0,0,1-.189.16,3.632,3.632,0,0,1-.425.271c-.145.081-.294.153-.442.228l-.233.119c-.066.034-.148.06-.163.141a.044.044,0,0,0,.02.049c.075.034.133-.006.2-.039l.236-.113c.161-.077.322-.157.478-.244a3.575,3.575,0,0,0,.435-.279c.067-.051.133-.1.194-.162s.111-.106.1-.2A.025.025,0,0,0,366.087,255.8Z" transform="translate(-330.435 -249.965)"/><g transform="translate(36.319 5.295)"><path class="bh" d="M379.028,252.549a.06.06,0,0,0-.108-.014,1.321,1.321,0,0,0-.065.267,1.591,1.591,0,0,1-.087.268,1.632,1.632,0,0,1-.132.245c-.026.039-.054.075-.08.114-.012.018-.023.036-.034.055a.107.107,0,0,0-.014.027s0,0,0,.005h.008a.028.028,0,0,0-.033.019c-.016.039.021.068.056.072a.169.169,0,0,0,.138-.069,1.209,1.209,0,0,0,.2-.3,1.784,1.784,0,0,0,.128-.333,1.31,1.31,0,0,0,.035-.181A.423.423,0,0,0,379.028,252.549Z" transform="translate(-378.475 -252.506)"/><path class="bh" d="M378.64,258.643s0,0,0,0Z" transform="translate(-378.611 -257.633)"/></g><path class="bh" d="M390.009,259.052a.127.127,0,0,0-.082.081l0,.009-.009.021-.02.041c-.026.055-.054.109-.086.161-.016.026-.033.052-.051.077l-.011.015s-.019.025-.007.009l-.031.038a.219.219,0,0,0-.055.111h0v0c0,.014,0,.015,0,.024a.058.058,0,0,0,.016.051.061.061,0,0,0,.059.015c-.01,0,.015,0,.019,0h0a.128.128,0,0,0,.048-.013.212.212,0,0,0,.026-.02.422.422,0,0,0,.067-.072,1.275,1.275,0,0,0,.092-.137,1.242,1.242,0,0,0,.075-.159.658.658,0,0,0,.025-.078c0-.013.007-.027.009-.04a.249.249,0,0,0,0-.031c0-.03,0,0-.013.016A.072.072,0,0,0,390.009,259.052Z" transform="translate(-351.491 -252.679)"/><path class="bi" d="M366.2,245.28a.059.059,0,0,0-.058-.015c-.078.031-.11.137-.147.205s-.081.153-.121.23-.083.149-.129.22-.146.19-.106.294a.124.124,0,0,0,.112.085c.116.015.207-.123.26-.207a1.764,1.764,0,0,0,.128-.247,1.164,1.164,0,0,0,.082-.281C366.238,245.485,366.268,245.344,366.2,245.28Z" transform="translate(-331.426 -241.158)"/><path class="bi" d="M364.541,252.089v-.006a.055.055,0,0,0-.072-.044l-.006,0a.122.122,0,0,0-.03.014c-.016.011-.029.024-.044.036l.016-.013a.176.176,0,0,0-.023.018l-.008.009-.013.015a.044.044,0,0,0-.007.01l-.008.019,0,.005.005-.012a.055.055,0,0,0-.009.027.079.079,0,0,0,0,.02.07.07,0,0,0,0,.01h0a.105.105,0,0,0,.008.019h0a.085.085,0,0,0,0,.01.054.054,0,0,0,.008.006h0a.064.064,0,0,0,.037.018l.006,0a.082.082,0,0,0,.036,0,.119.119,0,0,0,.025-.01.125.125,0,0,0,.022-.017.148.148,0,0,0,.035-.045.172.172,0,0,0,.019-.05.108.108,0,0,0,0-.02A.148.148,0,0,0,364.541,252.089Z" transform="translate(-330.346 -246.818)"/><g transform="translate(35.898 5.473)"><path class="bi" d="M376.462,253.713a.178.178,0,0,0-.017-.078.063.063,0,0,0-.086-.038h-.007l-.01,0a.105.105,0,0,0-.032.017l0,0h0a.215.215,0,0,0-.061.053c-.028.029-.056.058-.085.086s-.056.06-.083.09-.058.058-.086.088a.269.269,0,0,0-.064.1.213.213,0,0,0-.01.053.125.125,0,0,0,.012.054.089.089,0,0,0,.017.032.108.108,0,0,0,.046.036l.009,0a.142.142,0,0,0,.054.013.287.287,0,0,0,.044-.006.234.234,0,0,0,.108-.059.661.661,0,0,0,.085-.089.847.847,0,0,0,.09-.125c.005-.009.009-.019.013-.029l.006-.015.007-.016v0l0-.007,0-.008,0,.006a.507.507,0,0,0,.031-.077A.3.3,0,0,0,376.462,253.713Z" transform="translate(-375.917 -253.59)"/><path class="bi" d="M375.979,256.937s0-.011-.007-.016,0,0,0-.007Z" transform="translate(-375.96 -256.367)"/><path class="bi" d="M376.35,257.365l-.016-.006Z" transform="translate(-376.265 -256.739)"/></g><path class="bi" d="M387.395,260.45a.068.068,0,0,0-.031-.04.079.079,0,0,0-.052-.007l.011,0-.017,0h0a.1.1,0,0,0-.035.011l-.023.013a.424.424,0,0,0-.056.046l-.039.035a.4.4,0,0,0-.038.034.178.178,0,0,0-.029.036.1.1,0,0,0,.012.112.093.093,0,0,0,.073.027.175.175,0,0,0,.068-.02.352.352,0,0,0,.06-.042.379.379,0,0,0,.039-.035c.011-.013.021-.026.031-.04a.172.172,0,0,0,.023-.045c0-.008.006-.016.008-.025A.127.127,0,0,0,387.395,260.45Z" transform="translate(-349.339 -253.808)"/><path class="bj" d="M304.99,247.759c-.061-.073-.175-.067-.263-.074a1.089,1.089,0,0,0-.246.015,1.336,1.336,0,0,0-.468.178,2.246,2.246,0,0,0-.395.31.841.841,0,0,0-.166.187c-.033.06-.053.166.012.211a.2.2,0,0,0,.194-.023,1.238,1.238,0,0,0,.169-.147,2.034,2.034,0,0,1,.345-.266,1.065,1.065,0,0,1,.381-.143.815.815,0,0,1,.187,0c.092.008.181.031.251-.047A.144.144,0,0,0,304.99,247.759Z" transform="translate(-279.447 -243.182)"/><path class="bj" d="M314.39,249.129l0-.007a.271.271,0,0,0-.034-.044.233.233,0,0,0-.056-.05l-.032-.016a.159.159,0,0,0-.083-.021h-.015a.093.093,0,0,0-.048.011.092.092,0,0,0-.04.026l-.019.025a.123.123,0,0,0-.017.063s0,.008,0,.012a.167.167,0,0,0,.022.082l.019.031a.35.35,0,0,0,.047.056.116.116,0,0,0,.013.013.38.38,0,0,0,.036.028.152.152,0,0,0,.077.021l.042-.006a.151.151,0,0,0,.105-.105A.151.151,0,0,0,314.39,249.129Z" transform="translate(-288.322 -244.274)"/><path class="ab" d="M279.715,247.221c-.1-.1-.254-.007-.353.057a1.752,1.752,0,0,0-.454.431,1.546,1.546,0,0,0-.166.281,1.141,1.141,0,0,0-.065.171.329.329,0,0,0-.011.12.212.212,0,0,0,.007.038l.015.036q.033.04.013.019a.1.1,0,0,0,.135.035c-.024.015.014-.007.025-.013a.2.2,0,0,0,.036-.029.308.308,0,0,0,.05-.074c.031-.062.032-.079.059-.138a1.54,1.54,0,0,1,.146-.255,1.451,1.451,0,0,1,.387-.362c.038-.024.079-.043.117-.067A.163.163,0,0,0,279.715,247.221Z" transform="translate(-258.763 -242.757)"/><path class="ab" d="M286.525,246.774a.137.137,0,0,0-.011-.03.077.077,0,0,0-.02-.034l-.014-.018,0,0a.286.286,0,0,0-.041-.031l-.013-.008a.365.365,0,0,0-.089-.036.243.243,0,0,0-.065-.008h-.015a.321.321,0,0,0-.05.007.217.217,0,0,0-.056.024.138.138,0,0,0-.052.053c-.006.012-.011.024-.015.036a.119.119,0,0,0,.031.116.165.165,0,0,0,.035.029.411.411,0,0,0,.05.02l-.034-.014a.333.333,0,0,0,.05.019l.019.006.011,0a.212.212,0,0,1,.035.02l-.018-.014h0a.2.2,0,0,0,.084.046.152.152,0,0,0,.144-.038.148.148,0,0,0,.038-.144Z" transform="translate(-264.955 -242.279)"/><path class="am" d="M174.449,220.691a.775.775,0,0,1,.508-.358c.276-.032,5.977-.009,7.756,0a.815.815,0,0,1,.773.414.973.973,0,0,1,.067.5c-.042.286-.4.5-.8.5h-7.792C174.611,221.747,174.449,221.52,174.449,220.691Z" transform="translate(-171.689 -220.316)"/><path class="bk" d="M314.9,270.426l-1.708,14.136-.359,2.207h.412a.966.966,0,0,0,.958-.843l2-15.752Z" transform="translate(-287.307 -261.974)"/><path class="bk" d="M235.964,270.426l-1.708,14.136a.965.965,0,0,1-.958.85H204.936v1.358h29.373a.965.965,0,0,0,.958-.843l2-15.752Z" transform="translate(-197.161 -261.974)"/><path class="bk" d="M189.65,263.755H224.8c.654,0,.905,1.509,0,1.509H189.7Z" transform="translate(-184.39 -256.61)"/><path class="am" d="M170.006,220.69s.132-.321.358-.358a6.668,6.668,0,0,1,.867,0,1.371,1.371,0,0,1,.056,1.414h-.924C170.12,221.746,170.006,221.52,170.006,220.69Z" transform="translate(-167.977 -220.315)"/><circle class="bl" cx="2.164" cy="2.164" r="2.164" transform="translate(32.579 35.97) rotate(-45)"/><path class="s" d="M370.5,423v2.7a.632.632,0,1,0,1.263,0V423Z" transform="translate(-335.493 -389.664)"/><path class="bl" d="M373.033,437.541a.321.321,0,1,1-.321-.321A.321.321,0,0,1,373.033,437.541Z" transform="translate(-337.074 -401.543)"/><circle class="bl" cx="2.164" cy="2.164" r="2.164" transform="translate(25.149 35.97) rotate(-45)"/><path class="s" d="M325.328,423v2.7a.632.632,0,1,0,1.264,0V423Z" transform="translate(-297.751 -389.664)"/><path class="bl" d="M327.861,437.541a.321.321,0,1,1-.321-.321A.321.321,0,0,1,327.861,437.541Z" transform="translate(-299.332 -401.543)"/><circle class="bl" cx="2.164" cy="2.164" r="2.164" transform="matrix(0.228, -0.974, 0.974, 0.228, 12.483, 37.582)"/><path class="s" d="M245.532,423v2.7a.632.632,0,1,0,1.263,0V423Z" transform="translate(-231.08 -389.664)"/><path class="bl" d="M248.065,437.541a.321.321,0,1,1-.321-.321A.321.321,0,0,1,248.065,437.541Z" transform="translate(-232.661 -401.543)"/><circle class="bl" cx="2.164" cy="2.164" r="2.164" transform="matrix(0.228, -0.974, 0.974, 0.228, 5.052, 37.582)"/><path class="s" d="M200.36,423v2.7a.632.632,0,1,0,1.263,0V423Z" transform="translate(-193.338 -389.664)"/><path class="bk" d="M159.862,222.175c.5,0,.3.905,0,.905h-.578a7.271,7.271,0,0,1,2.866,2.389c.981,1.559,2.69,13.226,3.218,17.173a19.962,19.962,0,0,1-.05,7.593c-.377,1.609-1.458,3.319-.779,3.922s2.791.478,10.636.478h19.763c1.207,0,1.383,1.232,0,1.232H168.361c-3.6,0-5.733-.1-5.507-2.087s1.171-2.714,1.509-4.953a19.683,19.683,0,0,0,0-5.884c-.251-1.961-2.187-14.307-2.615-15.765a4.7,4.7,0,0,0-2.389-2.917c-.93-.427-1.609-.528-1.685-1.282S158.354,222.175,159.862,222.175Z" transform="translate(-157.67 -221.869)"/><path class="bl" d="M202.893,437.541a.321.321,0,1,1-.321-.321A.321.321,0,0,1,202.893,437.541Z" transform="translate(-194.919 -401.543)"/><path class="bm" d="M163.25,223.08a.055.055,0,0,0-.016-.016l0-.005a.192.192,0,0,0-.048-.051.3.3,0,0,0-.165-.044c-.1,0-.194.009-.29.014a2.971,2.971,0,0,0-.308.029c-.046.008-.094.014-.139.025a.548.548,0,0,0-.129.057.075.075,0,0,0,0,.129.494.494,0,0,0,.129.052c.052.01.105.014.157.02a2.041,2.041,0,0,0,.3,0,2.553,2.553,0,0,0,.311-.023.272.272,0,0,0,.152-.068.233.233,0,0,0,.04-.065c0-.011,0-.009,0,0a.077.077,0,0,0,.014-.021A.036.036,0,0,0,163.25,223.08Z" transform="translate(-161.384 -222.528)"/><path class="bm" d="M175.482,235.474a2.888,2.888,0,0,0-.613-1.034,3.9,3.9,0,0,0-.521-.466c-.088-.066-.177-.131-.27-.189a.575.575,0,0,0-.287-.123.032.032,0,0,0-.031.041.49.49,0,0,0,.144.189c.078.078.158.154.236.233.143.145.284.292.42.443a2.486,2.486,0,0,1,.625,1.028.635.635,0,0,0,.133.255c.031.03.1.093.146.076s.059-.094.068-.132A.581.581,0,0,0,175.482,235.474Z" transform="translate(-171.112 -231.466)"/><path class="bm" d="M184.75,249.394a.263.263,0,0,0-.009-.075.521.521,0,0,0-.044-.122c-.039-.072-.1-.162-.186-.17l.04.011-.006,0a.076.076,0,0,0-.113.065c0-.027,0,.022,0,.029a.245.245,0,0,0,.006.05c0,.019.008.038.013.057.01.039.022.078.035.117a.824.824,0,0,0,.03.083c0,.007.007.015.011.022q.034.042.009.013a.145.145,0,0,0,.015.021.072.072,0,0,0,.01.02l.015.02c-.008-.009-.009-.009,0,0a.145.145,0,0,0,.018.023c.019.014.023.017.01.009a.323.323,0,0,0,.025.021.043.043,0,0,0,.066-.009l0-.006-.017.017a.091.091,0,0,0,.031-.033c0-.007,0-.006,0,0a.266.266,0,0,0,.021-.033.237.237,0,0,0,.015-.068.217.217,0,0,0,.006-.032v.007Z" transform="translate(-180.027 -244.302)"/><path class="bm" d="M292.708,265.477l-2.349.011c-.379,0-.756.015-1.134.036-.235.013-.786-.039-.927.2a.042.042,0,0,0,0,.042.427.427,0,0,0,.336.158c.2.025.394.033.591.044.379.021.755.034,1.134.036l2.349.01A.27.27,0,0,0,292.708,265.477Z" transform="translate(-266.806 -258.049)"/><path class="bm" d="M319.944,265.727c-.116-.01-.236,0-.352,0l-.352,0a.2.2,0,0,0-.079.016h-.083a.2.2,0,1,0,0,.409h.081a.21.21,0,0,0,.081.016l.352,0c.116,0,.236.01.352,0a.225.225,0,1,0,0-.45Z" transform="translate(-292.358 -258.253)"/><path class="bm" d="M392.377,265.013l-.283,0a.267.267,0,0,0-.089-.017c-.334,0-.667,0-1,0a.271.271,0,0,0,0,.542c.334,0,.667,0,1,0a.263.263,0,0,0,.086-.016l.286,0a.253.253,0,0,0,0-.505Z" transform="translate(-352.398 -257.643)"/><path class="bm" d="M191.174,405.911a.464.464,0,0,0-.168.179,1.629,1.629,0,0,0-.095.205,1.722,1.722,0,0,0-.084.338,1.519,1.519,0,0,0-.018.456.6.6,0,0,0,.06.217.673.673,0,0,0,.077.1.294.294,0,0,0,.059.048c.062.027.072.031.028.012a.193.193,0,0,0,.227-.029.5.5,0,0,0,.1-.184.758.758,0,0,0,.016-.217c0-.105-.007-.21,0-.315,0-.025,0-.049.007-.074l.005-.031c.009-.052.021-.1.033-.155a1.182,1.182,0,0,0,.069-.365A.216.216,0,0,0,191.174,405.911Z" transform="translate(-185.349 -375.357)"/><path class="bm" d="M192.984,418.218a.243.243,0,0,0-.064-.1l-.015-.017-.015-.017a.211.211,0,0,0-.1-.063l-.033-.011a.175.175,0,0,0-.093,0,.195.195,0,0,0-.1.08.174.174,0,0,0-.024.088c0,.013,0,.025,0,.038a.206.206,0,0,0,.035.117l.014.02.044.058.007.009,0,0a.154.154,0,0,0,.067.043.059.059,0,0,0,.028.011l.057.008h.008l.017,0a.2.2,0,0,0,.128-.053l.028-.037a.18.18,0,0,0,.025-.091A.568.568,0,0,0,192.984,418.218Z" transform="translate(-186.797 -385.484)"/><path class="bm" d="M365.215,421.47c-.635-.009-1.271,0-1.907.005a.2.2,0,0,0,0,.4c.636,0,1.272.014,1.907.005A.205.205,0,0,0,365.215,421.47Z" transform="translate(-329.322 -388.381)"/><path class="bm" d="M380.607,421.592H380.6a.175.175,0,0,0-.039-.008h-.446a.189.189,0,1,0,0,.379h.446a.178.178,0,0,0,.038-.008h.006a.182.182,0,1,0,0-.363Z" transform="translate(-343.37 -388.478)"/><g transform="translate(29.135 8.081)"><path class="bk" d="M335.1,285.173l-.3-.04,1.764-15.69.3.04Z" transform="translate(-334.798 -269.443)"/></g><g transform="translate(31.943 8.081)"><path class="bk" d="M352.172,285.173l-.3-.04,1.764-15.69.3.04Z" transform="translate(-351.87 -269.443)"/></g><g transform="translate(34.751 8.081)"><path class="bk" d="M369.244,285.173l-.3-.04,1.764-15.69.3.04Z" transform="translate(-368.943 -269.443)"/></g><g transform="translate(17.982 8.05)"><path class="bk" d="M267.3,285.046l-.3-.02.734-15.772.3.02Z" transform="translate(-266.993 -269.254)"/></g><g transform="translate(20.729 8.081)"><path class="bk" d="M283.993,285.173l-.3-.04,1.764-15.69.3.04Z" transform="translate(-283.692 -269.443)"/></g><g transform="translate(23.537 8.081)"><path class="bk" d="M301.066,285.173l-.3-.04,1.764-15.69.3.04Z" transform="translate(-300.764 -269.443)"/></g><g transform="translate(14.717 8.049)"><path class="bk" d="M247.839,285.044l.3-.019-.694-15.774-.3.019Z" transform="translate(-247.145 -269.251)"/></g><g transform="translate(11.375 8.081)"><path class="bk" d="M228.589,285.173l.3-.04-1.764-15.69-.3.04Z" transform="translate(-226.826 -269.443)"/></g><g transform="translate(8.567 8.081)"><path class="bk" d="M211.517,285.173l.3-.04-1.764-15.69-.3.04Z" transform="translate(-209.753 -269.443)"/></g><g transform="translate(5.612 12.06)"><rect class="bk" width="33.467" height="0.329"/></g><g transform="translate(6.781 18.172)"><rect class="bk" width="31.378" height="0.329"/></g></g></g></g></svg>