<svg xmlns="http://www.w3.org/2000/svg" width="81.049" height="71.966" viewBox="0 0 81.049 71.966"><defs><style>.a{opacity:0.52;mix-blend-mode:soft-light;}.a,.ad,.ak,.g,.w,.y{isolation:isolate;}.b{opacity:0.5;}.c{fill:#ffbb1f;}.d{fill:#e77f56;}.e{fill:#fff2c6;}.f{opacity:0.4;}.ak,.g{mix-blend-mode:screen;}.h{fill:#fc8912;}.i{fill:#4b86b4;}.j{fill:#175658;}.k{fill:#157d78;}.l{fill:#ffc405;}.m{fill:#3e5f74;}.n{fill:#ff3b20;}.o,.w{opacity:0.3;}.p{fill:#a9c4e5;}.q{fill:#51424e;}.r{fill:#b2a5ac;}.s{fill:#7b2719;}.t{fill:#84b8b7;}.u{fill:#f2ad00;}.v{fill:#3e7498;}.ad,.w,.y{mix-blend-mode:multiply;}.x{fill:#993c1b;}.y{opacity:0.2;}.z{fill:#fffafc;}.aa{fill:#5f6c7c;}.ab{fill:#fbeaf1;}.ac{fill:#98aa3b;}.ad{opacity:0.6;}.ae{fill:#c3c73d;}.af{fill:#e7c352;}.ag{fill:#f4d29e;}.ah{fill:#ceb9bd;}.ai{fill:#7f696e;}.aj{fill:#356789;}.ak{opacity:0.7;}.al{fill:#c8d1ce;}.am{fill:#ff5b22;}.an{fill:#ffb2a8;}.ao{fill:#084596;}.ap{fill:#eb9076;}.aq{fill:#053473;}.ar{fill:#ff5876;}.as{fill:#f74363;}.at{fill:#2d2d7a;}.au{fill:#000062;}.av{fill:#fed296;}.aw{fill:#fff;}.ax{fill:#e33453;}.ay{fill:#ffbf69;}.az{fill:#bfd772;}.ba{fill:#feb149;}</style></defs><g transform="translate(-26.492 -223.034)"><g class="a" transform="translate(-22.606 128.855)"><g class="b" transform="translate(50.686 101.44)"><rect class="c" width="77.717" height="43.95" transform="translate(0 0)"/></g><g transform="translate(50.686 101.239)"><path class="d" d="M89.139,165.764v-2.013l-2.2-2.2-21.547,4.212-.528,10.706.828,2.075H142.58V165.764H141.3v-2.013l.5-1.829-21.229,3.841-9.265,9.176,1.029-1.091-9.778-4.838v-7.157H98.528l-2.318,6.854-8.814,6.253v-9.2Z" transform="translate(-64.86 -161.552)"/></g><g transform="translate(50.686 134.705)"><rect class="c" width="77.616" height="5.443" transform="translate(0 0)"/></g><g transform="translate(50.726 118.769)"><g transform="translate(0 2.746)"><rect class="e" width="2.416" height="2.387"/><g transform="translate(0 2.698)"><rect class="e" width="2.416" height="2.387"/></g><g transform="translate(0 5.396)"><rect class="e" width="2.416" height="2.387"/></g><g transform="translate(0 8.094)"><rect class="e" width="2.416" height="2.386"/></g><g transform="translate(0 10.792)"><rect class="e" width="2.416" height="2.387"/></g><g transform="translate(2.779)"><rect class="e" width="2.416" height="2.387"/></g><g transform="translate(2.779 2.698)"><rect class="e" width="2.416" height="2.387"/></g><g transform="translate(2.779 5.396)"><rect class="e" width="2.416" height="2.387"/></g><g transform="translate(2.779 8.094)"><rect class="e" width="2.416" height="2.386"/></g><g transform="translate(2.779 10.792)"><rect class="e" width="2.416" height="2.387"/></g><g transform="translate(5.569)"><rect class="e" width="2.416" height="2.387"/></g><g transform="translate(5.569 2.698)"><rect class="e" width="2.416" height="2.387"/></g><g transform="translate(5.569 5.396)"><rect class="e" width="2.416" height="2.387"/></g><g transform="translate(5.569 8.094)"><rect class="e" width="2.416" height="2.386"/></g><g transform="translate(5.569 10.792)"><rect class="e" width="2.416" height="2.387"/></g><g transform="translate(8.35)"><rect class="e" width="2.416" height="2.387"/></g><g transform="translate(8.35 2.698)"><rect class="e" width="2.416" height="2.387"/></g><g transform="translate(8.35 5.396)"><rect class="e" width="2.416" height="2.387"/></g><g transform="translate(8.35 8.094)"><rect class="e" width="2.416" height="2.386"/></g><g transform="translate(8.35 10.792)"><rect class="e" width="2.416" height="2.387"/></g></g><g transform="translate(0.384 2.746)"><g transform="translate(10.797)"><rect class="e" width="2.416" height="2.387"/></g><g transform="translate(10.797 2.698)"><rect class="e" width="2.416" height="2.387"/></g><g transform="translate(10.797 5.396)"><rect class="e" width="2.416" height="2.387"/></g><g transform="translate(10.797 8.094)"><rect class="e" width="2.416" height="2.386"/></g><g transform="translate(10.797 10.792)"><rect class="e" width="2.416" height="2.387"/></g><g transform="translate(13.576)"><rect class="e" width="2.416" height="2.387"/></g><g transform="translate(13.576 2.698)"><rect class="e" width="2.416" height="2.387"/></g><g transform="translate(13.576 5.396)"><rect class="e" width="2.416" height="2.387"/></g><g transform="translate(13.576 8.094)"><rect class="e" width="2.416" height="2.386"/></g><g transform="translate(13.576 10.792)"><rect class="e" width="2.416" height="2.387"/></g><g transform="translate(16.367)"><rect class="e" width="2.416" height="2.387"/></g><g transform="translate(16.367 2.698)"><rect class="e" width="2.416" height="2.387"/></g><g transform="translate(16.367 5.396)"><rect class="e" width="2.416" height="2.387"/></g><g transform="translate(16.367 8.094)"><rect class="e" width="2.416" height="2.386"/></g><g transform="translate(16.367 10.792)"><rect class="e" width="2.416" height="2.387"/></g><g transform="translate(19.146)"><rect class="e" width="2.416" height="2.387"/></g><g transform="translate(19.146 2.698)"><rect class="e" width="2.416" height="2.387"/></g><g transform="translate(19.146 5.396)"><rect class="e" width="2.416" height="2.387"/></g><g transform="translate(19.146 8.094)"><rect class="e" width="2.416" height="2.386"/></g><g transform="translate(19.146 10.792)"><rect class="e" width="2.416" height="2.387"/></g><g class="f" transform="translate(0 0.005)"><path class="e" d="M69.066,363.161a.4.4,0,0,0,.4.4H88.255a.4.4,0,0,0,0-.805H69.469A.4.4,0,0,0,69.066,363.161Z" transform="translate(-69.066 -362.759)"/></g></g><g transform="translate(22.31 2.746)"><rect class="e" width="2.416" height="2.387"/><g transform="translate(0 2.698)"><rect class="e" width="2.416" height="2.387"/></g><g transform="translate(0 5.396)"><rect class="e" width="2.416" height="2.387"/></g><g transform="translate(0 8.094)"><rect class="e" width="2.416" height="2.386"/></g><g transform="translate(0 10.792)"><rect class="e" width="2.416" height="2.387"/></g><g transform="translate(2.779)"><rect class="e" width="2.416" height="2.387"/></g><g transform="translate(2.779 2.698)"><rect class="e" width="2.416" height="2.387"/></g><g transform="translate(2.779 5.396)"><rect class="e" width="2.416" height="2.387"/></g><g transform="translate(2.779 8.094)"><rect class="e" width="2.416" height="2.386"/></g><g transform="translate(2.779 10.792)"><rect class="e" width="2.416" height="2.387"/></g><g transform="translate(5.569)"><rect class="e" width="2.416" height="2.387"/></g><g transform="translate(5.569 2.698)"><rect class="e" width="2.416" height="2.387"/></g><g transform="translate(5.569 5.396)"><rect class="e" width="2.416" height="2.387"/></g><g transform="translate(5.569 8.094)"><rect class="e" width="2.416" height="2.386"/></g><g transform="translate(5.569 10.792)"><rect class="e" width="2.416" height="2.387"/></g><g transform="translate(8.349)"><rect class="e" width="2.416" height="2.387"/></g><g transform="translate(8.349 2.698)"><rect class="e" width="2.416" height="2.387"/></g><g transform="translate(8.349 5.396)"><rect class="e" width="2.416" height="2.387"/></g><g transform="translate(8.349 8.094)"><rect class="e" width="2.416" height="2.386"/></g><g transform="translate(8.349 10.792)"><rect class="e" width="2.416" height="2.387"/></g></g><g transform="translate(33.491 2.746)"><rect class="e" width="2.416" height="2.387"/><g transform="translate(0 2.698)"><rect class="e" width="2.416" height="2.387"/></g><g transform="translate(0 5.396)"><rect class="e" width="2.416" height="2.387"/></g><g transform="translate(0 8.094)"><rect class="e" width="2.416" height="2.386"/></g><g transform="translate(0 10.792)"><rect class="e" width="2.416" height="2.387"/></g><g transform="translate(2.78)"><rect class="e" width="2.416" height="2.387"/></g><g transform="translate(2.78 2.698)"><rect class="e" width="2.416" height="2.387"/></g><g transform="translate(2.78 5.396)"><rect class="e" width="2.416" height="2.387"/></g><g transform="translate(2.78 8.094)"><rect class="e" width="2.416" height="2.386"/></g><g transform="translate(2.78 10.792)"><rect class="e" width="2.416" height="2.387"/></g><g transform="translate(5.57)"><rect class="e" width="2.416" height="2.387"/></g><g transform="translate(5.57 2.698)"><rect class="e" width="2.416" height="2.387"/></g><g transform="translate(5.57 5.396)"><rect class="e" width="2.416" height="2.387"/></g><g transform="translate(5.57 8.094)"><rect class="e" width="2.416" height="2.386"/></g><g transform="translate(5.57 10.792)"><rect class="e" width="2.416" height="2.387"/></g><g transform="translate(8.349)"><rect class="e" width="2.416" height="2.387"/></g><g transform="translate(8.349 2.698)"><rect class="e" width="2.416" height="2.387"/></g><g transform="translate(8.349 5.396)"><rect class="e" width="2.416" height="2.387"/></g><g transform="translate(8.349 8.094)"><rect class="e" width="2.416" height="2.386"/></g><g transform="translate(8.349 10.792)"><rect class="e" width="2.416" height="2.387"/></g></g><g transform="translate(44.63 2.746)"><rect class="e" width="2.416" height="2.387"/><g transform="translate(0 2.698)"><rect class="e" width="2.416" height="2.387"/></g><g transform="translate(0 5.396)"><rect class="e" width="2.416" height="2.387"/></g><g transform="translate(0 8.094)"><rect class="e" width="2.416" height="2.386"/></g><g transform="translate(0 10.792)"><rect class="e" width="2.416" height="2.387"/></g><g transform="translate(2.779)"><rect class="e" width="2.416" height="2.387"/></g><g transform="translate(2.779 2.698)"><rect class="e" width="2.416" height="2.387"/></g><g transform="translate(2.779 5.396)"><rect class="e" width="2.416" height="2.387"/></g><g transform="translate(2.779 8.094)"><rect class="e" width="2.416" height="2.386"/></g><g transform="translate(2.779 10.792)"><rect class="e" width="2.416" height="2.387"/></g><g transform="translate(5.57)"><rect class="e" width="2.416" height="2.387"/></g><g transform="translate(5.57 2.698)"><rect class="e" width="2.416" height="2.387"/></g><g transform="translate(5.57 5.396)"><rect class="e" width="2.416" height="2.387"/></g><g transform="translate(5.57 8.094)"><rect class="e" width="2.416" height="2.386"/></g><g transform="translate(5.57 10.792)"><rect class="e" width="2.416" height="2.387"/></g><g transform="translate(8.349)"><rect class="e" width="2.416" height="2.387"/></g><g transform="translate(8.349 2.698)"><rect class="e" width="2.416" height="2.387"/></g><g transform="translate(8.349 5.396)"><rect class="e" width="2.416" height="2.387"/></g><g transform="translate(8.349 8.094)"><rect class="e" width="2.416" height="2.386"/></g><g transform="translate(8.349 10.792)"><rect class="e" width="2.416" height="2.387"/></g></g><g transform="translate(0 0)"><g transform="translate(55.811 2.746)"><rect class="e" width="2.416" height="2.387"/></g><g transform="translate(55.811 5.444)"><rect class="e" width="2.416" height="2.387"/></g><g transform="translate(55.811 8.142)"><rect class="e" width="2.416" height="2.387"/></g><g transform="translate(55.811 10.84)"><rect class="e" width="2.416" height="2.386"/></g><g transform="translate(55.811 13.538)"><rect class="e" width="2.416" height="2.387"/></g><g transform="translate(58.591 2.746)"><rect class="e" width="2.416" height="2.387"/></g><g transform="translate(58.591 5.444)"><rect class="e" width="2.416" height="2.387"/></g><g transform="translate(58.591 8.142)"><rect class="e" width="2.416" height="2.387"/></g><g transform="translate(58.591 10.84)"><rect class="e" width="2.416" height="2.386"/></g><g transform="translate(58.591 13.538)"><rect class="e" width="2.416" height="2.387"/></g><g transform="translate(61.381 2.746)"><rect class="e" width="2.416" height="2.387"/></g><g transform="translate(61.381 5.444)"><rect class="e" width="2.416" height="2.387"/></g><g transform="translate(61.381 8.142)"><rect class="e" width="2.416" height="2.387"/></g><g transform="translate(61.381 10.84)"><rect class="e" width="2.416" height="2.386"/></g><g transform="translate(61.381 13.538)"><rect class="e" width="2.416" height="2.387"/></g><g transform="translate(64.16 2.746)"><rect class="e" width="2.416" height="2.387"/></g><g transform="translate(64.16 5.444)"><rect class="e" width="2.416" height="2.387"/></g><g transform="translate(64.16 8.142)"><rect class="e" width="2.416" height="2.387"/></g><g transform="translate(64.16 10.84)"><rect class="e" width="2.416" height="2.386"/></g><g transform="translate(64.16 13.538)"><rect class="e" width="2.416" height="2.387"/></g><g transform="translate(66.956 2.746)"><rect class="e" width="2.416" height="2.387"/></g><rect class="e" width="2.416" height="2.387"/><g transform="translate(2.779)"><rect class="e" width="2.416" height="2.387"/></g><g transform="translate(5.569)"><rect class="e" width="2.416" height="2.387"/></g><g transform="translate(8.35)"><rect class="e" width="2.416" height="2.387"/></g><g transform="translate(11.181)"><rect class="e" width="2.416" height="2.387"/></g><g transform="translate(13.961)"><rect class="e" width="2.416" height="2.387"/></g><g transform="translate(16.751)"><rect class="e" width="2.416" height="2.387"/></g><g transform="translate(19.53)"><rect class="e" width="2.416" height="2.387"/></g><g transform="translate(22.31)"><rect class="e" width="2.416" height="2.387"/></g><g transform="translate(25.089)"><rect class="e" width="2.416" height="2.387"/></g><g transform="translate(27.879)"><rect class="e" width="2.416" height="2.387"/></g><g transform="translate(30.659)"><rect class="e" width="2.416" height="2.387"/></g><g transform="translate(33.491)"><rect class="e" width="2.416" height="2.387"/></g><g transform="translate(36.27)"><rect class="e" width="2.416" height="2.387"/></g><g transform="translate(39.06)"><rect class="e" width="2.416" height="2.387"/></g><g transform="translate(41.84)"><rect class="e" width="2.416" height="2.387"/></g><g transform="translate(44.63)"><rect class="e" width="2.416" height="2.387"/></g><g transform="translate(47.41)"><rect class="e" width="2.416" height="2.387"/></g><g transform="translate(50.2)"><rect class="e" width="2.416" height="2.387"/></g><g transform="translate(52.979)"><rect class="e" width="2.416" height="2.387"/></g><g transform="translate(55.811)"><rect class="e" width="2.416" height="2.387"/></g><g transform="translate(58.591)"><rect class="e" width="2.416" height="2.387"/></g><g transform="translate(61.381)"><rect class="e" width="2.416" height="2.387"/></g><g transform="translate(64.16)"><rect class="e" width="2.416" height="2.387"/></g><g transform="translate(66.956)"><rect class="e" width="2.416" height="2.387"/></g><g transform="translate(66.956 5.444)"><rect class="e" width="2.416" height="2.387"/></g><g transform="translate(66.956 8.142)"><rect class="e" width="2.416" height="2.387"/></g><g transform="translate(66.956 10.84)"><rect class="e" width="2.416" height="2.386"/></g><g transform="translate(66.956 13.538)"><rect class="e" width="2.416" height="2.387"/></g><g transform="translate(69.801 2.746)"><rect class="e" width="2.416" height="2.387"/></g><g transform="translate(69.801 5.444)"><rect class="e" width="2.416" height="2.387"/></g><g transform="translate(69.801 8.142)"><rect class="e" width="2.416" height="2.387"/></g><g transform="translate(69.801 10.84)"><rect class="e" width="2.416" height="2.386"/></g><g transform="translate(69.801 13.538)"><rect class="e" width="2.416" height="2.387"/></g><g transform="translate(72.581 2.746)"><rect class="e" width="2.415" height="2.387"/></g><g transform="translate(72.581 5.444)"><rect class="e" width="2.415" height="2.387"/></g><g transform="translate(72.581 8.142)"><rect class="e" width="2.415" height="2.387"/></g><g transform="translate(72.581 10.84)"><rect class="e" width="2.415" height="2.386"/></g><g transform="translate(72.581 13.538)"><rect class="e" width="2.415" height="2.387"/></g><g transform="translate(75.376 2.746)"><rect class="e" width="2.416" height="2.387"/></g><g transform="translate(69.801)"><rect class="e" width="2.416" height="2.387"/></g><g transform="translate(72.581)"><rect class="e" width="2.415" height="2.387"/></g><g transform="translate(75.376)"><rect class="e" width="2.416" height="2.387"/></g><g transform="translate(75.376 5.444)"><rect class="e" width="2.416" height="2.387"/></g><g transform="translate(75.376 8.142)"><rect class="e" width="2.416" height="2.387"/></g><g transform="translate(75.376 10.84)"><rect class="e" width="2.416" height="2.386"/></g><g transform="translate(75.376 13.538)"><rect class="e" width="2.416" height="2.387"/></g></g></g><g class="g" transform="translate(49.097 94.478)"><g transform="translate(44.818 42.541)"><rect class="h" width="1.208" height="24.56"/></g><g transform="translate(22.017 42.541)"><rect class="h" width="1.589" height="24.56"/></g><g transform="translate(67.899 8.856)"><rect class="h" width="0.805" height="12.882" transform="translate(0)"/></g><g transform="translate(50.454 31)"><g transform="translate(1.778)"><g transform="translate(0.101)"><path class="i" d="M572.5,404.372V403.7a1.68,1.68,0,0,0-1.678-1.678h-.872a1.68,1.68,0,0,0-1.678,1.678v7.178h1.074V403.7a.605.605,0,0,1,.6-.6h.872a.6.6,0,0,1,.6.6v.672Z" transform="translate(-568.272 -402.022)"/></g><g transform="translate(0 5.875)"><rect class="j" width="1.376" height="2.982"/></g></g><g transform="translate(1.208 6.543)"><path class="j" d="M563.829,467.336a.2.2,0,1,0,0-.4h-2.013a.2.2,0,1,0,0,.4Z" transform="translate(-561.615 -466.933)"/></g><g transform="translate(0 6.073)"><path class="j" d="M550.44,463.614a.671.671,0,0,0,0-1.342h-.134a.671.671,0,0,0,0,1.342Z" transform="translate(-549.635 -462.272)"/></g><g transform="translate(3.355 6.073)"><path class="j" d="M583.72,463.614a.671.671,0,1,0,0-1.342h-.134a.671.671,0,0,0,0,1.342Z" transform="translate(-582.915 -462.272)"/></g><g transform="translate(4.831 2.147)"><path class="j" d="M598.767,423.859a.268.268,0,0,0,0-.537h-.939a.268.268,0,1,0,0,.537Z" transform="translate(-597.559 -423.322)"/></g></g><g transform="translate(11.144 0)"><g transform="translate(0 3.571)"><g transform="translate(7.757)"><path class="k" d="M237.83,130.188a.279.279,0,0,0-.279-.279H236.6v.558h.949A.279.279,0,0,0,237.83,130.188Z" transform="translate(-236.602 -129.909)"/></g><path class="k" d="M159.927,130.467h.949v-.558h-.949a.279.279,0,1,0,0,.558Z" transform="translate(-159.648 -129.909)"/></g><g transform="translate(1.144 2.009)"><path class="i" d="M176.744,119.265a.949.949,0,0,0,.949-.949V114.41H171v3.906a.949.949,0,0,0,.949.949Z" transform="translate(-170.997 -114.41)"/></g><g transform="translate(1.144 0.725)"><path class="l" d="M176.744,101.671h-4.8a.949.949,0,0,0-.949.949v.335h6.7v-.335A.949.949,0,0,0,176.744,101.671Z" transform="translate(-170.997 -101.671)"/></g><g transform="translate(0.586 2.009)"><path class="m" d="M172.995,114.968a.279.279,0,1,0,0-.558H165.74a.279.279,0,0,0,0,.558Z" transform="translate(-165.461 -114.41)"/></g><g transform="translate(4.213)"><path class="n" d="M201.724,94.478a.279.279,0,0,0-.279.279V95.2H202v-.446A.279.279,0,0,0,201.724,94.478Z" transform="translate(-201.445 -94.478)"/></g><g class="o" transform="translate(2.364 2.567)"><path class="e" d="M186.844,119.945l-3.739,4.3h1.075l3.739-4.3Z" transform="translate(-183.105 -119.945)"/></g></g><g transform="translate(49.768 1.327)"><g transform="translate(0 2.915)"><g transform="translate(11.089)"><path class="k" d="M654.128,136.86a.294.294,0,0,0-.294-.294h-1v.588h1A.294.294,0,0,0,654.128,136.86Z" transform="translate(-652.834 -136.566)"/></g><path class="k" d="M544.123,137.154v-.588h-1a.294.294,0,0,0,0,.588Z" transform="translate(-542.829 -136.566)"/></g><g transform="translate(1.206 1.742)"><path class="i" d="M563.762,128.72a1,1,0,0,0,1-1v-2.8h-9.971v2.8a1,1,0,0,0,1,1Z" transform="translate(-554.792 -124.924)"/></g><g transform="translate(11.175 1.742)"><path class="l" d="M653.7,124.924c0,.007,0,.015,0,.022v-.022Z" transform="translate(-653.695 -124.924)"/></g><g transform="translate(1.206 1.742)"><path class="l" d="M554.792,124.946c0-.008,0-.015,0-.022h0Z" transform="translate(-554.792 -124.924)"/></g><g transform="translate(1.207 0.764)"><path class="l" d="M563.773,115.223H555.8a1,1,0,0,0-1,.978h9.968A1,1,0,0,0,563.773,115.223Z" transform="translate(-554.804 -115.223)"/></g><g transform="translate(0.617 1.742)"><path class="m" d="M559.807,125.512a.294.294,0,0,0,0-.588H549.248a.294.294,0,0,0,0,.588Z" transform="translate(-548.954 -124.924)"/></g><g transform="translate(5.933)"><path class="n" d="M601.987,107.643a.294.294,0,0,0-.294.294v.47h.588v-.47A.294.294,0,0,0,601.987,107.643Z" transform="translate(-601.693 -107.643)"/></g><g class="o" transform="translate(3.078 2.33)"><path class="e" d="M576.332,130.758l-2.97,3.207H575.4l2.97-3.207Z" transform="translate(-573.362 -130.758)"/></g><g class="o" transform="translate(6.228 2.33)"><path class="e" d="M607.58,130.758l-2.97,3.207h.8l2.97-3.207Z" transform="translate(-604.61 -130.758)"/></g></g><g transform="translate(64.497 3.861)"><g transform="translate(5.862 0.943)"><path class="p" d="M751.726,142.435a.294.294,0,0,0-.294-.294H747.1v.588h4.33A.294.294,0,0,0,751.726,142.435Z" transform="translate(-747.102 -142.141)"/></g><g transform="translate(0.588)"><path class="i" d="M699.148,135.788a1,1,0,0,0,1-1v-2h-5.361v2a1,1,0,0,0,1,1Z" transform="translate(-694.787 -132.785)"/></g><g transform="translate(8.547 0.759)"><path class="q" d="M776.276,140.794a.478.478,0,0,0-.478-.478h-2.052v.956H775.8A.478.478,0,0,0,776.276,140.794Z" transform="translate(-773.745 -140.316)"/></g><path class="m" d="M695.193,133.373a.294.294,0,1,0,0-.588h-5.95a.294.294,0,1,0,0,.588Z" transform="translate(-688.949 -132.785)"/><g class="o" transform="translate(1.726 0.588)"><path class="e" d="M707.974,138.619l-1.9,2.415H707l1.9-2.415Z" transform="translate(-706.073 -138.619)"/></g><g class="o" transform="translate(3.342 0.588)"><path class="e" d="M724,138.619l-1.9,2.415h.376l1.9-2.415Z" transform="translate(-722.102 -138.619)"/></g></g><g transform="translate(2.709 2.323)"><g transform="translate(0 2.716)"><g transform="translate(6.29)"><path class="k" d="M138.372,144.462v.558h.949a.279.279,0,0,0,0-.558Z" transform="translate(-138.372 -144.462)"/></g><path class="k" d="M75.972,144.741a.279.279,0,0,0,.279.279H77.2v-.558h-.948A.279.279,0,0,0,75.972,144.741Z" transform="translate(-75.972 -144.462)"/></g><g transform="translate(1.144 1.642)"><path class="i" d="M88.271,136.713H91.6a.949.949,0,0,0,.949-.949v-1.95h-5.23v1.95A.949.949,0,0,0,88.271,136.713Z" transform="translate(-87.322 -133.813)"/></g><g transform="translate(6.372 1.642)"><path class="l" d="M139.189,133.813h0c0,.011,0,.021,0,.032Z" transform="translate(-139.188 -133.813)"/></g><g transform="translate(1.146 0.725)"><path class="l" d="M88.285,124.712a.948.948,0,0,0-.947.917h5.226a.949.949,0,0,0-.948-.917Z" transform="translate(-87.338 -124.712)"/></g><g transform="translate(1.144 1.642)"><path class="l" d="M87.324,133.813h0v.032C87.322,133.834,87.323,133.824,87.324,133.813Z" transform="translate(-87.322 -133.813)"/></g><g transform="translate(0.586 1.642)"><path class="m" d="M82.062,133.813a.279.279,0,1,0,0,.558H87.85a.279.279,0,1,0,0-.558Z" transform="translate(-81.783 -133.813)"/></g><g transform="translate(3.48)"><path class="n" d="M110.494,117.8v.446h.558V117.8a.279.279,0,0,0-.558,0Z" transform="translate(-110.494 -117.52)"/></g><g class="o" transform="translate(2.008 2.2)"><path class="e" d="M96.912,141.69l2.029-2.342H97.926L95.9,141.69Z" transform="translate(-95.897 -139.348)"/></g><g class="o" transform="translate(3.531 2.2)"><path class="e" d="M111.583,141.69l2.029-2.342h-.586L111,141.69Z" transform="translate(-110.997 -139.348)"/></g></g><g transform="translate(2.013 26.572)"><path class="p" d="M69.066,358.5a.4.4,0,0,0,.4.4H88.255a.4.4,0,1,0,0-.805H69.469A.4.4,0,0,0,69.066,358.5Z" transform="translate(-69.066 -358.093)"/></g><g transform="translate(47.536 38.782)"><path class="r" d="M521.6,479.216c-.793,0-.92.064-.92.606v2.146a1.141,1.141,0,0,0,1.141,1.141h18.083a1.141,1.141,0,0,0,1.141-1.141v-2.146c0-.542-.154-.606-.92-.606-.325,0-.258.327-.258.357,0,.341-.32.316-.83.316H522.69c-.51,0-.83.025-.83-.316C521.86,479.41,521.887,479.216,521.6,479.216Z" transform="translate(-520.682 -479.216)"/></g><g class="f" transform="translate(47.536 40.227)"><path class="q" d="M540.157,495.973a1.141,1.141,0,0,0,.89-1.112v-1.307H520.682v1.307a1.141,1.141,0,0,0,.89,1.112Z" transform="translate(-520.682 -493.554)"/></g><g transform="translate(3.086 67.1)"><rect class="s" width="75.01" height="1.879"/></g><g transform="translate(68.569 42.809)"><rect class="c" width="10.735" height="5.367" transform="translate(0)"/></g><g transform="translate(68.569 48.444)"><rect class="c" width="10.735" height="5.367" transform="translate(0)"/></g><g transform="translate(68.569 54.081)"><rect class="c" width="10.735" height="5.367" transform="translate(0)"/></g><g transform="translate(68.569 59.716)"><rect class="c" width="10.735" height="7.384" transform="translate(0)"/></g><g transform="translate(71.79 44.017)"><rect class="q" width="4.294" height="0.805" rx="0.403"/></g><g transform="translate(68.569 48.176)"><rect class="h" width="10.735" height="0.403" transform="translate(0)"/></g><g transform="translate(68.569 53.812)"><rect class="h" width="10.735" height="0.402" transform="translate(0)"/></g><g transform="translate(68.569 59.448)"><rect class="h" width="10.735" height="0.403" transform="translate(0)"/></g><g transform="translate(71.79 49.652)"><rect class="q" width="4.294" height="0.805" rx="0.403"/></g><g transform="translate(71.79 55.288)"><rect class="q" width="4.294" height="0.805" rx="0.403"/></g><g transform="translate(71.79 60.924)"><rect class="q" width="4.294" height="0.805" rx="0.403"/></g><g transform="translate(57.298 42.004)"><rect class="c" width="10.869" height="25.097" transform="translate(0)"/></g><g transform="translate(46.026 42.004)"><rect class="c" width="10.869" height="25.097"/></g><g transform="translate(56.895 42.138)"><rect class="h" width="0.403" height="24.962"/></g><g transform="translate(68.167 42.138)"><rect class="h" width="0.403" height="24.962" transform="translate(0)"/></g><g transform="translate(58.64 51.129)"><rect class="q" width="0.805" height="4.294" rx="0.403" transform="translate(0)"/></g><g transform="translate(1.61 42.809)"><rect class="c" width="20.396" height="5.367"/></g><g transform="translate(1.61 48.444)"><rect class="c" width="20.396" height="5.367"/></g><g transform="translate(1.61 54.081)"><rect class="c" width="20.396" height="5.367"/></g><g transform="translate(1.61 59.716)"><rect class="c" width="20.396" height="7.384"/></g><g transform="translate(1.61 8.856)"><rect class="l" width="20.396" height="12.882"/><g transform="translate(2.163 2.029)"><rect class="t" width="15.566" height="7.112" transform="translate(0.252 0.252)"/><path class="u" d="M102.6,210.085v-7.616H86.533v7.616Zm-15.566-7.112H102.1v6.608H87.037Z" transform="translate(-86.533 -202.469)"/></g><g transform="translate(8.051 10.601)"><rect class="q" width="4.294" height="0.805" rx="0.403"/></g></g><g transform="translate(46.026 8.856)"><rect class="l" width="22.007" height="12.882"/><g transform="translate(2.151 2.029)"><rect class="t" width="17.176" height="7.112" transform="translate(0.252 0.252)"/><path class="u" d="M544.721,202.469h-17.68v7.616h17.68Zm-.5,7.112H527.545v-6.608h16.672Z" transform="translate(-527.041 -202.469)"/></g><g transform="translate(8.856 10.601)"><rect class="q" width="4.294" height="0.805" rx="0.403"/></g></g><g transform="translate(68.586 8.856)"><rect class="l" width="10.869" height="12.882"/><g transform="translate(2.163 2.029)"><rect class="t" width="6.038" height="7.112" transform="translate(0.252 0.252)"/><path class="u" d="M750.977,202.469v7.616h6.543v-7.616Zm6.039,7.112h-5.535v-6.608h5.535Z" transform="translate(-750.977 -202.469)"/></g><g transform="translate(3.287 10.601)"><rect class="q" width="4.294" height="0.805" rx="0.403"/></g></g><g transform="translate(9.662 44.017)"><rect class="q" width="4.294" height="0.805" rx="0.403"/></g><g transform="translate(1.61 48.176)"><rect class="h" width="20.396" height="0.403"/></g><g transform="translate(1.61 53.812)"><rect class="h" width="20.396" height="0.402"/></g><g transform="translate(1.61 59.448)"><rect class="h" width="20.396" height="0.403"/></g><g transform="translate(9.662 49.652)"><rect class="q" width="4.294" height="0.805" rx="0.403"/></g><g transform="translate(9.662 55.288)"><rect class="q" width="4.294" height="0.805" rx="0.403"/></g><g transform="translate(9.662 60.924)"><rect class="q" width="4.294" height="0.805" rx="0.403"/></g><g transform="translate(25.227 30.162)"><g transform="translate(8.665)"><g transform="translate(4.198 2.027)"><path class="q" d="M427.91,414.288a.47.47,0,1,0-.47.47A.47.47,0,0,0,427.91,414.288Z" transform="translate(-426.971 -413.818)"/></g><g transform="translate(1.879)"><path class="q" d="M408.38,401.233h2.012a4.865,4.865,0,0,0,.806-2.691,4.8,4.8,0,0,0-4.764-4.838,4.678,4.678,0,0,0-2.469.7l.471.471a3.216,3.216,0,0,1,1.712-.49,3.13,3.13,0,0,1,3.171,3.086,3.037,3.037,0,0,1-.939,2.192Z" transform="translate(-403.965 -393.704)"/></g><g transform="translate(0 4.04)"><path class="v" d="M387.474,435.665l-1.074-1.879h-1.073l1.342,4.294H391.5Z" transform="translate(-385.327 -433.786)"/></g><g transform="translate(0.919 2.699)"><g transform="translate(0 1.073)"><path class="i" d="M400.328,431.124h-4.276a7.384,7.384,0,0,0-1.611,4.562h7.5A7.383,7.383,0,0,0,400.328,431.124Z" transform="translate(-394.442 -431.124)"/></g><g class="w" transform="translate(4.399 1.071)"><path class="k" d="M440.626,435.266a6.744,6.744,0,0,0-1.471-4.166h-1.076a6.742,6.742,0,0,1,1.471,4.166Z" transform="translate(-438.079 -431.1)"/></g><g transform="translate(1.611)"><path class="q" d="M412.559,420.475a2.9,2.9,0,0,0-2.138,1.073H414.7A2.894,2.894,0,0,0,412.559,420.475Z" transform="translate(-410.421 -420.475)"/></g></g><g transform="translate(1.476 8.334)"><rect class="j" width="6.307" height="0.671"/></g></g><g transform="translate(0 8.991)"><path class="q" d="M299.635,482.9l-.269.671h7.783l-.268-.671Z" transform="translate(-299.366 -482.896)"/></g><g transform="translate(9.329 8.991)"><path class="q" d="M399.433,482.9h-7.246l-.268.671H399.7Z" transform="translate(-391.918 -482.896)"/></g><g transform="translate(10.088 3.772)"><path class="p" d="M401.053,431.124a7.384,7.384,0,0,0-1.611,4.562h1.008a7.384,7.384,0,0,1,1.611-4.562Z" transform="translate(-399.442 -431.124)"/></g><g transform="translate(9.584 7.923)"><path class="m" d="M401.913,472.3h-7.444c-.011.136-.021.374-.026.512h7.5C401.934,472.678,401.924,472.44,401.913,472.3Z" transform="translate(-394.442 -472.304)"/></g></g><g transform="translate(23.348 41.369)"><rect class="x" width="21.47" height="25.832"/></g><g transform="translate(23.348 39.756)"><rect class="x" width="21.47" height="1.901"/></g><g class="y" transform="translate(1.613 42.812)"><rect class="q" width="77.722" height="0.702"/></g><g transform="translate(0 6.844)"><rect class="n" width="23.751" height="2.013"/></g><g transform="translate(44.684 6.844)"><rect class="n" width="36.264" height="2.013"/></g><g transform="translate(54.748 51.129)"><rect class="q" width="0.805" height="4.294" rx="0.403"/></g><g transform="translate(25.093 44.386)"><path class="z" d="M2.147,0H15.7a2.147,2.147,0,0,1,2.147,2.147v0A2.147,2.147,0,0,1,15.7,4.294H2.147A2.147,2.147,0,0,1,0,2.147v0A2.147,2.147,0,0,1,2.147,0Z"/></g><g transform="translate(25.093 50.323)"><path class="t" d="M5.87,0h6.106a5.871,5.871,0,0,1,5.871,5.871v0a5.871,5.871,0,0,1-5.871,5.871H5.871A5.871,5.871,0,0,1,0,5.871v0A5.87,5.87,0,0,1,5.87,0Z"/></g><g transform="translate(39.182 45.594)"><path class="q" d="M439.346,548.462a.939.939,0,1,0-1.322-.132A.939.939,0,0,0,439.346,548.462Z" transform="translate(-437.811 -546.796)"/></g><g transform="translate(36.499 45.594)"><path class="q" d="M413.067,547.736a.939.939,0,1,0-.939.939A.939.939,0,0,0,413.067,547.736Z" transform="translate(-411.189 -546.797)"/></g><g transform="translate(33.815 45.594)"><path class="q" d="M386.443,547.736a.939.939,0,1,0-.939.939A.939.939,0,0,0,386.443,547.736Z" transform="translate(-384.564 -546.797)"/></g><g transform="translate(31.131 45.594)"><path class="q" d="M359.819,547.736a.939.939,0,1,0-.939.939A.939.939,0,0,0,359.819,547.736Z" transform="translate(-357.94 -546.797)"/></g><g transform="translate(26.032 45.594)"><circle class="q" cx="0.939" cy="0.939" r="0.939"/></g><g transform="translate(31.604 50.323)"><path class="aa" d="M373.966,604.319v-9.459a1.141,1.141,0,0,0-1.141-1.141h-1.543L362.63,605.46h10.195A1.141,1.141,0,0,0,373.966,604.319Z" transform="translate(-362.63 -593.718)"/></g><g transform="translate(26.856 50.327)"><path class="aa" d="M324.181,593.761l-8.652,11.733h2.613l8.639-11.733C326.72,593.751,324.181,593.761,324.181,593.761Z" transform="translate(-315.529 -593.757)"/></g><g transform="translate(26.569 51.799)"><rect class="q" width="14.761" height="0.805" rx="0.403"/></g><g class="f" transform="translate(26.935 52.323)"><rect class="q" width="14.761" height="0.805" rx="0.403"/></g><g transform="translate(23.348 6.843)"><g transform="translate(7.045)"><rect class="ab" width="7.38" height="12.549"/></g><g transform="translate(0 12.146)"><rect class="r" width="21.47" height="2.749"/></g><g transform="translate(0 7.381)"><path class="z" d="M295.142,235.587h-7.413l-7,4.765H302.2Z" transform="translate(-280.729 -235.587)"/></g></g><g transform="translate(5.636 37.307)"><g transform="translate(2.196 2.235)"><rect class="q" width="2.963" height="1.254"/></g><path class="ac" d="M108.687,467.568a3.761,3.761,0,0,0,3.678-2.977h-7.356A3.761,3.761,0,0,0,108.687,467.568Z" transform="translate(-105.009 -464.591)"/><g transform="translate(0.651 0.324)"><path class="z" d="M111.464,467.8a2.541,2.541,0,0,0,1.913,1.944,2.542,2.542,0,0,1-1.516-1.944Z" transform="translate(-111.464 -467.805)"/></g><g class="ad" transform="translate(3.437)"><path class="l" d="M139.11,467.232a2.478,2.478,0,0,0,.6.075,3.064,3.064,0,0,0,2.834-2.716h-1.21A3.211,3.211,0,0,1,139.11,467.232Z" transform="translate(-139.11 -464.591)"/></g></g><g transform="translate(0.906 25.767)"><g transform="translate(3.113 1.932)"><rect class="k" width="0.429" height="5.904"/></g><g transform="translate(0 7.837)"><path class="q" d="M58.083,427.9a1.771,1.771,0,1,0,3.543,0c0-.018,0-.036,0-.054H58.086C58.085,427.866,58.083,427.884,58.083,427.9Z" transform="translate(-58.083 -427.848)"/></g><g transform="translate(0 7.837)"><path class="q" d="M58.589,427.848h-.5c0,.018,0,.036,0,.054a1.77,1.77,0,0,0,3.1,1.165,1.993,1.993,0,0,1-2.6-1.218Z" transform="translate(-58.083 -427.848)"/></g><g transform="translate(2.898)"><path class="q" d="M86.836,350.534v1.932a.429.429,0,1,0,.859,0v-1.932a.429.429,0,1,0-.859,0Z" transform="translate(-86.836 -350.104)"/></g></g><g transform="translate(5.099 25.767)"><g transform="translate(0.859 1.932)"><rect class="k" width="0.429" height="5.904"/></g><g transform="translate(0.644)"><path class="q" d="M106.073,350.534v1.932a.43.43,0,0,0,.859,0v-1.932a.43.43,0,1,0-.859,0Z" transform="translate(-106.073 -350.104)"/></g><g transform="translate(0 7.246)"><path class="q" d="M99.684,423.548c0,.859.481,1.557,1.074,1.557s1.073-.7,1.073-1.557-.481-1.557-1.073-1.557S99.684,422.688,99.684,423.548Z" transform="translate(-99.684 -421.991)"/></g><g class="o" transform="translate(0.326 7.542)"><path class="z" d="M103.216,427.285l1-2.109a.776.776,0,0,0-.391-.246l-.9,1.915A1.185,1.185,0,0,0,103.216,427.285Z" transform="translate(-102.917 -424.93)"/><g transform="translate(0.529 0.505)"><path class="z" d="M108.4,431.982h0l.823-1.74a1.511,1.511,0,0,0-.113-.3l-.942,1.993A.634.634,0,0,0,108.4,431.982Z" transform="translate(-108.168 -429.944)"/></g></g></g><g transform="translate(11.808 25.767)"><g transform="translate(1.731 1.932)"><rect class="k" width="0.429" height="4.831"/></g><g transform="translate(1.516)"><path class="q" d="M182.146,352.466v-1.932a.429.429,0,1,0-.859,0v1.932a.429.429,0,1,0,.859,0Z" transform="translate(-181.287 -350.104)"/></g><g transform="translate(0 6.709)"><path class="q" d="M170.136,418.612a1.946,1.946,0,1,0-1.946,1.946A1.946,1.946,0,0,0,170.136,418.612Zm-.939-.537a.2.2,0,1,1-.2.2A.2.2,0,0,1,169.2,418.075Zm0,.671a.2.2,0,1,1-.2.2A.2.2,0,0,1,169.2,418.746Zm-.671-1.342a.2.2,0,1,1-.2.2A.2.2,0,0,1,168.525,417.4Zm0,.671a.2.2,0,1,1-.2.2A.2.2,0,0,1,168.525,418.075Zm0,.671a.2.2,0,1,1-.2.2A.2.2,0,0,1,168.525,418.746Zm0,.671a.2.2,0,1,1-.2.2A.2.2,0,0,1,168.525,419.417Zm-1.342-.268a.2.2,0,1,1,.2-.2A.2.2,0,0,1,167.183,419.148Zm0-.671a.2.2,0,1,1,.2-.2A.2.2,0,0,1,167.183,418.477Zm.671,1.342a.2.2,0,1,1,.2-.2A.2.2,0,0,1,167.854,419.819Zm0-.671a.2.2,0,1,1,.2-.2A.2.2,0,0,1,167.854,419.148Zm0-.671a.2.2,0,1,1,.2-.2A.2.2,0,0,1,167.854,418.477Zm0-.671a.2.2,0,1,1,.2-.2A.2.2,0,0,1,167.854,417.807Z" transform="translate(-166.244 -416.666)"/></g></g><g transform="translate(8.32 25.767)"><g transform="translate(0.725 1.932)"><rect class="k" width="0.429" height="5.01"/></g><g transform="translate(0.51)"><path class="q" d="M136.693,350.534v1.932a.429.429,0,1,0,.859,0v-1.932a.429.429,0,1,0-.859,0Z" transform="translate(-136.693 -350.104)"/></g><g transform="translate(0 6.709)"><path class="q" d="M132.013,416.666a.38.38,0,0,0-.38.38v1.923a.381.381,0,0,0,.38.38h1.118a.38.38,0,0,0,.38-.38v-1.923a.38.38,0,0,0-.38-.38Zm.358,2.013a.134.134,0,0,1-.268,0v-1.342a.134.134,0,0,1,.268,0Zm.671,0a.134.134,0,0,1-.269,0v-1.342a.134.134,0,0,1,.269,0Z" transform="translate(-131.632 -416.666)"/></g></g><g transform="translate(68.393 37.426)"><g transform="translate(5.502)"><g transform="translate(3.326 0.455)"><path class="n" d="M815.222,472.255a2.879,2.879,0,0,1,.848-.584c.3-.179.519-.317.577-.7a.642.642,0,0,0-.689-.7.667.667,0,0,0-.633.7C815.325,471.262,815.064,472.448,815.222,472.255Zm.253-.777a2.7,2.7,0,0,0,.089-.509.43.43,0,0,1,.394-.458.529.529,0,0,1,.383.164.3.3,0,0,1,.069.258c-.04.265-.171.353-.463.528a2.984,2.984,0,0,0-.55.366c-.067.075-.119.045-.159.075C815.255,471.756,815.444,471.615,815.476,471.478Z" transform="translate(-815.171 -470.278)"/></g><g transform="translate(0.669)"><path class="n" d="M789.738,468.647h1.67a3.343,3.343,0,0,1,.127-.45c.1-.248.5-.807.6-1.055a3.054,3.054,0,0,0,.169-1.378h-3.47a3.055,3.055,0,0,0,.169,1.378c.1.247.5.807.6,1.055A3.378,3.378,0,0,1,789.738,468.647Z" transform="translate(-788.821 -465.765)"/></g><g transform="translate(0 2.772)"><path class="x" d="M785.811,493.866c.77-.115,1.294-.34,1.294-.6H782.18c0,.258.523.483,1.294.6Z" transform="translate(-782.18 -493.268)"/></g><g transform="translate(1.77 0.606)"><path class="z" d="M801.045,472.427a.651.651,0,1,0-.651.651A.651.651,0,0,0,801.045,472.427Z" transform="translate(-799.743 -471.776)"/></g></g><g transform="translate(0)"><g transform="translate(3.326 0.455)"><path class="k" d="M760.643,472.255a2.873,2.873,0,0,1,.848-.584c.3-.179.519-.317.577-.7a.642.642,0,0,0-.689-.7.667.667,0,0,0-.633.7C760.746,471.262,760.485,472.448,760.643,472.255Zm.253-.777a2.7,2.7,0,0,0,.089-.509.43.43,0,0,1,.394-.458.529.529,0,0,1,.384.164.3.3,0,0,1,.069.258c-.04.265-.171.353-.463.528a2.97,2.97,0,0,0-.55.366c-.067.075-.119.045-.159.075C760.676,471.756,760.865,471.615,760.9,471.478Z" transform="translate(-760.592 -470.278)"/></g><g transform="translate(0.67)"><path class="k" d="M735.032,468.2a3.384,3.384,0,0,1,.126.45h1.67a3.326,3.326,0,0,1,.127-.45c.1-.248.5-.807.6-1.055a3.054,3.054,0,0,0,.169-1.378h-3.47a3.059,3.059,0,0,0,.169,1.378C734.532,467.39,734.93,467.949,735.032,468.2Z" transform="translate(-734.242 -465.765)"/></g><g transform="translate(0 2.772)"><path class="j" d="M731.23,493.866c.771-.115,1.294-.34,1.294-.6H727.6c0,.258.524.483,1.294.6Z" transform="translate(-727.599 -493.268)"/></g><g transform="translate(1.771 0.606)"><path class="z" d="M746.466,472.427a.651.651,0,1,0-.651.651A.651.651,0,0,0,746.466,472.427Z" transform="translate(-745.164 -471.776)"/></g></g></g><g class="f" transform="translate(47.502 27.11)"><path class="q" d="M539.537,364.231a.4.4,0,1,0,0-.805H520.751a.4.4,0,0,0,0,.805Z" transform="translate(-520.348 -363.426)"/></g><g transform="translate(47.502 26.572)"><path class="p" d="M539.537,358.9a.4.4,0,1,0,0-.805H520.751a.4.4,0,0,0,0,.805Z" transform="translate(-520.348 -358.093)"/></g><g transform="translate(58.774 25.95)"><g transform="translate(0)"><path class="ae" d="M638.746,352.453c0-.506-.41-.537-.917-.537h-4.742c-.506,0-.917.031-.917.537v6.47h6.575Z" transform="translate(-632.171 -351.916)"/></g><g transform="translate(0 5.39)"><rect class="z" width="6.575" height="0.643"/></g><g transform="translate(0.438 6.288)"><path class="af" d="M636.952,415.657v-1.142a.219.219,0,0,0-.439,0v1.142a.219.219,0,0,0,.439,0Z" transform="translate(-636.514 -414.295)"/><g transform="translate(0.877)"><path class="af" d="M645.652,415.657v-1.142a.219.219,0,0,0-.439,0v1.142a.219.219,0,0,0,.439,0Z" transform="translate(-645.213 -414.295)"/></g><g transform="translate(1.754)"><path class="af" d="M654.349,415.657v-1.142a.219.219,0,0,0-.438,0v1.142a.219.219,0,0,0,.438,0Z" transform="translate(-653.911 -414.295)"/></g><g transform="translate(2.631)"><path class="af" d="M663.05,415.657v-1.142a.219.219,0,0,0-.439,0v1.142a.219.219,0,0,0,.439,0Z" transform="translate(-662.611 -414.295)"/></g><g transform="translate(3.507)"><path class="af" d="M671.746,415.657v-1.142a.219.219,0,0,0-.439,0v1.142a.219.219,0,0,0,.439,0Z" transform="translate(-671.307 -414.295)"/></g><g transform="translate(4.384)"><path class="af" d="M680.447,415.657v-1.142a.219.219,0,1,0-.438,0v1.142a.219.219,0,1,0,.438,0Z" transform="translate(-680.009 -414.295)"/></g><g transform="translate(5.261)"><path class="af" d="M689.144,415.657v-1.142a.219.219,0,0,0-.439,0v1.142a.219.219,0,0,0,.439,0Z" transform="translate(-688.705 -414.295)"/></g></g></g><g transform="translate(16.237 26.036)"><g transform="translate(0 1.879)"><path class="n" d="M215.359,377.5c.15.636.44,1.069.778,1.071.5,0,.844-.955,1-2.232.059-.464.21-2.725.21-2.725l-3.908-2.213a21.675,21.675,0,0,0-2.5,3.483c-1.288,2.273-.83,3.8.4,4.495C212.561,380.069,214.34,379.229,215.359,377.5Z" transform="translate(-210.174 -371.405)"/></g><g transform="translate(2.846)"><path class="n" d="M239.181,353.233a.17.17,0,0,1,.109.071h.538a.748.748,0,0,0-.647-.537c-.442,0-.776.534-.776,1.241s.333,1.241.776,1.241c.421,0,.743-.484.773-1.141h-.468c-.026.42-.2.675-.305.675s-.31-.295-.31-.776S239.071,353.233,239.181,353.233Z" transform="translate(-238.405 -352.768)"/></g><g transform="translate(0.753 8.222)"><path class="z" d="M218.222,434.624a.291.291,0,1,0-.291.291A.291.291,0,0,0,218.222,434.624Z" transform="translate(-217.64 -434.333)"/></g><g transform="translate(2.399 8.625)"><path class="z" d="M234.555,438.624a.291.291,0,1,0-.291.291A.291.291,0,0,0,234.555,438.624Z" transform="translate(-233.973 -438.333)"/></g><g transform="translate(1.593 7.012)"><path class="z" d="M226.555,422.624a.291.291,0,1,0-.291.291A.291.291,0,0,0,226.555,422.624Z" transform="translate(-225.973 -422.333)"/></g><g transform="translate(3.575 6.978)"><path class="z" d="M246.221,422.29a.291.291,0,1,0-.291.291A.291.291,0,0,0,246.221,422.29Z" transform="translate(-245.639 -421.999)"/></g><g transform="translate(5.923 6.745)"><path class="z" d="M269.521,419.972a.291.291,0,1,0-.291.291A.291.291,0,0,0,269.521,419.972Z" transform="translate(-268.939 -419.681)"/></g><g transform="translate(5.826 5.299)"><path class="z" d="M268.555,405.624a.291.291,0,1,0-.291.291A.291.291,0,0,0,268.555,405.624Z" transform="translate(-267.973 -405.333)"/></g><g transform="translate(1.122 5.466)"><path class="z" d="M221.889,407.29a.291.291,0,1,0-.291.291A.291.291,0,0,0,221.889,407.29Z" transform="translate(-221.307 -406.999)"/></g><g transform="translate(2.634 5.534)"><path class="z" d="M236.889,407.957a.291.291,0,1,0-.291.291A.291.291,0,0,0,236.889,407.957Z" transform="translate(-236.307 -407.666)"/></g><g transform="translate(3.009 2.793)"><path class="z" d="M240.6,380.772a.291.291,0,1,0-.291.291A.291.291,0,0,0,240.6,380.772Z" transform="translate(-240.023 -380.481)"/></g><g transform="translate(4.438 5.474)"><path class="z" d="M254.785,407.363a.291.291,0,1,0-.291.291A.291.291,0,0,0,254.785,407.363Z" transform="translate(-254.203 -407.072)"/></g><g transform="translate(2.121 4.064)"><path class="z" d="M231.793,393.372a.291.291,0,1,0-.291.291A.291.291,0,0,0,231.793,393.372Z" transform="translate(-231.211 -393.081)"/></g><g transform="translate(3.642 4.055)"><path class="z" d="M246.888,393.29a.291.291,0,1,0-.291.291A.291.291,0,0,0,246.888,393.29Z" transform="translate(-246.306 -392.999)"/></g><g transform="translate(5.356 3.854)"><path class="z" d="M263.888,391.29a.291.291,0,1,0-.291.291A.291.291,0,0,0,263.888,391.29Z" transform="translate(-263.306 -390.999)"/></g></g><g transform="translate(75.227 28.085)"><g transform="translate(0.151 0.151)"><path class="z" d="M1.352,0h0A1.352,1.352,0,0,1,2.7,1.352v0A1.351,1.351,0,0,1,1.352,2.7h0A1.352,1.352,0,0,1,0,1.352v0A1.352,1.352,0,0,1,1.352,0Z"/></g><path class="ag" d="M797.755,376.1a.644.644,0,0,0,.643-.643v-1.72a.644.644,0,0,0-.643-.643h-1.72a.643.643,0,0,0-.643.643v1.72a.643.643,0,0,0,.643.643Zm-2.061-.643v-1.72a.34.34,0,0,1,.34-.34h1.72a.34.34,0,0,1,.34.34v1.72a.34.34,0,0,1-.34.34h-1.72A.34.34,0,0,1,795.694,375.457Z" transform="translate(-795.392 -373.094)"/><g transform="translate(0.903 0.903)"><path class="ah" d="M805.547,382.649a.6.6,0,1,0-.6.6A.6.6,0,0,0,805.547,382.649Z" transform="translate(-804.347 -382.049)"/></g><g transform="translate(1.143 1.383)"><path class="ai" d="M806.969,386.933a.12.12,0,1,0-.12.12A.12.12,0,0,0,806.969,386.933Z" transform="translate(-806.729 -386.813)"/><g transform="translate(0.48)"><path class="ai" d="M811.733,386.933a.12.12,0,1,0-.12.12A.12.12,0,0,0,811.733,386.933Z" transform="translate(-811.493 -386.813)"/></g></g></g><g transform="translate(69.704 28.085)"><g transform="translate(0)"><g transform="translate(0.151 0.151)"><path class="z" d="M1.352,0h0A1.352,1.352,0,0,1,2.7,1.352v0A1.351,1.351,0,0,1,1.352,2.7h0A1.352,1.352,0,0,1,0,1.352v0A1.352,1.352,0,0,1,1.352,0Z"/></g><path class="ag" d="M742.971,376.1a.643.643,0,0,0,.643-.643v-1.72a.643.643,0,0,0-.643-.643h-1.72a.643.643,0,0,0-.643.643v1.72a.643.643,0,0,0,.643.643Zm-2.061-.643v-1.72a.34.34,0,0,1,.34-.34h1.72a.34.34,0,0,1,.34.34v1.72a.34.34,0,0,1-.34.34h-1.72A.34.34,0,0,1,740.91,375.457Z" transform="translate(-740.608 -373.094)"/></g><g transform="translate(0.903 0.903)"><path class="ah" d="M750.764,382.649a.6.6,0,1,0-.6.6A.6.6,0,0,0,750.764,382.649Z" transform="translate(-749.563 -382.049)"/></g><g transform="translate(1.143 1.383)"><path class="ai" d="M752.185,386.933a.12.12,0,1,0-.12.12A.12.12,0,0,0,752.185,386.933Z" transform="translate(-751.945 -386.813)"/><g transform="translate(0.48)"><path class="ai" d="M756.948,386.933a.12.12,0,1,0-.12.12A.12.12,0,0,0,756.948,386.933Z" transform="translate(-756.708 -386.813)"/></g></g></g></g><g transform="translate(52.957 100.5)"><path class="aj" d="M88.328,155.062h3.331a.949.949,0,0,0,.943-.843H87.385A.949.949,0,0,0,88.328,155.062Z" transform="translate(-87.385 -154.219)"/></g><g transform="translate(114.209 100.5)"><path class="aj" d="M699.434,155.062a.949.949,0,0,0,.943-.843h-5.325a.949.949,0,0,0,.943.843Z" transform="translate(-695.051 -154.219)"/></g><g transform="translate(61.391 100.5)"><path class="aj" d="M176.8,155.062a.949.949,0,0,0,.943-.843H171.06a.949.949,0,0,0,.943.843Z" transform="translate(-171.06 -154.219)"/></g><g transform="translate(100.098 100.5)"><path class="aj" d="M564.044,155.062a.949.949,0,0,0,.943-.843H555.06a.949.949,0,0,0,.943.843Z" transform="translate(-555.06 -154.219)"/></g><g transform="translate(68.402 122.191)"><path class="l" d="M244.62,371.995a.2.2,0,1,0,.2-.351l-3.908-2.213a.2.2,0,0,0-.2.351Z" transform="translate(-240.61 -369.405)"/></g><g transform="translate(49.097 135.274)"><rect class="n" width="81.049" height="2.013" transform="translate(0)"/></g><g class="ak" transform="translate(54.72 105.871)"><path class="al" d="M109.778,214.113l4.906-6.6c-.062-.011-4.892,0-4.892,0l-4.918,6.6Z" transform="translate(-104.874 -207.506)"/></g><g class="ak" transform="translate(98.399 105.871)"><path class="al" d="M548.017,207.51c-.062-.011-4.892,0-4.892,0l-4.918,6.6h4.9Z" transform="translate(-538.207 -207.506)"/></g><g class="ak" transform="translate(104.918 105.871)"><path class="al" d="M607.792,207.51l-4.918,6.6h1.544l4.906-6.6C609.262,207.5,607.792,207.51,607.792,207.51Z" transform="translate(-602.874 -207.506)"/></g><g class="ak" transform="translate(121.18 106.048)"><path class="al" d="M768.93,209.26l-4.723,6.43h1.544l3.179-4.145Z" transform="translate(-764.207 -209.26)"/></g><g transform="translate(73.938 144.549)"><path class="z" d="M312.494,603.463a1.4,1.4,0,0,0,1.393-1.393V592.61a1.4,1.4,0,0,0-1.393-1.393H296.929a1.4,1.4,0,0,0-1.393,1.393v9.459a1.4,1.4,0,0,0,1.393,1.393ZM296.04,602.07V592.61a.89.89,0,0,1,.889-.889h15.565a.89.89,0,0,1,.889.889v9.459a.89.89,0,0,1-.889.889H296.929A.89.89,0,0,1,296.04,602.07Z" transform="translate(-295.536 -591.217)"/></g><g transform="translate(91.578 114.18)"><path class="q" d="M471.8,290.568a.633.633,0,1,0-.633.633A.633.633,0,0,0,471.8,290.568Z" transform="translate(-470.532 -289.934)"/></g><g transform="translate(89.768 114.18)"><path class="q" d="M453.843,290.568a.633.633,0,1,0-.634.633A.633.633,0,0,0,453.843,290.568Z" transform="translate(-452.576 -289.934)"/></g><g transform="translate(87.958 114.18)"><path class="q" d="M435.887,290.568a.633.633,0,1,0-.633.633A.633.633,0,0,0,435.887,290.568Z" transform="translate(-434.62 -289.934)"/></g><g class="b" transform="translate(76.35 113.467)"><path class="z" d="M321.507,282.862l-2.048,2.749h4.9l2.043-2.749Z" transform="translate(-319.459 -282.862)"/></g><g transform="translate(49.097 135.274)"><rect class="n" width="81.049" height="2.013" transform="translate(0)"/></g><g transform="translate(49.097 135.274)"><rect class="am" width="81.049" height="0.501" transform="translate(0)"/></g><g transform="translate(49.097 101.322)"><rect class="am" width="23.751" height="0.501" transform="translate(0 0)"/></g><g transform="translate(93.781 101.322)"><rect class="am" width="36.264" height="0.501" transform="translate(0 0)"/></g><g transform="translate(88.436 113.915)"><path class="r" d="M439.662,288.083v-.63a.151.151,0,0,0-.3,0v.63a.151.151,0,0,0,.3,0Z" transform="translate(-439.36 -287.302)"/></g><g transform="translate(90.25 113.915)"><path class="r" d="M457.662,288.083v-.63a.151.151,0,1,0-.3,0v.63a.151.151,0,1,0,.3,0Z" transform="translate(-457.36 -287.302)"/></g><g transform="translate(92.039 113.915)"><path class="r" d="M475.412,288.083v-.63a.151.151,0,1,0-.3,0v.63a.151.151,0,1,0,.3,0Z" transform="translate(-475.11 -287.302)"/></g><g transform="translate(80.976 139.921)"><path class="r" d="M365.662,546.085v-.63a.151.151,0,0,0-.3,0v.63a.151.151,0,1,0,.3,0Z" transform="translate(-365.36 -545.304)"/></g><g transform="translate(75.886 139.921)"><path class="r" d="M315.162,546.085v-.63a.151.151,0,0,0-.3,0v.63a.151.151,0,1,0,.3,0Z" transform="translate(-314.86 -545.304)"/></g><g transform="translate(83.673 139.921)"><path class="r" d="M392.412,546.085v-.63a.151.151,0,0,0-.3,0v.63a.151.151,0,1,0,.3,0Z" transform="translate(-392.11 -545.304)"/></g><g transform="translate(86.369 139.921)"><path class="r" d="M419.162,546.085v-.63a.151.151,0,0,0-.3,0v.63a.151.151,0,1,0,.3,0Z" transform="translate(-418.86 -545.304)"/></g><g transform="translate(89.321 140.283)"><path class="r" d="M448.393,549.56l.487-.4a.151.151,0,0,0-.192-.234l-.487.4a.151.151,0,1,0,.192.234Z" transform="translate(-448.146 -548.893)"/></g><g transform="translate(96.633 133.058)"><path class="z" d="M521.6,477.215c-.793,0-.92.064-.92.606v.3c0-.542.128-.606.92-.606.285,0,.258.194.258.357,0,.341.32.316.83.316h16.349c.51,0,.83.025.83-.316,0-.03-.067-.357.258-.357.767,0,.92.064.92.606v-.3c0-.542-.154-.606-.92-.606-.325,0-.258.327-.258.357,0,.341-.32.316-.83.316H522.69c-.51,0-.83.025-.83-.316C521.86,477.409,521.887,477.215,521.6,477.215Z" transform="translate(-520.682 -477.215)"/></g><g transform="translate(72.042 116.216)"><path class="q" d="M298.7,310.712a.289.289,0,1,0,0-.577H277.03a.289.289,0,1,0,0,.577Z" transform="translate(-276.728 -310.135)"/></g></g><g transform="translate(-284.144 194.204)"><path class="an" d="M409.262,217.867l.65,2.405s.967.962,1.679.806.856-1.372.856-1.372l-.681-1.839Z" transform="translate(-50.953 -121.743)"/><path class="an" d="M364.049,219.9l.63-1.234-2-.8-1.165,2.6s.58,1.128,1.419.991S364.049,219.9,364.049,219.9Z" transform="translate(-20.203 -121.743)"/><path class="an" d="M403.793,76.046l2.228,1.47,9.671.9-.379,1.707s-8.481,1.76-11.283,1.517-5.168-5.023-5.168-5.023Z" transform="translate(-44.255 -30.408)"/><path class="ao" d="M375.788,113.108l-1.918,19.521L363.71,151.624a.2.2,0,0,1-.129.1c-.565.147-3.714.867-4.8-1.113a.206.206,0,0,1-.01-.173l8.02-20.829.572-17.072Z" transform="translate(-18.427 -53.909)"/><path class="ap" d="M405.576,82.822a21.632,21.632,0,0,0,1.654-4.671h0l-4.795,1.89A7.678,7.678,0,0,0,405.576,82.822Z" transform="translate(-46.557 -31.764)"/><path class="aq" d="M389.371,138.383,387.61,136.5l-6.077,2.817-.184,5.482,1.688,13.325,5.383-10.063Z" transform="translate(-32.977 -69.342)"/><path class="aq" d="M399.265,121.447l.762-7.752-3.633-.246Z" transform="translate(-42.666 -54.496)"/><path class="ao" d="M391,145.917a5.239,5.239,0,0,1-4.862-.021.142.142,0,0,1-.063-.075c-.414-1.179-8.14-23.241-9.456-31.077a12.041,12.041,0,0,1-1.654-4.233,8.7,8.7,0,0,1-.053-2.812,7.38,7.38,0,0,1,.562-1.906c1.525-3.393,6.261.671,8.307,2.661.59.576.957.979.957.979l.287,1.65,6.046,34.691A.136.136,0,0,1,391,145.917Z" transform="translate(-28.77 -48.723)"/><path class="aq" d="M385.021,116.892c-2.875,1.081-6.287.247-7.717-.221a8.592,8.592,0,0,0-2.344-.35,8.7,8.7,0,0,1-.053-2.812l8.869.754c.59.576.957.979.957.979Z" transform="translate(-28.77 -54.534)"/><path class="ar" d="M394.177,55.87s4.276,4.345,7.15,7.408a.353.353,0,0,1,.116.4,17.5,17.5,0,0,1-3,4.445S390.906,62.341,394.177,55.87Z" transform="translate(-40.709 -17.414)"/><path class="as" d="M402.455,68.247l-1.7,5.385A16.452,16.452,0,0,0,403.21,76.1a10.309,10.309,0,0,0,1.687-2.121A10.431,10.431,0,0,0,402.455,68.247Z" transform="translate(-45.475 -25.385)"/><path class="ar" d="M385.382,77.827c-4.637,2.41-10-.289-12.538-.142-.251.015-.235-.254-.2-.424,2.286-11.306,3.2-18.342,6.277-22.079a8.208,8.208,0,0,1,.712-.771,41.612,41.612,0,0,1,3.482,3.215,10.931,10.931,0,0,1,2.665,6.854,58.215,58.215,0,0,0-.2,12.954A.386.386,0,0,1,385.382,77.827Z" transform="translate(-27.358 -16.475)"/><path class="as" d="M383.388,87.159a15.559,15.559,0,0,0,.355,1.615c.142.532.3,1.059.492,1.576a18.655,18.655,0,0,0,1.369,3,15.634,15.634,0,0,0,1.9,2.684c.088.105.181.207.276.306l.284.3c.2.19.389.389.6.567a14.935,14.935,0,0,0,1.284,1.04,12.747,12.747,0,0,1-2.532-2.133,14.954,14.954,0,0,1-1.949-2.687,17.693,17.693,0,0,1-1.346-3.034A15.742,15.742,0,0,1,383.388,87.159Z" transform="translate(-34.29 -37.565)"/><path class="as" d="M381.394,76.994c-.07.65-.129,1.3-.173,1.953s-.085,1.3-.11,1.956c-.05,1.305-.062,2.612,0,3.915.03.651.074,1.3.144,1.951s.172,1.292.294,1.933a13.829,13.829,0,0,0,.51,1.885,8.008,8.008,0,0,0,.842,1.762,9.91,9.91,0,0,1-1.469-3.622,24.386,24.386,0,0,1-.476-3.9q-.077-1.964.034-3.928C381.069,79.591,381.191,78.286,381.394,76.994Z" transform="translate(-32.704 -31.018)"/><path class="at" d="M376.391,101.553s4.694-1.955,6.825-4.079l.654.738s-5.25,4.253-7.744,4.625Z" transform="translate(-29.613 -44.208)"/><path class="as" d="M392.531,65.952l-3.348.516s-1.079,6.251.738,10.832l5.986-1.231q.051-.909.129-1.91C395.17,71.66,393.555,67.243,392.531,65.952Z" transform="translate(-37.817 -23.907)"/><path class="an" d="M409.288,88.481c-2.275,1.658-11.756,3.46-13.511,2.939s-3.745-6.305-3.745-6.305L396.2,83.55l1.285,3.318H408.34Z" transform="translate(-39.857 -35.241)"/><path class="ap" d="M393.509,91.531a7.426,7.426,0,0,0,3.715-2.558s-3.027.027-4.761.059C392.661,89.565,393.036,90.531,393.509,91.531Z" transform="translate(-40.134 -38.733)"/><path class="ar" d="M391.007,61.957c-3.3,0-.711,11.663-.711,11.663s1.991.213,5.12-2.2C395.416,71.415,393.781,61.957,391.007,61.957Z" transform="translate(-38.117 -21.334)"/><g transform="translate(358.309 97.963)"><path class="au" d="M418.88,228.982h0a.391.391,0,0,1-.391.391H413.14a8.279,8.279,0,0,0-1.374-.274c-.389,0-.4.274-.4.274h-2.1v-.391S416.535,228.533,418.88,228.982Z" transform="translate(-409.262 -226.735)"/><path class="av" d="M409.912,223.6a2.386,2.386,0,0,0,2.535-.566,26.82,26.82,0,0,1,3.15,1.026c.947.432,3.263.342,3.282,1.221h-9.618A2.6,2.6,0,0,1,409.912,223.6Z" transform="translate(-409.262 -223.032)"/><g transform="translate(3.063 0.195)"><path class="au" d="M417.9,224.157a.029.029,0,0,0,.018-.006l.655-.518a.029.029,0,0,0,0-.041.029.029,0,0,0-.041,0l-.655.518a.029.029,0,0,0,0,.041A.029.029,0,0,0,417.9,224.157Z" transform="translate(-417.866 -223.58)"/></g><g transform="translate(3.459 0.348)"><path class="au" d="M419.007,224.587a.033.033,0,0,0,.018-.006l.654-.518a.029.029,0,0,0,0-.041.03.03,0,0,0-.041,0l-.655.518a.029.029,0,0,0,.018.052Z" transform="translate(-418.978 -224.01)"/></g><g transform="translate(3.898 0.505)"><path class="au" d="M420.242,225.026a.029.029,0,0,0,.018-.006l.655-.518a.029.029,0,0,0,0-.041.029.029,0,0,0-.041,0l-.655.518a.029.029,0,0,0,0,.041A.028.028,0,0,0,420.242,225.026Z" transform="translate(-420.213 -224.449)"/></g><g transform="translate(4.338 0.651)"><path class="au" d="M421.477,225.438a.029.029,0,0,0,.018-.006l.655-.518a.029.029,0,0,0-.036-.046l-.655.518a.029.029,0,0,0-.005.041A.031.031,0,0,0,421.477,225.438Z" transform="translate(-421.447 -224.861)"/></g></g><g transform="translate(340.661 98.159)"><path class="au" d="M369.305,229.531h0a.391.391,0,0,1-.391.391h-5.349a8.273,8.273,0,0,0-1.374-.274c-.389,0-.4.274-.4.274h-2.1v-.391S366.961,229.082,369.305,229.531Z" transform="translate(-359.688 -227.284)"/><path class="av" d="M360.338,224.147a2.386,2.386,0,0,0,2.535-.566,26.816,26.816,0,0,1,3.15,1.026c.947.432,3.263.342,3.282,1.221h-9.617A2.6,2.6,0,0,1,360.338,224.147Z" transform="translate(-359.688 -223.581)"/><g transform="translate(3.063 0.195)"><path class="au" d="M368.321,224.706a.028.028,0,0,0,.018-.006l.655-.518a.029.029,0,0,0-.036-.046l-.655.518a.029.029,0,0,0,.018.052Z" transform="translate(-368.291 -224.129)"/></g><g transform="translate(3.459 0.348)"><path class="au" d="M369.433,225.136a.029.029,0,0,0,.018-.006l.655-.518a.029.029,0,0,0-.036-.046l-.655.518a.029.029,0,0,0-.005.041A.031.031,0,0,0,369.433,225.136Z" transform="translate(-369.403 -224.559)"/></g><g transform="translate(3.898 0.505)"><path class="au" d="M370.668,225.575a.029.029,0,0,0,.018-.006l.655-.518A.029.029,0,0,0,371.3,225l-.654.518a.029.029,0,0,0,0,.041A.031.031,0,0,0,370.668,225.575Z" transform="translate(-370.638 -224.998)"/></g><g transform="translate(4.338 0.651)"><path class="au" d="M371.9,225.986a.029.029,0,0,0,.018-.006l.654-.518a.029.029,0,1,0-.036-.046l-.654.518a.029.029,0,0,0,0,.041A.03.03,0,0,0,371.9,225.986Z" transform="translate(-371.873 -225.41)"/></g></g><g transform="translate(350.145 28.83)"><g transform="translate(0.39 2.339)"><path class="at" d="M387.508,42.418s-.341.44.344.914.488.895,1.2,1.1,1.047-3.362,1.047-3.362Z" transform="translate(-387.423 -39.049)"/><path class="an" d="M394.276,47.04s-1.486,1.874-.954,3.676-2.488-.828-2.488-.828l.7-3.966Z" transform="translate(-389.62 -42.176)"/><path class="ap" d="M395.811,48.15l-2.3-.921s.66,2.556,1.464,2.966A5.462,5.462,0,0,1,395.811,48.15Z" transform="translate(-391.344 -43.018)"/><path class="an" d="M391.674,39.145s1.005,2.324,3.07,2.237,2.537-4.147,1.625-5.17-3.646-1.709-4.409,1.963c0,0-.249-.531-.595-.191S390.767,39.8,391.674,39.145Z" transform="translate(-389.758 -35.4)"/><path class="at" d="M400.624,39.347a3.134,3.134,0,0,1-2.27,1.018s1.009-.314,1.132-.685A.809.809,0,0,1,400.624,39.347Z" transform="translate(-394.463 -37.862)"/><path class="aw" d="M400.571,48.78l1.453.166s-.342.683-.9.591S400.571,48.78,400.571,48.78Z" transform="translate(-395.89 -44.017)"/><path class="ap" d="M402.613,46.388a.431.431,0,0,0,.687.061A.715.715,0,0,1,402.613,46.388Z" transform="translate(-397.206 -42.476)"/><path class="au" d="M400.477,43.7s.58-.616.863.124A.745.745,0,0,0,400.477,43.7Z" transform="translate(-395.83 -40.591)"/><path class="ap" d="M392.155,43.526c-.053.221-.176.382-.275.358s-.137-.222-.085-.443.176-.382.275-.358S392.207,43.3,392.155,43.526Z" transform="translate(-390.223 -40.346)"/><path class="at" d="M392.793,39.949s.21.306.473.216.643-1.214,2.175-1.72-3.1-.2-3.1-.2Z" transform="translate(-390.592 -37.173)"/></g><g transform="translate(0 0)"><path class="ax" d="M401.373,38.42s4.364,1.6,5.478.012a.151.151,0,0,0-.085-.229l-2.61-.743Z" transform="translate(-396.017 -34.388)"/><path class="av" d="M394.466,32.005s-5.385,2.392-7.663,2.636c0,0-1.3-3.01.407-4.181a19.591,19.591,0,0,1,1.953-1.269,9.185,9.185,0,0,1,3.091-.082C393.165,29.418,394.125,31.013,394.466,32.005Z" transform="translate(-386.328 -28.933)"/><path class="ax" d="M393.092,29.179c.032.108.239.141.463.075s.38-.207.348-.315-.239-.141-.463-.075S393.06,29.071,393.092,29.179Z" transform="translate(-390.682 -28.83)"/><g transform="translate(1.969 0.669)"><path class="ay" d="M392.678,34.912a15.981,15.981,0,0,1-.813-2.929,11.062,11.062,0,0,1,.441-1.274l.056.023A11.354,11.354,0,0,0,391.924,32a16.73,16.73,0,0,0,.811,2.9Z" transform="translate(-391.859 -30.709)"/></g><g transform="translate(3.642 0.277)"><path class="ay" d="M399.3,32.74a19.221,19.221,0,0,0-1.2-2.417,3.521,3.521,0,0,0-1.544-.656l.011-.059a3.484,3.484,0,0,1,1.58.678,18.683,18.683,0,0,1,1.209,2.431Z" transform="translate(-396.558 -29.607)"/></g></g></g><path class="ar" d="M454.5,85.813v2.216a.181.181,0,0,1-.181.181H434.147a.181.181,0,0,1-.181-.181V85.813a.18.18,0,0,1,.181-.18h20.171A.18.18,0,0,1,454.5,85.813Z" transform="translate(-66.863 -36.582)"/><path class="as" d="M454.5,91.686v.241a.181.181,0,0,1-.181.181H434.147a.181.181,0,0,1-.181-.181v-.241Z" transform="translate(-66.863 -40.48)"/><path class="an" d="M394.507,57.57c-1.174.467-3.448-1.688-4.194-2.444a8.541,8.541,0,0,1,.711-.8A45.58,45.58,0,0,1,394.507,57.57Z" transform="translate(-38.75 -16.418)"/><path class="as" d="M398.935,73.631a8.716,8.716,0,0,1,.246,1.671A9.481,9.481,0,0,1,399.124,77a7.347,7.347,0,0,1-.409,1.646,5.628,5.628,0,0,1-.837,1.467q.105-.184.213-.363c.035-.061.074-.118.1-.182l.088-.19c.057-.127.127-.248.174-.38l.144-.392a8.939,8.939,0,0,0,.367-1.626,12.368,12.368,0,0,0,.092-1.669c0-.279-.015-.559-.038-.838S398.973,73.909,398.935,73.631Z" transform="translate(-43.622 -28.853)"/><path class="as" d="M402.737,77.69a6.551,6.551,0,0,1,.223.937,7.4,7.4,0,0,1,.1.96,5.26,5.26,0,0,1-.043.967,2.793,2.793,0,0,1-.282.923,4.241,4.241,0,0,0,.161-.936,8.185,8.185,0,0,0,.008-.948c-.01-.316-.037-.633-.066-.95S402.776,78.009,402.737,77.69Z" transform="translate(-46.751 -31.467)"/><path class="an" d="M436.969,90.373a2.753,2.753,0,0,1,1.4-.61c.761-.059,1.21-1.269,1.529-.537.234.537-.431,1.028-1.017,1.146h2.884a.06.06,0,0,1,.043.1,4.683,4.683,0,0,1-3.888,1.512C435.4,91.695,436.969,90.373,436.969,90.373Z" transform="translate(-68.485 -38.745)"/><path class="aq" d="M381.35,132.846c.364,1.176.741,2.346,1.118,3.514.193.583.382,1.167.583,1.746s.4,1.161.609,1.736.421,1.152.647,1.721.457,1.137.7,1.7.508,1.114.794,1.655a11.718,11.718,0,0,0,.962,1.566,13.459,13.459,0,0,1-1.977-3.119,35.714,35.714,0,0,1-1.423-3.415q-.625-1.741-1.131-3.518C381.9,135.247,381.6,134.052,381.35,132.846Z" transform="translate(-32.977 -66.988)"/><path class="aq" d="M393.061,169.883c.183.813.377,1.624.592,2.428s.432,1.608.666,2.406.481,1.592.746,2.38.538,1.573.838,2.347.609,1.545.95,2.3c.164.381.347.754.524,1.129s.37.743.569,1.106a23.225,23.225,0,0,0,1.283,2.132,17.185,17.185,0,0,0,1.535,1.964,17.119,17.119,0,0,1-3.032-3.977c-.423-.723-.8-1.473-1.15-2.232s-.673-1.532-.973-2.313a47.5,47.5,0,0,1-1.526-4.774A45.1,45.1,0,0,1,393.061,169.883Z" transform="translate(-40.519 -90.84)"/><path class="aq" d="M371.305,167.4c-.446,1.522-.88,3.047-1.315,4.569s-.852,3.051-1.25,4.583-.773,3.07-1.1,4.616a30.6,30.6,0,0,0-.7,4.69,23.181,23.181,0,0,1,.464-4.736c.283-1.563.638-3.113,1.041-4.648s.839-3.061,1.319-4.574S370.745,168.889,371.305,167.4Z" transform="translate(-23.689 -89.244)"/><path class="ap" d="M409.927,92.871a24.973,24.973,0,0,1-5.609,0Z" transform="translate(-47.769 -41.243)"/><g transform="translate(353.689 62.913)"><path class="aq" d="M396.323,128.339a.039.039,0,0,1-.014-.076c1.819-.66,2.116-3.624,2.119-3.653a.04.04,0,0,1,.043-.035.039.039,0,0,1,.035.042c0,.031-.305,3.043-2.17,3.72Z" transform="translate(-396.284 -124.574)"/></g><g transform="translate(353.689 67.12)"><path class="aq" d="M402.632,165.982a.039.039,0,0,1-.038-.031l-6.308-29.512a.039.039,0,0,1,.03-.046.04.04,0,0,1,.046.03l6.308,29.512a.039.039,0,0,1-.03.046Z" transform="translate(-396.284 -136.392)"/></g><g transform="translate(343.336 80.939)"><path class="aq" d="M367.241,190.591a.038.038,0,0,1-.016,0,.039.039,0,0,1-.02-.052l6.824-15.3a.039.039,0,1,1,.071.032l-6.824,15.3A.039.039,0,0,1,367.241,190.591Z" transform="translate(-367.202 -175.211)"/></g><g transform="translate(330.144 33.974)"><path class="av" d="M345.765,71.642,330.451,68.85a.375.375,0,0,1-.3-.436L334.3,45.643l16.051,2.926L346.2,71.341A.375.375,0,0,1,345.765,71.642Z" transform="translate(-330.144 -44.802)"/><path class="az" d="M338.806,47.075l-.262-.048a.236.236,0,0,1-.19-.275l.616-3.377a.117.117,0,0,1,.136-.094l.612.111-.637,3.492A.236.236,0,0,1,338.806,47.075Z" transform="translate(-335.429 -43.279)"/><rect class="az" width="0.739" height="16.792" transform="matrix(0.179, -0.984, 0.984, 0.179, 3.685, 0.754)"/><g transform="translate(4.015 1.446)"><path class="ba" d="M354.8,54.379l-12.321-2.246a1.285,1.285,0,0,1-1.033-1.493l.575-3.154a.176.176,0,0,1,.347.063l-.575,3.154a.933.933,0,0,0,.75,1.084l12.321,2.246a.933.933,0,0,0,1.084-.75l.575-3.154a.176.176,0,1,1,.346.063l-.575,3.154A1.285,1.285,0,0,1,354.8,54.379Z" transform="translate(-341.421 -47.341)"/></g><g transform="translate(0.6 6.565)"><path class="ay" d="M343.3,80.867c-1.012-.184-2.337-.428-4.075-.748C335.61,79.452,332,78.779,332,78.779l-.172-.032,3.078-16.881a.176.176,0,0,1,.346.063l-3.014,16.536c3.8.708,12.865,2.389,14.153,2.59l3.016-16.545a.176.176,0,1,1,.346.063l-3.059,16.78-.06.042C346.567,81.441,346.543,81.458,343.3,80.867Z" transform="translate(-331.829 -61.722)"/></g><g transform="translate(4.142 7.685)"><path class="ba" d="M355.232,67.644l-13.31-2.427a.176.176,0,0,1,.063-.346L355.3,67.3a.176.176,0,1,1-.063.346Z" transform="translate(-341.778 -64.868)"/></g><g transform="translate(2.702 10.242)"><path class="ay" d="M349.508,84.565l-11.775-2.147L339.614,72.1a.066.066,0,0,1,.13.024l-1.857,10.185,11.514,2.1,1.845-10.12L340.2,72.278l4.364,6.392,6.072-4.068a.067.067,0,0,1,.092.018.066.066,0,0,1-.018.091l-6.181,4.14-4.616-6.761,11.49,2.095Z" transform="translate(-337.733 -72.05)"/></g></g><path class="at" d="M384.525,63.134s2.385-2.817,4.95-.739,3.794,7.394,2.637,8.581l.438,1.13s2.576-5.305-2.526-9.975a3.9,3.9,0,0,0-5.3-.06Z" transform="translate(-35.022 -20.737)"/></g><g transform="translate(-396.617 -244.129)"><path class="ar" d="M496.382,501.614H483.617a6.382,6.382,0,0,1,12.765,0Z" transform="translate(0 -14.485)"/><path class="ar" d="M535.832,480.393a6.422,6.422,0,0,1,1.258.124c0-.041.006-.082.006-.124a1.264,1.264,0,1,0-2.528,0c0,.042,0,.083.006.124A6.423,6.423,0,0,1,535.832,480.393Z" transform="translate(-45.833)"/></g></g></svg>