<svg xmlns="http://www.w3.org/2000/svg" xmlns:xlink="http://www.w3.org/1999/xlink" width="60" height="37.646" viewBox="0 0 60 37.646"><defs><style>.a{fill-rule:evenodd;fill:url(#a);}</style><linearGradient id="a" x1="-0.189" y1="0.49" x2="1.582" y2="0.514" gradientUnits="objectBoundingBox"><stop offset="0" stop-color="#f78f3d"/><stop offset="0.488" stop-color="#f05359"/><stop offset="1" stop-color="#d11f26"/></linearGradient></defs><path class="a" d="M769.466,710.555c-8.842-15.01-25.691-14.982-34.547,0,2.943-7.809,9.747-12.888,17.274-12.888s14.345,5.079,17.274,12.888Zm-17.175,14.1a8.813,8.813,0,0,1-6.989-3.452h4.174a6.041,6.041,0,0,0,5.673,0h4.117a8.765,8.765,0,0,1-6.975,3.452Zm0,6.96H733.065a1.365,1.365,0,0,1-1.372-1.372h0a1.374,1.374,0,0,1,1.372-1.372H743.1a16.1,16.1,0,0,1-2.787-2.306H726.388a1.365,1.365,0,0,1-1.372-1.372h0a1.374,1.374,0,0,1,1.372-1.372H738.13a15.743,15.743,0,0,1-1.344-2.617H720.474a1.372,1.372,0,0,1,0-2.745h48.171a16.749,16.749,0,0,1-16.354,13.157Zm-11.233-15.972h28.28c2.221,0,2.476-1.259,2.179-2.914-1.57-8.913-7.937-15.661-17.274-16.92a1.965,1.965,0,0,0-3.919-.042,22.779,22.779,0,0,0-5.645,1.457c-6.847,3.126-10.752,8.177-12.435,15.675H712.99a1.372,1.372,0,1,0,0,2.744h28.068Z" transform="translate(-711.618 -693.975)"/></svg>