<svg xmlns="http://www.w3.org/2000/svg" width="52.938" height="30.412" viewBox="0 0 52.938 30.412"><defs><style>.a,.j{fill:#402017;}.a{stroke:#402017;stroke-miterlimit:10;stroke-width:0.934px;}.b{fill:#f0ccb9;}.b,.c,.d,.e,.f,.g{fill-rule:evenodd;}.c{fill:#f7d9c8;}.d{fill:#e6beaa;}.e{fill:#bd1d2a;}.f{fill:#ab111e;}.g,.i{fill:#ffd9c5;}.h{fill:#ffe9de;}</style></defs><g transform="translate(-66.022 -34.521)"><path class="a" d="M114.177,44.988c-10.012-8.676-32.679-14.582-42.638-5.1a15.728,15.728,0,0,0-5.051,10.6h0c0,.254.213,6,.218,6.049.322,6.518,6.974,8.281,13.323,7.876,8.427-.537,17.607-2.885,23.751-2.885,7.222,0,13.942,1.617,14.473-3.221.014-.08.215-5.421.217-5.506C118.7,49.98,116.305,46.832,114.177,44.988Z"/><path class="b" d="M114.3,46.235c-6.257-5.422-17.658-9.761-27.564-9.761-5.535,0-10.6,1.355-14.047,4.632A15.808,15.808,0,0,0,68.1,49.16c-.008.033-.013.068-.018.1a10.583,10.583,0,0,0-.2,1.868c0,.091.21,5.851.213,5.94h0c.235,5.52,5.534,7.232,10.841,7.232.556,0,1.112-.019,1.662-.054,6.992-.446,14.045-2.082,20.644-2.733a28.214,28.214,0,0,1,3.156-.155c2.737,0,5.619.257,8.018.257,2.546,0,4.55-.29,5.261-1.484a3.178,3.178,0,0,0,.429-1.34h0c.262-6.9.09-2.366.206-5.414C118.538,50.855,116.153,47.842,114.3,46.235Z" transform="translate(-0.62 -0.637)"/><g transform="translate(67.262 48.624)"><path class="c" d="M73.175,73.672a9.655,9.655,0,0,1-1.8-.826A6.434,6.434,0,0,1,68.1,67.291h0l-.215-5.882,0-.058a10.584,10.584,0,0,1,.2-1.868l2.25,4.565.422.855.873,1.817c.177,1.409-.118,2.918.532,4.171.215.416.525.774.722,1.2A3.8,3.8,0,0,1,73.175,73.672Z" transform="translate(-67.88 -59.483)"/><path class="d" d="M92.264,82.558c-2.161.3-4.335.556-6.525.7a21.054,21.054,0,0,1-6.236-.448,7.43,7.43,0,0,1,.094-2.385A1.4,1.4,0,0,1,80.3,79.3c.5-.182,1.044.221,1.345.682a6.252,6.252,0,0,0,.557.853.844.844,0,0,0,.889.294c.345-.142.473-.6.794-.8a1.421,1.421,0,0,1,1.234.091,5.983,5.983,0,0,0,3.217.5,5.355,5.355,0,0,1,2.389-.373,2.158,2.158,0,0,1,1.3,1.258A4.092,4.092,0,0,1,92.264,82.558Z" transform="translate(-73.019 -68.267)"/><path class="c" d="M110.947,72.817q-.178,3.008-.153,5.989c-.911.144-1.826.291-2.745.433q.187-3.074.127-6.194Z" transform="translate(-85.725 -65.407)"/><path class="c" d="M117.5,77.944c-.755.111-1.512.228-2.27.346q.008-2.953.023-5.937l1.487-.253a9.467,9.467,0,0,0,.253,4.4,6.459,6.459,0,0,1,.492,1.323A1.117,1.117,0,0,1,117.5,77.944Z" transform="translate(-88.913 -65.088)"/><path class="d" d="M130.155,79.09c-.565.014-1.116.041-1.646.091-.2.018-.4.036-.6.059a4.2,4.2,0,0,0,.4-1.432,4.615,4.615,0,0,1,.089-.777.886.886,0,0,1,.445-.606.763.763,0,0,1,.848.231,1.833,1.833,0,0,1,.376.872A5.377,5.377,0,0,1,130.155,79.09Z" transform="translate(-94.55 -66.986)"/><path class="d" d="M137.69,78.278c-1.248-.062-2.522-.121-3.756-.127a7.872,7.872,0,0,1,.634-1.855c.135-.276.337-.58.635-.6.166-.011.325.073.49.064.337-.016.546-.389.681-.714s.32-.706.656-.759a.63.63,0,0,1,.614.37,1.889,1.889,0,0,1,.155.765A17.193,17.193,0,0,1,137.69,78.278Z" transform="translate(-97.224 -66.058)"/><path class="d" d="M152.218,65.542c-.116,3.048.056-1.484-.206,5.414h0a3.178,3.178,0,0,1-.429,1.34,2.547,2.547,0,0,1-1.409,1.032,11.614,11.614,0,0,1-3.628.453c-.742.007-1.533-.016-2.351-.047a4.959,4.959,0,0,1,.31-.822c.308-.655.708-1.271.954-1.958a9.326,9.326,0,0,0,.391-2.813l6.178-4.29A4.64,4.64,0,0,1,152.218,65.542Z" transform="translate(-101.781 -61.423)"/><path class="c" d="M152.051,77.494a11.614,11.614,0,0,1-3.629.453,8.934,8.934,0,0,1,.486-2.272c.087-.247.259-.535.5-.5a.9.9,0,0,1,.22.089.736.736,0,0,0,.787-.151,2.2,2.2,0,0,0,.416-1.093c.1-.386.365-.816.742-.79a.6.6,0,0,1,.484.375,1.825,1.825,0,0,1,.13.642A14.471,14.471,0,0,1,152.051,77.494Z" transform="translate(-103.661 -65.59)"/><path class="d" d="M71.378,72.846A6.434,6.434,0,0,1,68.1,67.291h0l-.215-5.882,0-.058a10.584,10.584,0,0,1,.2-1.868l2.25,4.565C70.244,68.785,71.179,69.728,71.378,72.846Z" transform="translate(-67.88 -59.483)"/></g><g transform="translate(67.263 35.87)"><g transform="translate(0.128 0.139)"><path class="e" d="M78.9,59.011c-3.007,0-10.071-.642-10.735-6.647-.39-3.523,1.493-7.954,4.712-11.017,3.175-3.021,7.822-4.563,13.789-4.563.747,0,1.527.024,2.316.073a46.2,46.2,0,0,1,8.944,1.482c3.054.818,10.744,3.244,16.394,8.14,2.268,1.965,5.068,5.8,3.56,8.359-.576.977-2.219,1.451-5.021,1.451h0c-.865,0-1.708-.041-2.453-.078-.352-.017-.676-.033-.964-.043-.5-.016-1.011-.037-1.528-.058-1.118-.047-2.275-.094-3.405-.094-.944,0-1.761.033-2.5.1-3.161.295-6.418.816-9.563,1.32-3.865.62-7.853,1.259-11.849,1.518C80.019,58.992,79.449,59.011,78.9,59.011Z" transform="translate(-68.112 -36.784)"/></g><path class="f" d="M78.919,58.979c-3.765,0-10.185-.931-10.83-6.7-.41-3.661,1.588-8.092,4.719-11.076,3.258-3.1,7.821-4.579,13.768-4.579.765,0,1.561.025,2.368.074A46.3,46.3,0,0,1,97.9,38.18c2.968.8,10.714,3.214,16.413,8.158,1.876,1.628,5.225,5.616,3.555,8.442-.586.991-2.262,1.482-5.113,1.482h0c-.859,0-1.692-.041-2.428-.077-.343-.017-.662-.033-.944-.042-.5-.016-1.014-.037-1.532-.058-1.116-.047-2.27-.094-3.4-.094-.94,0-1.755.033-2.494.1-3.167.3-6.392.811-9.548,1.316-3.837.615-7.862,1.259-11.84,1.516C80.014,58.961,79.458,58.979,78.919,58.979ZM82.067,38.63c-3.274,0-7.649,2.589-9.505,5.785C69.786,49.2,70,52.924,73.647,55.429a8.983,8.983,0,0,0,4.762,1.242c.3.012.6.017.9.017,1.478,0,2.967-.126,4.1-.236,3.377-.463,5.775-1.484,6.758-2.842a2.448,2.448,0,0,0,.37-2.288,4.857,4.857,0,0,0-1.463-1.936,8.749,8.749,0,0,1-1.234-1.34,8.963,8.963,0,0,1-1.712-5.483,4.423,4.423,0,0,0-.869-2.618,3.9,3.9,0,0,0-2.992-1.312C82.2,38.631,82.133,38.63,82.067,38.63Zm22.717,15.508c.479,0,.983.01,1.5.03.826.032,1.588.086,2.326.137l.25.017c.637.046,1.24.088,1.817.111.278.011.541.016.791.016a8.2,8.2,0,0,0,3.1-.487,1.537,1.537,0,0,0,1.025-1.221,5.026,5.026,0,0,0-1.218-3.506,20.291,20.291,0,0,0-7.818-5.435,14.581,14.581,0,0,0-4.438-.891q-.2-.007-.405-.007a10.009,10.009,0,0,0-3.71.676,8.459,8.459,0,0,0-4.665,5.209,4.052,4.052,0,0,0,.762,3.846A5.724,5.724,0,0,0,98.53,54.4c.186.008.375.011.564.011.878,0,1.8-.071,2.605-.133l.041,0c.411-.031.819-.061,1.217-.086C103.556,54.154,104.153,54.138,104.784,54.138ZM91.644,38.528a4.3,4.3,0,0,0-2.109.424c-1.107.669-1.109,1.77-.99,3.187a4.59,4.59,0,0,0,.9,2.566l.012.017a2.073,2.073,0,0,0,1.556.864l.069,0a2.144,2.144,0,0,0,.532-.069,2.609,2.609,0,0,0,1.6-1.118,8.868,8.868,0,0,1,.655-.734,10.112,10.112,0,0,1,2.514-1.792l.029-.014c.6-.266.9-.692.79-1.136-.287-1.181-3.02-2.119-5.274-2.191C91.831,38.53,91.737,38.528,91.644,38.528Z" transform="translate(-67.95 -36.572)"/><path class="g" d="M114.3,46.261c-4.621-4-11.112-6.738-16.444-8.166a46.336,46.336,0,0,0-8.969-1.488c-5.307-.324-11.763.3-16.2,4.525-3.2,3.046-5.157,7.473-4.751,11.132.612,5.514,6.551,7.1,12.564,6.707,7.286-.47,14.411-2.185,21.412-2.835a61.223,61.223,0,0,1,7.417.051c2.385.079,7.373.606,8.552-1.395C119.468,52.1,116.533,48.2,114.3,46.261Zm-30.94,10.8c-4.05.4-7.91.5-10.264-1.133-4.176-2.9-3.772-7.184-1.137-11.665,2.833-4.817,10.769-8.012,13.706-4.6a4.782,4.782,0,0,1,.97,2.824,8.617,8.617,0,0,0,1.673,5.241c.829,1.184,2.3,1.92,2.779,3.393C91.925,53.7,89.566,56.2,83.356,57.058Zm5.529-12.106a4.943,4.943,0,0,1-.98-2.8c-.1-1.27-.181-2.708,1.232-3.553,2.087-1.251,8.033-.023,8.547,2.028.147.582-.188,1.211-1.048,1.592a9.616,9.616,0,0,0-2.384,1.714c-.88.871-1.082,1.656-2.536,2.024A2.615,2.615,0,0,1,88.885,44.952Zm26,9.542c-3.078,1.211-6.528-.037-11.883.273-3.262.19-7.121.918-9.483-1.807-2.9-3.343.624-8.459,4.136-9.84a12.939,12.939,0,0,1,9,.22,21.164,21.164,0,0,1,8.155,5.635C116.159,50.653,117.16,53.6,114.886,54.494Z" transform="translate(-67.882 -36.534)"/><g transform="translate(16.301 0.824)"><path class="h" d="M108.916,66.589a4.61,4.61,0,0,0-.332.742,3.192,3.192,0,0,1-1.3,1.446c-.149.089-.325.191-.35.355a.319.319,0,0,0,.139.291.86.86,0,0,0,.325.131,5.912,5.912,0,0,0,2.291-.091,3.132,3.132,0,0,0,.692-.173c1.128-.476.245-2.052-.433-2.757C109.548,66.111,109.233,66.109,108.916,66.589Z" transform="translate(-101.532 -50.547)"/><path class="h" d="M97.424,38.628a3.553,3.553,0,0,1,1.429.645.89.89,0,0,0,1.051.269c.506-.182,1.3-.848.338-1.194a6.257,6.257,0,0,0-2.554-.3C97.219,38.116,97.035,38.454,97.424,38.628Z" transform="translate(-97.213 -38.017)"/><path class="h" d="M122.014,42.064a1.291,1.291,0,0,1,.027,1.119c-.066.144-.16.3-.084.45a.541.541,0,0,0,.423.23,2.063,2.063,0,0,0,.52-.036,8.512,8.512,0,0,1,2.739.079c.939.121,1.307-.375.67-.9a15.276,15.276,0,0,0-4.671-2.025c-.328-.018-.8.084-.368.323A1.827,1.827,0,0,1,122.014,42.064Z" transform="translate(-107.824 -39.334)"/></g><g transform="translate(3.862 2.417)"><path class="g" d="M78.09,46.63c-.187.261-.372.608-.126.765.227.146.656-.029.954-.5a7.869,7.869,0,0,1,5.26-3.4,2.412,2.412,0,0,0,.768-.29c.739-.439.313-1.431-1.659-.611A12.052,12.052,0,0,0,78.09,46.63Z" transform="translate(-76.17 -41.501)"/><path class="g" d="M77.469,51.339c-.449.237-.95.4-1.377.674A2.8,2.8,0,0,0,74.855,54a5.514,5.514,0,0,0,.288,2.141c.126.462.47.358.68-.107.464-1.031-.446-1.976.107-2.94a4.875,4.875,0,0,1,1.483-1.2,8.99,8.99,0,0,0,1.721-1.006c.231-.272.6-1.212-.184-.82-.25.125-.392.433-.578.616A3.845,3.845,0,0,1,77.469,51.339Z" transform="translate(-74.831 -44.921)"/><path class="g" d="M104.1,63.625a3.158,3.158,0,0,1-2.8,2.114.6.6,0,0,1-.46-.109c-.162-.164-.043-.457.16-.6a2.541,2.541,0,0,1,.7-.263,2.232,2.232,0,0,0,1.568-1.946c.009-.377-.346-.84-.07-1.176.351-.426.615.086.75.366A2.3,2.3,0,0,1,104.1,63.625Z" transform="translate(-86.353 -50.035)"/><path class="g" d="M101.437,58.169a5.045,5.045,0,0,1,.97,2.23.767.767,0,0,1,0,.339.34.34,0,0,1-.663,0,1.221,1.221,0,0,1,0-.5,3.332,3.332,0,0,0-.866-2.309,1.03,1.03,0,0,1-.286-.564c0-.121.088-.435.267-.337.115.063.112.424.158.531A2.965,2.965,0,0,0,101.437,58.169Z" transform="translate(-86.278 -48.05)"/><path class="i" d="M94.032,62.185c-.133.616-.944,1.085-1.36,1.626s-.464,1.207-1.086,1.578a5.641,5.641,0,0,1-2.523.6,21,21,0,0,1-3.028-.008,2.447,2.447,0,0,1-1.1-.267.872.872,0,0,1-.312-.332c-.131-.251.156-.577.47-.546l2.458.249a2.951,2.951,0,0,0,1.721-.177,1.1,1.1,0,0,0,.6-.765c.061-.428-.278-.605-.517-.842a.531.531,0,0,1-.164-.636.713.713,0,0,1,.713-.254c.256.042.477.167.726.231.481.124,1.273.275,1.676-.046a1.985,1.985,0,0,0,.518-1.579c-.056-.326-.348-.706-.4-1.028-.034-.22-.034-.548.3-.607.3-.053.577.476.709.662A2.721,2.721,0,0,1,94.032,62.185Z" transform="translate(-79.167 -49.102)"/><path class="i" d="M111.173,41.163c.371.1.686.3,1.063.392a5.36,5.36,0,0,0,1.245.063,2.126,2.126,0,0,1,1.184.267.4.4,0,0,1,.149.163.15.15,0,0,1-.052.184.338.338,0,0,1-.3.007,1.564,1.564,0,0,1-.252-.152,2.22,2.22,0,0,0-.978-.267,9.086,9.086,0,0,1-1.034-.1c-.337-.068-.644-.2-.97-.289a3.778,3.778,0,0,0-.646-.117c-.1-.01-.474.018-.513-.1C110,41.024,111.033,41.125,111.173,41.163Z" transform="translate(-90.486 -40.981)"/><path class="i" d="M108.074,41.97a3.074,3.074,0,0,0-1.289-.012,1.5,1.5,0,0,0-.742.486,1.936,1.936,0,0,0-.355.717.326.326,0,0,0,0,.242.213.213,0,0,0,.256.086.23.23,0,0,0,.116-.168l.139-.506a.848.848,0,0,1,.211-.422.934.934,0,0,1,.494-.208,3.109,3.109,0,0,1,.566-.015l.753.025a4.85,4.85,0,0,1,.577.042.649.649,0,0,0,.188.013c.078-.011.173-.081.1-.14-.049-.042-.162-.011-.23-.019C108.6,42.057,108.336,42.01,108.074,41.97Z" transform="translate(-88.529 -41.332)"/><path class="i" d="M115.191,57.521a5.421,5.421,0,0,0-.244,1.369,2.542,2.542,0,0,0,.351,1.393,3.8,3.8,0,0,0,1.892,1.384,8.069,8.069,0,0,0,4.479.407.685.685,0,0,0,.346-.142c.2-.19.034-.55-.237-.685a1.4,1.4,0,0,0-.875-.054,2.465,2.465,0,0,1-.876.077c-.609-.107-.98-.69-1.527-.955-.584-.284-1.306-.179-1.9-.432a1.673,1.673,0,0,1-.955-1.147,2.275,2.275,0,0,1,.162-1.387,8.1,8.1,0,0,1,.691-1.217c.078-.123.22-.59-.136-.492-.2.054-.437.376-.549.517A3.827,3.827,0,0,0,115.191,57.521Z" transform="translate(-92.653 -47.433)"/><path class="i" d="M117.873,51.679a1.565,1.565,0,0,0-.287.431.653.653,0,0,0-.048.285.174.174,0,0,0,.271.1,1.768,1.768,0,0,0,.539-.739,1.448,1.448,0,0,1,.729-.835,3.427,3.427,0,0,0,.567-.186c.226-.139.29-.412.532-.53a1.664,1.664,0,0,1,.416-.1.524.524,0,0,0,.32-.152.156.156,0,0,0-.089-.256c-.1-.017-.288.1-.372.133-.138.059-.275.122-.408.188a7.163,7.163,0,0,0-1.474.969A6.484,6.484,0,0,0,117.873,51.679Z" transform="translate(-93.803 -44.8)"/><path class="i" d="M118.68,53.28a10.364,10.364,0,0,1-.212,1.073,3.3,3.3,0,0,1-.775.918,1.394,1.394,0,0,0-.518,1.05.512.512,0,0,0,.427.475.5.5,0,0,0,.487-.358,3.525,3.525,0,0,0,.064-.6c.089-.63.7-1.092.886-1.684a8.4,8.4,0,0,0,.138-.851.913.913,0,0,1,.5-.689c.093-.041.534-.192.33-.344-.113-.083-.393.064-.487.108A1.528,1.528,0,0,0,118.68,53.28Z" transform="translate(-93.641 -45.932)"/><path class="i" d="M119.083,59.315c-.207.206-.5.4-.507.677a.639.639,0,0,0,.361.524,2.354,2.354,0,0,0,.682.222l.95.205a.458.458,0,0,0,.3,0,.2.2,0,0,0,.081-.257.45.45,0,0,0-.228-.213,2.412,2.412,0,0,0-.849-.13c-.287-.026-.614-.137-.7-.38a.505.505,0,0,1,.146-.492c.122-.137.28-.245.4-.383a.906.906,0,0,0,.22-.665c-.009-.114-.078-.362-.261-.361s-.162.207-.169.309A1.456,1.456,0,0,1,119.083,59.315Z" transform="translate(-94.265 -48.513)"/><path class="i" d="M141.675,53.266a.665.665,0,0,0,.343.55,3.865,3.865,0,0,0,.688.335,6.255,6.255,0,0,1,3.36,3.354,1.663,1.663,0,0,0,.233.481.641.641,0,0,0,.507.258.314.314,0,0,0,.281-.311,1.146,1.146,0,0,0-.121-.466,5.177,5.177,0,0,0-.769-1.414,10.354,10.354,0,0,0-2.469-1.742,8.711,8.711,0,0,1-1.217-.936c-.112-.1-.261-.32-.425-.362A.346.346,0,0,0,141.675,53.266Z" transform="translate(-104.525 -46.268)"/><path class="i" d="M148.113,61.23c.2.21.463.365.669.571a1.329,1.329,0,0,1,.4,1.159,1.275,1.275,0,0,1-.709.871,2.746,2.746,0,0,1-1.272.252,1.2,1.2,0,0,1-.549-.107c-.173-.089-.314-.271-.28-.423s.245-.223.435-.241a4,4,0,0,0,.859-.1.482.482,0,0,0,.376-.581c-.081-.244-.365-.42-.529-.641a1.264,1.264,0,0,1-.182-.918,1.429,1.429,0,0,0-.111-.9c-.062-.106-.149-.2-.217-.307a.441.441,0,0,1-.094-.322c.117-.51.62.426.677.578A2.947,2.947,0,0,0,148.113,61.23Z" transform="translate(-106.61 -49.106)"/><path class="i" d="M107,41.142c-.058.043-.114.107-.081.161a.167.167,0,0,0,.159.048.729.729,0,0,0,.169-.059,1.5,1.5,0,0,1,.817-.091.392.392,0,0,0,.268-.009.116.116,0,0,0-.008-.192,1.028,1.028,0,0,0-.689-.1A1.39,1.39,0,0,0,107,41.142Z" transform="translate(-89.082 -40.884)"/><path class="i" d="M91.213,42.257c-.013.157.076.3.061.462-.029.306-.426.551-.814.67a9.164,9.164,0,0,0-1.175.335c-.1.048-.214.123-.21.211s.132.135.248.146a2.3,2.3,0,0,0,1.223-.338,4.782,4.782,0,0,1,1.147-.52,1.761,1.761,0,0,1,1.1.091,1.029,1.029,0,0,1,.6.7,2.4,2.4,0,0,0,.093.507.453.453,0,0,0,.492.255.439.439,0,0,0,.328-.515,1.4,1.4,0,0,0-.677-.8,3.258,3.258,0,0,1-.854-.675c-.205-.283-.223-.8-.588-.988A.747.747,0,0,0,91.213,42.257Z" transform="translate(-81.159 -41.264)"/></g></g><path class="j" d="M67.322,64.367c.565,4.815,5.535,6.428,10.166,7.015-5.467.209-10.456-1.937-10.93-6.919Z" transform="translate(-0.031 -13.028)"/><path class="j" d="M144.875,69.357c1.493-.057,2.771-.067,3.839-.19,2.566-.3,3.89-1.05,3.823-3.1l.775-.026c.041,2.71-1.957,3.481-4.533,3.553A22.674,22.674,0,0,1,144.875,69.357Z" transform="translate(-34.823 -13.771)"/><path class="j" d="M101.483,74c4.709-.913,11.461-2.154,15.893-2.212C112.531,72.412,106.251,73.686,101.483,74Z" transform="translate(-15.546 -16.325)"/></g></svg>