<svg xmlns="http://www.w3.org/2000/svg" width="11" height="14" viewBox="0 0 11 14"><defs><style>.a{isolation:isolate;}</style></defs><g transform="translate(-316.333 41)"><g class="a" transform="translate(315.667 -41)"><g transform="translate(0.333)"><path d="M5.5,14a.526.526,0,0,1-.3-.1c-.026-.019-.1-.073-.23-.171-.181-.139-.377-.3-.581-.468a17.553,17.553,0,0,1-1.758-1.7A8.8,8.8,0,0,1,0,5.833,5.68,5.68,0,0,1,5.5,0,5.68,5.68,0,0,1,11,5.833a8.792,8.792,0,0,1-2.626,5.724,17.566,17.566,0,0,1-1.758,1.7c-.2.169-.4.326-.581.468-.1.079-.181.137-.229.171A.526.526,0,0,1,5.5,14Zm0-12.833A4.544,4.544,0,0,0,1.1,5.833a7.669,7.669,0,0,0,2.324,4.922,16.393,16.393,0,0,0,1.645,1.594c.152.128.3.247.431.351.136-.107.281-.225.431-.351a16.33,16.33,0,0,0,1.645-1.594A7.667,7.667,0,0,0,9.9,5.833,4.544,4.544,0,0,0,5.5,1.167Z" transform="translate(0.333)"/><path d="M2.267,4.621A2.291,2.291,0,0,1,0,2.311,2.292,2.292,0,0,1,2.267,0,2.292,2.292,0,0,1,4.533,2.311,2.291,2.291,0,0,1,2.267,4.621Zm0-3.463A1.152,1.152,0,1,0,3.4,2.311,1.144,1.144,0,0,0,2.267,1.158Z" transform="translate(3.19 3.463)"/></g></g></g></svg>