<svg xmlns="http://www.w3.org/2000/svg" width="6.263" height="6.264" viewBox="0 0 6.263 6.264"><defs><style>.a{fill:#c62828;}.b{fill:#ef5350;}.c{fill:#cfd8dc;}.d{fill:#90a4ae;}</style></defs><g transform="translate(-0.02 0)"><path class="a" d="M.074,159.63c0,.907.6,2.218,1.7,2.218.62,0,1.261-.758,1.882-1.491.467-.55.947-1.118,1.249-1.118a1.3,1.3,0,0,0,1.435-1.174v-.553l-6.263,1.6v.522Z" transform="translate(-0.053 -155.585)"/><path class="b" d="M4.771,84.567c-.207,0-.39,0-.555-.006a3.31,3.31,0,0,0-2.252.547c-.164.1-.319.187-.466.271-.827.474-1.424.816-1.424,1.667,0,.907.6,2.218,1.7,2.218.62,0,1.261-.758,1.882-1.491.467-.55.947-1.118,1.249-1.118A1.3,1.3,0,0,0,6.337,85.48C6.337,85.055,6.159,84.567,4.771,84.567Z" transform="translate(-0.053 -83.522)"/><g transform="translate(1.064 3.132)"><path d="M86.059,256.876c-.372,0-.652-.168-.652-.391s.281-.391.652-.391.652.168.652.391S86.431,256.876,86.059,256.876Zm0-.522c-.253,0-.391.1-.391.13s.139.13.391.13.391-.1.391-.13S86.312,256.354,86.059,256.354Z" transform="translate(-85.407 -256.093)"/></g><path class="c" d="M86.059,256.093c-.372,0-.652.168-.652.391s.281.391.652.391.652-.168.652-.391S86.431,256.093,86.059,256.093Z" transform="translate(-84.343 -252.961)"/><g transform="translate(1.586 1.566)"><path class="a" d="M130.031,192.875a.13.13,0,0,1-.092-.038,4.983,4.983,0,0,0-1.734-.484.13.13,0,0,1,0-.261,4.968,4.968,0,0,1,1.919.56.13.13,0,0,1-.092.223Z" transform="translate(-128.074 -191.309)"/><path class="a" d="M279.1,128.875a.13.13,0,0,1-.092-.038,2.984,2.984,0,0,0-1.473-.484.13.13,0,0,1,0-.261,3.143,3.143,0,0,1,1.658.56.13.13,0,0,1-.092.223Z" transform="translate(-275.58 -128.092)"/></g><g transform="translate(0.282 0)"><path class="d" d="M21.719,1.914a.13.13,0,0,1-.092-.223c.159-.16.094-.353-.026-.656-.112-.282-.251-.633.026-.909a.131.131,0,1,1,.184.185c-.148.148-.084.335.032.629s.257.648-.032.937A.13.13,0,0,1,21.719,1.914Z" transform="translate(-21.464 -0.086)"/><path class="d" d="M85.721,1.4a.13.13,0,0,1-.072-.239c.106-.071.1-.124-.037-.356-.106-.178-.283-.475.037-.688a.13.13,0,1,1,.145.217h0c-.092.061-.1.1.043.337.108.183.289.485-.043.706A.131.131,0,0,1,85.721,1.4Z" transform="translate(-84.684 -0.09)"/><path class="d" d="M149.651.784a.13.13,0,0,1-.041-.254l.006,0-.046-.04c-.087-.073-.195-.164-.17-.291s.164-.174.21-.189a.131.131,0,0,1,.088.246c.014.012.029.026.04.034.088.074.2.166.172.3s-.17.178-.218.194A.13.13,0,0,1,149.651.784Z" transform="translate(-147.831 0)"/></g><path d="M1.769,89.251c-1.092,0-1.7-1.312-1.7-2.218,0-.851.6-1.193,1.424-1.667.147-.084.3-.173.466-.271a3.314,3.314,0,0,1,2.252-.547c.165,0,.348.006.555.006,1.388,0,1.566.488,1.566.913A1.3,1.3,0,0,1,4.9,86.641c-.3,0-.783.569-1.249,1.118C3.031,88.493,2.389,89.251,1.769,89.251ZM3.832,84.8a2.8,2.8,0,0,0-1.735.514c-.165.1-.323.189-.47.274-.807.462-1.294.741-1.294,1.44s.48,1.957,1.435,1.957c.5,0,1.128-.743,1.683-1.4S4.477,86.381,4.9,86.381c.68,0,1.174-.384,1.174-.913,0-.228,0-.652-1.3-.652-.209,0-.393,0-.559-.006C4.073,84.806,3.948,84.8,3.832,84.8Z" transform="translate(-0.052 -83.509)"/><path d="M1.717,153.861A1.421,1.421,0,0,1,.151,152.7l-.13-1.3a.131.131,0,0,1,.261-.026l.13,1.3a1.166,1.166,0,0,0,1.3.926c.5,0,1.209-.746,1.832-1.4s1.141-1.205,1.56-1.205a.81.81,0,0,0,.913-.913v-.522a.13.13,0,1,1,.261,0v.522a1.06,1.06,0,0,1-1.174,1.174c-.307,0-.848.571-1.37,1.124C3.048,153.106,2.332,153.861,1.717,153.861Z" transform="translate(0 -147.598)"/><g transform="translate(1.064 3.132)"><path d="M86.059,256.876c-.372,0-.652-.168-.652-.391s.281-.391.652-.391.652.168.652.391S86.431,256.876,86.059,256.876Zm0-.522c-.253,0-.391.1-.391.13s.139.13.391.13.391-.1.391-.13S86.312,256.354,86.059,256.354Z" transform="translate(-85.407 -256.093)"/></g><g transform="translate(1.064 3.132)"><path d="M86.059,256.876c-.372,0-.652-.168-.652-.391s.281-.391.652-.391.652.168.652.391S86.431,256.876,86.059,256.876Zm0-.522c-.253,0-.391.1-.391.13s.139.13.391.13.391-.1.391-.13S86.312,256.354,86.059,256.354Z" transform="translate(-85.407 -256.093)"/></g><path d="M130.031,192.875a.13.13,0,0,1-.092-.038,4.98,4.98,0,0,0-1.734-.484.13.13,0,0,1,0-.261,4.967,4.967,0,0,1,1.919.56.13.13,0,0,1-.092.223Z" transform="translate(-126.488 -189.743)"/><path d="M279.1,128.875a.13.13,0,0,1-.092-.038,2.986,2.986,0,0,0-1.473-.484.13.13,0,0,1,0-.261,3.146,3.146,0,0,1,1.658.56.13.13,0,0,1-.092.223Z" transform="translate(-273.994 -126.526)"/><path d="M21.712,1.907a.13.13,0,0,1-.092-.223c.16-.159.094-.353-.026-.657-.112-.282-.251-.633.026-.909A.131.131,0,0,1,21.8.3h0c-.148.148-.084.335.032.629s.257.648-.032.937A.13.13,0,0,1,21.712,1.907Z" transform="translate(-21.176 -0.079)"/><path d="M85.712,1.4a.13.13,0,0,1-.072-.239c.106-.071.1-.124-.037-.356C85.5.622,85.32.325,85.64.112a.13.13,0,1,1,.145.217h0c-.092.061-.1.1.043.337.108.183.289.485-.043.706A.131.131,0,0,1,85.712,1.4Z" transform="translate(-84.393 -0.09)"/><path d="M149.649.921a.13.13,0,0,1-.041-.254l.007,0-.046-.04c-.087-.073-.195-.164-.17-.291s.164-.174.21-.189A.13.13,0,0,1,149.7.39c.014.013.029.026.04.035.088.074.2.166.173.3s-.17.178-.218.194A.13.13,0,0,1,149.649.921Z" transform="translate(-147.547 -0.137)"/></g></svg>