<svg xmlns="http://www.w3.org/2000/svg" width="71.214" height="86.033" viewBox="0 0 71.214 86.033"><defs><style>.a{opacity:0.51;mix-blend-mode:overlay;isolation:isolate;}.b{fill:#e6e6e7;}.c{fill:#f1f1f2;}.d{fill:#ffc5c5;}.e{fill:#d0534f;}.f{fill:#a32430;}.g{fill:#f897b0;}.h{fill:#6b4e2f;}.aa,.i{fill:#fff;}.j{fill:#b8996e;}.k{fill:#9c7b53;}.l{fill:#434343;}.m{fill:#424243;}.n{fill:#ffb2a8;}.o{fill:#084596;}.p{fill:#eb9076;}.q{fill:#053473;}.r{fill:#ff5876;}.s{fill:#f74363;}.t{fill:#2d2d7a;}.u{fill:#000062;}.v{fill:#fed296;}.w{fill:#e33453;}.x{fill:#ffbf69;}.y{fill:#bfd772;}.z{fill:#feb149;}.aa,.ab{stroke:#fff;}.ab{fill:none;}.ac{fill:#c62828;}.ad{fill:#ef5350;}.ae{fill:#cfd8dc;}.af{fill:#90a4ae;}</style></defs><g transform="translate(-239.12 -208.967)"><g class="a" transform="translate(84.127 107.683)"><g transform="translate(156.303 101.716)"><g transform="translate(0 0)"><path class="b" d="M233.838,862.753h-61.1a3.753,3.753,0,0,0-3.748,3.748h68.594A3.753,3.753,0,0,0,233.838,862.753Z" transform="translate(-168.993 -791.933)"/><path class="c" d="M278.5,479.219l-.067,0v3.124h.451a.187.187,0,0,1,.178.246l-.161.484a1.729,1.729,0,0,1,1.08,1.6v4.44a1.766,1.766,0,0,1-1.7,2.258h-.027a1.73,1.73,0,0,1-1.594-1.062,1.721,1.721,0,0,1-.134-.928v-4.708a1.729,1.729,0,0,1,1.1-1.609l-.181-.467a.187.187,0,0,1,.175-.255h.505V479.2a4.737,4.737,0,0,1-3.082-1.471v2.254h.181a.094.094,0,0,1,.089.123l-.076.23a.808.808,0,0,1,.5.747v2.3a.806.806,0,0,0,0,1.439v2.3a.805.805,0,0,0,0,1.441v2.3a.808.808,0,0,1-.509.749l.075.193a.094.094,0,0,1-.079.144h-.586a.093.093,0,0,1-.089-.123l.072-.218a.808.808,0,0,1-.5-.746v-2.3a.805.805,0,0,0,0-1.441v-2.3a.806.806,0,0,0,0-1.439v-2.3a.808.808,0,0,1,.514-.751l-.086-.221a.094.094,0,0,1,.087-.127h.181V477.48a4.69,4.69,0,0,1-.586-.912,4.735,4.735,0,0,1-2.149,2.157.158.158,0,0,1,0,.027v2.8h.219a.128.128,0,0,1,.126.15l-.119.68a2.116,2.116,0,0,1,.656,1.721v5.546a2.1,2.1,0,0,1-.668,1.729l.126.616a.128.128,0,0,1-.119.174h-.743a.128.128,0,0,1-.126-.15l.114-.651a2.124,2.124,0,0,1-.651-1.718V484.1a2.089,2.089,0,0,1,.673-1.733l-.136-.665a.128.128,0,0,1,.125-.153h.218v-2.686a4.754,4.754,0,0,1-6.072-2.294,4.75,4.75,0,0,1-8.522,0,4.75,4.75,0,0,1-5.278,2.541v2.363h.374a.187.187,0,0,1,.182.232l-.153.614a1.972,1.972,0,0,1,.918,1.764v5.545a1.964,1.964,0,0,1-.932,1.771l.158.544a.187.187,0,0,1-.171.264h-1.053a.187.187,0,0,1-.182-.232l.145-.585a1.975,1.975,0,0,1-.91-1.761v-5.545a1.96,1.96,0,0,1,.94-1.774l-.173-.6a.187.187,0,0,1,.18-.239h.374v-2.44a4.741,4.741,0,0,1-2.829-2.251v3.206h.181a.094.094,0,0,1,.089.123l-.076.23a.808.808,0,0,1,.5.747v2.3a.806.806,0,0,0,0,1.439v2.3a.805.805,0,0,0,0,1.441v2.3a.808.808,0,0,1-.509.749l.075.193a.094.094,0,0,1-.079.144h-.586a.094.094,0,0,1-.089-.123l.072-.218a.808.808,0,0,1-.5-.746v-2.3a.805.805,0,0,0,0-1.441v-2.3a.806.806,0,0,0,0-1.439v-2.3a.808.808,0,0,1,.514-.751l-.086-.221a.094.094,0,0,1,.087-.127h.181v-3.206a4.74,4.74,0,0,1-3.452,2.387v3.174h.451a.187.187,0,0,1,.178.246l-.161.484a1.729,1.729,0,0,1,1.08,1.6v4.44a1.766,1.766,0,0,1-1.7,2.258h-.027a1.73,1.73,0,0,1-1.594-1.062,1.757,1.757,0,0,1-.149-.708,1.785,1.785,0,0,1,.015-.22v-4.707a1.729,1.729,0,0,1,1.1-1.609l-.181-.467a.187.187,0,0,1,.175-.255h.505V479.2c-.13.011-.261.018-.394.018a4.739,4.739,0,0,1-4.261-2.651,4.75,4.75,0,0,1-8.522,0,4.751,4.751,0,0,1-7.867.994V494.79h3.507a.631.631,0,0,1,.39-1.128h2.188a2.969,2.969,0,0,1-1.76-2.311h-1.32l-.01.01-.619.619a.587.587,0,1,1-.829-.83l.576-.576L225.3,490a.587.587,0,0,1,.83-.829l.619.619a.579.579,0,0,1,.061.071h1.3a3.033,3.033,0,0,1,3-2.406h3.848a3.166,3.166,0,0,1,.37.022h.037a3.217,3.217,0,0,1,1.234,6.187h1.744a.631.631,0,0,1,.39,1.128h4.709a2.127,2.127,0,0,1-.551-.719.166.166,0,0,1-.011-.036.8.8,0,0,1,.082-.66.379.379,0,0,1,.3-.134.677.677,0,0,1,.286.073.172.172,0,0,1,.067.064,1.405,1.405,0,0,0,1.27.736,2.745,2.745,0,0,0,1.2-.322.17.17,0,0,1,.029-.013,1.2,1.2,0,0,1,.386-.075.663.663,0,0,1,.126.012,1.152,1.152,0,0,1,.471-.5,3.513,3.513,0,0,1,1.827-.6,2.181,2.181,0,0,1,1.815.948.171.171,0,0,1,.016.034c.013.038.025.075.035.11a.665.665,0,0,1,.083-.007,1.2,1.2,0,0,1,.386.075.168.168,0,0,1,.03.013,2.747,2.747,0,0,0,1.2.322h0a1.405,1.405,0,0,0,1.27-.736.171.171,0,0,1,.067-.064.677.677,0,0,1,.286-.073.378.378,0,0,1,.3.134.8.8,0,0,1,.082.66.175.175,0,0,1-.011.036,2.13,2.13,0,0,1-.551.719h3.682a.631.631,0,0,1,.39-1.128h1.355a3.24,3.24,0,0,1,1.566-6.073h0a7.617,7.617,0,0,1,7.257,3.169,2.349,2.349,0,0,1,.269,2.344,1.844,1.844,0,0,1-.553.561h.794a.631.631,0,0,1,.39,1.128H282.1V477.562A4.74,4.74,0,0,1,278.5,479.219Z" transform="translate(-218.633 -441.884)"/><path class="c" d="M473.274,661.506c0-.007,0-.014-.006-.021a.711.711,0,0,1-.137-.03.172.172,0,0,1-.076-.053,1.4,1.4,0,0,0-1.11-.551,2.561,2.561,0,0,0-1.39.524.161.161,0,0,1-.027.018,1.044,1.044,0,0,1-.476.142.536.536,0,0,1-.109-.012.758.758,0,0,1-.246.306h3.832A.744.744,0,0,1,473.274,661.506Z" transform="translate(-441.559 -608.924)"/><path class="d" d="M225.55,403.211a3.773,3.773,0,0,0,3.793-3.744v-5.721h-7.586v5.721A3.773,3.773,0,0,0,225.55,403.211Z" transform="translate(-216.82 -366.812)"/><path class="e" d="M312.833,399.467a3.794,3.794,0,0,0,7.586,0v-5.721h-7.586Z" transform="translate(-299.374 -366.812)"/><path class="d" d="M403.909,399.467a3.794,3.794,0,0,0,7.586,0v-5.721h-7.586Z" transform="translate(-381.927 -366.812)"/><path class="e" d="M494.984,399.467a3.794,3.794,0,0,0,7.586,0v-5.721h-7.586Z" transform="translate(-464.48 -366.812)"/><path class="d" d="M586.06,399.467a3.793,3.793,0,0,0,7.586,0v-5.721H586.06Z" transform="translate(-547.034 -366.812)"/><path class="e" d="M677.135,399.467a3.794,3.794,0,0,0,7.586,0v-5.721h-7.586Z" transform="translate(-629.587 -366.812)"/><path class="d" d="M768.211,399.467a3.794,3.794,0,0,0,7.586,0v-5.721h-7.586Z" transform="translate(-712.141 -366.812)"/><path class="f" d="M227.664,327.5h57.614l-3.549-5.6H231.213Z" transform="translate(-222.174 -301.69)"/><path class="c" d="M699.177,224.976h-.567v1.994h.567a.514.514,0,0,0,.38-.159.526.526,0,0,0,.157-.383v-.91a.536.536,0,0,0-.147-.393A.522.522,0,0,0,699.177,224.976Z" transform="translate(-649.053 -213.834)"/><path class="c" d="M314.9,198.152l-1.164,1.665,0,.022.235,1.326a.9.9,0,0,1-.732,1.047.911.911,0,0,1-.158.014.9.9,0,0,1-.889-.746l-.219-1.235-1.235.219a.9.9,0,0,1-.158.014h0a.9.9,0,0,1-.157-1.793l1.327-.235a.9.9,0,0,1,.144-.014l1.144-1.637a4.462,4.462,0,0,1-1.2-2.428,4.718,4.718,0,0,1,.272-2.473H268.3v11.042H318.3v-4.494a4.619,4.619,0,0,1-1.352.2A4.42,4.42,0,0,1,314.9,198.152Zm-42.54,1.38a1.441,1.441,0,0,1-1.2.736h-1.741v-6.237h1.408a1.793,1.793,0,0,1,1,.293,1.366,1.366,0,0,1,.547.771,2.175,2.175,0,0,1,.09.662,1.464,1.464,0,0,1-.333,1,.945.945,0,0,1-.328.244,1.092,1.092,0,0,1,.532.472,1.839,1.839,0,0,1,.214.617,2.459,2.459,0,0,1,.035.433A2.082,2.082,0,0,1,272.362,199.532Zm4.009-.676a1.417,1.417,0,0,1-.438,1.054,1.454,1.454,0,0,1-1.054.428,1.478,1.478,0,0,1-1.487-1.482v-4.82h.92v4.81a.514.514,0,0,0,.159.38.526.526,0,0,0,.383.157.535.535,0,0,0,.537-.537v-4.81h.98Zm3.685-3.875h-.995v5.287h-.94v-5.287h-1v-.945h2.935Zm3.626,1.189h-.975v-.731a.543.543,0,0,0-.542-.542.514.514,0,0,0-.38.159.526.526,0,0,0-.157.383v3.412a.535.535,0,0,0,.537.537.526.526,0,0,0,.383-.157.514.514,0,0,0,.159-.38v-.86h.975v.87a1.49,1.49,0,0,1-2.979,0v-3.4a1.49,1.49,0,1,1,2.979,0Zm3.785,4.1h-.94v-2.641h-1.134v2.641h-.94v-6.232h.94v2.646h1.134v-2.646h.94Zm3.516-5.292h-1.736v1.7h1.268v.945h-1.268v1.7h1.736v.945h-2.676v-6.237h2.676Zm2.783,5.292-.57-2.348h-.627v2.348h-.94v-6.232h1.482a1.433,1.433,0,0,1,1.154.433,1.573,1.573,0,0,1,.323,1.054v.905a1.456,1.456,0,0,1-.5,1.119l.7,2.721Zm5.08-.438a1.218,1.218,0,0,1-.647.443,1.763,1.763,0,0,1-.522.07,1.478,1.478,0,0,1-.915-.274,1.528,1.528,0,0,1-.48-.609,2.459,2.459,0,0,1-.206-.883l.9-.065a1.36,1.36,0,0,0,.288.79.481.481,0,0,0,.388.175.583.583,0,0,0,.492-.3.754.754,0,0,0,.095-.413,1.147,1.147,0,0,0-.353-.772l-.836-.792a3.57,3.57,0,0,1-.661-.812,1.876,1.876,0,0,1-.209-.876,1.524,1.524,0,0,1,.572-1.289,1.422,1.422,0,0,1,.875-.264,1.592,1.592,0,0,1,.861.224,1.294,1.294,0,0,1,.45.488,1.8,1.8,0,0,1,.206.721l-.9.164a1.086,1.086,0,0,0-.219-.6.46.46,0,0,0-.373-.154.43.43,0,0,0-.393.229.882.882,0,0,0-.109.458,1.373,1.373,0,0,0,.368.871,3.1,3.1,0,0,0,.418.4q.328.274.433.383a3.192,3.192,0,0,1,.537.686,2.655,2.655,0,0,1,.144.293,1.711,1.711,0,0,1,.139.6A1.753,1.753,0,0,1,298.847,199.83Zm4.133.438h-.94v-2.641h-1.134v2.641h-.94v-6.232h.94v2.646h1.134v-2.646h.94Zm3.81-1.418a1.49,1.49,0,1,1-2.979,0v-3.4a1.49,1.49,0,1,1,2.979,0Zm1.77-.93v2.348h-.94v-6.232H309.1a1.432,1.432,0,0,1,1.094.433,1.5,1.5,0,0,1,.378,1.054v.905a1.45,1.45,0,0,1-.43,1.054,1.407,1.407,0,0,1-1.042.438Z" transform="translate(-259.003 -183.854)"/><path class="c" d="M291.532,251.5h-.393v1.86h.393a.667.667,0,0,0,.662-.492,1.083,1.083,0,0,0,.065-.388,1.182,1.182,0,0,0-.2-.761A.642.642,0,0,0,291.532,251.5Z" transform="translate(-279.71 -237.876)"/><path class="c" d="M292.119,226.034a1.221,1.221,0,0,0,.055-.393.822.822,0,0,0-.189-.587.6.6,0,0,0-.453-.184h-.393v1.592h.393A.576.576,0,0,0,292.119,226.034Z" transform="translate(-279.71 -213.738)"/><path class="c" d="M658.225,223.86a.526.526,0,0,0-.383.157.514.514,0,0,0-.159.38v3.412a.514.514,0,0,0,.159.38.526.526,0,0,0,.383.157.535.535,0,0,0,.537-.537V224.4a.535.535,0,0,0-.537-.537Z" transform="translate(-611.955 -212.823)"/><path class="c" d="M528.291,224.976h-.567v1.994h.567a.514.514,0,0,0,.38-.159.526.526,0,0,0,.157-.383v-.91A.477.477,0,0,0,528.291,224.976Z" transform="translate(-494.157 -213.834)"/><path class="e" d="M264.841,686.869a1.567,1.567,0,0,0-1.565-1.565H204.087a1.565,1.565,0,1,0,0,3.13h59.189A1.567,1.567,0,0,0,264.841,686.869Z" transform="translate(-199.385 -631.088)"/><rect class="f" width="58.112" height="9.108" transform="translate(5.357 60.402)"/><path class="d" d="M264.614,733.19a.219.219,0,1,0,0-.437H202.749a.219.219,0,1,0,0,.437Z" transform="translate(-199.385 -674.098)"/><path class="f" d="M283.216,218.111a1.092,1.092,0,0,0-.532-.472.945.945,0,0,0,.328-.244,1.464,1.464,0,0,0,.333-1,2.175,2.175,0,0,0-.09-.662,1.366,1.366,0,0,0-.547-.771,1.794,1.794,0,0,0-1-.293H280.3V220.9h1.741a1.356,1.356,0,0,0,.711-.219,1.342,1.342,0,0,0,.492-.517,2.083,2.083,0,0,0,.224-1,2.462,2.462,0,0,0-.035-.433A1.839,1.839,0,0,0,283.216,218.111Zm-1.905-2.492h.393a.6.6,0,0,1,.453.184.822.822,0,0,1,.189.587,1.222,1.222,0,0,1-.055.393.576.576,0,0,1-.587.428h-.393Zm1.054,3.86a.667.667,0,0,1-.662.492h-.393v-1.86h.393a.642.642,0,0,1,.527.219,1.182,1.182,0,0,1,.2.761A1.083,1.083,0,0,1,282.365,219.479Z" transform="translate(-269.881 -204.487)"/><path class="f" d="M324.764,219.527a.535.535,0,0,1-.537.537.526.526,0,0,1-.383-.157.514.514,0,0,1-.159-.38v-4.81h-.92v4.82a1.477,1.477,0,0,0,1.487,1.482,1.454,1.454,0,0,0,1.054-.428,1.416,1.416,0,0,0,.438-1.054v-4.82h-.98Z" transform="translate(-308.376 -204.535)"/><path class="f" d="M362.63,215.662h1v5.287h.94v-5.287h.995v-.945H362.63Z" transform="translate(-344.511 -204.535)"/><path class="f" d="M402.392,213.973a1.49,1.49,0,0,0-1.492,1.492v3.4a1.49,1.49,0,0,0,2.979,0V218H402.9v.86a.514.514,0,0,1-.159.38.526.526,0,0,1-.383.157.535.535,0,0,1-.537-.537v-3.412a.526.526,0,0,1,.157-.383.514.514,0,0,1,.38-.159.543.543,0,0,1,.542.542v.731h.975v-.711a1.445,1.445,0,0,0-.433-1.054A1.427,1.427,0,0,0,402.392,213.973Z" transform="translate(-379.2 -203.861)"/><path class="f" d="M443.052,217.363h-1.134v-2.646h-.94v6.232h.94v-2.641h1.134v2.641h.94v-6.232h-.94Z" transform="translate(-415.528 -204.535)"/><path class="f" d="M482.171,220.9h2.676v-.945h-1.736v-1.7h1.268v-.945h-1.268v-1.7h1.736v-.945h-2.676Z" transform="translate(-452.867 -204.487)"/><path class="f" d="M520.637,217.109V216.2a1.573,1.573,0,0,0-.323-1.054,1.433,1.433,0,0,0-1.154-.433h-1.482v6.232h.94V218.6h.627l.57,2.348h1.017l-.7-2.721A1.456,1.456,0,0,0,520.637,217.109Zm-.915.02a.526.526,0,0,1-.157.383.514.514,0,0,1-.38.159h-.567v-1.994h.567a.477.477,0,0,1,.537.542Z" transform="translate(-485.051 -204.535)"/><path class="f" d="M568.021,217.737a3.193,3.193,0,0,0-.537-.686q-.1-.109-.433-.383a3.107,3.107,0,0,1-.418-.4,1.373,1.373,0,0,1-.368-.87.882.882,0,0,1,.109-.458.43.43,0,0,1,.393-.229.46.46,0,0,1,.373.154,1.086,1.086,0,0,1,.219.6l.9-.164a1.8,1.8,0,0,0-.206-.721,1.294,1.294,0,0,0-.45-.488,1.591,1.591,0,0,0-.861-.224,1.422,1.422,0,0,0-.875.264,1.524,1.524,0,0,0-.572,1.289,1.877,1.877,0,0,0,.209.876,3.567,3.567,0,0,0,.661.812l.836.792a1.147,1.147,0,0,1,.353.772.754.754,0,0,1-.095.413.583.583,0,0,1-.492.3.481.481,0,0,1-.388-.175,1.36,1.36,0,0,1-.288-.79l-.9.065a2.46,2.46,0,0,0,.206.883,1.528,1.528,0,0,0,.48.609,1.478,1.478,0,0,0,.915.274,1.764,1.764,0,0,0,.522-.07,1.219,1.219,0,0,0,.647-.443,1.754,1.754,0,0,0,.338-1.114,1.713,1.713,0,0,0-.139-.6A2.674,2.674,0,0,0,568.021,217.737Z" transform="translate(-528.123 -203.765)"/><path class="f" d="M608.836,217.363H607.7v-2.646h-.94v6.232h.94v-2.641h1.134v2.641h.94v-6.232h-.94Z" transform="translate(-565.799 -204.535)"/><path class="f" d="M649.336,213.867a1.49,1.49,0,0,0-1.487,1.492v3.4a1.445,1.445,0,0,0,.433,1.054,1.427,1.427,0,0,0,1.054.438,1.49,1.49,0,0,0,1.492-1.492v-3.4a1.49,1.49,0,0,0-1.492-1.492Zm.512,4.884a.535.535,0,0,1-.537.537.527.527,0,0,1-.383-.157.514.514,0,0,1-.159-.38v-3.412a.514.514,0,0,1,.159-.38.527.527,0,0,1,.383-.157.535.535,0,0,1,.537.537Z" transform="translate(-603.042 -203.765)"/><path class="f" d="M691.519,217.109V216.2a1.5,1.5,0,0,0-.378-1.054,1.432,1.432,0,0,0-1.094-.433h-1.482v6.232h.94V218.6h.542a1.407,1.407,0,0,0,1.042-.438A1.45,1.45,0,0,0,691.519,217.109Zm-.91.02a.526.526,0,0,1-.157.383.514.514,0,0,1-.38.159H689.5v-1.994h.567a.523.523,0,0,1,.39.149.536.536,0,0,1,.147.393Z" transform="translate(-639.947 -204.535)"/><path class="f" d="M511.3,542.05V547.6a1.5,1.5,0,0,0,.873,1.5h.449a1.5,1.5,0,0,0,.873-1.5V542.05c0-.844-.493-1.531-1.1-1.531S511.3,541.206,511.3,542.05Z" transform="translate(-479.268 -499.851)"/><path class="f" d="M520.172,533.313h.385l.082-.331h-.563Z" transform="translate(-487.224 -493.02)"/><path class="f" d="M520.054,636.162l-.082.331h.563l-.1-.331Z" transform="translate(-487.13 -586.545)"/><path class="g" d="M484.6,601.165v-2.3a.62.62,0,0,0-1.24,0v2.3a.621.621,0,0,0,.492.607h.256A.621.621,0,0,0,484.6,601.165Z" transform="translate(-453.942 -552.173)"/><path class="g" d="M483.358,558.849v2.3a.62.62,0,0,0,1.24,0v-2.3a.62.62,0,1,0-1.24,0Z" transform="translate(-453.942 -515.904)"/><path class="g" d="M483.358,518.856v2.3a.62.62,0,0,0,1.24,0v-2.3a.62.62,0,0,0-1.24,0Z" transform="translate(-453.942 -479.653)"/><path class="g" d="M488.365,515.212h.241l.035-.106h-.106a.1.1,0,0,1-.113,0h-.1Z" transform="translate(-458.444 -476.816)"/><path class="g" d="M488.286,637.962l-.035.106h.318l-.041-.106Z" transform="translate(-458.377 -588.176)"/><path class="h" d="M638.108,601.312c.555-.906-.251-2.069-.259-2.08a7.382,7.382,0,0,0-6.05-3.145,3.237,3.237,0,0,1,.552,5.911h4.911A1.845,1.845,0,0,0,638.108,601.312Zm-1.323-.708-.555.183.189.573a.119.119,0,1,1-.226.075l-.189-.573-.695.229.142.43a.119.119,0,0,1-.076.151.121.121,0,0,1-.037.006.119.119,0,0,1-.113-.082l-.142-.43-.627.207a.121.121,0,0,1-.037.006.119.119,0,0,1-.037-.232l.627-.207-.275-.834-.556.184a.121.121,0,0,1-.037.006.119.119,0,0,1-.037-.232l.556-.184-.2-.613a.119.119,0,1,1,.226-.075l.2.613.695-.229-.155-.47a.119.119,0,0,1,.226-.075l.155.47.626-.207a.119.119,0,1,1,.075.226l-.626.207.275.834.555-.183a.119.119,0,1,1,.075.226Z" transform="translate(-588.493 -550.22)"/><rect class="h" width="0.732" height="0.878" transform="translate(46.465 49.812) rotate(-18.275)"/><path class="d" d="M595.248,600.7a2.958,2.958,0,0,0-2.538-3.326,3.009,3.009,0,0,0-.4-.027,2.958,2.958,0,0,0-2.348,4.753,2.935,2.935,0,0,0,1.5,1.039h1.7A2.97,2.97,0,0,0,595.248,600.7Zm-2.9,2.126a2.6,2.6,0,0,1-.343-.023,2.554,2.554,0,0,1,.159-5.079.093.093,0,0,1,.1.112c-.007.034-.013.069-.018.1a1.479,1.479,0,0,0,2.347,1.386.093.093,0,0,1,.143.042,2.555,2.555,0,0,1-2.386,3.457Z" transform="translate(-550.023 -551.364)"/><path class="g" d="M599.528,605.36a1.669,1.669,0,0,1-1.431-1.868,2.366,2.366,0,1,0,2.541,1.626A1.661,1.661,0,0,1,599.528,605.36Zm-1.141.8a.86.86,0,0,1-.849.744.887.887,0,0,1-.115-.008.858.858,0,0,1,.113-1.709.887.887,0,0,1,.115.008.858.858,0,0,1,.736.965Z" transform="translate(-556.06 -556.932)"/><path class="i" d="M605.426,623.1a.724.724,0,0,0-.1-.006.715.715,0,0,0-.094,1.424.727.727,0,0,0,.1.006.715.715,0,0,0,.094-1.424Zm.421.778a.522.522,0,0,1-.516.452.509.509,0,0,1-.07,0,.521.521,0,1,1,.585-.447Z" transform="translate(-563.854 -574.695)"/><path class="f" d="M609.72,627.893l-.036,0a.267.267,0,1,0,.036,0Z" transform="translate(-568.207 -579.048)"/><path class="j" d="M666.885,649.649l.142.43a.119.119,0,1,0,.226-.075l-.142-.43Z" transform="translate(-620.296 -598.702)"/><rect class="j" width="0.238" height="0.878" transform="translate(46.239 49.887) rotate(-18.275)"/><path class="j" d="M660.551,629.094l-.2-.613a.119.119,0,1,0-.226.075l.2.613Z" transform="translate(-614.161 -579.508)"/><path class="j" d="M676.729,646.4l.189.573a.119.119,0,0,0,.226-.075l-.189-.573Z" transform="translate(-629.219 -595.756)"/><path class="j" d="M670.854,627.232l-.155-.47a.119.119,0,1,0-.226.075l.155.47Z" transform="translate(-623.542 -577.951)"/><rect class="j" width="0.238" height="0.878" transform="translate(47.16 49.583) rotate(-18.275)"/><path class="j" d="M656.465,631.044l.695-.229.226-.075.626-.207a.119.119,0,0,0-.075-.226l-.626.207-.226.075-.695.229-.226.075-.556.184a.119.119,0,0,0,.037.232.123.123,0,0,0,.037-.006l.556-.184Z" transform="translate(-610 -581.232)"/><path class="j" d="M660.922,641.887l-.555.183-.226.075-.695.229-.226.075-.627.207a.119.119,0,1,0,.075.226l.627-.207.226-.075.695-.229.226-.075.555-.183a.119.119,0,0,0-.075-.226Z" transform="translate(-612.706 -591.729)"/><path class="j" d="M243.609,614.2a.188.188,0,0,1-.186-.112.217.217,0,0,0-.046-.069l-.619-.619a.218.218,0,0,0-.309.309l.619.619a.216.216,0,0,0,.071.047.184.184,0,0,1,0,.34.216.216,0,0,0-.071.047l-.619.619a.218.218,0,0,0,0,.309.224.224,0,0,0,.309,0l.619-.619a.214.214,0,0,0,.03-.038.184.184,0,0,1,.179-.084.369.369,0,0,0,.048,0h1.308v-.578c0-.059,0-.118.006-.177h-1.339Z" transform="translate(-235.518 -565.855)"/><path class="f" d="M276.937,599.277a3.22,3.22,0,0,1,1.858-2.915h-2.9a2.684,2.684,0,0,0-2.732,2.627v.576a2.684,2.684,0,0,0,2.732,2.627h2.9A3.22,3.22,0,0,1,276.937,599.277Z" transform="translate(-263.42 -550.469)"/><path class="e" d="M322.32,599.069a2.936,2.936,0,1,0-2.936,2.936A2.94,2.94,0,0,0,322.32,599.069Zm-.255.686a1.815,1.815,0,0,1-.95,1.059.094.094,0,0,1-.125-.03l-.641-.991a.093.093,0,0,1,0-.095l.391-.736a.094.094,0,0,1,.083-.05h1.074a.093.093,0,0,1,.08.045A1.094,1.094,0,0,1,322.066,599.755Zm-.693-2.268a.094.094,0,0,1-.031.125l-.991.641a.093.093,0,0,1-.051.015.1.1,0,0,1-.044-.011l-.737-.391a.094.094,0,0,1-.05-.083v-1.074a.094.094,0,0,1,.045-.08,1.067,1.067,0,0,1,.517-.128C320.388,596.5,320.908,596.672,321.373,597.487Zm-1.943.913a.775.775,0,1,1-.775.775A.776.776,0,0,1,319.43,598.4Zm-2.3.732a.094.094,0,0,1-.08-.045,1.1,1.1,0,0,1-.093-.8,1.816,1.816,0,0,1,.951-1.059.094.094,0,0,1,.125.03l.641.991a.093.093,0,0,1,0,.095l-.391.737a.094.094,0,0,1-.083.05Zm.444,1.571a.094.094,0,0,1,.03-.125l.991-.641a.094.094,0,0,1,.095,0l.736.391a.094.094,0,0,1,.05.083v1.074a.094.094,0,0,1-.045.08,1.063,1.063,0,0,1-.517.128C318.561,601.689,318.04,601.517,317.576,600.7Z" transform="translate(-302.65 -550.261)"/><path class="d" d="M342.039,622.947a.588.588,0,1,0,.588-.588A.588.588,0,0,0,342.039,622.947Z" transform="translate(-325.847 -574.033)"/><path class="d" d="M330.717,639.342a1.4,1.4,0,0,0,1.133.816.931.931,0,0,0,.375-.079v-.961l-.638-.339Z" transform="translate(-315.584 -588.918)"/><path class="d" d="M351.13,602.065a.922.922,0,0,0-.375.078v.961l.638.339.869-.562C351.855,602.209,351.424,602.065,351.13,602.065Z" transform="translate(-333.747 -555.638)"/><path class="d" d="M361.491,628.449a.929.929,0,0,0-.048-.609h-.961l-.338.638.562.869A1.579,1.579,0,0,0,361.491,628.449Z" transform="translate(-342.257 -579.002)"/><path class="d" d="M324.343,610.068a1.579,1.579,0,0,0-.786.9.928.928,0,0,0,.049.609h.961l.339-.638Z" transform="translate(-309.067 -562.892)"/><path class="j" d="M718.719,250.057a.29.29,0,0,1-.305.137.336.336,0,0,0-.128,0l-1.327.235a.336.336,0,0,0,.058.668.347.347,0,0,0,.059-.005l1.327-.235a.333.333,0,0,0,.122-.048.283.283,0,0,1,.429.3.332.332,0,0,0,0,.131l.235,1.327a.338.338,0,0,0,.39.272.336.336,0,0,0,.272-.39l-.235-1.327a.332.332,0,0,0-.021-.071.283.283,0,0,1,.052-.3.565.565,0,0,0,.047-.058l1.154-1.651,0,0-.726-.508c-.075-.052-.147-.107-.218-.163l-1.159,1.659C718.732,250.035,718.725,250.046,718.719,250.057Z" transform="translate(-665.433 -235.036)"/><path class="f" d="M743.755,150.067a4.965,4.965,0,0,1-2.045-4.909l-2.549,3.647a4.265,4.265,0,0,0-.732,3.121,3.942,3.942,0,0,0,1.638,2.644l.727.508a3.917,3.917,0,0,0,2.255.707,4.251,4.251,0,0,0,3.47-1.837l2.555-3.656a4.943,4.943,0,0,1-5.319-.224Z" transform="translate(-685.098 -141.485)"/><path class="e" d="M784.957,106.72a4.521,4.521,0,1,0,1.862,2.917A4.493,4.493,0,0,0,784.957,106.72Zm-2.7-.051-.065,1.815a.144.144,0,0,1-.078.123l-1.143.585a.144.144,0,0,1-.148-.01l-1.356-.948a.144.144,0,0,1-.061-.127c0-.016.126-1.609,2.27-1.609.144,0,.3.007.451.022A.144.144,0,0,1,782.255,106.669Zm-.849,5.3-.948,1.356a.144.144,0,0,1-.118.062h-.009a1.685,1.685,0,0,1-1.088-.587,2.8,2.8,0,0,1-.5-2.134.145.145,0,0,1,.149-.131l1.816.065a.144.144,0,0,1,.123.078l.585,1.143A.144.144,0,0,1,781.406,111.968Zm.451-.529a1.193,1.193,0,1,1,.682.215A1.194,1.194,0,0,1,781.857,111.438Zm1.427,2.732c-.144,0-.3-.007-.451-.022A.144.144,0,0,1,782.7,114l.065-1.815a.144.144,0,0,1,.078-.123l1.143-.585a.144.144,0,0,1,.148.01l1.356.948a.143.143,0,0,1,.061.127C785.553,112.578,785.428,114.17,783.284,114.17Zm2.813-4.39a.144.144,0,0,1-.143.131h-.005l-1.815-.065a.144.144,0,0,1-.123-.078l-.585-1.143a.144.144,0,0,1,.01-.148l.948-1.356a.142.142,0,0,1,.127-.061,1.685,1.685,0,0,1,1.088.587A2.8,2.8,0,0,1,786.1,109.78Z" transform="translate(-720.873 -105.904)"/><path class="d" d="M820.162,145.677a.905.905,0,1,0-.149.676A.9.9,0,0,0,820.162,145.677Z" transform="translate(-757.603 -141.278)"/><path class="d" d="M833.937,168.621l-.99.507-.057,1.593c.1.006.2.01.289.01,1.624,0,1.92-.974,1.972-1.262Z" transform="translate(-770.768 -162.752)"/><path class="d" d="M797.689,116.6l1.214.848.99-.507.057-1.593c-.1-.006-.2-.01-.289-.01C798.028,115.336,797.739,116.309,797.689,116.6Z" transform="translate(-738.861 -114.453)"/><path class="d" d="M842.309,121.929a1.444,1.444,0,0,0-.815-.48l-.847,1.212.507.99,1.593.057A2.438,2.438,0,0,0,842.309,121.929Z" transform="translate(-777.799 -119.994)"/><path class="d" d="M790.319,158.507a2.432,2.432,0,0,0,.441,1.784,1.432,1.432,0,0,0,.811.476l.847-1.213-.507-.99Z" transform="translate(-732.171 -153.585)"/><path class="g" d="M765.28,601.165v-2.3a.62.62,0,0,0-1.24,0v2.3a.621.621,0,0,0,.492.607h.256A.621.621,0,0,0,765.28,601.165Z" transform="translate(-708.36 -552.173)"/><path class="g" d="M764.04,558.849v2.3a.62.62,0,0,0,1.24,0v-2.3a.62.62,0,1,0-1.24,0Z" transform="translate(-708.36 -515.904)"/><path class="g" d="M764.04,518.856v2.3a.62.62,0,0,0,1.24,0v-2.3a.62.62,0,0,0-1.24,0Z" transform="translate(-708.36 -479.653)"/><path class="g" d="M769.047,515.212h.241l.035-.106h-.106a.1.1,0,0,1-.113,0h-.1Z" transform="translate(-712.862 -476.816)"/><path class="g" d="M768.968,637.962l-.035.106h.318l-.041-.106Z" transform="translate(-712.795 -588.176)"/><path class="f" d="M730.335,541.646v5.545a1.751,1.751,0,0,0,.625,1.558h.305a1.751,1.751,0,0,0,.625-1.558v-5.545c0-.862-.356-1.591-.778-1.591S730.335,540.784,730.335,541.646Z" transform="translate(-677.809 -499.431)"/><path class="f" d="M736.452,532.969h.262l.079-.45h-.172a.14.14,0,0,1-.094,0h-.167Z" transform="translate(-683.27 -492.6)"/><path class="f" d="M736.392,635.7l-.079.45h.433l-.092-.45Z" transform="translate(-683.228 -586.125)"/><path class="g" d="M791.66,550.353v3.823a1.764,1.764,0,0,1,2.706-.064v-3.759a1.355,1.355,0,0,0-1.075-1.324h-.556A1.355,1.355,0,0,0,791.66,550.353Z" transform="translate(-733.396 -507.565)"/><path class="g" d="M802.406,542.532h.542l.086-.258h-.727Z" transform="translate(-743.045 -501.442)"/><path class="d" d="M791.5,602.32a1.4,1.4,0,1,0,1.4-1.4A1.4,1.4,0,0,0,791.5,602.32Zm2-.589a.343.343,0,1,1-.343.343A.344.344,0,0,1,793.5,601.732Zm-.428,1.041a.343.343,0,1,1-.343.343A.344.344,0,0,1,793.068,602.773Zm-.581-.4a.343.343,0,1,1-.343-.343A.343.343,0,0,1,792.487,602.371Z" transform="translate(-733.249 -554.605)"/><path class="e" d="M795.98,614.213a.25.25,0,1,0-.25-.25A.25.25,0,0,0,795.98,614.213Z" transform="translate(-737.085 -566.197)"/><circle class="e" cx="0.25" cy="0.25" r="0.25" transform="translate(59.57 48.262)"/><path class="e" d="M810.434,611.046a.25.25,0,1,0-.25-.25A.25.25,0,0,0,810.434,611.046Z" transform="translate(-750.187 -563.327)"/><path class="g" d="M435.533,550.353v3.823a1.764,1.764,0,0,1,2.706-.064v-3.759a1.355,1.355,0,0,0-1.075-1.324h-.556A1.355,1.355,0,0,0,435.533,550.353Z" transform="translate(-410.592 -507.565)"/><path class="g" d="M446.279,542.532h.542l.086-.258h-.727Z" transform="translate(-420.242 -501.442)"/><path class="d" d="M435.371,602.32a1.4,1.4,0,1,0,1.4-1.4A1.4,1.4,0,0,0,435.371,602.32Zm2-.589a.343.343,0,1,1-.343.343A.344.344,0,0,1,437.369,601.732Zm-.428,1.041a.343.343,0,1,1-.343.343A.344.344,0,0,1,436.941,602.773Zm-.925-.745a.343.343,0,1,1-.343.343A.344.344,0,0,1,436.017,602.028Z" transform="translate(-410.445 -554.605)"/><path class="e" d="M439.6,613.964a.25.25,0,1,0,.25-.25A.25.25,0,0,0,439.6,613.964Z" transform="translate(-414.282 -566.197)"/><path class="e" d="M449.485,621.926a.25.25,0,1,0,.25-.25A.25.25,0,0,0,449.485,621.926Z" transform="translate(-423.239 -573.414)"/><circle class="e" cx="0.25" cy="0.25" r="0.25" transform="translate(26.674 47.22)"/><path class="k" d="M586.324,662.955h10.691a.351.351,0,1,0,0-.7H586.324a.351.351,0,1,0,0,.7Z" transform="translate(-546.955 -610.194)"/><path class="k" d="M262,662.955h10.691a.351.351,0,1,0,0-.7H262a.351.351,0,1,0,0,.7Z" transform="translate(-252.983 -610.194)"/><path class="g" d="M434.931,658.91a.226.226,0,0,0-.113-.023.849.849,0,0,0-.26.051,3.053,3.053,0,0,1-1.351.359,1.744,1.744,0,0,1-1.536-.855.286.286,0,0,0-.088-.018c-.028,0-.034.007-.037.011s-.059.081-.011.358a1.856,1.856,0,0,0,1.72,1.021,3.569,3.569,0,0,0,1.372-.317c.089-.034.337-.157.391-.309a.165.165,0,0,0,0-.11l0,0A.59.59,0,0,1,434.931,658.91Z" transform="translate(-406.951 -606.724)"/><path class="g" d="M511.5,659.207a.77.77,0,0,0,.375.287,3.585,3.585,0,0,0,1.378.319,1.856,1.856,0,0,0,1.721-1.021c.048-.277-.005-.351-.011-.358s-.009-.011-.037-.011a.284.284,0,0,0-.088.018,1.744,1.744,0,0,1-1.536.855h0a3.051,3.051,0,0,1-1.351-.359.85.85,0,0,0-.26-.051l-.037,0a.45.45,0,0,1-.076.24A.358.358,0,0,1,511.5,659.207Z" transform="translate(-479.448 -606.724)"/><path class="g" d="M471.413,652.684a.187.187,0,0,0,.051.162.173.173,0,0,1,.032.061c.006.014.031.049.109.049a.687.687,0,0,0,.3-.1,2.871,2.871,0,0,1,1.592-.589,1.723,1.723,0,0,1,1.337.632.337.337,0,0,0,.06.006h0c.025,0,.054,0,.063-.016s.052-.078-.043-.358a1.84,1.84,0,0,0-1.513-.77,3.191,3.191,0,0,0-1.651.553C471.668,652.366,471.442,652.527,471.413,652.684Z" transform="translate(-443.112 -600.689)"/></g></g><g transform="translate(154.993 101.284)"><g transform="translate(0 0)"><path class="l" d="M855.008,848.753h-.066v.655a.655.655,0,0,1-.655.655h.721a3.753,3.753,0,0,1,3.748,3.748h0a.655.655,0,1,0,1.31,0A5.064,5.064,0,0,0,855.008,848.753Z" transform="translate(-788.853 -778.811)"/><path class="l" d="M160.051,850.063h.954a.655.655,0,0,1-.655-.655v-.655h-.3a5.064,5.064,0,0,0-5.058,5.058.655.655,0,1,0,1.31,0h0A3.753,3.753,0,0,1,160.051,850.063Z" transform="translate(-154.993 -778.811)"/><path class="l" d="M857.594,381.615a.656.656,0,0,0-.164-.117l.074.117Z" transform="translate(-791.702 -355.278)"/><path class="l" d="M212.027,381.5a.657.657,0,0,0-.164.117h.09Z" transform="translate(-206.542 -355.278)"/><path class="l" d="M848.416,383.009a.561.561,0,0,1,.018.571c-.007.013-.016.025-.024.038v5.974a4.63,4.63,0,0,1-1.123,3.023v17.228h.422a2.861,2.861,0,0,1,.888.141V383.31a.653.653,0,0,0-.187-.458V383Z" transform="translate(-782.508 -356.505)"/><path class="l" d="M210.645,409.843h.422V392.615a4.63,4.63,0,0,1-1.123-3.023v-5.974c-.008-.012-.017-.024-.024-.038a.562.562,0,0,1,.018-.571l.006-.01v-.147a.652.652,0,0,0-.187.458v26.674A2.862,2.862,0,0,1,210.645,409.843Z" transform="translate(-204.633 -356.505)"/><path class="l" d="M216.486,401.693a4.739,4.739,0,0,0,4.261-2.651,4.613,4.613,0,0,1-.468-2.029,3.794,3.794,0,0,1-7.586,0v-5.721h-.468a.56.56,0,0,1-.468-.253v5.974a4.63,4.63,0,0,0,1.123,3.023A4.74,4.74,0,0,0,216.486,401.693Z" transform="translate(-206.446 -363.926)"/><path class="l" d="M211.857,382.746h-.1v.157Z" transform="translate(-206.446 -356.409)"/><path class="l" d="M302.833,399.467a4.613,4.613,0,0,0,.468,2.029,4.75,4.75,0,0,0,8.522,0,4.61,4.61,0,0,1-.468-2.029,3.794,3.794,0,0,1-7.586,0v-5.721h-.936Z" transform="translate(-288.999 -366.38)"/><path class="l" d="M393.909,399.467a4.611,4.611,0,0,0,.468,2.029,4.739,4.739,0,0,0,4.261,2.651c.133,0,.264-.007.394-.018v-.45a.152.152,0,1,1,.3,0v.416a4.74,4.74,0,0,0,3.452-2.387v-.383a.108.108,0,0,1,.012-.048,4.611,4.611,0,0,1-.369-1.811,3.794,3.794,0,0,1-7.586,0v-5.721h-.936Z" transform="translate(-371.553 -366.38)"/><path class="l" d="M484.984,399.467a4.612,4.612,0,0,0,.369,1.811.111.111,0,0,1,.211.048v.383a4.74,4.74,0,0,0,2.829,2.251v-.281a.152.152,0,1,1,.3,0v.358a4.75,4.75,0,0,0,5.278-2.541,4.611,4.611,0,0,1-.468-2.029,3.794,3.794,0,0,1-7.586,0v-5.721h-.936Z" transform="translate(-454.106 -366.38)"/><path class="l" d="M576.06,399.467a4.611,4.611,0,0,0,.468,2.029,4.75,4.75,0,0,0,8.522,0,4.613,4.613,0,0,1-.468-2.029,3.793,3.793,0,0,1-7.586,0v-5.721h-.936Z" transform="translate(-536.66 -366.38)"/><path class="l" d="M667.135,399.467a4.613,4.613,0,0,0,.468,2.029,4.754,4.754,0,0,0,6.072,2.294v-.111a.152.152,0,0,1,.3-.027,4.736,4.736,0,0,0,2.149-2.157,4.613,4.613,0,0,1-.468-2.029,3.794,3.794,0,0,1-7.586,0v-5.721h-.936Z" transform="translate(-619.213 -366.38)"/><path class="l" d="M858.321,382.9v-.157h-.1Z" transform="translate(-792.419 -356.409)"/><path class="l" d="M758.211,397.013a4.611,4.611,0,0,0,.468,2.029,4.684,4.684,0,0,0,.586.912v-1.082a.111.111,0,0,1,.222,0v1.335a4.737,4.737,0,0,0,3.082,1.471v-.452a.152.152,0,1,1,.3,0v.466l.067,0a4.739,4.739,0,0,0,3.606-1.657,4.63,4.63,0,0,0,1.123-3.023v-5.974a.56.56,0,0,1-.468.253h-.468v5.721a3.794,3.794,0,0,1-7.587,0v-5.721h-.936Z" transform="translate(-701.767 -363.926)"/><path class="l" d="M210.851,320.735l-.006.01a.562.562,0,0,0-.018.571c.007.013.016.025.024.038a.56.56,0,0,0,.468.253h59.655a.56.56,0,0,0,.468-.253c.008-.012.017-.024.024-.038a.561.561,0,0,0-.018-.571l-.006-.01-.1-.157-.074-.117-3.994-6.3v.163a.561.561,0,0,1-.561.561H266.4l3.549,5.6H212.339l3.549-5.6h-.309a.561.561,0,0,1-.561-.561v-.163l-3.994,6.3-.074.117Z" transform="translate(-205.539 -294.241)"/><path class="l" d="M256.856,193.188h51.133a.561.561,0,0,0,.561-.561v-5.568a4.728,4.728,0,0,1-1.123.513v4.494h-50.01V181.024h43.818a4.894,4.894,0,0,1,.544-1.012l.078-.111h-45a.561.561,0,0,0-.561.561v12.164A.561.561,0,0,0,256.856,193.188Z" transform="translate(-246.816 -172.545)"/><path class="l" d="M190.059,675.744H191.4a1.565,1.565,0,1,1,0-3.13h59.189a1.565,1.565,0,1,1,0,3.13h1.338a1.533,1.533,0,0,1,.872.271,2.875,2.875,0,0,0-2.21-4.711H237.143a.628.628,0,0,1-.39.135H226.063a.628.628,0,0,1-.39-.135h-3.682a2.224,2.224,0,0,1-1.495.529,3.908,3.908,0,0,1-1.506-.344,1.358,1.358,0,0,1-.327-.185h-3.832a1.386,1.386,0,0,1-.333.188,3.894,3.894,0,0,1-1.5.341,2.224,2.224,0,0,1-1.494-.529H206.8a.628.628,0,0,1-.39.135H195.716a.628.628,0,0,1-.39-.135H191.4a2.873,2.873,0,0,0-2.21,4.711A1.533,1.533,0,0,1,190.059,675.744Z" transform="translate(-185.385 -617.966)"/><path class="l" d="M212.9,761.838h59.422a.655.655,0,0,0,.655-.655V751.42h-1.31v9.108H213.557V751.42h-1.31v9.763A.655.655,0,0,0,212.9,761.838Z" transform="translate(-206.89 -690.586)"/><path class="l" d="M192.052,721.81h59.872a1.528,1.528,0,1,0,0-3.057H190.059a1.528,1.528,0,1,0,0,3.057h1.993Zm-2.22-1.528a.223.223,0,0,1,.227-.218h61.866a.219.219,0,1,1,0,.437H190.059A.223.223,0,0,1,189.832,720.281Z" transform="translate(-185.385 -660.975)"/><path class="l" d="M508.42,546.737h.126a1.5,1.5,0,0,1-.873-1.5v-5.545c0-.844.493-1.531,1.1-1.531h-.321a.187.187,0,0,1-.18-.135l-.031-.108a1.96,1.96,0,0,0-.94,1.775v5.545a1.975,1.975,0,0,0,.91,1.761l.03-.12A.187.187,0,0,1,508.42,546.737Z" transform="translate(-474.332 -497.061)"/><path class="l" d="M523.383,538.264h-.351c.605,0,1.1.687,1.1,1.531v5.545a1.5,1.5,0,0,1-.873,1.5h.1a.187.187,0,0,1,.18.135l.04.137a1.964,1.964,0,0,0,.932-1.771v-5.545a1.972,1.972,0,0,0-.918-1.764l-.023.091A.187.187,0,0,1,523.383,538.264Z" transform="translate(-488.594 -497.164)"/><path class="l" d="M516.126,529.321a.152.152,0,0,1-.152-.152v-.187H515.6a.187.187,0,0,0-.18.239l.173.6.031.108a.187.187,0,0,0,.18.135h.672a.187.187,0,0,0,.182-.142l.023-.091.153-.614a.187.187,0,0,0-.182-.232h-.374v.187A.152.152,0,0,1,516.126,529.321Zm.286.035-.082.331h-.385l-.1-.331Z" transform="translate(-481.688 -488.961)"/><path class="l" d="M516.448,632.162h-.672a.187.187,0,0,0-.182.142l-.03.12-.145.585a.187.187,0,0,0,.182.232h1.053a.187.187,0,0,0,.171-.264l-.158-.544-.04-.137A.187.187,0,0,0,516.448,632.162Zm-.045.705h-.563l.082-.331h.385Z" transform="translate(-481.688 -582.487)"/><path class="l" d="M482.165,597.254a.8.8,0,0,1-.362-.087.807.807,0,0,0-.446.721v2.3a.808.808,0,0,0,.5.746l.025-.075a.093.093,0,0,1,.089-.064h.067a.621.621,0,0,1-.492-.607v-2.3a.62.62,0,0,1,1.24,0v2.3a.621.621,0,0,1-.492.607h.05a.093.093,0,0,1,.087.06l.032.083a.808.808,0,0,0,.509-.75v-2.3a.807.807,0,0,0-.446-.721A.8.8,0,0,1,482.165,597.254Z" transform="translate(-450.819 -550.766)"/><path class="l" d="M482.165,557.251a.8.8,0,0,1-.364-.087.807.807,0,0,0-.444.72v2.3a.807.807,0,0,0,1.614,0v-2.3a.807.807,0,0,0-.444-.72A.8.8,0,0,1,482.165,557.251Zm.62.632v2.3a.62.62,0,0,1-1.24,0v-2.3a.62.62,0,0,1,1.24,0Z" transform="translate(-450.819 -514.507)"/><path class="l" d="M482.36,516.965h-.195a.621.621,0,0,1,.62.62v2.3a.62.62,0,1,1-1.24,0v-2.3a.621.621,0,0,1,.62-.62h-.178a.093.093,0,0,1-.087-.06l-.028-.071a.808.808,0,0,0-.514.751v2.3a.807.807,0,0,0,1.614,0v-2.3a.808.808,0,0,0-.5-.747l-.021.063A.094.094,0,0,1,482.36,516.965Z" transform="translate(-450.819 -477.95)"/><path class="l" d="M486.306,513.293h.106l-.035.106h-.241l-.041-.106h.1a.11.11,0,0,1-.055-.094v-.094h-.181a.094.094,0,0,0-.087.127l.086.221.028.071a.094.094,0,0,0,.087.06h.373a.094.094,0,0,0,.089-.064l.021-.063.076-.23a.094.094,0,0,0-.089-.123h-.181v.094A.109.109,0,0,1,486.306,513.293Z" transform="translate(-454.904 -474.571)"/><path class="l" d="M486.428,635.962h-.373a.094.094,0,0,0-.089.064l-.025.075-.072.218a.094.094,0,0,0,.089.123h.586a.094.094,0,0,0,.079-.144l-.075-.193-.032-.083A.094.094,0,0,0,486.428,635.962Zm-.023.293h-.318l.035-.106h.242Z" transform="translate(-454.904 -585.931)"/><path class="l" d="M621.96,593.794a7.382,7.382,0,0,1,6.05,3.145c.008.012.814,1.174.259,2.081a1.846,1.846,0,0,1-.846.685h.5a1.842,1.842,0,0,0,.553-.561,2.349,2.349,0,0,0-.269-2.344,7.617,7.617,0,0,0-7.257-3.169h0a3.256,3.256,0,0,1,1.016.163Z" transform="translate(-577.344 -547.495)"/><path class="l" d="M588.748,600.423a2.959,2.959,0,0,1-2.083-3.228,2.966,2.966,0,0,1,2.928-2.565,3,3,0,0,1,.4.027,2.958,2.958,0,0,1,2.538,3.325,2.97,2.97,0,0,1-2.085,2.44h.717a3.238,3.238,0,0,0-1.133-6.044,3.3,3.3,0,0,0-.434-.029h0a3.24,3.24,0,0,0-1.566,6.073Z" transform="translate(-545.994 -548.213)"/><path class="l" d="M598.96,603.017a.094.094,0,0,0-.143-.042,1.479,1.479,0,0,1-2.347-1.386c0-.036.011-.07.018-.1a.094.094,0,0,0-.1-.112,2.553,2.553,0,1,0,2.57,1.645Zm-.044,1.218a2.373,2.373,0,0,1-2.342,2.052,2.41,2.41,0,0,1-.318-.021,2.367,2.367,0,0,1,.028-4.7,1.667,1.667,0,0,0,2.541,1.626A2.37,2.37,0,0,1,598.916,604.235Z" transform="translate(-552.937 -554.578)"/><path class="l" d="M604.627,621.9a.853.853,0,0,0-.568-.33.886.886,0,0,0-.115-.008.858.858,0,0,0-.113,1.709.889.889,0,0,0,.115.008.858.858,0,0,0,.681-1.379Zm.027.616a.717.717,0,0,1-.708.62.728.728,0,0,1-.1-.006.715.715,0,1,1,.8-.613Z" transform="translate(-561.158 -572.878)"/><path class="l" d="M607.282,625.17a.521.521,0,1,0-.139,1.032.51.51,0,0,0,.07,0,.521.521,0,0,0,.069-1.037Zm.194.552a.266.266,0,1,1-.264-.3l.036,0a.266.266,0,0,1,.228.3Z" transform="translate(-564.426 -576.144)"/><path class="l" d="M241.375,611.386h-1.308a.369.369,0,0,1-.048,0,.184.184,0,0,0-.179.084.217.217,0,0,1-.03.038l-.619.619a.224.224,0,0,1-.309,0,.218.218,0,0,1,0-.309l.619-.619a.216.216,0,0,1,.071-.047.184.184,0,0,0,0-.34.214.214,0,0,1-.071-.047l-.619-.619a.218.218,0,0,1,.309-.309l.619.619a.218.218,0,0,1,.046.069.188.188,0,0,0,.186.112h1.339a2.853,2.853,0,0,1,.047-.368h-1.3a.579.579,0,0,0-.061-.071l-.619-.619a.587.587,0,1,0-.83.829l.576.576-.576.576a.587.587,0,1,0,.829.83l.619-.619.01-.01h1.32A2.87,2.87,0,0,1,241.375,611.386Z" transform="translate(-230.641 -561.855)"/><path class="l" d="M275.785,599.113c-.042-.017-.083-.036-.125-.055h-2.9a2.684,2.684,0,0,1-2.732-2.627v-.576a2.684,2.684,0,0,1,2.732-2.627h2.9a3.194,3.194,0,0,1,1.322-.3,3.172,3.172,0,0,0-.37-.022h-3.848a3.033,3.033,0,0,0-3,2.406,2.835,2.835,0,0,0-.047.368c0,.059-.006.117-.006.177v.578a2.866,2.866,0,0,0,.025.368,2.969,2.969,0,0,0,1.76,2.311Z" transform="translate(-258.976 -546.903)"/><path class="l" d="M315.306,593.435a3.215,3.215,0,0,0,0,5.829c.041.019.083.038.125.056H317.9a3.217,3.217,0,0,0-1.234-6.187h-.037A3.2,3.2,0,0,0,315.306,593.435Zm1.359,5.851a2.936,2.936,0,1,1,2.936-2.936A2.939,2.939,0,0,1,316.665,599.286Z" transform="translate(-298.621 -547.11)"/><path class="l" d="M340.814,621.908a.775.775,0,1,0-.775-.775A.776.776,0,0,0,340.814,621.908Zm.588-.775a.588.588,0,1,1-.588-.588A.588.588,0,0,1,341.4,621.134Z" transform="translate(-322.724 -571.788)"/><path class="l" d="M330.283,638.18v-1.074a.094.094,0,0,0-.05-.083l-.736-.391a.094.094,0,0,0-.095,0l-.991.641a.094.094,0,0,0-.03.125c.465.815.985.986,1.34.986a1.064,1.064,0,0,0,.517-.128A.094.094,0,0,0,330.283,638.18Zm-.187-.058a.93.93,0,0,1-.375.079,1.4,1.4,0,0,1-1.133-.816l.869-.562.638.339Z" transform="translate(-312.146 -586.529)"/><path class="l" d="M348.8,600.193a.094.094,0,0,0-.045.08v1.074a.094.094,0,0,0,.05.083l.736.391a.094.094,0,0,0,.095,0l.991-.641a.093.093,0,0,0,.03-.125c-.465-.815-.985-.986-1.34-.986A1.065,1.065,0,0,0,348.8,600.193Zm.142,1.1v-.961a.922.922,0,0,1,.375-.078c.294,0,.726.144,1.133.816l-.869.562Z" transform="translate(-330.624 -553.393)"/><path class="l" d="M359.622,625.886a.093.093,0,0,0-.08-.045h-1.074a.094.094,0,0,0-.083.05l-.391.736a.094.094,0,0,0,0,.095l.641.99a.093.093,0,0,0,.125.031,1.816,1.816,0,0,0,.95-1.059A1.094,1.094,0,0,0,359.622,625.886Zm-.874,1.65-.562-.869.338-.638h.961a.929.929,0,0,1,.048.609A1.579,1.579,0,0,1,358.748,627.536Z" transform="translate(-338.99 -576.757)"/><path class="l" d="M322.892,609.585l.391-.737a.094.094,0,0,0,0-.095l-.641-.991a.094.094,0,0,0-.125-.031,1.816,1.816,0,0,0-.951,1.06,1.094,1.094,0,0,0,.093.8.094.094,0,0,0,.08.045h1.074A.094.094,0,0,0,322.892,609.585Zm-1.1-.137a.928.928,0,0,1-.049-.609,1.579,1.579,0,0,1,.786-.9l.562.869-.339.638Z" transform="translate(-305.944 -560.332)"/><path class="l" d="M712.694,245.919l-1.327.235a.9.9,0,0,0,.157,1.793h0a.905.905,0,0,0,.158-.014l1.235-.219.219,1.235a.9.9,0,1,0,1.778-.315l-.235-1.326,0-.022,1.164-1.665a4.431,4.431,0,0,1-.486-.294l-1.154,1.651a.6.6,0,0,1-.047.058.284.284,0,0,0-.052.3.332.332,0,0,1,.021.071l.235,1.327a.336.336,0,0,1-.272.39.339.339,0,0,1-.39-.272l-.235-1.327a.332.332,0,0,1,0-.131.283.283,0,0,0-.429-.3.333.333,0,0,1-.122.048l-1.327.235a.347.347,0,0,1-.059.005.336.336,0,0,1-.058-.668l1.327-.235a.336.336,0,0,1,.128,0,.29.29,0,0,0,.3-.137c.007-.011.013-.022.02-.032l1.159-1.659a4.418,4.418,0,0,1-.424-.383l-1.144,1.637A.9.9,0,0,0,712.694,245.919Z" transform="translate(-658.63 -230.89)"/><path class="l" d="M733.38,130.665a4.719,4.719,0,0,0-.272,2.473,4.461,4.461,0,0,0,1.2,2.428,4.4,4.4,0,0,0,.424.383c.071.056.143.111.218.163l.727.508,0,0a4.432,4.432,0,0,0,2.537.794,4.619,4.619,0,0,0,1.352-.2,4.727,4.727,0,0,0,1.123-.513,4.842,4.842,0,0,0,1.4-1.333l3.394-4.856a4.9,4.9,0,0,0,.3-.488,4.947,4.947,0,0,1-1.546,1.4l-2.555,3.656a4.251,4.251,0,0,1-3.47,1.837,3.916,3.916,0,0,1-2.255-.707l-.726-.508a3.942,3.942,0,0,1-1.638-2.644,4.265,4.265,0,0,1,.732-3.121l2.549-3.647a4.932,4.932,0,0,1,.795-1.948,4.883,4.883,0,0,0-.358.453L734,129.543l-.078.111A4.891,4.891,0,0,0,733.38,130.665Z" transform="translate(-678.96 -122.186)"/><path class="l" d="M773.3,105.389a4.955,4.955,0,0,0,8.91,3.73l.033-.044a4.953,4.953,0,1,0-8.12-5.675l-.027.041A4.933,4.933,0,0,0,773.3,105.389Zm8.589,3.439a4.521,4.521,0,1,1,.746-3.379A4.529,4.529,0,0,1,781.886,108.828Z" transform="translate(-715.376 -101.284)"/><path class="l" d="M817.458,143.726a1.193,1.193,0,1,0-.979.51A1.185,1.185,0,0,0,817.458,143.726Zm-.979.222a.905.905,0,1,1,.742-.387A.9.9,0,0,1,816.48,143.948Z" transform="translate(-753.503 -138.054)"/><path class="l" d="M832.548,166.262l-1.356-.948a.144.144,0,0,0-.148-.01l-1.143.585a.144.144,0,0,0-.078.123l-.065,1.815a.144.144,0,0,0,.131.149c.156.014.307.022.451.022,2.143,0,2.269-1.593,2.27-1.609A.144.144,0,0,0,832.548,166.262Zm-2.208,1.448c-.093,0-.19,0-.289-.01l.057-1.593.99-.507,1.213.848C832.26,166.736,831.964,167.71,830.34,167.71Z" transform="translate(-766.619 -159.299)"/><path class="l" d="M796.777,112.256c-2.144,0-2.269,1.593-2.27,1.609a.144.144,0,0,0,.061.127l1.356.948a.144.144,0,0,0,.148.01l1.143-.585a.144.144,0,0,0,.078-.123l.065-1.815a.144.144,0,0,0-.131-.149C797.072,112.263,796.921,112.256,796.777,112.256Zm.232,1.891-.99.507-1.214-.848c.05-.288.339-1.261,1.972-1.261.093,0,.19,0,.289.01Z" transform="translate(-734.666 -111.229)"/><path class="l" d="M838.416,118.251a.142.142,0,0,0-.127.061l-.948,1.356a.144.144,0,0,0-.01.148l.585,1.143a.144.144,0,0,0,.123.078l1.815.065h.005a.144.144,0,0,0,.143-.131,2.8,2.8,0,0,0-.5-2.134A1.685,1.685,0,0,0,838.416,118.251Zm1.311,2.559-1.593-.057-.507-.99.847-1.212a1.444,1.444,0,0,1,.815.48A2.437,2.437,0,0,1,839.726,120.809Z" transform="translate(-773.469 -116.663)"/><path class="l" d="M789.338,155.519a.144.144,0,0,0-.123-.078l-1.815-.065a.145.145,0,0,0-.149.131,2.8,2.8,0,0,0,.5,2.134,1.685,1.685,0,0,0,1.088.587h.009a.144.144,0,0,0,.118-.062l.948-1.356a.144.144,0,0,0,.01-.148Zm-.559,2.41a1.432,1.432,0,0,1-.811-.476,2.432,2.432,0,0,1-.441-1.785l1.593.057.507.99Z" transform="translate(-728.07 -150.314)"/><path class="l" d="M488.907,473.565a.11.11,0,0,0-.1.063.108.108,0,0,0-.012.048v3.682a.117.117,0,0,0,.111.111.108.108,0,0,0,.056-.018.109.109,0,0,0,.055-.094v-3.682A.111.111,0,0,0,488.907,473.565Z" transform="translate(-457.561 -438.73)"/><path class="l" d="M762.847,597.254a.8.8,0,0,1-.362-.087.807.807,0,0,0-.445.721v2.3a.808.808,0,0,0,.5.746l.025-.075a.094.094,0,0,1,.089-.064h.066a.621.621,0,0,1-.492-.607v-2.3a.62.62,0,0,1,1.24,0v2.3a.621.621,0,0,1-.492.607h.05a.094.094,0,0,1,.087.06l.032.083a.808.808,0,0,0,.509-.75v-2.3a.807.807,0,0,0-.446-.721A.8.8,0,0,1,762.847,597.254Z" transform="translate(-705.238 -550.766)"/><path class="l" d="M762.847,557.251a.8.8,0,0,1-.364-.087.807.807,0,0,0-.444.72v2.3a.807.807,0,0,0,1.614,0v-2.3a.807.807,0,0,0-.444-.72A.8.8,0,0,1,762.847,557.251Zm.62.632v2.3a.62.62,0,0,1-1.24,0v-2.3a.62.62,0,0,1,1.24,0Z" transform="translate(-705.238 -514.507)"/><path class="l" d="M763.042,516.965h-.195a.621.621,0,0,1,.62.62v2.3a.62.62,0,1,1-1.24,0v-2.3a.621.621,0,0,1,.62-.62h-.178a.094.094,0,0,1-.087-.06l-.028-.071a.808.808,0,0,0-.514.751v2.3a.807.807,0,0,0,1.614,0v-2.3a.808.808,0,0,0-.5-.747l-.021.063A.094.094,0,0,1,763.042,516.965Z" transform="translate(-705.238 -477.95)"/><path class="l" d="M766.988,513.293h.106l-.035.106h-.241l-.041-.106h.1a.11.11,0,0,1-.055-.094v-.094h-.181a.094.094,0,0,0-.087.127l.086.221.028.071a.094.094,0,0,0,.087.06h.373a.094.094,0,0,0,.089-.064l.021-.063.076-.23a.094.094,0,0,0-.089-.123h-.181v.094A.109.109,0,0,1,766.988,513.293Z" transform="translate(-709.322 -474.571)"/><path class="l" d="M767.11,635.962h-.373a.093.093,0,0,0-.089.064l-.025.075-.072.218a.093.093,0,0,0,.089.123h.586a.094.094,0,0,0,.079-.144l-.075-.193-.032-.083A.094.094,0,0,0,767.11,635.962Zm-.023.293h-.318l.035-.106h.241Z" transform="translate(-709.322 -585.931)"/><path class="l" d="M769.7,473.676a.111.111,0,1,0-.222,0v3.682a.11.11,0,0,0,.055.094.1.1,0,0,0,.113,0,.109.109,0,0,0,.055-.094v-3.682Z" transform="translate(-711.979 -438.73)"/><path class="l" d="M521.56,498.277a.152.152,0,0,0-.152.152v2.908a.152.152,0,1,0,.3,0v-2.908A.152.152,0,0,0,521.56,498.277Z" transform="translate(-487.122 -461.13)"/><path class="l" d="M738.9,538.789h-.247c.422,0,.778.728.778,1.591v5.545a1.751,1.751,0,0,1-.625,1.558h.074a.128.128,0,0,1,.125.1l.014.069a2.1,2.1,0,0,0,.668-1.729V540.38a2.116,2.116,0,0,0-.656-1.721l0,.025A.128.128,0,0,1,738.9,538.789Z" transform="translate(-684.034 -497.732)"/><path class="l" d="M728.4,547.374h.094a1.751,1.751,0,0,1-.625-1.558v-5.545c0-.862.356-1.591.778-1.591h-.226a.127.127,0,0,1-.125-.1l-.008-.04a2.089,2.089,0,0,0-.673,1.733v5.545a2.124,2.124,0,0,0,.651,1.718l.01-.054A.128.128,0,0,1,728.4,547.374Z" transform="translate(-674.028 -497.623)"/><path class="l" d="M733.871,530.047h.172l-.079.45H733.7l-.092-.45h.167a.152.152,0,0,1-.105-.144v-.111h-.218a.128.128,0,0,0-.125.153l.136.665.008.04a.127.127,0,0,0,.125.1h.473a.127.127,0,0,0,.126-.106l0-.025.119-.68a.128.128,0,0,0-.126-.15h-.218v.111A.151.151,0,0,1,733.871,530.047Z" transform="translate(-679.211 -489.696)"/><path class="l" d="M734.051,632.972h-.473a.128.128,0,0,0-.126.106l-.01.054-.114.651a.128.128,0,0,0,.126.15h.743a.128.128,0,0,0,.128-.128.125.125,0,0,0-.009-.046l-.126-.616-.014-.069A.128.128,0,0,0,734.051,632.972Zm-.012.705h-.433l.079-.45h.262Z" transform="translate(-679.211 -583.221)"/><path class="l" d="M737.176,498.277a.152.152,0,0,0-.152.152v2.908a.152.152,0,0,0,.3,0v-2.908a.158.158,0,0,0,0-.027A.152.152,0,0,0,737.176,498.277Z" transform="translate(-682.562 -461.13)"/><path class="l" d="M789.087,623.4a1.73,1.73,0,0,0,1.594,1.062h.014A1.771,1.771,0,0,1,789.087,623.4Z" transform="translate(-729.754 -574.547)"/><path class="l" d="M809.234,546.351h-.142a1.355,1.355,0,0,1,1.075,1.324v3.759a1.766,1.766,0,0,1,.374.681v-4.44a1.729,1.729,0,0,0-1.08-1.6l-.049.148A.187.187,0,0,1,809.234,546.351Z" transform="translate(-747.887 -504.454)"/><path class="l" d="M788.034,551.415v-3.823a1.355,1.355,0,0,1,1.075-1.324H789a.187.187,0,0,1-.175-.119l-.064-.166a1.729,1.729,0,0,0-1.1,1.609V552.3A1.761,1.761,0,0,1,788.034,551.415Z" transform="translate(-728.46 -504.372)"/><path class="l" d="M798.23,538.613a.152.152,0,0,1-.152-.152v-.187h-.505a.187.187,0,0,0-.174.255l.181.467.064.165a.187.187,0,0,0,.175.12h.8a.187.187,0,0,0,.178-.128l.049-.148.161-.484a.187.187,0,0,0-.178-.246h-.451v.187A.152.152,0,0,1,798.23,538.613Zm.343.035-.086.258h-.542l-.1-.258Z" transform="translate(-737.276 -497.384)"/><path class="l" d="M790.593,597.526a1.768,1.768,0,1,0-1.339,2.938h.014a1.767,1.767,0,0,0,1.326-2.939Zm.07,1.169a1.4,1.4,0,1,1-1.4-1.4A1.4,1.4,0,0,1,790.663,598.695Z" transform="translate(-728.313 -550.547)"/><path class="l" d="M794.73,613.057a.343.343,0,1,0,.343-.343A.344.344,0,0,0,794.73,613.057Zm.343-.25a.25.25,0,1,1-.25.25A.25.25,0,0,1,795.073,612.808Z" transform="translate(-734.869 -564.859)"/><path class="l" d="M804.955,621.363a.343.343,0,1,0-.343-.343A.344.344,0,0,0,804.955,621.363Zm0-.593a.25.25,0,1,1-.25.25A.25.25,0,0,1,804.955,620.77Z" transform="translate(-743.826 -572.076)"/><path class="l" d="M809.527,610.233a.343.343,0,1,0-.343-.343A.344.344,0,0,0,809.527,610.233Zm0-.593a.25.25,0,1,1-.25.25A.25.25,0,0,1,809.527,609.641Z" transform="translate(-747.97 -561.988)"/><path class="l" d="M804.94,498.277a.152.152,0,0,0-.152.152v3.778a.152.152,0,1,0,.3,0v-3.778A.152.152,0,0,0,804.94,498.277Z" transform="translate(-743.986 -461.13)"/><path class="l" d="M453.107,546.351h-.142a1.355,1.355,0,0,1,1.075,1.324v3.759a1.766,1.766,0,0,1,.374.681v-4.44a1.729,1.729,0,0,0-1.08-1.6l-.049.148A.187.187,0,0,1,453.107,546.351Z" transform="translate(-425.083 -504.454)"/><path class="l" d="M432.962,623.406a1.73,1.73,0,0,0,1.594,1.062h.014A1.772,1.772,0,0,1,432.962,623.406Z" transform="translate(-406.952 -574.55)"/><path class="l" d="M431.907,551.415v-3.823a1.355,1.355,0,0,1,1.075-1.324h-.107a.187.187,0,0,1-.174-.119l-.064-.166a1.729,1.729,0,0,0-1.1,1.609V552.3A1.76,1.76,0,0,1,431.907,551.415Z" transform="translate(-405.657 -504.372)"/><path class="l" d="M442.1,538.613a.152.152,0,0,1-.152-.152v-.187h-.505a.187.187,0,0,0-.175.255l.181.467.064.165a.187.187,0,0,0,.175.12h.8a.187.187,0,0,0,.178-.128l.049-.148.161-.484a.187.187,0,0,0-.178-.246h-.451v.187A.152.152,0,0,1,442.1,538.613Zm.343.035-.086.258h-.542l-.1-.258Z" transform="translate(-414.472 -497.384)"/><path class="l" d="M434.466,597.526a1.768,1.768,0,0,0-3.08.948,1.784,1.784,0,0,0-.015.22,1.772,1.772,0,0,0,1.756,1.769h.014a1.767,1.767,0,0,0,1.326-2.939Zm-1.326-.227a1.4,1.4,0,1,1-1.4,1.4A1.4,1.4,0,0,1,433.141,597.3Z" transform="translate(-405.51 -550.547)"/><path class="l" d="M438.946,613.4a.343.343,0,1,0-.343-.343A.344.344,0,0,0,438.946,613.4Zm.25-.343a.25.25,0,1,1-.25-.25A.25.25,0,0,1,439.2,613.057Z" transform="translate(-412.065 -564.859)"/><path class="l" d="M448.828,621.363a.343.343,0,1,0-.343-.343A.344.344,0,0,0,448.828,621.363Zm.25-.343a.25.25,0,1,1-.25-.25A.25.25,0,0,1,449.078,621.019Z" transform="translate(-421.022 -572.076)"/><path class="l" d="M453.4,610.233a.343.343,0,1,0-.343-.343A.344.344,0,0,0,453.4,610.233Zm.25-.343a.25.25,0,1,1-.25-.25A.25.25,0,0,1,453.651,609.89Z" transform="translate(-425.167 -561.988)"/><path class="l" d="M448.813,498.277a.152.152,0,0,0-.152.152v3.778a.152.152,0,0,0,.3,0v-3.778A.152.152,0,0,0,448.813,498.277Z" transform="translate(-421.182 -461.13)"/><path class="l" d="M594.927,659.885a.632.632,0,0,0-.632-.632H583.6a.632.632,0,0,0,0,1.263H594.3a.633.633,0,0,0,.632-.632Zm-11.322-.351H594.3a.351.351,0,1,1,0,.7H583.6a.351.351,0,0,1,0-.7Z" transform="translate(-542.926 -607.043)"/><path class="l" d="M270.607,659.885a.632.632,0,0,0-.632-.632H259.285a.632.632,0,0,0,0,1.263h10.691a.634.634,0,0,0,.632-.632Zm-11.322-.351h10.691a.351.351,0,1,1,0,.7H259.285a.351.351,0,0,1,0-.7Z" transform="translate(-248.953 -607.043)"/><path class="l" d="M432,655.988a.441.441,0,0,1-.316-.245.165.165,0,0,1,0,.11c-.054.151-.3.275-.391.309a3.571,3.571,0,0,1-1.372.317,1.856,1.856,0,0,1-1.72-1.021c-.048-.277.005-.351.011-.358s.009-.011.037-.011a.286.286,0,0,1,.088.018,1.744,1.744,0,0,0,1.536.855,3.054,3.054,0,0,0,1.351-.359.849.849,0,0,1,.26-.051.226.226,0,0,1,.113.023.5.5,0,0,1-.017-.256.574.574,0,0,1,.03-.1.658.658,0,0,0-.126-.012,1.2,1.2,0,0,0-.386.075.167.167,0,0,0-.029.013,2.746,2.746,0,0,1-1.2.322,1.405,1.405,0,0,1-1.27-.736.173.173,0,0,0-.067-.064.677.677,0,0,0-.286-.073.378.378,0,0,0-.3.135.8.8,0,0,0-.082.66.17.17,0,0,0,.011.036,2.128,2.128,0,0,0,.551.719,2.225,2.225,0,0,0,1.494.529,3.894,3.894,0,0,0,1.5-.341,1.385,1.385,0,0,0,.333-.188A.757.757,0,0,0,432,655.988Z" transform="translate(-402.307 -602.956)"/><path class="l" d="M512.006,655.574a.172.172,0,0,0,.011-.036.8.8,0,0,0-.082-.66.378.378,0,0,0-.3-.135.678.678,0,0,0-.286.073.172.172,0,0,0-.067.064,1.405,1.405,0,0,1-1.27.736h0a2.746,2.746,0,0,1-1.2-.322.172.172,0,0,0-.03-.013,1.2,1.2,0,0,0-.386-.075.671.671,0,0,0-.083.007,1.032,1.032,0,0,1,.046.34l.037,0a.85.85,0,0,1,.26.051,3.053,3.053,0,0,0,1.351.359h0a1.744,1.744,0,0,0,1.536-.855.285.285,0,0,1,.088-.018c.028,0,.034.007.037.011s.059.081.011.358a1.856,1.856,0,0,1-1.721,1.021,3.586,3.586,0,0,1-1.378-.319.77.77,0,0,1-.375-.287.436.436,0,0,1-.266.082h0a.651.651,0,0,1-.074,0c0,.007,0,.014.006.02a.744.744,0,0,0,.254.324,1.356,1.356,0,0,0,.327.185,3.908,3.908,0,0,0,1.506.344,2.225,2.225,0,0,0,1.495-.529A2.13,2.13,0,0,0,512.006,655.574Z" transform="translate(-474.849 -602.956)"/><path class="l" d="M467.758,649.539a.586.586,0,0,0,.086.165l0,0a.441.441,0,0,0,.316.246.531.531,0,0,0,.109.012,1.044,1.044,0,0,0,.476-.142.164.164,0,0,0,.027-.018,2.56,2.56,0,0,1,1.39-.524,1.4,1.4,0,0,1,1.11.551.173.173,0,0,0,.076.053.727.727,0,0,0,.137.029.665.665,0,0,0,.074,0h0a.436.436,0,0,0,.266-.082.362.362,0,0,0,.078-.079.451.451,0,0,0,.076-.24,1.032,1.032,0,0,0-.046-.34c-.01-.036-.022-.072-.035-.11a.176.176,0,0,0-.016-.034,2.181,2.181,0,0,0-1.815-.948,3.513,3.513,0,0,0-1.827.6,1.152,1.152,0,0,0-.471.5.56.56,0,0,0-.03.1A.5.5,0,0,0,467.758,649.539Zm3.823-.339c.094.28.045.355.043.358s-.038.016-.063.016h0a.337.337,0,0,1-.06-.006,1.723,1.723,0,0,0-1.337-.632,2.871,2.871,0,0,0-1.592.589.686.686,0,0,1-.3.1c-.079,0-.1-.035-.109-.049a.174.174,0,0,0-.032-.061.187.187,0,0,1-.051-.162c.03-.158.256-.318.338-.365a3.192,3.192,0,0,1,1.651-.553A1.84,1.84,0,0,1,471.582,649.2Z" transform="translate(-438.469 -596.921)"/></g><g transform="translate(0.025 77.105)"><path class="m" d="M156.26,926.94a.587.587,0,0,0,.519.636h33.572a.65.65,0,0,0,0-1.273H156.779A.587.587,0,0,0,156.26,926.94Z" transform="translate(-156.166 -926.21)"/><path class="l" d="M190.057,926.034a.68.68,0,0,0-.613-.73H155.873a.741.741,0,0,0,0,1.46h33.572A.68.68,0,0,0,190.057,926.034Zm-.613-.636a.65.65,0,0,1,0,1.273H155.873a.65.65,0,0,1,0-1.273Z" transform="translate(-155.26 -925.304)"/><path class="m" d="M540.554,927.577h.83a.65.65,0,0,0,0-1.273h-.83a.65.65,0,0,0,0,1.273Z" transform="translate(-504.031 -926.21)"/><path class="l" d="M540.477,926.764a.741.741,0,0,0,0-1.46h-.83a.741.741,0,0,0,0,1.46Zm-.83-1.366h.83a.65.65,0,0,1,0,1.273h-.83a.65.65,0,0,1,0-1.273Z" transform="translate(-503.124 -925.304)"/><path class="m" d="M534.309,964.945a.63.63,0,0,0-.557-.682H501.086a.7.7,0,0,0,0,1.364h32.667A.63.63,0,0,0,534.309,964.945Z" transform="translate(-468.222 -960.617)"/><path class="l" d="M532.846,963.263H500.179a.787.787,0,0,0,0,1.551h32.667a.787.787,0,0,0,0-1.551Zm-33.223.775a.63.63,0,0,1,.557-.682h32.667a.7.7,0,0,1,0,1.364H500.179A.63.63,0,0,1,499.623,964.038Z" transform="translate(-467.315 -959.711)"/><path class="m" d="M875.639,964.945a.63.63,0,0,0-.557-.682h-1.509a.7.7,0,0,0,0,1.364h1.509A.63.63,0,0,0,875.639,964.945Z" transform="translate(-805.855 -960.617)"/><path class="l" d="M874.176,963.263h-1.509a.787.787,0,0,0,0,1.551h1.509a.787.787,0,0,0,0-1.551Zm-1.509,1.457a.7.7,0,0,1,0-1.364h1.509a.7.7,0,0,1,0,1.364Z" transform="translate(-804.949 -959.711)"/><path class="m" d="M426.62,1005.143h-1.509a.7.7,0,0,0,0,1.364h1.509a.7.7,0,0,0,0-1.364Z" transform="translate(-399.356 -997.672)"/><path class="l" d="M425.713,1004.143H424.2a.787.787,0,0,0,0,1.551h1.509a.787.787,0,0,0,0-1.551Zm0,1.457H424.2a.7.7,0,0,1,0-1.364h1.509a.7.7,0,0,1,0,1.364Z" transform="translate(-398.449 -996.766)"/></g></g></g><g transform="translate(-77.144 194.204)"><path class="n" d="M409.262,217.867l.65,2.405s.967.962,1.679.806.856-1.372.856-1.372l-.681-1.839Z" transform="translate(-50.953 -121.743)"/><path class="n" d="M364.049,219.9l.63-1.234-2-.8-1.165,2.6s.58,1.128,1.419.991S364.049,219.9,364.049,219.9Z" transform="translate(-20.203 -121.743)"/><path class="n" d="M403.793,76.046l2.228,1.47,9.671.9-.379,1.707s-8.481,1.76-11.283,1.517-5.168-5.023-5.168-5.023Z" transform="translate(-44.255 -30.408)"/><path class="o" d="M375.788,113.108l-1.918,19.521L363.71,151.624a.2.2,0,0,1-.129.1c-.565.147-3.714.867-4.8-1.113a.206.206,0,0,1-.01-.173l8.02-20.829.572-17.072Z" transform="translate(-18.427 -53.909)"/><path class="p" d="M405.576,82.822a21.632,21.632,0,0,0,1.654-4.671h0l-4.795,1.89A7.678,7.678,0,0,0,405.576,82.822Z" transform="translate(-46.557 -31.764)"/><path class="q" d="M389.371,138.383,387.61,136.5l-6.077,2.817-.184,5.482,1.688,13.325,5.383-10.063Z" transform="translate(-32.977 -69.342)"/><path class="q" d="M399.265,121.447l.762-7.752-3.633-.246Z" transform="translate(-42.666 -54.496)"/><path class="o" d="M391,145.917a5.239,5.239,0,0,1-4.862-.021.142.142,0,0,1-.063-.075c-.414-1.179-8.14-23.241-9.456-31.077a12.041,12.041,0,0,1-1.654-4.233,8.7,8.7,0,0,1-.053-2.812,7.38,7.38,0,0,1,.562-1.906c1.525-3.393,6.261.671,8.307,2.661.59.576.957.979.957.979l.287,1.65,6.046,34.691A.136.136,0,0,1,391,145.917Z" transform="translate(-28.77 -48.723)"/><path class="q" d="M385.021,116.892c-2.875,1.081-6.287.247-7.717-.221a8.592,8.592,0,0,0-2.344-.35,8.7,8.7,0,0,1-.053-2.812l8.869.754c.59.576.957.979.957.979Z" transform="translate(-28.77 -54.534)"/><path class="r" d="M394.177,55.87s4.276,4.345,7.15,7.408a.353.353,0,0,1,.116.4,17.5,17.5,0,0,1-3,4.445S390.906,62.341,394.177,55.87Z" transform="translate(-40.709 -17.414)"/><path class="s" d="M402.455,68.247l-1.7,5.385A16.452,16.452,0,0,0,403.21,76.1a10.309,10.309,0,0,0,1.687-2.121A10.431,10.431,0,0,0,402.455,68.247Z" transform="translate(-45.475 -25.385)"/><path class="r" d="M385.382,77.827c-4.637,2.41-10-.289-12.538-.142-.251.015-.235-.254-.2-.424,2.286-11.306,3.2-18.342,6.277-22.079a8.208,8.208,0,0,1,.712-.771,41.612,41.612,0,0,1,3.482,3.215,10.931,10.931,0,0,1,2.665,6.854,58.215,58.215,0,0,0-.2,12.954A.386.386,0,0,1,385.382,77.827Z" transform="translate(-27.358 -16.475)"/><path class="s" d="M383.388,87.159a15.559,15.559,0,0,0,.355,1.615c.142.532.3,1.059.492,1.576a18.655,18.655,0,0,0,1.369,3,15.634,15.634,0,0,0,1.9,2.684c.088.105.181.207.276.306l.284.3c.2.19.389.389.6.567a14.935,14.935,0,0,0,1.284,1.04,12.747,12.747,0,0,1-2.532-2.133,14.954,14.954,0,0,1-1.949-2.687,17.693,17.693,0,0,1-1.346-3.034A15.742,15.742,0,0,1,383.388,87.159Z" transform="translate(-34.29 -37.565)"/><path class="s" d="M381.394,76.994c-.07.65-.129,1.3-.173,1.953s-.085,1.3-.11,1.956c-.05,1.305-.062,2.612,0,3.915.03.651.074,1.3.144,1.951s.172,1.292.294,1.933a13.829,13.829,0,0,0,.51,1.885,8.008,8.008,0,0,0,.842,1.762,9.91,9.91,0,0,1-1.469-3.622,24.386,24.386,0,0,1-.476-3.9q-.077-1.964.034-3.928C381.069,79.591,381.191,78.286,381.394,76.994Z" transform="translate(-32.704 -31.018)"/><path class="t" d="M376.391,101.553s4.694-1.955,6.825-4.079l.654.738s-5.25,4.253-7.744,4.625Z" transform="translate(-29.613 -44.208)"/><path class="s" d="M392.531,65.952l-3.348.516s-1.079,6.251.738,10.832l5.986-1.231q.051-.909.129-1.91C395.17,71.66,393.555,67.243,392.531,65.952Z" transform="translate(-37.817 -23.907)"/><path class="n" d="M409.288,88.481c-2.275,1.658-11.756,3.46-13.511,2.939s-3.745-6.305-3.745-6.305L396.2,83.55l1.285,3.318H408.34Z" transform="translate(-39.857 -35.241)"/><path class="p" d="M393.509,91.531a7.426,7.426,0,0,0,3.715-2.558s-3.027.027-4.761.059C392.661,89.565,393.036,90.531,393.509,91.531Z" transform="translate(-40.134 -38.733)"/><path class="r" d="M391.007,61.957c-3.3,0-.711,11.663-.711,11.663s1.991.213,5.12-2.2C395.416,71.415,393.781,61.957,391.007,61.957Z" transform="translate(-38.117 -21.334)"/><g transform="translate(358.309 97.963)"><path class="u" d="M418.88,228.982h0a.391.391,0,0,1-.391.391H413.14a8.279,8.279,0,0,0-1.374-.274c-.389,0-.4.274-.4.274h-2.1v-.391S416.535,228.533,418.88,228.982Z" transform="translate(-409.262 -226.735)"/><path class="v" d="M409.912,223.6a2.386,2.386,0,0,0,2.535-.566,26.82,26.82,0,0,1,3.15,1.026c.947.432,3.263.342,3.282,1.221h-9.618A2.6,2.6,0,0,1,409.912,223.6Z" transform="translate(-409.262 -223.032)"/><g transform="translate(3.063 0.195)"><path class="u" d="M417.9,224.157a.029.029,0,0,0,.018-.006l.655-.518a.029.029,0,0,0,0-.041.029.029,0,0,0-.041,0l-.655.518a.029.029,0,0,0,0,.041A.029.029,0,0,0,417.9,224.157Z" transform="translate(-417.866 -223.58)"/></g><g transform="translate(3.459 0.348)"><path class="u" d="M419.007,224.587a.033.033,0,0,0,.018-.006l.654-.518a.029.029,0,0,0,0-.041.03.03,0,0,0-.041,0l-.655.518a.029.029,0,0,0,.018.052Z" transform="translate(-418.978 -224.01)"/></g><g transform="translate(3.898 0.505)"><path class="u" d="M420.242,225.026a.029.029,0,0,0,.018-.006l.655-.518a.029.029,0,0,0,0-.041.029.029,0,0,0-.041,0l-.655.518a.029.029,0,0,0,0,.041A.028.028,0,0,0,420.242,225.026Z" transform="translate(-420.213 -224.449)"/></g><g transform="translate(4.338 0.651)"><path class="u" d="M421.477,225.438a.029.029,0,0,0,.018-.006l.655-.518a.029.029,0,0,0-.036-.046l-.655.518a.029.029,0,0,0-.005.041A.031.031,0,0,0,421.477,225.438Z" transform="translate(-421.447 -224.861)"/></g></g><g transform="translate(340.661 98.159)"><path class="u" d="M369.305,229.531h0a.391.391,0,0,1-.391.391h-5.349a8.273,8.273,0,0,0-1.374-.274c-.389,0-.4.274-.4.274h-2.1v-.391S366.961,229.082,369.305,229.531Z" transform="translate(-359.688 -227.284)"/><path class="v" d="M360.338,224.147a2.386,2.386,0,0,0,2.535-.566,26.816,26.816,0,0,1,3.15,1.026c.947.432,3.263.342,3.282,1.221h-9.617A2.6,2.6,0,0,1,360.338,224.147Z" transform="translate(-359.688 -223.581)"/><g transform="translate(3.063 0.195)"><path class="u" d="M368.321,224.706a.028.028,0,0,0,.018-.006l.655-.518a.029.029,0,0,0-.036-.046l-.655.518a.029.029,0,0,0,.018.052Z" transform="translate(-368.291 -224.129)"/></g><g transform="translate(3.459 0.348)"><path class="u" d="M369.433,225.136a.029.029,0,0,0,.018-.006l.655-.518a.029.029,0,0,0-.036-.046l-.655.518a.029.029,0,0,0-.005.041A.031.031,0,0,0,369.433,225.136Z" transform="translate(-369.403 -224.559)"/></g><g transform="translate(3.898 0.505)"><path class="u" d="M370.668,225.575a.029.029,0,0,0,.018-.006l.655-.518A.029.029,0,0,0,371.3,225l-.654.518a.029.029,0,0,0,0,.041A.031.031,0,0,0,370.668,225.575Z" transform="translate(-370.638 -224.998)"/></g><g transform="translate(4.338 0.651)"><path class="u" d="M371.9,225.986a.029.029,0,0,0,.018-.006l.654-.518a.029.029,0,1,0-.036-.046l-.654.518a.029.029,0,0,0,0,.041A.03.03,0,0,0,371.9,225.986Z" transform="translate(-371.873 -225.41)"/></g></g><g transform="translate(350.145 28.83)"><g transform="translate(0.39 2.339)"><path class="t" d="M387.508,42.418s-.341.44.344.914.488.895,1.2,1.1,1.047-3.362,1.047-3.362Z" transform="translate(-387.423 -39.049)"/><path class="n" d="M394.276,47.04s-1.486,1.874-.954,3.676-2.488-.828-2.488-.828l.7-3.966Z" transform="translate(-389.62 -42.176)"/><path class="p" d="M395.811,48.15l-2.3-.921s.66,2.556,1.464,2.966A5.462,5.462,0,0,1,395.811,48.15Z" transform="translate(-391.344 -43.018)"/><path class="n" d="M391.674,39.145s1.005,2.324,3.07,2.237,2.537-4.147,1.625-5.17-3.646-1.709-4.409,1.963c0,0-.249-.531-.595-.191S390.767,39.8,391.674,39.145Z" transform="translate(-389.758 -35.4)"/><path class="t" d="M400.624,39.347a3.134,3.134,0,0,1-2.27,1.018s1.009-.314,1.132-.685A.809.809,0,0,1,400.624,39.347Z" transform="translate(-394.463 -37.862)"/><path class="i" d="M400.571,48.78l1.453.166s-.342.683-.9.591S400.571,48.78,400.571,48.78Z" transform="translate(-395.89 -44.017)"/><path class="p" d="M402.613,46.388a.431.431,0,0,0,.687.061A.715.715,0,0,1,402.613,46.388Z" transform="translate(-397.206 -42.476)"/><path class="u" d="M400.477,43.7s.58-.616.863.124A.745.745,0,0,0,400.477,43.7Z" transform="translate(-395.83 -40.591)"/><path class="p" d="M392.155,43.526c-.053.221-.176.382-.275.358s-.137-.222-.085-.443.176-.382.275-.358S392.207,43.3,392.155,43.526Z" transform="translate(-390.223 -40.346)"/><path class="t" d="M392.793,39.949s.21.306.473.216.643-1.214,2.175-1.72-3.1-.2-3.1-.2Z" transform="translate(-390.592 -37.173)"/></g><g transform="translate(0 0)"><path class="w" d="M401.373,38.42s4.364,1.6,5.478.012a.151.151,0,0,0-.085-.229l-2.61-.743Z" transform="translate(-396.017 -34.388)"/><path class="v" d="M394.466,32.005s-5.385,2.392-7.663,2.636c0,0-1.3-3.01.407-4.181a19.591,19.591,0,0,1,1.953-1.269,9.185,9.185,0,0,1,3.091-.082C393.165,29.418,394.125,31.013,394.466,32.005Z" transform="translate(-386.328 -28.933)"/><path class="w" d="M393.092,29.179c.032.108.239.141.463.075s.38-.207.348-.315-.239-.141-.463-.075S393.06,29.071,393.092,29.179Z" transform="translate(-390.682 -28.83)"/><g transform="translate(1.969 0.669)"><path class="x" d="M392.678,34.912a15.981,15.981,0,0,1-.813-2.929,11.062,11.062,0,0,1,.441-1.274l.056.023A11.354,11.354,0,0,0,391.924,32a16.73,16.73,0,0,0,.811,2.9Z" transform="translate(-391.859 -30.709)"/></g><g transform="translate(3.642 0.277)"><path class="x" d="M399.3,32.74a19.221,19.221,0,0,0-1.2-2.417,3.521,3.521,0,0,0-1.544-.656l.011-.059a3.484,3.484,0,0,1,1.58.678,18.683,18.683,0,0,1,1.209,2.431Z" transform="translate(-396.558 -29.607)"/></g></g></g><path class="n" d="M394.507,57.57c-1.174.467-3.448-1.688-4.194-2.444a8.541,8.541,0,0,1,.711-.8A45.58,45.58,0,0,1,394.507,57.57Z" transform="translate(-38.75 -16.418)"/><path class="s" d="M398.935,73.631a8.716,8.716,0,0,1,.246,1.671A9.481,9.481,0,0,1,399.124,77a7.347,7.347,0,0,1-.409,1.646,5.628,5.628,0,0,1-.837,1.467q.105-.184.213-.363c.035-.061.074-.118.1-.182l.088-.19c.057-.127.127-.248.174-.38l.144-.392a8.939,8.939,0,0,0,.367-1.626,12.368,12.368,0,0,0,.092-1.669c0-.279-.015-.559-.038-.838S398.973,73.909,398.935,73.631Z" transform="translate(-43.622 -28.853)"/><path class="s" d="M402.737,77.69a6.551,6.551,0,0,1,.223.937,7.4,7.4,0,0,1,.1.96,5.26,5.26,0,0,1-.043.967,2.793,2.793,0,0,1-.282.923,4.241,4.241,0,0,0,.161-.936,8.185,8.185,0,0,0,.008-.948c-.01-.316-.037-.633-.066-.95S402.776,78.009,402.737,77.69Z" transform="translate(-46.751 -31.467)"/><path class="n" d="M436.969,90.373a2.753,2.753,0,0,1,1.4-.61c.761-.059,1.21-1.269,1.529-.537.234.537-.431,1.028-1.017,1.146h2.884a.06.06,0,0,1,.043.1,4.683,4.683,0,0,1-3.888,1.512C435.4,91.695,436.969,90.373,436.969,90.373Z" transform="translate(-68.485 -38.745)"/><path class="n" d="M436.969,90.373a2.753,2.753,0,0,1,1.4-.61c.761-.059,1.21-1.269,1.529-.537.234.537-.431,1.028-1.017,1.146h2.884a.06.06,0,0,1,.043.1,4.683,4.683,0,0,1-3.888,1.512C435.4,91.695,436.969,90.373,436.969,90.373Z" transform="translate(-66.485 -41.895)"/><path class="q" d="M381.35,132.846c.364,1.176.741,2.346,1.118,3.514.193.583.382,1.167.583,1.746s.4,1.161.609,1.736.421,1.152.647,1.721.457,1.137.7,1.7.508,1.114.794,1.655a11.718,11.718,0,0,0,.962,1.566,13.459,13.459,0,0,1-1.977-3.119,35.714,35.714,0,0,1-1.423-3.415q-.625-1.741-1.131-3.518C381.9,135.247,381.6,134.052,381.35,132.846Z" transform="translate(-32.977 -66.988)"/><path class="q" d="M393.061,169.883c.183.813.377,1.624.592,2.428s.432,1.608.666,2.406.481,1.592.746,2.38.538,1.573.838,2.347.609,1.545.95,2.3c.164.381.347.754.524,1.129s.37.743.569,1.106a23.225,23.225,0,0,0,1.283,2.132,17.185,17.185,0,0,0,1.535,1.964,17.119,17.119,0,0,1-3.032-3.977c-.423-.723-.8-1.473-1.15-2.232s-.673-1.532-.973-2.313a47.5,47.5,0,0,1-1.526-4.774A45.1,45.1,0,0,1,393.061,169.883Z" transform="translate(-40.519 -90.84)"/><path class="q" d="M371.305,167.4c-.446,1.522-.88,3.047-1.315,4.569s-.852,3.051-1.25,4.583-.773,3.07-1.1,4.616a30.6,30.6,0,0,0-.7,4.69,23.181,23.181,0,0,1,.464-4.736c.283-1.563.638-3.113,1.041-4.648s.839-3.061,1.319-4.574S370.745,168.889,371.305,167.4Z" transform="translate(-23.689 -89.244)"/><path class="p" d="M409.927,92.871a24.973,24.973,0,0,1-5.609,0Z" transform="translate(-47.769 -41.243)"/><g transform="translate(353.689 62.913)"><path class="q" d="M396.323,128.339a.039.039,0,0,1-.014-.076c1.819-.66,2.116-3.624,2.119-3.653a.04.04,0,0,1,.043-.035.039.039,0,0,1,.035.042c0,.031-.305,3.043-2.17,3.72Z" transform="translate(-396.284 -124.574)"/></g><g transform="translate(353.689 67.12)"><path class="q" d="M402.632,165.982a.039.039,0,0,1-.038-.031l-6.308-29.512a.039.039,0,0,1,.03-.046.04.04,0,0,1,.046.03l6.308,29.512a.039.039,0,0,1-.03.046Z" transform="translate(-396.284 -136.392)"/></g><g transform="translate(343.336 80.939)"><path class="q" d="M367.241,190.591a.038.038,0,0,1-.016,0,.039.039,0,0,1-.02-.052l6.824-15.3a.039.039,0,1,1,.071.032l-6.824,15.3A.039.039,0,0,1,367.241,190.591Z" transform="translate(-367.202 -175.211)"/></g><g transform="translate(330.144 33.974)"><path class="v" d="M345.765,71.642,330.451,68.85a.375.375,0,0,1-.3-.436L334.3,45.643l16.051,2.926L346.2,71.341A.375.375,0,0,1,345.765,71.642Z" transform="translate(-330.144 -44.802)"/><path class="y" d="M338.806,47.075l-.262-.048a.236.236,0,0,1-.19-.275l.616-3.377a.117.117,0,0,1,.136-.094l.612.111-.637,3.492A.236.236,0,0,1,338.806,47.075Z" transform="translate(-335.429 -43.279)"/><rect class="y" width="0.739" height="16.792" transform="matrix(0.179, -0.984, 0.984, 0.179, 3.685, 0.754)"/><g transform="translate(4.015 1.446)"><path class="z" d="M354.8,54.379l-12.321-2.246a1.285,1.285,0,0,1-1.033-1.493l.575-3.154a.176.176,0,0,1,.347.063l-.575,3.154a.933.933,0,0,0,.75,1.084l12.321,2.246a.933.933,0,0,0,1.084-.75l.575-3.154a.176.176,0,1,1,.346.063l-.575,3.154A1.285,1.285,0,0,1,354.8,54.379Z" transform="translate(-341.421 -47.341)"/></g><g transform="translate(0.6 6.565)"><path class="x" d="M343.3,80.867c-1.012-.184-2.337-.428-4.075-.748C335.61,79.452,332,78.779,332,78.779l-.172-.032,3.078-16.881a.176.176,0,0,1,.346.063l-3.014,16.536c3.8.708,12.865,2.389,14.153,2.59l3.016-16.545a.176.176,0,1,1,.346.063l-3.059,16.78-.06.042C346.567,81.441,346.543,81.458,343.3,80.867Z" transform="translate(-331.829 -61.722)"/></g><g transform="translate(4.142 7.685)"><path class="z" d="M355.232,67.644l-13.31-2.427a.176.176,0,0,1,.063-.346L355.3,67.3a.176.176,0,1,1-.063.346Z" transform="translate(-341.778 -64.868)"/></g><g transform="translate(2.702 10.242)"><path class="x" d="M349.508,84.565l-11.775-2.147L339.614,72.1a.066.066,0,0,1,.13.024l-1.857,10.185,11.514,2.1,1.845-10.12L340.2,72.278l4.364,6.392,6.072-4.068a.067.067,0,0,1,.092.018.066.066,0,0,1-.018.091l-6.181,4.14-4.616-6.761,11.49,2.095Z" transform="translate(-337.733 -72.05)"/></g></g><path class="t" d="M384.525,63.134s2.385-2.817,4.95-.739,3.794,7.394,2.637,8.581l.438,1.13s2.576-5.305-2.526-9.975a3.9,3.9,0,0,0-5.3-.06Z" transform="translate(-35.022 -20.737)"/></g><path class="i" d="M3,0H8a3,3,0,0,1,3,3v7a3,3,0,0,1-3,3H3a3,3,0,0,1-3-3V3A3,3,0,0,1,3,0Z" transform="translate(289 249)"/><path class="aa" d="M1706.625,278.5v-3.656" transform="translate(-1413 -29)"/><path class="ab" d="M1708.563,278v-3.156" transform="translate(-1413 -29)"/><path class="ab" d="M0,0H2" transform="translate(293.5 246.2)"/><g transform="translate(290.98 252)"><path class="ac" d="M.074,159.63c0,.907.6,2.218,1.7,2.218.62,0,1.261-.758,1.882-1.491.467-.55.947-1.118,1.249-1.118a1.3,1.3,0,0,0,1.435-1.174v-.553l-6.263,1.6v.522Z" transform="translate(-0.053 -155.585)"/><path class="ad" d="M4.771,84.567c-.207,0-.39,0-.555-.006a3.31,3.31,0,0,0-2.252.547c-.164.1-.319.187-.466.271-.827.474-1.424.816-1.424,1.667,0,.907.6,2.218,1.7,2.218.62,0,1.261-.758,1.882-1.491.467-.55.947-1.118,1.249-1.118A1.3,1.3,0,0,0,6.337,85.48C6.337,85.055,6.159,84.567,4.771,84.567Z" transform="translate(-0.053 -83.522)"/><g transform="translate(1.064 3.132)"><path d="M86.059,256.876c-.372,0-.652-.168-.652-.391s.281-.391.652-.391.652.168.652.391S86.431,256.876,86.059,256.876Zm0-.522c-.253,0-.391.1-.391.13s.139.13.391.13.391-.1.391-.13S86.312,256.354,86.059,256.354Z" transform="translate(-85.407 -256.093)"/></g><path class="ae" d="M86.059,256.093c-.372,0-.652.168-.652.391s.281.391.652.391.652-.168.652-.391S86.431,256.093,86.059,256.093Z" transform="translate(-84.343 -252.961)"/><g transform="translate(1.586 1.566)"><path class="ac" d="M130.031,192.875a.13.13,0,0,1-.092-.038,4.983,4.983,0,0,0-1.734-.484.13.13,0,0,1,0-.261,4.968,4.968,0,0,1,1.919.56.13.13,0,0,1-.092.223Z" transform="translate(-128.074 -191.309)"/><path class="ac" d="M279.1,128.875a.13.13,0,0,1-.092-.038,2.984,2.984,0,0,0-1.473-.484.13.13,0,0,1,0-.261,3.143,3.143,0,0,1,1.658.56.13.13,0,0,1-.092.223Z" transform="translate(-275.58 -128.092)"/></g><g transform="translate(0.282 0)"><path class="af" d="M21.719,1.914a.13.13,0,0,1-.092-.223c.159-.16.094-.353-.026-.656-.112-.282-.251-.633.026-.909a.131.131,0,1,1,.184.185c-.148.148-.084.335.032.629s.257.648-.032.937A.13.13,0,0,1,21.719,1.914Z" transform="translate(-21.464 -0.086)"/><path class="af" d="M85.721,1.4a.13.13,0,0,1-.072-.239c.106-.071.1-.124-.037-.356-.106-.178-.283-.475.037-.688a.13.13,0,1,1,.145.217h0c-.092.061-.1.1.043.337.108.183.289.485-.043.706A.131.131,0,0,1,85.721,1.4Z" transform="translate(-84.684 -0.09)"/><path class="af" d="M149.651.784a.13.13,0,0,1-.041-.254l.006,0-.046-.04c-.087-.073-.195-.164-.17-.291s.164-.174.21-.189a.131.131,0,0,1,.088.246c.014.012.029.026.04.034.088.074.2.166.172.3s-.17.178-.218.194A.13.13,0,0,1,149.651.784Z" transform="translate(-147.831 0)"/></g><path d="M1.769,89.251c-1.092,0-1.7-1.312-1.7-2.218,0-.851.6-1.193,1.424-1.667.147-.084.3-.173.466-.271a3.314,3.314,0,0,1,2.252-.547c.165,0,.348.006.555.006,1.388,0,1.566.488,1.566.913A1.3,1.3,0,0,1,4.9,86.641c-.3,0-.783.569-1.249,1.118C3.031,88.493,2.389,89.251,1.769,89.251ZM3.832,84.8a2.8,2.8,0,0,0-1.735.514c-.165.1-.323.189-.47.274-.807.462-1.294.741-1.294,1.44s.48,1.957,1.435,1.957c.5,0,1.128-.743,1.683-1.4S4.477,86.381,4.9,86.381c.68,0,1.174-.384,1.174-.913,0-.228,0-.652-1.3-.652-.209,0-.393,0-.559-.006C4.073,84.806,3.948,84.8,3.832,84.8Z" transform="translate(-0.052 -83.509)"/><path d="M1.717,153.861A1.421,1.421,0,0,1,.151,152.7l-.13-1.3a.131.131,0,0,1,.261-.026l.13,1.3a1.166,1.166,0,0,0,1.3.926c.5,0,1.209-.746,1.832-1.4s1.141-1.205,1.56-1.205a.81.81,0,0,0,.913-.913v-.522a.13.13,0,1,1,.261,0v.522a1.06,1.06,0,0,1-1.174,1.174c-.307,0-.848.571-1.37,1.124C3.048,153.106,2.332,153.861,1.717,153.861Z" transform="translate(0 -147.598)"/><g transform="translate(1.064 3.132)"><path d="M86.059,256.876c-.372,0-.652-.168-.652-.391s.281-.391.652-.391.652.168.652.391S86.431,256.876,86.059,256.876Zm0-.522c-.253,0-.391.1-.391.13s.139.13.391.13.391-.1.391-.13S86.312,256.354,86.059,256.354Z" transform="translate(-85.407 -256.093)"/></g><g transform="translate(1.064 3.132)"><path d="M86.059,256.876c-.372,0-.652-.168-.652-.391s.281-.391.652-.391.652.168.652.391S86.431,256.876,86.059,256.876Zm0-.522c-.253,0-.391.1-.391.13s.139.13.391.13.391-.1.391-.13S86.312,256.354,86.059,256.354Z" transform="translate(-85.407 -256.093)"/></g><path d="M130.031,192.875a.13.13,0,0,1-.092-.038,4.98,4.98,0,0,0-1.734-.484.13.13,0,0,1,0-.261,4.967,4.967,0,0,1,1.919.56.13.13,0,0,1-.092.223Z" transform="translate(-126.488 -189.743)"/><path d="M279.1,128.875a.13.13,0,0,1-.092-.038,2.986,2.986,0,0,0-1.473-.484.13.13,0,0,1,0-.261,3.146,3.146,0,0,1,1.658.56.13.13,0,0,1-.092.223Z" transform="translate(-273.994 -126.526)"/><path d="M21.712,1.907a.13.13,0,0,1-.092-.223c.16-.159.094-.353-.026-.657-.112-.282-.251-.633.026-.909A.131.131,0,0,1,21.8.3h0c-.148.148-.084.335.032.629s.257.648-.032.937A.13.13,0,0,1,21.712,1.907Z" transform="translate(-21.176 -0.079)"/><path d="M85.712,1.4a.13.13,0,0,1-.072-.239c.106-.071.1-.124-.037-.356C85.5.622,85.32.325,85.64.112a.13.13,0,1,1,.145.217h0c-.092.061-.1.1.043.337.108.183.289.485-.043.706A.131.131,0,0,1,85.712,1.4Z" transform="translate(-84.393 -0.09)"/><path d="M149.649.921a.13.13,0,0,1-.041-.254l.007,0-.046-.04c-.087-.073-.195-.164-.17-.291s.164-.174.21-.189A.13.13,0,0,1,149.7.39c.014.013.029.026.04.035.088.074.2.166.173.3s-.17.178-.218.194A.13.13,0,0,1,149.649.921Z" transform="translate(-147.547 -0.137)"/></g></g></svg>