<svg xmlns="http://www.w3.org/2000/svg" xmlns:xlink="http://www.w3.org/1999/xlink" width="913" height="416" viewBox="0 0 913 416"><defs><clipPath id="a"><rect width="913" height="416" transform="translate(492 221)" fill="#fff" stroke="#707070" stroke-width="1"/></clipPath><linearGradient id="b" x1="0.5" y1="-0.227" x2="0.5" y2="0.559" gradientUnits="objectBoundingBox"><stop offset="0" stop-color="#e5e5e5"/><stop offset="0.476" stop-color="#f3f3f3"/><stop offset="1" stop-color="#fff"/></linearGradient></defs><g transform="translate(-492 -221)" clip-path="url(#a)"><g transform="translate(805.851 184.373)" opacity="0.58" style="mix-blend-mode:luminosity;isolation:isolate"><rect width="38.118" height="120.785" transform="translate(141.252 102.887)" fill="#f5f5f5"/><rect width="19.052" height="120.451" transform="translate(160.304 102.887)" fill="#ebebeb"/><rect width="13.453" height="11.852" transform="translate(145.608 91.036)" fill="#f5f5f5"/><rect width="3.203" height="11.852" transform="translate(155.858 91.036)" fill="#ebebeb"/><path d="M97.48,95.5V94.8h42.41V95.5" transform="translate(40.594 7.392)" fill="#e0e0e0"/><rect width="3.229" height="6.803" transform="translate(148.773 108.064)" fill="#fafafa"/><path d="M119.012,106.8c0,.077-4.267.128-9.52.128s-9.533,0-9.533-.128,4.267-.128,9.533-.128S119.012,106.738,119.012,106.8Z" transform="translate(41.292 10.73)" fill="#e0e0e0"/><rect width="3.229" height="6.803" transform="translate(167.991 108.064)" fill="#e0e0e0"/><path d="M134.012,106.8c0,.077-4.254.128-9.52.128s-9.533,0-9.533-.128,4.267-.128,9.533-.128S134.012,106.738,134.012,106.8Z" transform="translate(45.511 10.73)" fill="#e0e0e0"/><rect width="3.229" height="6.803" transform="translate(167.991 121.568)" fill="#e0e0e0"/><path d="M134.012,117.342c0,.077-4.254.128-9.52.128s-9.533,0-9.533-.128,4.267-.128,9.533-.128S134.012,117.278,134.012,117.342Z" transform="translate(45.511 13.695)" fill="#e0e0e0"/><rect width="3.229" height="6.803" transform="translate(167.991 135.483)" fill="#e0e0e0"/><path d="M134.012,128.2c0,.077-4.254.128-9.52.128s-9.533,0-9.533-.128,4.267-.128,9.533-.128S134.012,128.125,134.012,128.2Z" transform="translate(45.511 16.749)" fill="#e0e0e0"/><rect width="3.229" height="6.803" transform="translate(167.991 149.397)" fill="#e0e0e0"/><path d="M134.012,139.062c0,.077-4.254.128-9.52.128s-9.533,0-9.533-.128,4.267-.128,9.533-.128S134.012,138.985,134.012,139.062Z" transform="translate(45.511 19.804)" fill="#e0e0e0"/><rect width="3.229" height="6.803" transform="translate(167.991 162.902)" fill="#e0e0e0"/><path d="M134.012,149.612c0,.064-4.254.128-9.52.128s-9.533,0-9.533-.128,4.267-.128,9.533-.128S134.012,149.535,134.012,149.612Z" transform="translate(45.511 22.771)" fill="#e0e0e0"/><rect width="3.229" height="6.803" transform="translate(167.991 176.483)" fill="#e0e0e0"/><rect width="3.229" height="6.803" transform="translate(167.991 190.218)" fill="#e0e0e0"/><path d="M134.012,160.2s-4.254.128-9.52.128-9.533-.064-9.533-.128,4.267-.128,9.533-.128S134.012,160.125,134.012,160.2Z" transform="translate(45.511 25.749)" fill="#e0e0e0"/><rect width="3.229" height="6.803" transform="translate(148.773 121.773)" fill="#fafafa"/><path d="M119.012,117.5c0,.077-4.267.128-9.52.128s-9.533,0-9.533-.128,4.267-.128,9.533-.128S119.012,117.438,119.012,117.5Z" transform="translate(41.292 13.74)" fill="#e0e0e0"/><rect width="3.229" height="6.803" transform="translate(148.773 135.483)" fill="#fafafa"/><path d="M119.012,128.2c0,.077-4.267.141-9.52.141s-9.533,0-9.533-.141,4.267-.128,9.533-.128S119.012,128.138,119.012,128.2Z" transform="translate(41.292 16.749)" fill="#e0e0e0"/><rect width="3.229" height="6.803" transform="translate(148.773 149.192)" fill="#fafafa"/><path d="M119.012,138.915s-4.267.128-9.52.128-9.533-.064-9.533-.128,4.267-.141,9.533-.141S119.012,138.851,119.012,138.915Z" transform="translate(41.292 19.759)" fill="#e0e0e0"/><rect width="3.229" height="6.803" transform="translate(148.773 162.902)" fill="#fafafa"/><path d="M119.012,149.612c0,.064-4.267.128-9.52.128s-9.533,0-9.533-.128,4.267-.128,9.533-.128S119.012,149.535,119.012,149.612Z" transform="translate(41.292 22.771)" fill="#e0e0e0"/><rect width="3.229" height="6.803" transform="translate(148.773 176.624)" fill="#fafafa"/><path d="M119.012,160.312c0,.064-4.267.128-9.52.128s-9.533-.064-9.533-.128,4.267-.128,9.533-.128S119.012,160.235,119.012,160.312Z" transform="translate(41.292 25.78)" fill="#e0e0e0"/><rect width="3.229" height="6.803" transform="translate(148.773 190.334)" fill="#fafafa"/><rect width="38.118" height="120.785" transform="translate(256.309 200.904)" fill="#f5f5f5"/><rect width="19.052" height="120.451" transform="translate(275.374 200.904)" fill="#ebebeb"/><rect width="13.453" height="11.852" transform="translate(260.665 189.052)" fill="#f5f5f5"/><rect width="3.203" height="11.852" transform="translate(270.915 189.052)" fill="#ebebeb"/><path d="M187.28,172V171.3h42.41V172" transform="translate(65.852 28.908)" fill="#e0e0e0"/><rect width="3.229" height="6.803" transform="translate(263.843 206.08)" fill="#fafafa"/><path d="M208.825,183.3c0,.077-4.267.128-9.533.128s-9.533,0-9.533-.128,4.267-.128,9.533-.128S208.825,183.238,208.825,183.3Z" transform="translate(66.549 32.247)" fill="#e0e0e0"/><rect width="3.229" height="6.803" transform="translate(283.062 206.08)" fill="#e0e0e0"/><path d="M223.822,183.3c0,.077-4.267.128-9.533.128s-9.52,0-9.52-.128,4.254-.128,9.52-.128S223.822,183.238,223.822,183.3Z" transform="translate(70.771 32.247)" fill="#e0e0e0"/><rect width="3.229" height="6.803" transform="translate(283.062 219.585)" fill="#e0e0e0"/><path d="M223.822,193.862c0,.077-4.267.128-9.533.128s-9.52,0-9.52-.128,4.254-.128,9.52-.128S223.822,193.772,223.822,193.862Z" transform="translate(70.771 35.217)" fill="#e0e0e0"/><rect width="3.229" height="6.803" transform="translate(283.062 233.499)" fill="#e0e0e0"/><path d="M223.822,204.7c0,.077-4.267.128-9.533.128s-9.52,0-9.52-.128,4.254-.128,9.52-.128S223.822,204.638,223.822,204.7Z" transform="translate(70.771 38.266)" fill="#e0e0e0"/><rect width="3.229" height="6.803" transform="translate(283.062 247.414)" fill="#e0e0e0"/><path d="M223.822,215.562c0,.077-4.267.128-9.533.128s-9.52,0-9.52-.128,4.254-.128,9.52-.128S223.822,215.485,223.822,215.562Z" transform="translate(70.771 41.32)" fill="#e0e0e0"/><rect width="3.229" height="6.803" transform="translate(283.062 260.931)" fill="#e0e0e0"/><path d="M223.822,226.112c0,.064-4.267.128-9.533.128s-9.52-.064-9.52-.128,4.254-.128,9.52-.128S223.822,226.035,223.822,226.112Z" transform="translate(70.771 44.287)" fill="#e0e0e0"/><rect width="3.229" height="6.803" transform="translate(283.062 274.5)" fill="#e0e0e0"/><rect width="3.229" height="6.803" transform="translate(283.062 288.247)" fill="#e0e0e0"/><path d="M223.822,236.7c0,.077-4.267.128-9.533.128s-9.52,0-9.52-.128,4.254-.128,9.52-.128S223.822,236.625,223.822,236.7Z" transform="translate(70.771 47.266)" fill="#e0e0e0"/><rect width="3.229" height="6.803" transform="translate(263.843 219.79)" fill="#fafafa"/><path d="M208.825,194c0,.077-4.267.141-9.533.141s-9.533-.064-9.533-.141,4.267-.128,9.533-.128S208.825,193.938,208.825,194Z" transform="translate(66.549 35.256)" fill="#e0e0e0"/><rect width="3.229" height="6.803" transform="translate(263.843 233.499)" fill="#fafafa"/><path d="M208.825,204.715c0,.064-4.267.128-9.533.128s-9.533,0-9.533-.128,4.267-.141,9.533-.141S208.825,204.638,208.825,204.715Z" transform="translate(66.549 38.266)" fill="#e0e0e0"/><rect width="3.229" height="6.803" transform="translate(263.843 247.209)" fill="#fafafa"/><path d="M208.825,215.412c0,.064-4.267.128-9.533.128s-9.533,0-9.533-.128,4.267-.128,9.533-.128S208.825,215.335,208.825,215.412Z" transform="translate(66.549 41.278)" fill="#e0e0e0"/><rect width="3.229" height="6.803" transform="translate(263.843 260.931)" fill="#fafafa"/><path d="M208.825,226.112c0,.064-4.267.128-9.533.128s-9.533-.064-9.533-.128,4.267-.128,9.533-.128S208.825,226.035,208.825,226.112Z" transform="translate(66.549 44.287)" fill="#e0e0e0"/><rect width="3.229" height="6.803" transform="translate(263.843 274.641)" fill="#fafafa"/><path d="M208.825,236.862c0,.077-4.267.128-9.533.128s-9.533,0-9.533-.128,4.267-.128,9.533-.128S208.825,236.721,208.825,236.862Z" transform="translate(66.549 47.311)" fill="#e0e0e0"/><rect width="3.229" height="6.803" transform="translate(263.843 288.35)" fill="#fafafa"/><rect width="54.697" height="173.329" transform="translate(40.211 68.524)" fill="#f5f5f5"/><rect width="27.342" height="172.855" transform="translate(67.553 68.524)" fill="#ebebeb"/><rect width="4.625" height="9.763" transform="translate(50.999 75.943)" fill="#fafafa"/><path d="M48.442,84.963c0,.1-6.124.192-13.671.192S21.1,85.066,21.1,84.963s6.112-.179,13.671-.179S48.442,84.848,48.442,84.963Z" transform="translate(19.112 4.573)" fill="#e0e0e0"/><rect width="4.625" height="9.763" transform="translate(78.585 75.943)" fill="#e0e0e0"/><path d="M69.975,84.949c0,.1-6.124.192-13.671.192s-13.684-.09-13.684-.192,6.1-.115,13.684-.115S69.975,84.834,69.975,84.949Z" transform="translate(25.165 4.587)" fill="#e0e0e0"/><rect width="4.625" height="9.763" transform="translate(78.585 95.328)" fill="#e0e0e0"/><path d="M69.975,100.1c0,.1-6.124.179-13.671.179S42.62,100.2,42.62,100.1,48.744,99.9,56.3,99.9,69.975,99.994,69.975,100.1Z" transform="translate(25.165 8.826)" fill="#e0e0e0"/><rect width="4.625" height="9.763" transform="translate(78.585 115.29)" fill="#e0e0e0"/><path d="M69.975,115.673c0,.1-6.124.192-13.671.192s-13.684-.09-13.684-.192,6.124-.179,13.684-.179S69.975,115.571,69.975,115.673Z" transform="translate(25.165 13.211)" fill="#e0e0e0"/><rect width="4.625" height="9.763" transform="translate(78.585 135.265)" fill="#e0e0e0"/><path d="M69.975,131.253c0,.1-6.124.192-13.671.192s-13.684-.09-13.684-.192,6.124-.179,13.684-.179S69.975,131.151,69.975,131.253Z" transform="translate(25.165 17.593)" fill="#e0e0e0"/><rect width="4.625" height="9.763" transform="translate(78.585 154.65)" fill="#e0e0e0"/><path d="M69.975,146.393c0,.1-6.124.192-13.671.192s-13.684-.09-13.684-.192,6.124-.179,13.684-.179S69.975,146.291,69.975,146.393Z" transform="translate(25.165 21.851)" fill="#e0e0e0"/><rect width="4.625" height="9.763" transform="translate(78.585 174.126)" fill="#e0e0e0"/><rect width="4.625" height="9.763" transform="translate(78.585 193.857)" fill="#e0e0e0"/><path d="M69.975,161.6c0,.1-6.124.192-13.671.192S42.62,161.7,42.62,161.6s6.124-.192,13.684-.192S69.975,161.494,69.975,161.6Z" transform="translate(25.165 26.124)" fill="#e0e0e0"/><rect width="4.625" height="9.763" transform="translate(50.999 95.623)" fill="#fafafa"/><path d="M48.442,100.326c0,.1-6.124.192-13.671.192s-13.671-.09-13.671-.192,6.112-.192,13.671-.192S48.442,100.224,48.442,100.326Z" transform="translate(19.112 8.891)" fill="#e0e0e0"/><rect width="4.625" height="9.763" transform="translate(50.999 115.303)" fill="#fafafa"/><path d="M48.442,115.686c0,.1-6.124.179-13.671.179s-13.671-.077-13.671-.179,6.112-.192,13.671-.192S48.442,115.584,48.442,115.686Z" transform="translate(19.112 13.211)" fill="#e0e0e0"/><rect width="4.625" height="9.763" transform="translate(50.999 134.983)" fill="#fafafa"/><path d="M48.442,131.033c0,.1-6.124.192-13.671.192s-13.671-.09-13.671-.192,6.112-.179,13.671-.179S48.442,130.931,48.442,131.033Z" transform="translate(19.112 17.531)" fill="#e0e0e0"/><rect width="4.625" height="9.763" transform="translate(50.999 154.65)" fill="#fafafa"/><path d="M48.442,146.393c0,.1-6.124.192-13.671.192S21.1,146.5,21.1,146.393s6.112-.179,13.671-.179S48.442,146.291,48.442,146.393Z" transform="translate(19.112 21.851)" fill="#e0e0e0"/><rect width="4.625" height="9.763" transform="translate(50.999 174.331)" fill="#fafafa"/><path d="M48.442,161.756c0,.1-6.124.179-13.671.179s-13.671-.077-13.671-.179,6.112-.192,13.671-.192S48.442,161.654,48.442,161.756Z" transform="translate(19.112 26.169)" fill="#e0e0e0"/><rect width="4.625" height="9.763" transform="translate(50.999 194.011)" fill="#fafafa"/><rect width="54.697" height="173.329" transform="translate(173.962 150.768)" fill="#f5f5f5"/><rect width="27.342" height="172.855" transform="translate(201.304 150.768)" fill="#ebebeb"/><rect width="19.309" height="17.015" transform="translate(180.202 133.753)" fill="#f5f5f5"/><rect width="4.6" height="17.015" transform="translate(194.911 133.753)" fill="#ebebeb"/><path d="M121.93,132.931v-.987h60.847v.987" transform="translate(47.471 17.838)" fill="#e0e0e0"/><rect width="4.625" height="9.763" transform="translate(184.75 158.187)" fill="#fafafa"/><path d="M152.832,149.153c0,.1-6.124.192-13.671.192s-13.671-.09-13.671-.192,6.112-.179,13.671-.179S152.832,149.051,152.832,149.153Z" transform="translate(48.473 22.627)" fill="#e0e0e0"/><rect width="4.625" height="9.763" transform="translate(212.336 158.187)" fill="#e0e0e0"/><path d="M174.382,149.153c0,.1-6.124.192-13.671.192s-13.671-.09-13.671-.192,6.112-.179,13.671-.179S174.382,149.051,174.382,149.153Z" transform="translate(54.534 22.627)" fill="#e0e0e0"/><rect width="4.625" height="9.763" transform="translate(212.336 177.572)" fill="#e0e0e0"/><path d="M174.382,164.286c0,.1-6.124.179-13.671.179s-13.671-.077-13.671-.179,6.112-.192,13.671-.192S174.382,164.184,174.382,164.286Z" transform="translate(54.534 26.88)" fill="#e0e0e0"/><rect width="4.625" height="9.763" transform="translate(212.336 197.534)" fill="#e0e0e0"/><path d="M174.382,179.873c0,.1-6.124.192-13.671.192s-13.671-.09-13.671-.192,6.112-.179,13.671-.179S174.382,179.758,174.382,179.873Z" transform="translate(54.534 31.268)" fill="#e0e0e0"/><rect width="4.625" height="9.763" transform="translate(212.336 217.509)" fill="#e0e0e0"/><path d="M174.382,195.443c0,.1-6.124.192-13.671.192s-13.671-.09-13.671-.192,6.112-.179,13.671-.179S174.382,195.341,174.382,195.443Z" transform="translate(54.534 35.647)" fill="#e0e0e0"/><rect width="4.625" height="9.763" transform="translate(212.336 236.895)" fill="#e0e0e0"/><path d="M174.382,210.583c0,.1-6.124.192-13.671.192s-13.671-.09-13.671-.192,6.112-.179,13.671-.179S174.382,210.481,174.382,210.583Z" transform="translate(54.534 39.905)" fill="#e0e0e0"/><rect width="4.625" height="9.763" transform="translate(212.336 256.37)" fill="#e0e0e0"/><rect width="4.625" height="9.763" transform="translate(212.336 276.101)" fill="#e0e0e0"/><path d="M174.382,225.786c0,.1-6.124.192-13.671.192s-13.671-.09-13.671-.192,6.112-.192,13.671-.192S174.382,225.684,174.382,225.786Z" transform="translate(54.534 44.178)" fill="#e0e0e0"/><rect width="4.625" height="9.763" transform="translate(184.75 177.867)" fill="#fafafa"/><path d="M152.832,164.516c0,.1-6.124.192-13.671.192s-13.671-.09-13.671-.192,6.112-.192,13.671-.192S152.832,164.414,152.832,164.516Z" transform="translate(48.473 26.945)" fill="#e0e0e0"/><rect width="4.625" height="9.763" transform="translate(184.75 197.547)" fill="#fafafa"/><path d="M152.832,179.876c0,.1-6.124.179-13.671.179s-13.671-.077-13.671-.179,6.112-.192,13.671-.192S152.832,179.774,152.832,179.876Z" transform="translate(48.473 31.265)" fill="#e0e0e0"/><rect width="4.625" height="9.763" transform="translate(184.75 217.227)" fill="#fafafa"/><path d="M152.832,195.223c0,.1-6.124.192-13.671.192s-13.671-.09-13.671-.192,6.112-.179,13.671-.179S152.832,195.121,152.832,195.223Z" transform="translate(48.473 35.585)" fill="#e0e0e0"/><rect width="4.625" height="9.763" transform="translate(184.75 236.895)" fill="#fafafa"/><path d="M152.832,210.583c0,.1-6.124.192-13.671.192s-13.671-.09-13.671-.192,6.112-.179,13.671-.179S152.832,210.481,152.832,210.583Z" transform="translate(48.473 39.905)" fill="#e0e0e0"/><rect width="4.625" height="9.763" transform="translate(184.75 256.575)" fill="#fafafa"/><path d="M152.832,225.946c0,.1-6.124.179-13.671.179s-13.671-.077-13.671-.179,6.112-.192,13.671-.192S152.832,225.856,152.832,225.946Z" transform="translate(48.473 44.223)" fill="#e0e0e0"/><rect width="4.625" height="9.763" transform="translate(184.75 276.255)" fill="#fafafa"/><rect width="54.697" height="173.329" transform="translate(-42.289 149.935)" fill="#f5f5f5"/><rect width="27.342" height="172.855" transform="translate(-14.947 149.935)" fill="#ebebeb"/><rect width="19.309" height="17.015" transform="translate(-36.049 132.92)" fill="#f5f5f5"/><rect width="4.6" height="17.015" transform="translate(-21.328 132.92)" fill="#ebebeb"/><path d="M-46.85,132.283v-1h60.86v1" transform="translate(0 17.652)" fill="#e0e0e0"/><rect width="4.625" height="9.763" transform="translate(-31.488 157.354)" fill="#fafafa"/><path d="M-15.948,148.506c0,.1-6.112.179-13.671.179s-13.671-.077-13.671-.179,6.124-.192,13.671-.192S-15.948,148.4-15.948,148.506Z" transform="translate(1.001 22.442)" fill="#e0e0e0"/><rect width="4.625" height="9.763" transform="translate(-3.903 157.354)" fill="#e0e0e0"/><path d="M5.582,148.506c0,.1-6.124.179-13.671.179s-13.671-.077-13.671-.179,6.124-.192,13.671-.192S5.582,148.4,5.582,148.506Z" transform="translate(7.057 22.442)" fill="#e0e0e0"/><rect width="4.625" height="9.763" transform="translate(-3.903 176.739)" fill="#e0e0e0"/><path d="M5.582,163.636c0,.1-6.124.179-13.671.179s-13.671-.077-13.671-.179,6.124-.192,13.671-.192S5.582,163.534,5.582,163.636Z" transform="translate(7.057 26.697)" fill="#e0e0e0"/><rect width="4.625" height="9.763" transform="translate(-3.903 196.701)" fill="#e0e0e0"/><path d="M5.582,179.216c0,.1-6.124.179-13.671.179s-13.671-.077-13.671-.179,6.124-.192,13.671-.192S5.582,179.114,5.582,179.216Z" transform="translate(7.057 31.079)" fill="#e0e0e0"/><rect width="4.625" height="9.763" transform="translate(-3.903 216.663)" fill="#e0e0e0"/><path d="M5.582,194.793c0,.1-6.124.192-13.671.192s-13.671-.09-13.671-.192,6.124-.179,13.671-.179S5.582,194.691,5.582,194.793Z" transform="translate(7.057 35.464)" fill="#e0e0e0"/><rect width="4.625" height="9.763" transform="translate(-3.903 236.062)" fill="#e0e0e0"/><path d="M5.582,209.936c0,.1-6.124.179-13.671.179s-13.671-.077-13.671-.179,6.124-.192,13.671-.192S5.582,209.859,5.582,209.936Z" transform="translate(7.057 39.72)" fill="#e0e0e0"/><rect width="4.625" height="9.763" transform="translate(-3.903 255.537)" fill="#e0e0e0"/><rect width="4.625" height="9.763" transform="translate(-3.903 275.256)" fill="#e0e0e0"/><path d="M5.582,225.136c0,.1-6.124.179-13.671.179s-13.671-.077-13.671-.179,6.124-.192,13.671-.192S5.582,225.034,5.582,225.136Z" transform="translate(7.057 43.995)" fill="#e0e0e0"/><rect width="4.625" height="9.763" transform="translate(-31.488 177.034)" fill="#fafafa"/><path d="M-15.948,163.876c0,.1-6.112.179-13.671.179s-13.671-.077-13.671-.179,6.124-.192,13.671-.192S-15.948,163.761-15.948,163.876Z" transform="translate(1.001 26.765)" fill="#e0e0e0"/><rect width="4.625" height="9.763" transform="translate(-31.488 196.701)" fill="#fafafa"/><path d="M-15.948,179.213c0,.1-6.112.192-13.671.192s-13.671-.09-13.671-.192,6.124-.179,13.671-.179S-15.948,179.111-15.948,179.213Z" transform="translate(1.001 31.082)" fill="#e0e0e0"/><rect width="4.625" height="9.763" transform="translate(-31.488 216.382)" fill="#fafafa"/><path d="M-15.948,194.573c0,.1-6.112.192-13.671.192s-13.671-.09-13.671-.192,6.124-.179,13.671-.179S-15.948,194.471-15.948,194.573Z" transform="translate(1.001 35.402)" fill="#e0e0e0"/><rect width="4.625" height="9.763" transform="translate(-31.488 236.062)" fill="#fafafa"/><path d="M-15.948,209.936c0,.1-6.112.179-13.671.179s-13.671-.077-13.671-.179,6.124-.192,13.671-.192S-15.948,209.859-15.948,209.936Z" transform="translate(1.001 39.72)" fill="#e0e0e0"/><rect width="4.625" height="9.763" transform="translate(-31.488 255.742)" fill="#fafafa"/><path d="M-15.948,225.3c0,.1-6.112.179-13.671.179S-43.29,225.4-43.29,225.3s6.124-.192,13.671-.192S-15.948,225.194-15.948,225.3Z" transform="translate(1.001 44.04)" fill="#e0e0e0"/><rect width="4.625" height="9.763" transform="translate(-31.488 275.409)" fill="#fafafa"/><rect width="79.848" height="105.307" transform="translate(93.345 217.227)" fill="#ebebeb"/><rect width="37.438" height="105.307" transform="translate(135.755 217.227)" fill="#e0e0e0"/><rect width="7.175" height="17.438" transform="translate(110.091 231.488)" fill="#f5f5f5"/><rect width="7.175" height="17.438" transform="translate(110.091 299.753)" fill="#f5f5f5"/><path d="M104.98,214.753c0,.192-9.494.346-21.2.346s-21.2-.154-21.2-.346,9.494-.359,21.2-.359S104.98,214.548,104.98,214.753Z" transform="translate(30.776 41.028)" fill="#f5f5f5"/><rect width="7.175" height="17.438" transform="translate(110.091 265.877)" fill="#f5f5f5"/><path d="M104.98,241.593c0,.192-9.494.359-21.2.359s-21.2-.167-21.2-.359,9.494-.359,21.2-.359S104.98,241.4,104.98,241.593Z" transform="translate(30.776 48.577)" fill="#f5f5f5"/><rect width="7.175" height="17.438" transform="translate(143.699 231.488)" fill="#f5f5f5"/><rect width="7.175" height="17.438" transform="translate(159.279 231.488)" fill="#f5f5f5"/><rect width="7.175" height="17.438" transform="translate(143.699 264.583)" fill="#f5f5f5"/><rect width="7.175" height="17.438" transform="translate(159.279 264.583)" fill="#f5f5f5"/><rect width="7.175" height="17.438" transform="translate(143.699 297.678)" fill="#f5f5f5"/><rect width="7.175" height="17.438" transform="translate(159.279 297.678)" fill="#f5f5f5"/><rect width="91.854" height="3.793" transform="translate(87.336 213.563)" fill="#e0e0e0"/><path d="M142.817,185.04c0,.2-17.848.359-39.847.359s-39.86-.154-39.86-.359,17.835-.346,39.86-.346S142.817,184.873,142.817,185.04Z" transform="translate(30.928 32.674)" fill="#ebebeb"/><path d="M79,294.715H-1.485L-1.83,167.524H78.646Z" transform="translate(12.662 27.845)" fill="#ebebeb"/><rect width="40.244" height="127.191" transform="translate(51.064 195.369)" fill="#e0e0e0"/><rect width="28.418" height="25.036" transform="translate(20.019 170.32)" fill="#ebebeb"/><rect width="6.778" height="25.036" transform="translate(41.659 170.32)" fill="#e0e0e0"/><rect width="89.547" height="1.461" transform="translate(4.118 193.908)" fill="#e0e0e0"/><rect width="6.816" height="14.363" transform="translate(26.72 206.285)" fill="#fff"/><path d="M38.4,191.713c0,.154-8.969.282-20.116.282s-20.116-.128-20.116-.282,8.969-.269,20.116-.269S38.4,191.559,38.4,191.713Z" transform="translate(12.663 34.573)" fill="#e0e0e0"/><rect width="6.816" height="14.363" transform="translate(67.31 206.285)" fill="#f5f5f5"/><path d="M70.082,191.713c0,.154-8.969.282-20.116.282s-20.116-.128-20.116-.282,8.969-.269,20.116-.269S70.082,191.559,70.082,191.713Z" transform="translate(21.573 34.573)" fill="#ebebeb"/><rect width="6.816" height="14.363" transform="translate(67.31 234.806)" fill="#f5f5f5"/><path d="M70.082,213.973c0,.154-8.969.269-20.116.269s-20.116-.115-20.116-.269,8.969-.269,20.116-.269S70.082,213.871,70.082,213.973Z" transform="translate(21.573 40.833)" fill="#ebebeb"/><rect width="6.816" height="14.363" transform="translate(67.31 264.185)" fill="#f5f5f5"/><path d="M70.082,236.893c0,.154-8.969.282-20.116.282s-20.116-.128-20.116-.282,8.969-.269,20.116-.269S70.082,236.752,70.082,236.893Z" transform="translate(21.573 47.28)" fill="#ebebeb"/><rect width="6.816" height="14.363" transform="translate(67.31 293.565)" fill="#f5f5f5"/><path d="M70.082,259.833c0,.154-8.969.282-20.116.282s-20.116-.128-20.116-.282,8.969-.269,20.116-.269S70.082,259.679,70.082,259.833Z" transform="translate(21.573 53.732)" fill="#ebebeb"/><rect width="6.816" height="14.363" transform="translate(26.72 235.242)" fill="#fff"/><path d="M38.4,214.313c0,.154-8.969.269-20.116.269s-20.116-.115-20.116-.269,8.969-.269,20.116-.269S38.4,214.159,38.4,214.313Z" transform="translate(12.663 40.929)" fill="#e0e0e0"/><rect width="6.816" height="14.363" transform="translate(26.72 264.198)" fill="#fff"/><path d="M38.4,236.893c0,.154-8.969.269-20.116.269s-20.116-.115-20.116-.269,8.969-.269,20.116-.269S38.4,236.765,38.4,236.893Z" transform="translate(12.663 47.28)" fill="#e0e0e0"/><rect width="6.816" height="14.363" transform="translate(26.72 293.155)" fill="#fff"/><path d="M38.4,259.516c0,.154-8.969.269-20.116.269s-20.116-.115-20.116-.269,8.969-.282,20.116-.282S38.4,259.362,38.4,259.516Z" transform="translate(12.663 53.639)" fill="#e0e0e0"/></g><g transform="translate(-531.91 -489.599)"><path d="M1759.123,917.177c-2.673,3.782-.468,8.7,2.193,11.47,3.272,3.4,6.6,2.878,8.112,5.887,1.83,3.637-2.065,6.311-.035,10.113,1.248,2.336,2.961,1.78,5.443,4.746,3.023,3.613.059,4.641,2.2,7.283,6.891,8.493,9.65,2.6,13.845,4.834,5.438,2.894,9.074,5.366,11.736,4.787,10.461-2.275,7.239-9.153,12.317-11.8,6.863-3.582,10.215-18.242,5.5-23.408-2.467-2.706-4.9-3.034-5.133-5.287-.331-3.251,4.579-4.2,5.077-8.108.565-4.435-5.321-6.584-4.444-10.331.854-3.654,6.9-3.523,7.283-6.132.587-3.957-12.3-11.043-25.657-10.6-6.386.211-16.785,2.271-18.516,7.592-1,3.072,1.6,5.054.135,9.023-1.066,2.886-3.423,4.5-6.544,6.579C1769.677,915.792,1763.853,910.488,1759.123,917.177Z" transform="translate(0 0)" fill="#eee"/><path d="M1796.91,920.618c-2.1-.105-3.171,13.9-1.954,15.738s3.509,3.193,3.661,5.2-.743,37.531-1.485,37.017-6.893-9.824-5.665-11.992,2.62-5.519,2.332-8.353-.29-6.871-1.085-6.772-.128,7.052-.68,8.4-.647,2.4-1.44,2.426-.81-7.332-2.02-7.2-.387,10.97.029,12.976,1.837,8.935,3.149,11.486,5.3,5.227,5.4,6.1-.541,21.559-.541,21.559l10.446.19s-3.859-40.794-3-42.152,6.311-12.38,7.479-13.5,1.865-7.995,1.249-8.094-.958,6.6-2.239,6.708-1.97-12.96-2.9-12.845.9,13.558.4,14.387-3.413,5.805-4.382,5.7.533-36.69-.3-37.1-1.454-.071-1.965,3.757-1.5,12.192-2.073,12.181a3.135,3.135,0,0,1-2.035-2.109C1797.267,933.47,1797.845,920.666,1796.91,920.618Z" transform="translate(-5.879 -5.822)" fill="#bdbdbd"/></g><g transform="translate(-585.5 -398.279)"><path d="M1270.485,812.01c3.293,4.658.576,10.719-2.7,14.128-4.031,4.193-8.126,3.545-9.992,7.252-2.254,4.479,2.544,7.774.042,12.457-1.537,2.878-3.647,2.193-6.7,5.846-3.724,4.45-.073,5.716-2.714,8.972-8.488,10.461-11.887,3.2-17.054,5.955-6.7,3.564-11.178,6.61-14.457,5.9-12.887-2.8-8.917-11.276-15.172-14.541-8.453-4.413-12.583-22.471-6.781-28.834,3.038-3.332,6.041-3.737,6.324-6.513.408-4.005-5.641-5.17-6.255-9.988-.7-5.464,6.554-8.111,5.475-12.726-1.052-4.5-8.494-4.339-8.972-7.552-.724-4.874,15.158-13.6,31.605-13.061,7.865.259,20.676,2.8,22.808,9.351,1.231,3.785-1.972,6.226-.167,11.115,1.313,3.554,4.216,5.543,8.061,8.1C1257.484,810.3,1264.658,803.77,1270.485,812.01Z" fill="#eee"/><path d="M1246.713,832.142c2.587-.13,3.907,17.124,2.406,19.387s-4.322,3.932-4.509,6.4.915,46.232,1.829,45.6,8.491-12.1,6.978-14.772-3.227-6.8-2.872-10.29.358-8.463,1.336-8.342.157,8.687.838,10.347.8,2.959,1.773,2.988,1-9.032,2.488-8.873.478,13.513-.035,15.985-2.263,11.006-3.879,14.149-6.528,6.437-6.648,7.509.667,26.557.667,26.557l-12.868.233s4.752-50.251,3.692-51.924-7.773-15.249-9.212-16.635-2.3-9.848-1.539-9.97,1.179,8.13,2.758,8.264,2.428-15.965,3.571-15.822-1.11,16.7-.494,17.723,4.205,7.151,5.4,7.02-.656-45.2.367-45.7,1.792-.087,2.421,4.629,1.848,15.017,2.554,15.005a3.863,3.863,0,0,0,2.507-2.6C1246.275,847.974,1245.563,832.2,1246.713,832.142Z" transform="translate(-15.534 -23.065)" fill="#bdbdbd"/></g><ellipse cx="436.537" cy="154.542" rx="436.537" ry="154.542" transform="translate(508.454 460.586)" fill="url(#b)"/><g transform="translate(738 280.362)"><path d="M616.3,576.98h-7.919l-3.769-30.545H616.3Z" transform="translate(-325.677 -294.357)" fill="#9e616a"/><path d="M775.265,746.757h-5.679l-1.014-5.362-2.6,5.362H750.914a3.386,3.386,0,0,1-1.924-6.172l12.028-8.307v-5.421l12.652.755Z" transform="translate(-480.467 -450.414)" fill="#2f2e41"/><path d="M699.691,562.362l-6.355,4.726-21.251-22.262,9.379-6.975Z" transform="translate(-362.024 -289.733)" fill="#9e616a"/><path d="M896.46,720.222,891.9,723.61l-4.013-3.7,1.116,5.852-12.087,8.988a3.386,3.386,0,0,1-5.227-3.8l4.7-13.844-3.234-4.35,10.6-6.944Z" transform="translate(-547.252 -439.076)" fill="#2f2e41"/><path d="M778.756,398.647s15.025,12.981,8.093,49.987l-8.464,36.26,27.6,45.791-8.8,10.707L761.3,491.828l-13-30.5-3.649-54.286Z" transform="translate(-478.917 -273.62)" fill="#2f2e41"/><path d="M598.392,425.746l-.9,14,2.766,59.643,13.014-2.267,2.487-42.465Z" transform="translate(-321.842 -229.347)" fill="#2f2e41"/><path d="M237.444,596.317h7.082L247.895,569H237.443Z" transform="translate(-127.9 -306.512)" fill="#ffb6b6"/><path d="M402.178,747.111h1.993l7.782-3.165,4.171,3.164h0A8.888,8.888,0,0,1,425.013,756v.29H402.178Z" transform="translate(-294.441 -459.618)" fill="#2f2e41"/><path d="M296.932,587.427l6.908,1.559,9.3-25.9-10.2-2.3Z" transform="translate(-159.945 -302.085)" fill="#ffb6b6"/><path d="M460.505,739.3l1.944.439,8.288-1.373,3.371,4.006h0A8.888,8.888,0,0,1,480.822,753l-.064.282-22.274-5.029Z" transform="translate(-324.771 -456.614)" fill="#2f2e41"/><path d="M383.994,393.843c-3.32,10.014-2.969,20.884.8,32.55l1.61,65.685s-2.4,43.075,5.343,58.233h11.229l5.56-62.166.7-41.726,24.074,35.2-15.333,67.673,13.82,1.235,24.882-73.441-30.7-71.251Z" transform="translate(-283.42 -271.032)" fill="#2f2e41"/><path d="M647.518,321.393c8.589-7.74,21.364-11.631,32.08-7.292a53.269,53.269,0,0,0-23.938,27.65c-1.706,4.539-3.131,9.765-7.327,12.195a11.908,11.908,0,0,1-8.787.856,35.365,35.365,0,0,1-8.258-3.642l-.753-.017C633.917,340.087,638.929,329.132,647.518,321.393Z" transform="translate(-417.448 -227.106)" fill="#e6e6e6"/><path d="M679.679,316.121a45.532,45.532,0,0,0-25.331,11.963,19.607,19.607,0,0,0-3.85,4.787,11.246,11.246,0,0,0-1.3,5.774,23.269,23.269,0,0,1-.1,5.633,6.886,6.886,0,0,1-3.425,4.47,17.891,17.891,0,0,1-6.868,1.875c-2.626.322-5.359.615-7.632,2.088-.275.178-.536-.259-.261-.438,3.955-2.563,8.959-1.63,13.212-3.34a6.974,6.974,0,0,0,4.361-4.317,18.059,18.059,0,0,0,.209-5.717,12,12,0,0,1,1.061-5.693,18.127,18.127,0,0,1,3.652-4.918,44.172,44.172,0,0,1,11.226-8.037,46.339,46.339,0,0,1,15.04-4.64c.324-.042.327.468,0,.51Z" transform="translate(-417.588 -228.891)" fill="#fff"/><path d="M684.967,327.413a6.831,6.831,0,0,1,.753-8.813c.234-.23.6.122.368.353a6.326,6.326,0,0,0-.684,8.2C685.6,327.418,685.158,327.678,684.967,327.413Z" transform="translate(-446.085 -230.462)" fill="#fff"/><path d="M670,361.243a13.166,13.166,0,0,0,9.408-1.884c.276-.177.537.26.261.438a13.7,13.7,0,0,1-9.794,1.94C669.548,361.679,669.675,361.185,670,361.243Z" transform="translate(-438.535 -252.435)" fill="#fff"/><path d="M713.9,321.8a3.867,3.867,0,0,0,2.892,2.258c.324.054.2.548-.125.494a4.333,4.333,0,0,1-3.2-2.491.263.263,0,0,1,.088-.349A.256.256,0,0,1,713.9,321.8Z" transform="translate(-462.098 -232.161)" fill="#fff"/><path d="M690.684,381.2c-.2-.028-.406-.056-.613-.081a50.915,50.915,0,0,0-8.25-.419c-.213,0-.429.009-.642.019a53.682,53.682,0,0,0-19.261,4.433,52.143,52.143,0,0,0-7,3.716c-3.085,1.953-6.275,4.317-9.724,5.114a8.941,8.941,0,0,1-1.09.194l-14.25-12.339c-.018-.044-.04-.085-.058-.13l-.591-.467c.11-.081.226-.163.336-.244.064-.047.13-.092.194-.139.044-.031.087-.061.125-.091l.041-.027c.038-.03.075-.054.11-.081q.97-.687,1.954-1.363s0,0,.009,0a76.652,76.652,0,0,1,15.963-8.581c.169-.064.341-.131.517-.19a49.756,49.756,0,0,1,7.815-2.2,43.993,43.993,0,0,1,4.407-.616,36.573,36.573,0,0,1,11.406.808c7.448,1.727,14.26,5.817,18.295,12.194C690.484,380.875,690.584,381.036,690.684,381.2Z" transform="translate(-416.733 -256.882)" fill="#e6e6e6"/><path d="M690.856,389.873a45.531,45.531,0,0,0-27.428-5.7,19.605,19.605,0,0,0-5.956,1.5,11.245,11.245,0,0,0-4.514,3.828,23.276,23.276,0,0,1-3.47,4.438,6.886,6.886,0,0,1-5.426,1.507,17.891,17.891,0,0,1-6.613-2.637c-2.29-1.324-4.649-2.736-7.35-2.928-.327-.023-.272-.53.055-.507,4.7.335,8.135,4.092,12.56,5.287a6.973,6.973,0,0,0,6.081-.821,18.059,18.059,0,0,0,3.609-4.439,12,12,0,0,1,4.274-3.907,18.126,18.126,0,0,1,5.876-1.728,44.173,44.173,0,0,1,13.8.342,46.339,46.339,0,0,1,14.8,5.35c.284.162-.021.571-.3.41Z" transform="translate(-417.094 -265.4)" fill="#fff"/><path d="M709.2,376.293a6.831,6.831,0,0,1,5.908-6.584c.325-.043.407.46.082.5a6.325,6.325,0,0,0-5.483,6.135c-.007.328-.514.271-.507-.055Z" transform="translate(-459.82 -258.031)" fill="#fff"/><path d="M680.343,394.72a13.167,13.167,0,0,0,8.646,4.16c.327.024.272.531-.055.507a13.7,13.7,0,0,1-8.988-4.348C679.723,394.8,680.121,394.48,680.343,394.72Z" transform="translate(-444.027 -271.459)" fill="#fff"/><path d="M740.377,387.862a3.867,3.867,0,0,0,.95,3.544c.226.238-.172.556-.4.319a4.333,4.333,0,0,1-1.059-3.918.263.263,0,0,1,.281-.226A.256.256,0,0,1,740.377,387.862Z" transform="translate(-476.283 -267.659)" fill="#fff"/><path d="M595.1,290.621a5.351,5.351,0,0,1-8.2.386l-17.439,7.585,1.7-9.735,16.3-5.71a5.38,5.38,0,0,1,7.637,7.474Z" transform="translate(-384.551 -210.764)" fill="#ffb8b8"/><path d="M488.976,275.689l-40.5,18.042-.087-.031-46.165-16.451a15.206,15.206,0,0,1-6.819-19.725h0a15.189,15.189,0,0,1,21.677-6.752l34.355,20.7,33.314-4.318Z" transform="translate(-290.064 -192.792)" fill="#a31e23"/><path d="M427.993,316.1l-40.831-6.531a7.794,7.794,0,0,1-4.593-10.909l1.852-3.7L383.7,256.04a28.825,28.825,0,0,1,14-25.214l3.982-2.381,2.012-5.11,18.555.453.054,6.7,6.645,10.6v.044l-.417,57.674-1.831,5.952,2.769,6.923Z" transform="translate(-283.435 -179.187)" fill="#ed1e24"/><circle cx="16.859" cy="16.859" r="16.859" transform="translate(114.374 4.075)" fill="#ffb8b8"/><path d="M414.709,152.217a22.3,22.3,0,0,1,.012-7.232,20.244,20.244,0,0,1,8.569-14.057,6.172,6.172,0,0,1,3.075-1.222,2.654,2.654,0,0,1,2.669,1.614,5.533,5.533,0,0,1,3.121-3.1,9.75,9.75,0,0,1,4.443-.6,16.238,16.238,0,0,1,13.546,9.683c.45,1.07,1.708-2.882,2.279-1.871a4.494,4.494,0,0,0,2.548,2.239c1.118.312,1.572,4.918,2.012,3.844a5.12,5.12,0,0,1-4.895,7.139,28.2,28.2,0,0,1-3.35-.641,8.353,8.353,0,0,0-9.145,6.251,11.066,11.066,0,0,0-1.456-3.239,3.746,3.746,0,0,0-3-1.651,4.208,4.208,0,0,0-2.892,1.662c-.742.871-1.3,1.888-2.047,2.755-2.194,2.543-5.161,8.475-8.288,8.042C419.437,161.5,415.4,155.109,414.709,152.217Z" transform="translate(-301.031 -127.607)" fill="#2f2e41"/><path d="M571.224,320.063a3.291,3.291,0,0,0-2.218-3.623l-45.4-15.121a3.29,3.29,0,0,0-1.353-.155l-11.38,1.076-6.53.619L492.291,304a3.3,3.3,0,0,0-2.945,2.763l-6.118,38.216a3.315,3.315,0,0,0,2.069,3.6l45.876,17.708a3.2,3.2,0,0,0,.667.179,3.292,3.292,0,0,0,1,.008l29.644-4.394a3.285,3.285,0,0,0,2.779-2.768Z" transform="translate(-338.078 -221.102)" fill="#fff"/><path d="M489.706,349.252l45.876,17.707a.414.414,0,0,0,.211.025l29.64-4.393a.408.408,0,0,0,.348-.347L571.741,323a.417.417,0,0,0-.277-.453l-.305-.1-45.1-15.015a.311.311,0,0,0-.063-.015.41.41,0,0,0-.106-.006l-27.756,2.627-2.2.207a.417.417,0,0,0-.367.345L489.447,348.8A.414.414,0,0,0,489.706,349.252Z" transform="translate(-341.446 -224.472)" fill="#6c63ff"/><path d="M508.282,310.034l27.756-2.626a.411.411,0,0,1,.106.005.312.312,0,0,1,.063.015l45.1,15.015-11.9,1.259-4.452.469L552.29,325.51a.9.9,0,0,1-.111,0l-.072-.021Z" transform="translate(-351.595 -224.472)" fill="#2f2e41"/><path d="M485.294,348.576l45.876,17.707a3.1,3.1,0,0,0,.669.175,3.335,3.335,0,0,0,1,.013l29.64-4.393a3.292,3.292,0,0,0,2.781-2.77l5.956-39.245a3.315,3.315,0,0,0-.193-1.715c-.03-.072-.06-.145-.1-.213a3.225,3.225,0,0,0-1.044-1.244,3.291,3.291,0,0,0-.884-.451l-.054-.019-45.346-15.1a4.132,4.132,0,0,0-.566-.138,3.269,3.269,0,0,0-.791-.015l-11.378,1.072-6.529.623L492.288,304a3.272,3.272,0,0,0-1.393.46.613.613,0,0,0-.093.056.557.557,0,0,0-.06.045,3.3,3.3,0,0,0-1.4,2.2l-6.122,38.219A3.319,3.319,0,0,0,485.294,348.576Zm4.864-41.685a2.445,2.445,0,0,1,.586-1.232,2.147,2.147,0,0,1,.312-.3,2.453,2.453,0,0,1,1.072-.5,1.867,1.867,0,0,1,.235-.033l20.292-1.917,9.672-.92c.066-.008.126-.007.186-.01a2.306,2.306,0,0,1,.437.032,1.913,1.913,0,0,1,.39.093l45.4,15.122.1.038a2.472,2.472,0,0,1,1.566,2.675l-5.961,39.249a2.468,2.468,0,0,1-2.08,2.077l-29.645,4.393a2.5,2.5,0,0,1-1.256-.143l-45.876-17.7a2.492,2.492,0,0,1-1.55-2.7Z" transform="translate(-338.075 -221.101)" fill="#3f3d56"/><path d="M499.326,308.673a.4.4,0,0,1,.124-.178.489.489,0,0,1,.06-.041c.019-.007.039-.019.058-.027a.4.4,0,0,1,.288,0l.955.337,46.649,16.456,10.918-1.154,6.109-.644,12.931-1.369,1.156-.121.225-.025a.417.417,0,0,1,.439.3.338.338,0,0,1,.012.066.412.412,0,0,1-.254.425.457.457,0,0,1-.114.031l-1.573.165-12.734,1.346-4.452.469-12.669,1.338a.9.9,0,0,1-.111,0l-.072-.021-47.533-16.763-.161-.057a.311.311,0,0,1-.1-.056A.42.42,0,0,1,499.326,308.673Z" transform="translate(-346.758 -225.007)" fill="#3f3d56"/><path d="M588.514,390.127a.412.412,0,0,1-.343-.469l6.7-44.443a.412.412,0,0,1,.469-.346h0a.412.412,0,0,1,.343.469l-6.7,44.443a.412.412,0,0,1-.469.346Z" transform="translate(-394.625 -244.65)" fill="#3f3d56"/><path d="M620.515,385.079l-4.454.47,5.21-44.074s5.949-1.077,6.108-.645C627.477,341.087,620.558,384.8,620.515,385.079Z" transform="translate(-409.651 -242.421)" fill="#3f3d56"/><path d="M331.11,182.533l-.12,20.1,35.581,13.558,12.778-17.164Z" transform="translate(-178.29 -98.338)" fill="#3f3d56"/><path d="M615.81,308.949a2.446,2.446,0,0,0-1.152-.8l-45.4-15.122a2.355,2.355,0,0,0-.391-.1,2.307,2.307,0,0,0-.438-.033l.074-.46.454-.329,10.781-7.805,36,11.034.063,12.48Z" transform="translate(-383.994 -212.028)" fill="#3f3d56"/><path d="M502.945,380.076a.7.7,0,0,1,.15.032l13.93,4.575a.692.692,0,0,1-.432,1.315l-13.93-4.575a.692.692,0,0,1,.281-1.347Z" transform="translate(-348.312 -263.615)" fill="#fff"/><circle cx="5.536" cy="5.536" r="5.536" transform="translate(205.299 189.705)" fill="#f2f2f2"/><circle cx="5.536" cy="5.536" r="5.536" transform="translate(64.128 210.004)" fill="#f2f2f2"/><circle cx="5.536" cy="5.536" r="5.536" transform="translate(179.464 26.852)" fill="#f2f2f2"/><path d="M558.68,382.266a5.351,5.351,0,0,1-7.339-3.671l-18.921-1.911,6.242-7.661,17.01,2.99a5.38,5.38,0,0,1,3.007,10.254Z" transform="translate(-364.597 -257.662)" fill="#ffb8b8"/><path d="M471.977,315.755l-44.154-4.068-.061-.07-32.225-36.924a15.206,15.206,0,0,1,3.7-20.54h0a15.189,15.189,0,0,1,22.211,4.71l19.848,34.852,31.171,12.524Z" transform="translate(-289.531 -194.191)" fill="#a31e23"/><path d="M755.486,204.264c-1.1-8.043-2.472-16.678-8.145-22.484a19.076,19.076,0,0,0-27.562.285c-4.129,4.405-5.953,10.591-6.12,16.627s1.177,12,2.669,17.856a55.034,55.034,0,0,0,22.968-4.521,37.008,37.008,0,0,1,5.507-2.162c1.914-.487,3.278.739,5.058,1.593l.977-1.871c.8,1.489,3.277,1.047,4.175-.384S755.714,205.938,755.486,204.264Z" transform="translate(-462.215 -153.708)" fill="#2f2e41"/><path d="M687.783,315.746l-32.237.689a5.1,5.1,0,1,0-2.279,7.185c4.276.243,37.725,4.99,39.72,1.931,2.025-3.105,12.836-14.065,12.836-14.065l-8.31-11.831Z" transform="translate(-425.794 -220.298)" fill="#9e616a"/><circle cx="15.146" cy="15.146" r="15.146" transform="translate(254.698 28.221)" fill="#9e616a"/><path d="M599.361,299.184" transform="translate(-400.655 -220.043)" fill="#6c63ff"/><path d="M763.488,273.9c-1.785-3.552-2.652-7.941-6.457-9.092-2.569-.778-12.962.388-15.3,1.7-3.9,2.184-.365,6.275-2.663,10.1-2.5,4.163-9.288,12.516-11.786,16.679-1.717,2.862,4.068,11.261,3.139,14.467a13.064,13.064,0,0,0,.609,9.742c1.416,2.63-.633,4.957.791,7.583,1.481,2.731,3.3,12.942,1.92,15.726l-.923,2.768c9.156.538,16.855-10.4,25.954-11.553,2.26-.286,4.607-.66,6.469-1.972,2.743-1.932,3.828-5.439,4.506-8.725A73.5,73.5,0,0,0,763.488,273.9Z" transform="translate(-469.386 -201.393)" fill="#ed1e24"/><path d="M793.8,343.782c-1.275-3.481-3.584-18.7-3.584-18.7l-14.451-.424,7.065,17.426-19.28,26.99.1.165a5.1,5.1,0,1,0,4.276,5.418.352.352,0,0,0,.442-.076C770.514,371.888,795.075,347.263,793.8,343.782Z" transform="translate(-485.969 -233.765)" fill="#9e616a"/><path d="M808.521,306.686a103.7,103.7,0,0,0-4.9-16.528,34.724,34.724,0,0,0-9.94-13.889,11.625,11.625,0,0,0-4.854-2.511,5.6,5.6,0,0,0-5.106,1.375c-2.028,2.133-1.418,5.557-.674,8.4l6.58,25.19,19-2.014Z" transform="translate(-499.221 -206.281)" fill="#a31e23"/><path d="M746.766,200.94a52.554,52.554,0,0,0-2.451-10.809,17.468,17.468,0,0,0-6.453-8.636c-4.8-3.094-11.009-2.5-16.387-.718a24.86,24.86,0,0,0-11.153,6.832c-2.933,3.364-4.581,8.163-3.49,12.561l17.212-4.067-.628.444a13.857,13.857,0,0,1,7.4,9.639,14.358,14.358,0,0,1-3.029,11.925l11.739-4.164c2.415-.857,5-1.844,6.432-4.042C747.615,207.357,747.229,203.98,746.766,200.94Z" transform="translate(-458.363 -155.471)" fill="#2f2e41"/></g><path d="M91.974,41.188c.866-6.279-7.981-11.443-14.67-11.971-3.169-.264-6.47.22-9.477-.822-6.514-2.274-9.11-10.695-15.462-13.365-4.753-2.01-10.269-.22-14.832,2.1s-9.169,5.237-14.3,5.56c-4.489.293-9.345-1.379-13.2.822-2.934,1.628-4.4,4.988-7.13,6.968s-6.073,2.347-9.33,2.538-6.69.205-9.624,1.57-5.443,4.5-4.812,7.717Z" transform="translate(1098.967 275.881)" fill="#f5f5f5"/><path d="M91.974,41.188c.866-6.279-7.981-11.443-14.67-11.971-3.169-.264-6.47.22-9.477-.822-6.514-2.274-9.11-10.695-15.462-13.365-4.753-2.01-10.269-.22-14.832,2.1s-9.169,5.237-14.3,5.56c-4.489.293-9.345-1.379-13.2.822-2.934,1.628-4.4,4.988-7.13,6.968s-6.073,2.347-9.33,2.538-6.69.205-9.624,1.57-5.443,4.5-4.812,7.717Z" transform="translate(682.967 289.881)" fill="#f5f5f5"/></g></svg>