<svg xmlns="http://www.w3.org/2000/svg" width="14.971" height="11.531" viewBox="0 0 14.971 11.531"><defs><style>.a{fill:#707070;stroke:#707070;stroke-width:0.6px;}</style></defs><path class="a" d="M456.758,206.415v-.826a1.311,1.311,0,0,0-1.347-1.269h-.564v-1.051A1.311,1.311,0,0,0,453.5,202h-9.11a1.311,1.311,0,0,0-1.347,1.269v8.394a1.311,1.311,0,0,0,1.347,1.269h11.021a1.311,1.311,0,0,0,1.347-1.269v-.952a.96.96,0,0,0,.655-.909v-2.478A.96.96,0,0,0,456.758,206.415Zm-.826,5.248a.488.488,0,0,1-.521.443H444.39a.488.488,0,0,1-.522-.443v-8.394a.488.488,0,0,1,.522-.443h9.11a.488.488,0,0,1,.522.443v1.051h-8.827v.826h10.217a.488.488,0,0,1,.521.443v.776h-1.978a2.2,2.2,0,1,0,0,4.4h1.978Zm.655-1.861a.134.134,0,0,1-.133.133h-2.5a1.372,1.372,0,1,1,0-2.745h2.5a.134.134,0,0,1,.133.133Z" transform="translate(-442.743 -201.7)"/></svg>