<svg xmlns="http://www.w3.org/2000/svg" width="74.496" height="88.033" viewBox="0 0 74.496 88.033"><defs><style>.a,.o{opacity:0.31;}.a{mix-blend-mode:overlay;}.a,.d,.k,.s,.w{isolation:isolate;}.b{fill:#b0f3f9;}.c,.d{fill:#f2523d;}.d,.k{opacity:0.52;}.d,.k,.s,.w{mix-blend-mode:multiply;}.e{fill:#fff;}.f{fill:#87d0d8;}.g{fill:#9fd9e0;}.h{fill:#8e221c;}.i,.k{fill:#a12b21;}.j{fill:#6d1313;}.l{fill:#861915;}.m{fill:#f4da9f;}.n{fill:none;stroke:#f2523d;stroke-miterlimit:10;}.p{fill:#fc6559;}.q{fill:#d0f9fc;}.r,.s{fill:#8cb450;}.s{opacity:0.48;}.t{fill:#4c8943;}.u{fill:#614831;}.v{fill:#807359;}.w{opacity:0.5;}.x{fill:#ffb2a8;}.y{fill:#084596;}.z{fill:#eb9076;}.aa{fill:#053473;}.ab{fill:#ff5876;}.ac{fill:#f74363;}.ad{fill:#2d2d7a;}.ae{fill:#000062;}.af{fill:#fed296;}.ag{fill:#e33453;}.ah{fill:#ffbf69;}.ai{fill:#feb149;}.aj{fill:#bfd772;}</style></defs><g transform="translate(-133.862 -206.967)"><g class="a" transform="translate(121.641 181.967)"><path class="b" d="M134,25.211V25" transform="translate(-109.186)"/><path class="b" d="M134,25.211V25" transform="translate(-109.186)"/><path class="b" d="M134,25.211V25" transform="translate(-109.186)"/><g transform="translate(12.22 43.837)"><rect class="c" width="70.685" height="43.979" transform="translate(1.905 21.737)"/><path class="d" d="M154.686,216.968a119.885,119.885,0,0,1-10.961,12.33,200.189,200.189,0,0,1-17.477,14.47c-6.19,4.749-12.24,9.661-18.255,14.629q-1.542,1.274-3.083,2.55h66.145V216.968Z" transform="translate(-98.465 -195.231)"/><path class="d" d="M258.009,241.261c-4.523,4.949-9.52,9.4-14.418,13.964-4.953,4.617-9.88,9.265-14.99,13.709l-.156.134h40.035v-41.8A83.6,83.6,0,0,1,258.009,241.261Z" transform="translate(-195.89 -203.354)"/><rect class="e" width="40.824" height="19.186" transform="translate(5.814 33.996)"/><rect class="f" width="18.177" height="39.101" transform="translate(45.777 34.425) rotate(90)"/><path class="g" d="M107.808,288.876c3.351-2.537,6.829-4.9,10.273-7.31a.8.8,0,0,1,.289-.128q2.591-1.632,5.171-3.28H105.982v12.131Q106.889,289.574,107.808,288.876Z" transform="translate(-99.31 -243.488)"/><path class="g" d="M116.425,289.034c5.3-3.857,10.8-7.437,16.376-10.876H127c-2.814,1.777-5.613,3.575-8.432,5.343a.881.881,0,0,1-.127.065c-3.255,2.271-6.532,4.513-9.7,6.908q-1.4,1.06-2.761,2.171V296h1.164C110.221,293.652,113.3,291.31,116.425,289.034Z" transform="translate(-99.31 -243.488)"/><path class="g" d="M187.387,293.459c3.041-2.085,6.178-4.025,9.272-6.03q1.728-1.119,3.453-2.242v-2.58q-3.811,2.5-7.576,5.073c-5.627,3.825-11.46,7.471-16.706,11.826h3.8A70.7,70.7,0,0,1,187.387,293.459Z" transform="translate(-154.395 -246.998)"/><path class="g" d="M213.526,316.172c3.853-2.943,7.65-5.977,11.238-9.242v-1.68l-2.24,1.455c-5.24,3.4-10.661,6.624-15.435,10.659h6.128A1,1,0,0,1,213.526,316.172Z" transform="translate(-179.047 -264.854)"/><path class="g" d="M244.469,332.885h9.775v-7.953C251.094,327.711,247.8,330.33,244.469,332.885Z" transform="translate(-208.527 -280.376)"/><path class="g" d="M142.441,289.178c5.385-3.728,10.8-7.429,16.288-11.02h-6.682q-5.011,3.053-9.949,6.228c-5.61,3.6-10.955,7.58-16.258,11.612h7.729A96.886,96.886,0,0,1,142.441,289.178Z" transform="translate(-114.971 -243.488)"/><rect class="h" width="8.415" height="2.397" transform="translate(11.496 56.946)"/><rect class="i" width="8.415" height="2.397" transform="translate(21.519 56.946)"/><rect class="i" width="8.415" height="2.397" transform="translate(35.84 30.536)"/><rect class="h" width="8.415" height="2.397" transform="translate(24.989 30.536)"/><rect class="i" width="5.635" height="2.397" transform="translate(1.905 30.536)"/><rect class="i" width="8.415" height="2.397" transform="translate(15.704 60.43)"/><g transform="translate(9.005)"><rect class="c" width="56.052" height="12.778"/><rect class="j" width="11.202" height="54.319" transform="translate(55.16 0.819) rotate(90)"/><path class="k" d="M273.879,126.656q-2.61,1.188-5.24,2.336h23.136V117.9h-.2Q282.875,122.57,273.879,126.656Z" transform="translate(-236.594 -117.105)"/><rect class="l" width="1.907" height="2.191" transform="translate(3.052 12.778)"/><rect class="l" width="1.907" height="2.191" transform="translate(50.746 12.778)"/><g transform="translate(7.283 4.386)"><path class="m" d="M154.979,136.4a1.1,1.1,0,0,1-.244.725,1.254,1.254,0,0,1-.682.4l.792,1.622h.548v.56h-1.006l-.991-2.09h-.628v1.53h.572v.56h-1.858v-.56h.607v-3.367h-.607v-.56h1.864a2.145,2.145,0,0,1,1.25.283A1.036,1.036,0,0,1,154.979,136.4Zm-.7-.012a.533.533,0,0,0-.2-.458,1.052,1.052,0,0,0-.622-.146h-.694v1.274h.652a1.118,1.118,0,0,0,.649-.152A.6.6,0,0,0,154.279,136.392Z" transform="translate(-151.481 -135.154)"/><path class="m" d="M173.954,136.538v-.75h-1.92v1.337h1.67v.56h-1.67v1.471h1.92v-.819h.554v1.378h-3.73v-.56h.577v-3.367h-.577v-.56h3.73v1.31Z" transform="translate(-166.699 -135.154)"/><path class="m" d="M192.8,135.23v-.307h.548v1.361H192.8v-.31a1.087,1.087,0,0,0-.953-.524.924.924,0,0,0-.566.149.505.505,0,0,0-.2.429.478.478,0,0,0,.186.408,1.644,1.644,0,0,0,.57.238l.527.14a2.055,2.055,0,0,1,.773.354,1.045,1.045,0,0,1,.351.468,1.741,1.741,0,0,1,.082.551,1.263,1.263,0,0,1-.381.967,1.433,1.433,0,0,1-1.021.357,1.628,1.628,0,0,1-1.111-.447v.372h-.56V137.8h.56v.4a1.19,1.19,0,0,0,1.048.738.826.826,0,0,0,.587-.2.716.716,0,0,0,.208-.549q0-.482-.679-.67l-.56-.158a2.006,2.006,0,0,1-.893-.467,1.062,1.062,0,0,1-.289-.777,1.194,1.194,0,0,1,.35-.918,1.362,1.362,0,0,1,.966-.326A1.617,1.617,0,0,1,192.8,135.23Z" transform="translate(-182.239 -134.876)"/><path class="m" d="M210.125,136.868v-1.081H209.2v3.367h.584v.56h-1.834v-.56h.572v-3.367h-.92v1.081h-.554v-1.64h3.632v1.64Z" transform="translate(-195.303 -135.154)"/><path class="m" d="M226.318,135.77l1.215,3.385h.5v.56h-1.768v-.56h.587l-.348-1.018h-1.628l-.348,1.018h.569v.56h-1.78v-.56h.542l1.209-3.385h-.539v-.542h2.331v.542Zm-.613,0h-.021l-.634,1.84h1.274Z" transform="translate(-208.131 -135.154)"/><path class="m" d="M246.843,135.788v2.286a1.382,1.382,0,0,0,.231.884.828.828,0,0,0,.677.28.857.857,0,0,0,.689-.277,1.344,1.344,0,0,0,.237-.881v-2.292h-.524v-.56h1.756v.56h-.56v2.355a1.7,1.7,0,0,1-.406,1.225,1.9,1.9,0,0,1-2.382,0,1.778,1.778,0,0,1-.4-1.267v-2.316h-.554v-.56h1.762v.56Z" transform="translate(-225.716 -135.154)"/><path class="m" d="M270.378,136.4a1.1,1.1,0,0,1-.244.725,1.252,1.252,0,0,1-.682.4l.792,1.622h.548v.56h-1.006l-.992-2.09h-.628v1.53h.572v.56H266.88v-.56h.607v-3.367h-.607v-.56h1.863a2.144,2.144,0,0,1,1.25.283A1.035,1.035,0,0,1,270.378,136.4Zm-.7-.012a.533.533,0,0,0-.2-.458,1.052,1.052,0,0,0-.622-.146h-.694v1.274h.652a1.117,1.117,0,0,0,.649-.152A.6.6,0,0,0,269.678,136.392Z" transform="translate(-242.489 -135.154)"/><path class="m" d="M289.18,135.77l1.215,3.385h.5v.56h-1.768v-.56h.587l-.348-1.018h-1.628l-.349,1.018h.569v.56h-1.78v-.56h.542l1.209-3.385h-.539v-.542h2.331v.542Zm-.613,0h-.021l-.634,1.84h1.274Z" transform="translate(-257.707 -135.154)"/><path class="m" d="M313.1,135.788h-.64v-.56h1.84v.56h-.658v3.974h-.7l-2.152-3.834v3.227h.643v.56H309.6v-.56h.64v-3.367h-.64v-.56h1.53l1.971,3.486Z" transform="translate(-276.18 -135.154)"/><path class="m" d="M336.51,136.868v-1.081h-.926v3.367h.584v.56h-1.834v-.56h.572v-3.367h-.92v1.081h-.554v-1.64h3.632v1.64Z" transform="translate(-294.975 -135.154)"/></g></g><g transform="translate(0 14.969)"><rect class="j" width="74.496" height="6.945" transform="translate(0 0)"/><path class="k" d="M229.368,185.426c-6.554,2.06-13.194,3.769-19.893,5.3q-2.638.6-5.286,1.164h47.067v-6.945H230.875C230.372,185.108,229.871,185.268,229.368,185.426Z" transform="translate(-176.761 -184.949)"/><path class="m" d="M93.226,196.95a1.165,1.165,0,1,1-1.165-1.165A1.165,1.165,0,0,1,93.226,196.95Z" transform="translate(-87.413 -193.495)"/><path class="m" d="M121.1,196.95a1.165,1.165,0,1,1-1.165-1.165A1.165,1.165,0,0,1,121.1,196.95Z" transform="translate(-109.392 -193.495)"/><path class="m" d="M148.965,196.95a1.165,1.165,0,1,1-1.165-1.165A1.165,1.165,0,0,1,148.965,196.95Z" transform="translate(-131.371 -193.495)"/><path class="m" d="M176.835,196.95a1.165,1.165,0,1,1-1.165-1.165A1.165,1.165,0,0,1,176.835,196.95Z" transform="translate(-153.35 -193.495)"/><path class="m" d="M204.7,196.95a1.165,1.165,0,1,1-1.165-1.165A1.165,1.165,0,0,1,204.7,196.95Z" transform="translate(-175.329 -193.495)"/><path class="m" d="M232.574,196.95a1.165,1.165,0,1,1-1.165-1.165A1.165,1.165,0,0,1,232.574,196.95Z" transform="translate(-197.308 -193.495)"/><path class="m" d="M260.443,196.95a1.165,1.165,0,1,1-1.165-1.165A1.165,1.165,0,0,1,260.443,196.95Z" transform="translate(-219.287 -193.495)"/><path class="m" d="M288.313,196.95a1.165,1.165,0,1,1-1.165-1.165A1.165,1.165,0,0,1,288.313,196.95Z" transform="translate(-241.266 -193.495)"/><path class="m" d="M316.182,196.95a1.165,1.165,0,1,1-1.165-1.165A1.165,1.165,0,0,1,316.182,196.95Z" transform="translate(-263.245 -193.495)"/><path class="m" d="M344.052,196.95a1.165,1.165,0,1,1-1.165-1.165A1.165,1.165,0,0,1,344.052,196.95Z" transform="translate(-285.224 -193.495)"/><path class="m" d="M371.921,196.95a1.165,1.165,0,1,1-1.165-1.165A1.165,1.165,0,0,1,371.921,196.95Z" transform="translate(-307.203 -193.495)"/><path class="m" d="M399.791,196.95a1.165,1.165,0,1,1-1.165-1.165A1.165,1.165,0,0,1,399.791,196.95Z" transform="translate(-329.183 -193.495)"/></g><g transform="translate(61.263 51.334)"><line class="n" y2="2.114" transform="translate(3.219)"/><g transform="translate(0 1.595)"><rect class="f" width="6.461" height="2.692"/></g></g><g class="o" transform="translate(8.536 46.056)"><rect class="i" width="5.863" height="3.076" transform="translate(5.416 3.378)"/><rect class="c" width="10.901" height="1.705" transform="translate(2.897 2.984)"/><path class="i" d="M116.707,332.7l-1.906-.673v6.454h1.906Z" transform="translate(-114.802 -332.028)"/><path class="i" d="M186.9,332.028l-1.906.841v5.612H186.9Z" transform="translate(-170.157 -332.028)"/></g><g class="o" transform="translate(27.469 46.056)"><rect class="i" width="5.863" height="3.076" transform="translate(5.416 3.378)"/><rect class="c" width="10.901" height="1.705" transform="translate(2.897 2.984)"/><path class="i" d="M206.286,332.7l-1.906-.673v6.454h1.906Z" transform="translate(-204.381 -332.028)"/><path class="i" d="M276.477,332.028l-1.906.841v5.612h1.906Z" transform="translate(-259.736 -332.028)"/></g><path class="l" d="M146.174,235.9a.906.906,0,0,0,.015-.193,1.165,1.165,0,1,0-2.33,0,.857.857,0,0,0,.015.189h-1.6a.907.907,0,0,0,.015-.193,1.165,1.165,0,1,0-2.33,0,.856.856,0,0,0,.015.189h-1.6a.9.9,0,0,0,.015-.193,1.165,1.165,0,1,0-2.33,0,.853.853,0,0,0,.015.189h-1.605a.887.887,0,0,0,.015-.193,1.165,1.165,0,1,0-2.33,0,.856.856,0,0,0,.015.189h-1.6a.906.906,0,0,0,.015-.193,1.165,1.165,0,1,0-2.33,0,.857.857,0,0,0,.015.189h-1.6a.907.907,0,0,0,.015-.193,1.165,1.165,0,1,0-2.33,0,.855.855,0,0,0,.015.189h-1.6a.908.908,0,0,0,.015-.193,1.165,1.165,0,1,0-2.33,0,.84.84,0,0,0,.015.189h-1.605a.888.888,0,0,0,.015-.193,1.165,1.165,0,1,0-2.33,0,.856.856,0,0,0,.015.189h-1.6a.906.906,0,0,0,.015-.193,1.165,1.165,0,1,0-2.33,0,.856.856,0,0,0,.015.189h-1.6a.905.905,0,0,0,.015-.193,1.165,1.165,0,1,0-2.33,0,.856.856,0,0,0,.015.189h-1.6a.906.906,0,0,0,.015-.193,1.165,1.165,0,1,0-2.33,0,.853.853,0,0,0,.015.189h-1.605a.888.888,0,0,0,.015-.193,1.165,1.165,0,1,0-2.33,0,.857.857,0,0,0,.015.189H99.3a.906.906,0,0,0,.015-.193,1.165,1.165,0,1,0-2.33,0A.856.856,0,0,0,97,235.9h-1.6a.906.906,0,0,0,.015-.193,1.165,1.165,0,1,0-2.33,0,.856.856,0,0,0,.015.189h-1.6a.907.907,0,0,0,.015-.193,1.165,1.165,0,1,0-2.33,0,.852.852,0,0,0,.015.189H87.583a.887.887,0,0,0,.015-.193,1.165,1.165,0,1,0-2.33,0,.857.857,0,0,0,.015.189h-1.6a.906.906,0,0,0,.015-.193,1.165,1.165,0,1,0-2.33,0,.856.856,0,0,0,.015.189h-1.6a.905.905,0,0,0,.015-.193,1.165,1.165,0,1,0-2.33,0,.856.856,0,0,0,.015.189H75v2.325h74.187V235.9Z" transform="translate(-74.876 -209.082)"/><rect class="c" width="70.685" height="43.979" transform="translate(1.905 21.737)"/><path class="d" d="M154.686,216.968a119.885,119.885,0,0,1-10.961,12.33,200.189,200.189,0,0,1-17.477,14.47c-6.19,4.749-12.24,9.661-18.255,14.629q-1.542,1.274-3.083,2.55h66.145V216.968Z" transform="translate(-98.465 -195.231)"/><path class="d" d="M258.009,241.261c-4.523,4.949-9.52,9.4-14.418,13.964-4.953,4.617-9.88,9.265-14.99,13.709l-.156.134h40.035v-41.8A83.6,83.6,0,0,1,258.009,241.261Z" transform="translate(-195.89 -203.354)"/><rect class="e" width="40.824" height="19.186" transform="translate(5.814 33.996)"/><rect class="f" width="18.177" height="39.101" transform="translate(45.777 34.425) rotate(90)"/><path class="g" d="M107.808,288.876c3.351-2.537,6.829-4.9,10.273-7.31a.8.8,0,0,1,.289-.128q2.591-1.632,5.171-3.28H105.982v12.131Q106.889,289.574,107.808,288.876Z" transform="translate(-99.31 -243.488)"/><path class="g" d="M116.425,289.034c5.3-3.857,10.8-7.437,16.376-10.876H127c-2.814,1.777-5.613,3.575-8.432,5.343a.881.881,0,0,1-.127.065c-3.255,2.271-6.532,4.513-9.7,6.908q-1.4,1.06-2.761,2.171V296h1.164C110.221,293.652,113.3,291.31,116.425,289.034Z" transform="translate(-99.31 -243.488)"/><path class="g" d="M187.387,293.459c3.041-2.085,6.178-4.025,9.272-6.03q1.728-1.119,3.453-2.242v-2.58q-3.811,2.5-7.576,5.073c-5.627,3.825-11.46,7.471-16.706,11.826h3.8A70.7,70.7,0,0,1,187.387,293.459Z" transform="translate(-154.395 -246.998)"/><path class="g" d="M213.526,316.172c3.853-2.943,7.65-5.977,11.238-9.242v-1.68l-2.24,1.455c-5.24,3.4-10.661,6.624-15.435,10.659h6.128A1,1,0,0,1,213.526,316.172Z" transform="translate(-179.047 -264.854)"/><path class="g" d="M244.469,332.885h9.775v-7.953C251.094,327.711,247.8,330.33,244.469,332.885Z" transform="translate(-208.527 -280.376)"/><path class="g" d="M142.441,289.178c5.385-3.728,10.8-7.429,16.288-11.02h-6.682q-5.011,3.053-9.949,6.228c-5.61,3.6-10.955,7.58-16.258,11.612h7.729A96.886,96.886,0,0,1,142.441,289.178Z" transform="translate(-114.971 -243.488)"/><rect class="h" width="8.415" height="2.397" transform="translate(11.496 56.946)"/><rect class="i" width="8.415" height="2.397" transform="translate(21.519 56.946)"/><rect class="i" width="8.415" height="2.397" transform="translate(35.84 30.536)"/><rect class="h" width="8.415" height="2.397" transform="translate(24.989 30.536)"/><rect class="i" width="5.635" height="2.397" transform="translate(1.905 30.536)"/><rect class="i" width="8.415" height="2.397" transform="translate(15.704 60.43)"/><g transform="translate(0 14.969)"><rect class="j" width="74.496" height="6.945" transform="translate(0 0)"/><path class="k" d="M229.368,185.426c-6.554,2.06-13.194,3.769-19.893,5.3q-2.638.6-5.286,1.164h47.067v-6.945H230.875C230.372,185.108,229.871,185.268,229.368,185.426Z" transform="translate(-176.761 -184.949)"/><path class="m" d="M93.226,196.95a1.165,1.165,0,1,1-1.165-1.165A1.165,1.165,0,0,1,93.226,196.95Z" transform="translate(-87.413 -193.495)"/><path class="m" d="M121.1,196.95a1.165,1.165,0,1,1-1.165-1.165A1.165,1.165,0,0,1,121.1,196.95Z" transform="translate(-109.392 -193.495)"/><path class="m" d="M148.965,196.95a1.165,1.165,0,1,1-1.165-1.165A1.165,1.165,0,0,1,148.965,196.95Z" transform="translate(-131.371 -193.495)"/><path class="m" d="M176.835,196.95a1.165,1.165,0,1,1-1.165-1.165A1.165,1.165,0,0,1,176.835,196.95Z" transform="translate(-153.35 -193.495)"/><path class="m" d="M204.7,196.95a1.165,1.165,0,1,1-1.165-1.165A1.165,1.165,0,0,1,204.7,196.95Z" transform="translate(-175.329 -193.495)"/><path class="m" d="M232.574,196.95a1.165,1.165,0,1,1-1.165-1.165A1.165,1.165,0,0,1,232.574,196.95Z" transform="translate(-197.308 -193.495)"/><path class="m" d="M260.443,196.95a1.165,1.165,0,1,1-1.165-1.165A1.165,1.165,0,0,1,260.443,196.95Z" transform="translate(-219.287 -193.495)"/><path class="m" d="M288.313,196.95a1.165,1.165,0,1,1-1.165-1.165A1.165,1.165,0,0,1,288.313,196.95Z" transform="translate(-241.266 -193.495)"/><path class="m" d="M316.182,196.95a1.165,1.165,0,1,1-1.165-1.165A1.165,1.165,0,0,1,316.182,196.95Z" transform="translate(-263.245 -193.495)"/><path class="m" d="M344.052,196.95a1.165,1.165,0,1,1-1.165-1.165A1.165,1.165,0,0,1,344.052,196.95Z" transform="translate(-285.224 -193.495)"/><path class="m" d="M371.921,196.95a1.165,1.165,0,1,1-1.165-1.165A1.165,1.165,0,0,1,371.921,196.95Z" transform="translate(-307.203 -193.495)"/><path class="m" d="M399.791,196.95a1.165,1.165,0,1,1-1.165-1.165A1.165,1.165,0,0,1,399.791,196.95Z" transform="translate(-329.183 -193.495)"/></g><g transform="translate(61.263 51.334)"><line class="n" y2="2.114" transform="translate(3.219)"/><g transform="translate(0 1.595)"><rect class="f" width="6.461" height="2.692"/></g></g><g class="o" transform="translate(8.536 46.056)"><rect class="i" width="5.863" height="3.076" transform="translate(5.416 3.378)"/><rect class="c" width="10.901" height="1.705" transform="translate(2.897 2.984)"/><path class="i" d="M116.707,332.7l-1.906-.673v6.454h1.906Z" transform="translate(-114.802 -332.028)"/><path class="i" d="M186.9,332.028l-1.906.841v5.612H186.9Z" transform="translate(-170.157 -332.028)"/></g><g class="o" transform="translate(27.469 46.056)"><rect class="i" width="5.863" height="3.076" transform="translate(5.416 3.378)"/><rect class="c" width="10.901" height="1.705" transform="translate(2.897 2.984)"/><path class="i" d="M206.286,332.7l-1.906-.673v6.454h1.906Z" transform="translate(-204.381 -332.028)"/><path class="i" d="M276.477,332.028l-1.906.841v5.612h1.906Z" transform="translate(-259.736 -332.028)"/></g><path class="l" d="M146.174,235.9a.906.906,0,0,0,.015-.193,1.165,1.165,0,1,0-2.33,0,.857.857,0,0,0,.015.189h-1.6a.907.907,0,0,0,.015-.193,1.165,1.165,0,1,0-2.33,0,.856.856,0,0,0,.015.189h-1.6a.9.9,0,0,0,.015-.193,1.165,1.165,0,1,0-2.33,0,.853.853,0,0,0,.015.189h-1.605a.887.887,0,0,0,.015-.193,1.165,1.165,0,1,0-2.33,0,.856.856,0,0,0,.015.189h-1.6a.906.906,0,0,0,.015-.193,1.165,1.165,0,1,0-2.33,0,.857.857,0,0,0,.015.189h-1.6a.907.907,0,0,0,.015-.193,1.165,1.165,0,1,0-2.33,0,.855.855,0,0,0,.015.189h-1.6a.908.908,0,0,0,.015-.193,1.165,1.165,0,1,0-2.33,0,.84.84,0,0,0,.015.189h-1.605a.888.888,0,0,0,.015-.193,1.165,1.165,0,1,0-2.33,0,.856.856,0,0,0,.015.189h-1.6a.906.906,0,0,0,.015-.193,1.165,1.165,0,1,0-2.33,0,.856.856,0,0,0,.015.189h-1.6a.905.905,0,0,0,.015-.193,1.165,1.165,0,1,0-2.33,0,.856.856,0,0,0,.015.189h-1.6a.906.906,0,0,0,.015-.193,1.165,1.165,0,1,0-2.33,0,.853.853,0,0,0,.015.189h-1.605a.888.888,0,0,0,.015-.193,1.165,1.165,0,1,0-2.33,0,.857.857,0,0,0,.015.189H99.3a.906.906,0,0,0,.015-.193,1.165,1.165,0,1,0-2.33,0A.856.856,0,0,0,97,235.9h-1.6a.906.906,0,0,0,.015-.193,1.165,1.165,0,1,0-2.33,0,.856.856,0,0,0,.015.189h-1.6a.907.907,0,0,0,.015-.193,1.165,1.165,0,1,0-2.33,0,.852.852,0,0,0,.015.189H87.583a.887.887,0,0,0,.015-.193,1.165,1.165,0,1,0-2.33,0,.857.857,0,0,0,.015.189h-1.6a.906.906,0,0,0,.015-.193,1.165,1.165,0,1,0-2.33,0,.856.856,0,0,0,.015.189h-1.6a.905.905,0,0,0,.015-.193,1.165,1.165,0,1,0-2.33,0,.856.856,0,0,0,.015.189H75v2.325h74.187V235.9Z" transform="translate(-74.876 -209.082)"/><g transform="translate(1.905 21.737)"><rect class="c" width="70.685" height="43.979" transform="translate(0 0)"/><path class="d" d="M154.686,216.968a119.885,119.885,0,0,1-10.961,12.33,200.189,200.189,0,0,1-17.477,14.47c-6.19,4.749-12.24,9.661-18.255,14.629q-1.542,1.274-3.083,2.55h66.145V216.968Z" transform="translate(-100.371 -216.968)"/><path class="d" d="M258.009,241.261c-4.523,4.949-9.52,9.4-14.418,13.964-4.953,4.617-9.88,9.265-14.99,13.709l-.156.134h40.035v-41.8A83.6,83.6,0,0,1,258.009,241.261Z" transform="translate(-197.796 -225.09)"/></g><rect class="e" width="40.824" height="19.186" transform="translate(5.814 33.996)"/><rect class="f" width="18.177" height="39.101" transform="translate(45.777 34.425) rotate(90)"/><rect class="h" width="8.415" height="2.397" transform="translate(11.496 56.946)"/><rect class="i" width="8.415" height="2.397" transform="translate(21.519 56.946)"/><rect class="i" width="8.415" height="2.397" transform="translate(35.84 30.536)"/><rect class="h" width="8.415" height="2.397" transform="translate(24.989 30.536)"/><rect class="i" width="5.635" height="2.397" transform="translate(1.905 30.536)"/><rect class="i" width="8.415" height="2.397" transform="translate(15.704 60.43)"/><g transform="translate(0 14.969)"><rect class="j" width="74.496" height="6.945" transform="translate(0 0)"/><path class="k" d="M229.368,185.426c-6.554,2.06-13.194,3.769-19.893,5.3q-2.638.6-5.286,1.164h47.067v-6.945H230.875C230.372,185.108,229.871,185.268,229.368,185.426Z" transform="translate(-176.761 -184.949)"/><path class="m" d="M93.226,196.95a1.165,1.165,0,1,1-1.165-1.165A1.165,1.165,0,0,1,93.226,196.95Z" transform="translate(-87.413 -193.495)"/><path class="m" d="M121.1,196.95a1.165,1.165,0,1,1-1.165-1.165A1.165,1.165,0,0,1,121.1,196.95Z" transform="translate(-109.392 -193.495)"/><path class="m" d="M148.965,196.95a1.165,1.165,0,1,1-1.165-1.165A1.165,1.165,0,0,1,148.965,196.95Z" transform="translate(-131.371 -193.495)"/><path class="m" d="M176.835,196.95a1.165,1.165,0,1,1-1.165-1.165A1.165,1.165,0,0,1,176.835,196.95Z" transform="translate(-153.35 -193.495)"/><path class="m" d="M204.7,196.95a1.165,1.165,0,1,1-1.165-1.165A1.165,1.165,0,0,1,204.7,196.95Z" transform="translate(-175.329 -193.495)"/><path class="m" d="M232.574,196.95a1.165,1.165,0,1,1-1.165-1.165A1.165,1.165,0,0,1,232.574,196.95Z" transform="translate(-197.308 -193.495)"/><path class="m" d="M260.443,196.95a1.165,1.165,0,1,1-1.165-1.165A1.165,1.165,0,0,1,260.443,196.95Z" transform="translate(-219.287 -193.495)"/><path class="m" d="M288.313,196.95a1.165,1.165,0,1,1-1.165-1.165A1.165,1.165,0,0,1,288.313,196.95Z" transform="translate(-241.266 -193.495)"/><path class="m" d="M316.182,196.95a1.165,1.165,0,1,1-1.165-1.165A1.165,1.165,0,0,1,316.182,196.95Z" transform="translate(-263.245 -193.495)"/><path class="m" d="M344.052,196.95a1.165,1.165,0,1,1-1.165-1.165A1.165,1.165,0,0,1,344.052,196.95Z" transform="translate(-285.224 -193.495)"/><path class="m" d="M371.921,196.95a1.165,1.165,0,1,1-1.165-1.165A1.165,1.165,0,0,1,371.921,196.95Z" transform="translate(-307.203 -193.495)"/><path class="m" d="M399.791,196.95a1.165,1.165,0,1,1-1.165-1.165A1.165,1.165,0,0,1,399.791,196.95Z" transform="translate(-329.183 -193.495)"/></g><g transform="translate(49.251 33.996)"><rect class="e" width="18.008" height="31.719"/><rect class="i" width="16.217" height="30.878" transform="translate(0.885 0.841)"/><path class="k" d="M321.484,296.034a131.332,131.332,0,0,1-8.43,12.985c-.462.607-.942,1.2-1.429,1.788v3.882h16.216V285.114C325.694,288.737,323.622,292.405,321.484,296.034Z" transform="translate(-310.74 -282.97)"/><path class="k" d="M333.942,334.227a62.089,62.089,0,0,1-5.7,9.989,44.677,44.677,0,0,1-7.82,8.275c-.311.259-.626.513-.942.767h14.556V334.018C334.005,334.087,333.975,334.157,333.942,334.227Z" transform="translate(-316.936 -321.538)"/><rect class="f" width="13.73" height="12.454" transform="translate(2.077 2.356)"/><path class="g" d="M320.656,286.12h-3.393V288.5Q318.94,287.281,320.656,286.12Z" transform="translate(-315.187 -283.764)"/><path class="g" d="M327.771,298.2c-1.043.581-1.975-1.019-.934-1.6,1.392-.775,2.773-1.574,4.156-2.368v-4.1q-5.23,3.444-10.458,6.891c-1,.659-1.924-.944-.934-1.6q5.691-3.761,11.393-7.506V286.12h-7c-2.29,1.484-4.54,3.029-6.731,4.655v7.8h13.73v-2.21C329.921,296.98,328.85,297.595,327.771,298.2Z" transform="translate(-315.187 -283.764)"/><path class="f" d="M379.552,356.867" transform="translate(-364.31 -339.558)"/><g transform="translate(14.446 16.513)"><path class="c" d="M377.379,353.9a.8.8,0,1,1-.8-.8A.8.8,0,0,1,377.379,353.9Z" transform="translate(-375.787 -353.102)"/><path class="p" d="M378.02,354.773a.561.561,0,1,1-.561-.561A.561.561,0,0,1,378.02,354.773Z" transform="translate(-376.663 -353.977)"/></g><rect class="e" width="18.008" height="31.719"/><rect class="i" width="16.217" height="30.878" transform="translate(0.885 0.841)"/><path class="k" d="M321.484,296.034a131.332,131.332,0,0,1-8.43,12.985c-.462.607-.942,1.2-1.429,1.788v3.882h16.216V285.114C325.694,288.737,323.622,292.405,321.484,296.034Z" transform="translate(-310.74 -282.97)"/><path class="k" d="M333.942,334.227a62.089,62.089,0,0,1-5.7,9.989,44.677,44.677,0,0,1-7.82,8.275c-.311.259-.626.513-.942.767h14.556V334.018C334.005,334.087,333.975,334.157,333.942,334.227Z" transform="translate(-316.936 -321.538)"/><rect class="f" width="13.73" height="12.454" transform="translate(2.077 2.356)"/><path class="g" d="M320.656,286.12h-3.393V288.5Q318.94,287.281,320.656,286.12Z" transform="translate(-315.187 -283.764)"/><path class="g" d="M327.771,298.2c-1.043.581-1.975-1.019-.934-1.6,1.392-.775,2.773-1.574,4.156-2.368v-4.1q-5.23,3.444-10.458,6.891c-1,.659-1.924-.944-.934-1.6q5.691-3.761,11.393-7.506V286.12h-7c-2.29,1.484-4.54,3.029-6.731,4.655v7.8h13.73v-2.21C329.921,296.98,328.85,297.595,327.771,298.2Z" transform="translate(-315.187 -283.764)"/><path class="f" d="M379.552,356.867" transform="translate(-364.31 -339.558)"/><g transform="translate(14.446 16.513)"><path class="c" d="M377.379,353.9a.8.8,0,1,1-.8-.8A.8.8,0,0,1,377.379,353.9Z" transform="translate(-375.787 -353.102)"/><path class="p" d="M378.02,354.773a.561.561,0,1,1-.561-.561A.561.561,0,0,1,378.02,354.773Z" transform="translate(-376.663 -353.977)"/></g><rect class="e" width="18.008" height="31.719"/><rect class="i" width="16.217" height="30.878" transform="translate(0.885 0.841)"/><path class="k" d="M321.484,296.034a131.332,131.332,0,0,1-8.43,12.985c-.462.607-.942,1.2-1.429,1.788v3.882h16.216V285.114C325.694,288.737,323.622,292.405,321.484,296.034Z" transform="translate(-310.74 -282.97)"/><path class="k" d="M333.942,334.227a62.089,62.089,0,0,1-5.7,9.989,44.677,44.677,0,0,1-7.82,8.275c-.311.259-.626.513-.942.767h14.556V334.018C334.005,334.087,333.975,334.157,333.942,334.227Z" transform="translate(-316.936 -321.538)"/><rect class="q" width="13.73" height="12.454" transform="translate(2.077 2.356)"/><path class="g" d="M320.656,286.12h-3.393V288.5Q318.94,287.281,320.656,286.12Z" transform="translate(-315.187 -283.764)"/><path class="g" d="M327.771,298.2c-1.043.581-1.975-1.019-.934-1.6,1.392-.775,2.773-1.574,4.156-2.368v-4.1q-5.23,3.444-10.458,6.891c-1,.659-1.924-.944-.934-1.6q5.691-3.761,11.393-7.506V286.12h-7c-2.29,1.484-4.54,3.029-6.731,4.655v7.8h13.73v-2.21C329.921,296.98,328.85,297.595,327.771,298.2Z" transform="translate(-315.187 -283.764)"/><path class="f" d="M379.552,356.867" transform="translate(-364.31 -339.558)"/><g transform="translate(14.446 16.513)"><path class="c" d="M377.379,353.9a.8.8,0,1,1-.8-.8A.8.8,0,0,1,377.379,353.9Z" transform="translate(-375.787 -353.102)"/><path class="p" d="M378.02,354.773a.561.561,0,1,1-.561-.561A.561.561,0,0,1,378.02,354.773Z" transform="translate(-376.663 -353.977)"/></g><g transform="translate(12.011 17.337)"><line class="n" y2="2.114" transform="translate(3.219)"/><g transform="translate(0 1.595)"><rect class="f" width="6.461" height="2.692"/><g transform="translate(1.346 0.991)"><path class="e" d="M371.445,369.639a.4.4,0,0,1-.053.2.4.4,0,0,1-.349.2.406.406,0,0,1-.208-.054.379.379,0,0,1-.144-.147.412.412,0,0,1-.052-.2.419.419,0,0,1,.052-.209.373.373,0,0,1,.143-.144.417.417,0,0,1,.209-.052.392.392,0,0,1,.205.055.4.4,0,0,1,.2.35Zm-.4.259a.229.229,0,0,0,.124-.035.245.245,0,0,0,.088-.094.273.273,0,0,0,.031-.13.268.268,0,0,0-.031-.128.254.254,0,0,0-.088-.1.234.234,0,0,0-.249,0,.25.25,0,0,0-.088.1.273.273,0,0,0,0,.257.246.246,0,0,0,.089.095A.232.232,0,0,0,371.042,369.9Z" transform="translate(-370.638 -369.234)"/><path class="e" d="M375.745,369.68a.421.421,0,0,1-.05.2.38.38,0,0,1-.136.148.35.35,0,0,1-.19.054.364.364,0,0,1-.269-.118v.305h.15v.134h-.44v-.134h.139v-.842h-.129v-.135h.28v.123a.374.374,0,0,1,.126-.1.331.331,0,0,1,.147-.033.355.355,0,0,1,.194.054.37.37,0,0,1,.132.145A.429.429,0,0,1,375.745,369.68Zm-.378.265a.189.189,0,0,0,.113-.037.24.24,0,0,0,.079-.1.316.316,0,0,0,.029-.133.279.279,0,0,0-.031-.131.255.255,0,0,0-.086-.095.224.224,0,0,0-.123-.035.228.228,0,0,0-.129.038.254.254,0,0,0-.088.1.3.3,0,0,0-.031.137.24.24,0,0,0,.075.188A.279.279,0,0,0,375.367,369.945Z" transform="translate(-373.928 -369.272)"/><path class="e" d="M380.581,369.677h-.644a.268.268,0,0,0,.086.174.254.254,0,0,0,.175.064.319.319,0,0,0,.141-.032.274.274,0,0,0,.109-.1l.133.06a.4.4,0,0,1-.165.148.5.5,0,0,1-.222.05.458.458,0,0,1-.221-.052.376.376,0,0,1-.15-.144.435.435,0,0,1,0-.417.383.383,0,0,1,.145-.145.432.432,0,0,1,.415,0,.376.376,0,0,1,.142.153A.542.542,0,0,1,380.581,369.677Zm-.407-.317a.217.217,0,0,0-.15.057.263.263,0,0,0-.083.152h.481a.27.27,0,0,0-.09-.152A.241.241,0,0,0,380.174,369.36Z" transform="translate(-377.84 -369.234)"/><path class="e" d="M384.8,369.544v.382h.129v.134h-.28v-.507a.2.2,0,0,0-.021-.1.076.076,0,0,0-.068-.031.381.381,0,0,0-.227.1v.408h.132v.134h-.416v-.134h.135v-.5h-.135v-.135h.284v.093a.459.459,0,0,1,.265-.1.181.181,0,0,1,.152.064A.323.323,0,0,1,384.8,369.544Z" transform="translate(-381.218 -369.272)"/></g></g></g></g><g class="o" transform="translate(8.536 46.148)"><rect class="i" width="5.863" height="3.076" transform="translate(5.416 3.378)"/><rect class="c" width="10.901" height="1.705" transform="translate(2.897 2.984)"/><path class="i" d="M116.707,333.139l-1.906-.673v6.454h1.906Z" transform="translate(-114.802 -332.466)"/><path class="i" d="M186.9,332.466l-1.906.842v5.612H186.9Z" transform="translate(-170.157 -332.466)"/></g><g class="o" transform="translate(27.469 46.148)"><rect class="i" width="5.863" height="3.076" transform="translate(5.416 3.378)"/><rect class="c" width="10.901" height="1.705" transform="translate(2.897 2.984)"/><path class="i" d="M206.286,333.139l-1.906-.673v6.454h1.906Z" transform="translate(-204.381 -332.466)"/><path class="i" d="M276.477,332.466l-1.906.842v5.612h1.906Z" transform="translate(-259.736 -332.466)"/></g><path class="l" d="M146.174,235.9a.906.906,0,0,0,.015-.193,1.165,1.165,0,1,0-2.33,0,.857.857,0,0,0,.015.189h-1.6a.907.907,0,0,0,.015-.193,1.165,1.165,0,1,0-2.33,0,.856.856,0,0,0,.015.189h-1.6a.9.9,0,0,0,.015-.193,1.165,1.165,0,1,0-2.33,0,.853.853,0,0,0,.015.189h-1.605a.887.887,0,0,0,.015-.193,1.165,1.165,0,1,0-2.33,0,.856.856,0,0,0,.015.189h-1.6a.906.906,0,0,0,.015-.193,1.165,1.165,0,1,0-2.33,0,.857.857,0,0,0,.015.189h-1.6a.907.907,0,0,0,.015-.193,1.165,1.165,0,1,0-2.33,0,.855.855,0,0,0,.015.189h-1.6a.908.908,0,0,0,.015-.193,1.165,1.165,0,1,0-2.33,0,.84.84,0,0,0,.015.189h-1.605a.888.888,0,0,0,.015-.193,1.165,1.165,0,1,0-2.33,0,.856.856,0,0,0,.015.189h-1.6a.906.906,0,0,0,.015-.193,1.165,1.165,0,1,0-2.33,0,.856.856,0,0,0,.015.189h-1.6a.905.905,0,0,0,.015-.193,1.165,1.165,0,1,0-2.33,0,.856.856,0,0,0,.015.189h-1.6a.906.906,0,0,0,.015-.193,1.165,1.165,0,1,0-2.33,0,.853.853,0,0,0,.015.189h-1.605a.888.888,0,0,0,.015-.193,1.165,1.165,0,1,0-2.33,0,.857.857,0,0,0,.015.189H99.3a.906.906,0,0,0,.015-.193,1.165,1.165,0,1,0-2.33,0A.856.856,0,0,0,97,235.9h-1.6a.906.906,0,0,0,.015-.193,1.165,1.165,0,1,0-2.33,0,.856.856,0,0,0,.015.189h-1.6a.907.907,0,0,0,.015-.193,1.165,1.165,0,1,0-2.33,0,.852.852,0,0,0,.015.189H87.583a.887.887,0,0,0,.015-.193,1.165,1.165,0,1,0-2.33,0,.857.857,0,0,0,.015.189h-1.6a.906.906,0,0,0,.015-.193,1.165,1.165,0,1,0-2.33,0,.856.856,0,0,0,.015.189h-1.6a.905.905,0,0,0,.015-.193,1.165,1.165,0,1,0-2.33,0,.856.856,0,0,0,.015.189H75v2.325h74.187V235.9Z" transform="translate(-74.876 -209.082)"/><path class="q" d="M105,291.345,122.668,277h-4.08L105,288.037Z" transform="translate(-98.536 -242.575)"/><path class="q" d="M119.2,295.388h4.933L146.762,277h-4.933Z" transform="translate(-109.734 -242.575)"/><path class="q" d="M178.851,295.388h4.207l19.5-16.039V277h-1.074Z" transform="translate(-156.778 -242.575)"/><path class="q" d="M241.988,329.107l7.041-5.94v-3.411l-11.248,9.351Z" transform="translate(-203.252 -276.294)"/></g><g transform="translate(16.095 98.392)"><g transform="translate(5.36 2.712)"><path class="r" d="M151.126,393.273a1.369,1.369,0,0,0,.155-.94,1.35,1.35,0,0,0-1.949-.818,5.855,5.855,0,0,0-.549-2.881,2.013,2.013,0,0,0-2.507-.958,1.818,1.818,0,0,0-.881,1.358,5.117,5.117,0,0,0-.635-2.993,1.925,1.925,0,0,0-.853-.875,1.832,1.832,0,0,0-2.064.885c-.458.671-.68,1.482-1.154,2.141a2.347,2.347,0,0,0-4.285,1.049,2.6,2.6,0,1,0-5.183-.264,2.431,2.431,0,0,0-3.544,1.512c-.067-1.414.324-3.079-.7-4.06-.99-.951-2.751-.485-3.613.584a7.514,7.514,0,0,0-1.235,3.87,1.05,1.05,0,0,0-1.173-.689,3.057,3.057,0,0,0-1.33.641c-.833.585-1.768,1.5-1.465,2.437Z" transform="translate(-118.108 -385.071)"/><path class="s" d="M162,401.428a1.35,1.35,0,0,0-1.949-.818,5.855,5.855,0,0,0-.549-2.881,2.013,2.013,0,0,0-2.507-.958,1.818,1.818,0,0,0-.881,1.358,5,5,0,0,0-.018-1.084q-.232.094-.466.182c-2.133,1.726-5.077,2.675-7.642,3.386a32.284,32.284,0,0,1-4.759.952,23.417,23.417,0,0,1-4.551-.034c-2.517-.182-4.895-.175-6.981.839h30.147A1.369,1.369,0,0,0,162,401.428Z" transform="translate(-128.823 -394.167)"/></g><path class="t" d="M108.906,392.322l.2-.114c.123-.076.3-.176.488-.309.1-.064.2-.136.3-.212s.216-.156.324-.246.219-.181.332-.272.217-.2.328-.295l.315-.312c.1-.111.2-.213.3-.317s.184-.212.275-.309l.246-.288c.079-.089.158-.169.217-.246s.121-.141.17-.2c.1-.108.164-.168.164-.168a2.322,2.322,0,0,1-.021.233,2.9,2.9,0,0,1-.131.6c-.042.119-.084.252-.144.385s-.136.268-.215.407-.183.27-.286.405-.229.254-.348.379a5.116,5.116,0,0,1-.4.325,3.2,3.2,0,0,1-.429.259,3.027,3.027,0,0,1-.429.184,3.116,3.116,0,0,1-.4.107,2.407,2.407,0,0,1-.35.04,1.827,1.827,0,0,1-.271,0A1.2,1.2,0,0,1,108.906,392.322Z" transform="translate(-105.491 -385.489)"/><path class="t" d="M96.414,392.322l-.2-.114c-.124-.076-.3-.176-.488-.309-.1-.064-.2-.136-.305-.212s-.216-.156-.324-.246-.219-.181-.332-.272-.216-.2-.328-.295l-.315-.312c-.1-.111-.2-.213-.3-.317s-.184-.212-.275-.309l-.246-.288c-.079-.089-.158-.169-.218-.246s-.121-.141-.17-.2c-.1-.108-.164-.168-.164-.168s0,.086.021.233a2.917,2.917,0,0,0,.131.6c.042.119.084.252.144.385s.136.268.215.407.183.27.285.405.229.254.348.379a5.11,5.11,0,0,0,.4.325,3.2,3.2,0,0,0,.429.259,3.019,3.019,0,0,0,.43.184,3.123,3.123,0,0,0,.4.107,2.408,2.408,0,0,0,.35.04,1.826,1.826,0,0,0,.271,0A1.2,1.2,0,0,0,96.414,392.322Z" transform="translate(-92.75 -385.489)"/><g transform="translate(1.024 3.506)"><path class="t" d="M109.077,391.165l.143-.081c.088-.054.21-.125.347-.219.069-.046.142-.1.217-.15s.153-.111.23-.175.155-.129.236-.194.154-.141.233-.21l.224-.222c.068-.079.143-.151.212-.225s.131-.15.2-.219l.175-.2c.056-.063.112-.12.155-.175s.086-.1.121-.139c.07-.077.116-.119.116-.119s0,.061-.015.165a2.069,2.069,0,0,1-.093.426c-.03.085-.06.179-.1.273s-.1.19-.153.29-.13.192-.2.288-.163.181-.247.27a3.628,3.628,0,0,1-.285.231,2.251,2.251,0,0,1-.3.184,2.149,2.149,0,0,1-.305.131,2.23,2.23,0,0,1-.287.076,1.728,1.728,0,0,1-.249.029,1.283,1.283,0,0,1-.193,0A.851.851,0,0,1,109.077,391.165Z" transform="translate(-106.65 -388.832)"/><path class="t" d="M100.2,391.165l-.142-.081c-.088-.054-.21-.125-.347-.219-.069-.046-.142-.1-.217-.15s-.153-.111-.23-.175-.155-.129-.236-.194-.154-.141-.233-.21l-.224-.222c-.068-.079-.143-.151-.212-.225s-.131-.15-.2-.219l-.175-.2c-.056-.063-.112-.12-.155-.175s-.086-.1-.121-.139c-.07-.077-.117-.119-.117-.119s0,.061.015.165a2.06,2.06,0,0,0,.093.426c.03.085.06.179.1.273s.1.19.153.29.13.192.2.288.163.181.247.27a3.666,3.666,0,0,0,.285.231,2.263,2.263,0,0,0,.3.184,2.16,2.16,0,0,0,.305.131,2.228,2.228,0,0,0,.287.076,1.731,1.731,0,0,0,.249.029,1.286,1.286,0,0,0,.193,0A.846.846,0,0,0,100.2,391.165Z" transform="translate(-97.596 -388.832)"/></g><g transform="translate(1.279 2.312)"><path class="t" d="M109.12,385.281l.128-.073c.079-.048.189-.112.312-.2.062-.041.127-.087.195-.135s.138-.1.207-.157.14-.116.212-.174.138-.127.21-.188l.2-.2c.062-.071.128-.136.19-.2s.118-.135.176-.2l.157-.184c.05-.057.1-.108.139-.158s.078-.09.109-.125c.063-.069.1-.108.1-.108a1.475,1.475,0,0,1-.014.149,1.834,1.834,0,0,1-.084.383c-.027.076-.053.161-.092.246s-.087.171-.137.26-.117.172-.182.259-.146.162-.222.242a3.287,3.287,0,0,1-.256.208,2.053,2.053,0,0,1-.274.165,1.955,1.955,0,0,1-.274.118,2,2,0,0,1-.258.068,1.551,1.551,0,0,1-.224.026,1.191,1.191,0,0,1-.173,0A.77.77,0,0,1,109.12,385.281Z" transform="translate(-106.939 -383.183)"/><path class="t" d="M101.14,385.281l-.128-.073c-.079-.048-.189-.112-.312-.2-.062-.041-.127-.087-.195-.135s-.138-.1-.207-.157-.14-.116-.212-.174-.138-.127-.21-.188l-.2-.2c-.062-.071-.128-.136-.19-.2s-.118-.135-.176-.2l-.157-.184c-.051-.057-.1-.108-.139-.158s-.078-.09-.109-.125c-.063-.069-.1-.108-.1-.108s0,.055.014.149a1.862,1.862,0,0,0,.084.383c.027.076.054.161.092.246s.087.171.137.26.117.172.182.259.146.162.222.242a3.293,3.293,0,0,0,.257.208,2.05,2.05,0,0,0,.274.165,1.955,1.955,0,0,0,.275.118,2.006,2.006,0,0,0,.258.068,1.553,1.553,0,0,0,.224.026,1.188,1.188,0,0,0,.173,0A.77.77,0,0,0,101.14,385.281Z" transform="translate(-98.799 -383.183)"/></g><g transform="translate(1.574 1.138)"><path class="t" d="M109.169,379.45l.111-.063c.069-.042.164-.1.271-.171.054-.036.111-.076.17-.118s.12-.087.18-.136.121-.1.184-.151.12-.11.182-.164l.175-.173c.053-.062.112-.118.165-.176s.1-.117.153-.172l.136-.16c.044-.049.088-.094.121-.137s.067-.078.094-.109c.055-.06.091-.093.091-.093a1.269,1.269,0,0,1-.012.129,1.619,1.619,0,0,1-.073.333c-.023.066-.047.14-.08.214s-.076.149-.119.226-.1.15-.159.225-.127.141-.193.211a2.8,2.8,0,0,1-.223.181,1.758,1.758,0,0,1-.238.144,1.689,1.689,0,0,1-.239.1,1.737,1.737,0,0,1-.224.059,1.338,1.338,0,0,1-.195.022,1,1,0,0,1-.15,0A.664.664,0,0,1,109.169,379.45Z" transform="translate(-107.273 -377.627)"/><path class="t" d="M102.233,379.45l-.112-.063c-.068-.042-.164-.1-.271-.171-.054-.036-.111-.076-.169-.118s-.12-.087-.18-.136-.122-.1-.184-.151-.12-.11-.182-.164l-.175-.173c-.053-.062-.112-.118-.165-.176s-.1-.117-.153-.172l-.137-.16c-.044-.049-.088-.094-.121-.137s-.067-.078-.094-.109c-.055-.06-.091-.093-.091-.093a1.267,1.267,0,0,0,.012.129,1.607,1.607,0,0,0,.073.333c.023.066.047.14.08.214s.075.149.119.226.1.15.159.225.127.141.193.211a2.756,2.756,0,0,0,.223.181,1.76,1.76,0,0,0,.238.144,1.689,1.689,0,0,0,.239.1,1.746,1.746,0,0,0,.224.059,1.344,1.344,0,0,0,.195.022,1,1,0,0,0,.15,0A.668.668,0,0,0,102.233,379.45Z" transform="translate(-100.198 -377.627)"/></g><g transform="translate(1.947)"><path class="t" d="M109.231,373.72l.09-.051c.056-.034.133-.079.22-.139.044-.029.09-.061.137-.1s.1-.07.146-.111.1-.081.149-.123.1-.089.148-.133l.142-.141c.043-.05.09-.1.134-.142s.083-.1.124-.139l.111-.13c.036-.04.071-.076.1-.111s.055-.064.077-.088c.044-.049.074-.076.074-.076s0,.039-.01.1a1.305,1.305,0,0,1-.059.27c-.019.054-.038.113-.065.173s-.061.12-.1.183-.083.121-.129.182-.1.114-.157.171a2.323,2.323,0,0,1-.181.146,1.417,1.417,0,0,1-.193.116,1.358,1.358,0,0,1-.375.131,1.1,1.1,0,0,1-.158.018.821.821,0,0,1-.122,0A.54.54,0,0,1,109.231,373.72Z" transform="translate(-107.694 -372.242)"/><path class="t" d="M103.61,373.72l-.09-.051c-.056-.034-.133-.079-.22-.139-.044-.029-.09-.061-.137-.1s-.1-.07-.146-.111-.1-.081-.149-.123-.1-.089-.148-.133l-.142-.141c-.043-.05-.09-.1-.134-.142s-.083-.1-.124-.139l-.111-.13c-.035-.04-.071-.076-.1-.111s-.055-.064-.076-.088c-.044-.049-.074-.076-.074-.076a.993.993,0,0,0,.01.1,1.3,1.3,0,0,0,.059.27c.019.054.038.113.065.173s.061.12.1.183.083.121.129.182.1.114.156.171.117.1.181.146a1.417,1.417,0,0,0,.193.116,1.353,1.353,0,0,0,.375.131,1.1,1.1,0,0,0,.158.018.822.822,0,0,0,.122,0A.536.536,0,0,0,103.61,373.72Z" transform="translate(-101.961 -372.242)"/></g><path class="r" d="M104.84,373a.37.37,0,0,0,.119.127,2.956,2.956,0,0,1,.264.235,1.768,1.768,0,0,1,.5.757.871.871,0,0,1,.034.5,1.777,1.777,0,0,1-.41.558.8.8,0,0,0-.273.595,1.087,1.087,0,0,0,.291.613,2.178,2.178,0,0,1,.4.613c.068.2.137.4.186.594a1.179,1.179,0,0,1,.009.555,2.121,2.121,0,0,1-.188.5,2.731,2.731,0,0,1-.276.42,2.163,2.163,0,0,1-.155.175,1.826,1.826,0,0,1-.149.149,1.377,1.377,0,0,1-.25.148c-.07.048-.107.013-.107.013H104.6s-.037.035-.107-.013a1.925,1.925,0,0,1-.25-.178,1.671,1.671,0,0,1-.149-.134,2.066,2.066,0,0,1-.155-.168,2.694,2.694,0,0,1-.276-.416,2.1,2.1,0,0,1-.188-.5,1.18,1.18,0,0,1,.009-.554c.05-.192.118-.391.186-.593a2.167,2.167,0,0,1,.4-.612,1.086,1.086,0,0,0,.291-.612.8.8,0,0,0-.273-.593,1.767,1.767,0,0,1-.41-.555.847.847,0,0,1,.034-.5,1.724,1.724,0,0,1,.5-.744c.1-.09.194-.214.264-.262A.37.37,0,0,0,104.6,373Z" transform="translate(-101.188 -372.84)"/><g transform="translate(0.585 6.704)"><path class="u" d="M100.97,409.134H96.041l-.525-5.172H101.5Z" transform="translate(-95.516 -403.962)"/><path class="v" d="M101.4,404.936l.1-.974H95.516l.1.974Z" transform="translate(-95.516 -403.962)"/></g><g class="w" transform="translate(0.801 1.138)"><g transform="translate(1.486)"><path class="t" d="M108.906,392.322l.2-.114c.123-.076.3-.176.488-.309.1-.064.2-.136.3-.212s.216-.156.324-.246.219-.181.332-.272.217-.2.328-.295l.315-.312c.1-.111.2-.213.3-.317s.184-.212.275-.309l.246-.288c.079-.089.158-.169.217-.246s.121-.141.17-.2c.1-.108.164-.168.164-.168a2.322,2.322,0,0,1-.021.233,2.9,2.9,0,0,1-.131.6c-.042.119-.084.252-.144.385s-.136.268-.215.407-.183.27-.286.405-.229.254-.348.379a5.116,5.116,0,0,1-.4.325,3.2,3.2,0,0,1-.429.259,3.027,3.027,0,0,1-.429.184,3.116,3.116,0,0,1-.4.107,2.407,2.407,0,0,1-.35.04,1.827,1.827,0,0,1-.271,0A1.2,1.2,0,0,1,108.906,392.322Z" transform="translate(-107.779 -386.627)"/><path class="t" d="M104.261,401.587c-.1-.064-.2-.136-.305-.212l-.071-.053c-.1.18-.205.358-.312.536l.117.045a3.128,3.128,0,0,0,.4.107,2.407,2.407,0,0,0,.35.04,1.823,1.823,0,0,0,.271,0,1.2,1.2,0,0,0,.234-.038l-.2-.114C104.626,401.82,104.454,401.72,104.261,401.587Z" transform="translate(-103.573 -396.315)"/><g transform="translate(0.509 2.368)"><path class="t" d="M109.077,391.165l.143-.081c.088-.054.21-.125.347-.219.069-.046.142-.1.217-.15s.153-.111.23-.175.155-.129.236-.194.154-.141.233-.21l.224-.222c.068-.079.143-.151.212-.225s.131-.15.2-.219l.175-.2c.056-.063.112-.12.155-.175s.086-.1.121-.139c.07-.077.116-.119.116-.119s0,.061-.015.165a2.069,2.069,0,0,1-.093.426c-.03.085-.06.179-.1.273s-.1.19-.153.29-.13.192-.2.288-.163.181-.247.27a3.628,3.628,0,0,1-.285.231,2.251,2.251,0,0,1-.3.184,2.149,2.149,0,0,1-.305.131,2.23,2.23,0,0,1-.287.076,1.728,1.728,0,0,1-.249.029,1.283,1.283,0,0,1-.193,0A.851.851,0,0,1,109.077,391.165Z" transform="translate(-108.423 -388.832)"/><path class="t" d="M106.324,398.042c-.05-.033-.1-.072-.157-.11q-.09.178-.184.353a2.23,2.23,0,0,0,.223.057,1.727,1.727,0,0,0,.249.029,1.311,1.311,0,0,0,.193,0,.847.847,0,0,0,.166-.027l-.142-.081C106.583,398.207,106.461,398.136,106.324,398.042Z" transform="translate(-105.982 -396.009)"/></g><g transform="translate(1.175 1.174)"><path class="t" d="M111.366,383.291c-.031.035-.07.076-.109.125s-.089.1-.139.158l-.157.184c-.058.062-.118.128-.176.2s-.129.131-.19.2l-.2.2c-.071.061-.138.129-.21.188s-.14.121-.212.174-.14.107-.207.157-.133.094-.195.135c-.123.085-.233.149-.312.2l-.124.07v0a.794.794,0,0,0,.147.023,1.191,1.191,0,0,0,.173,0,1.551,1.551,0,0,0,.224-.026,2.01,2.01,0,0,0,.258-.068,1.965,1.965,0,0,0,.274-.118,2.051,2.051,0,0,0,.274-.165,3.29,3.29,0,0,0,.256-.208c.076-.08.154-.158.222-.242s.128-.172.182-.259.1-.177.137-.26.066-.17.092-.246a1.835,1.835,0,0,0,.084-.383,1.463,1.463,0,0,0,.014-.149S111.429,383.221,111.366,383.291Z" transform="translate(-109.133 -383.183)"/></g><g transform="translate(1.755)"><path class="t" d="M113.249,377.72c-.027.03-.061.066-.094.109s-.077.087-.121.137l-.136.16c-.051.054-.1.111-.153.172s-.112.114-.166.176l-.175.173c-.062.053-.12.112-.182.164s-.122.105-.184.151l-.005,0c-.049.154-.1.306-.154.459.042-.011.083-.019.127-.034a1.688,1.688,0,0,0,.239-.1,1.759,1.759,0,0,0,.238-.144,2.8,2.8,0,0,0,.223-.181c.066-.07.134-.137.193-.211s.111-.15.159-.225.083-.154.119-.226.057-.147.08-.214a1.617,1.617,0,0,0,.073-.333,1.27,1.27,0,0,0,.012-.129S113.3,377.66,113.249,377.72Z" transform="translate(-111.878 -377.627)"/></g></g><path class="r" d="M107.189,388.3a2.178,2.178,0,0,0-.4-.613,1.49,1.49,0,0,1-.227-.361,20.207,20.207,0,0,1-1.311,2.879c.037.052.073.1.112.152a2.08,2.08,0,0,0,.155.168,1.667,1.667,0,0,0,.149.134,1.922,1.922,0,0,0,.25.178c.07.048.107.013.107.013h.236s.037.035.107-.013a1.372,1.372,0,0,0,.25-.148,1.838,1.838,0,0,0,.149-.149,2.166,2.166,0,0,0,.155-.175,2.733,2.733,0,0,0,.276-.42,2.122,2.122,0,0,0,.188-.5,1.179,1.179,0,0,0-.009-.555C107.326,388.7,107.257,388.5,107.189,388.3Z" transform="translate(-103.41 -385.277)"/><g transform="translate(0 5.566)"><path class="u" d="M98.015,403.962a20.345,20.345,0,0,1-1.473,2.135l.308,3.037h4.929l.525-5.172Z" transform="translate(-96.542 -403.962)"/><path class="v" d="M101.195,403.962c-.2.33-.4.656-.621.973h4.811l.1-.973Z" transform="translate(-99.722 -403.962)"/></g></g><g transform="translate(36.988)"><g transform="translate(0)"><path class="t" d="M283.906,392.322l.2-.114c.123-.076.3-.176.488-.309.1-.064.2-.136.305-.212s.216-.156.324-.246.219-.181.332-.272.217-.2.328-.295l.315-.312c.1-.111.2-.213.3-.317s.184-.212.275-.309l.246-.288c.079-.089.158-.169.217-.246s.121-.141.17-.2c.1-.108.164-.168.164-.168a2.329,2.329,0,0,1-.021.233,2.9,2.9,0,0,1-.131.6c-.042.119-.084.252-.144.385s-.136.268-.215.407-.183.27-.286.405-.229.254-.348.379a5.107,5.107,0,0,1-.4.325,3.2,3.2,0,0,1-.429.259,3.025,3.025,0,0,1-.429.184,3.115,3.115,0,0,1-.4.107,2.407,2.407,0,0,1-.35.04,1.827,1.827,0,0,1-.271,0A1.2,1.2,0,0,1,283.906,392.322Z" transform="translate(-280.491 -385.489)"/><path class="t" d="M271.414,392.322l-.2-.114c-.124-.076-.3-.176-.488-.309-.1-.064-.2-.136-.305-.212s-.216-.156-.324-.246-.219-.181-.332-.272-.216-.2-.328-.295l-.315-.312c-.1-.111-.2-.213-.3-.317s-.184-.212-.275-.309l-.246-.288c-.079-.089-.158-.169-.218-.246s-.121-.141-.17-.2c-.1-.108-.164-.168-.164-.168s0,.086.021.233a2.916,2.916,0,0,0,.131.6c.042.119.084.252.144.385s.136.268.215.407.183.27.285.405.229.254.348.379a5.116,5.116,0,0,0,.4.325,3.2,3.2,0,0,0,.429.259,3.019,3.019,0,0,0,.43.184,3.119,3.119,0,0,0,.4.107,2.406,2.406,0,0,0,.35.04,1.826,1.826,0,0,0,.271,0A1.2,1.2,0,0,0,271.414,392.322Z" transform="translate(-267.75 -385.489)"/><g transform="translate(1.024 3.506)"><path class="t" d="M284.077,391.165l.143-.081c.088-.054.21-.125.347-.219.069-.046.142-.1.217-.15s.153-.111.23-.175.155-.129.236-.194.154-.141.233-.21l.224-.222c.068-.079.143-.151.212-.225s.131-.15.2-.219l.175-.2c.056-.063.112-.12.155-.175s.086-.1.121-.139c.07-.077.116-.119.116-.119s0,.061-.015.165a2.073,2.073,0,0,1-.093.426c-.03.085-.06.179-.1.273s-.1.19-.153.29-.13.192-.2.288-.163.181-.247.27a3.63,3.63,0,0,1-.285.231,2.251,2.251,0,0,1-.3.184,2.146,2.146,0,0,1-.305.131,2.229,2.229,0,0,1-.287.076,1.727,1.727,0,0,1-.249.029,1.283,1.283,0,0,1-.193,0A.852.852,0,0,1,284.077,391.165Z" transform="translate(-281.65 -388.832)"/><path class="t" d="M275.2,391.165l-.142-.081c-.088-.054-.21-.125-.347-.219-.069-.046-.142-.1-.217-.15s-.153-.111-.23-.175-.155-.129-.236-.194-.154-.141-.233-.21l-.224-.222c-.068-.079-.143-.151-.212-.225s-.131-.15-.2-.219l-.175-.2c-.056-.063-.112-.12-.154-.175s-.086-.1-.121-.139c-.07-.077-.117-.119-.117-.119s0,.061.015.165a2.061,2.061,0,0,0,.093.426c.03.085.06.179.1.273s.1.19.153.29.13.192.2.288.163.181.247.27a3.67,3.67,0,0,0,.285.231,2.263,2.263,0,0,0,.3.184,2.157,2.157,0,0,0,.305.131,2.229,2.229,0,0,0,.287.076,1.731,1.731,0,0,0,.249.029,1.286,1.286,0,0,0,.193,0A.846.846,0,0,0,275.2,391.165Z" transform="translate(-272.596 -388.832)"/></g><g transform="translate(1.279 2.312)"><path class="t" d="M284.12,385.281l.128-.073c.079-.048.189-.112.312-.2.062-.041.127-.087.195-.135s.138-.1.207-.157.14-.116.212-.174.138-.127.21-.188l.2-.2c.062-.071.129-.136.19-.2s.118-.135.176-.2l.157-.184c.05-.057.1-.108.139-.158s.078-.09.109-.125c.063-.069.1-.108.1-.108a1.475,1.475,0,0,1-.014.149,1.836,1.836,0,0,1-.084.383c-.027.076-.053.161-.092.246s-.087.171-.137.26-.117.172-.182.259-.146.162-.222.242a3.292,3.292,0,0,1-.256.208,2.053,2.053,0,0,1-.274.165,1.955,1.955,0,0,1-.274.118,2,2,0,0,1-.258.068,1.551,1.551,0,0,1-.224.026,1.192,1.192,0,0,1-.173,0A.77.77,0,0,1,284.12,385.281Z" transform="translate(-281.939 -383.183)"/><path class="t" d="M276.14,385.281l-.128-.073c-.079-.048-.189-.112-.312-.2-.062-.041-.127-.087-.195-.135s-.138-.1-.207-.157-.14-.116-.212-.174-.138-.127-.21-.188l-.2-.2c-.062-.071-.128-.136-.19-.2s-.118-.135-.176-.2l-.157-.184c-.05-.057-.1-.108-.139-.158s-.078-.09-.109-.125c-.063-.069-.1-.108-.1-.108s0,.055.014.149a1.863,1.863,0,0,0,.084.383c.027.076.054.161.092.246s.087.171.137.26.117.172.182.259.146.162.222.242a3.289,3.289,0,0,0,.257.208,2.051,2.051,0,0,0,.274.165,1.957,1.957,0,0,0,.275.118,2.008,2.008,0,0,0,.258.068,1.553,1.553,0,0,0,.224.026,1.189,1.189,0,0,0,.173,0A.77.77,0,0,0,276.14,385.281Z" transform="translate(-273.799 -383.183)"/></g><g transform="translate(1.574 1.138)"><path class="t" d="M284.169,379.45l.111-.063c.069-.042.164-.1.271-.171.054-.036.111-.076.17-.118s.12-.087.18-.136.121-.1.184-.151.12-.11.182-.164l.175-.173c.053-.062.112-.118.166-.176s.1-.117.153-.172l.136-.16c.044-.049.088-.094.121-.137s.067-.078.094-.109c.055-.06.091-.093.091-.093a1.258,1.258,0,0,1-.012.129,1.622,1.622,0,0,1-.073.333c-.023.066-.047.14-.08.214s-.076.149-.119.226-.1.15-.159.225-.127.141-.193.211a2.8,2.8,0,0,1-.223.181,1.763,1.763,0,0,1-.238.144,1.686,1.686,0,0,1-.239.1,1.735,1.735,0,0,1-.224.059,1.337,1.337,0,0,1-.195.022,1,1,0,0,1-.15,0A.664.664,0,0,1,284.169,379.45Z" transform="translate(-282.273 -377.627)"/><path class="t" d="M277.233,379.45l-.112-.063c-.068-.042-.164-.1-.271-.171-.054-.036-.111-.076-.169-.118s-.12-.087-.18-.136-.122-.1-.184-.151-.12-.11-.182-.164l-.175-.173c-.053-.062-.112-.118-.166-.176s-.1-.117-.153-.172l-.137-.16c-.044-.049-.088-.094-.121-.137s-.067-.078-.094-.109c-.055-.06-.091-.093-.091-.093a1.269,1.269,0,0,0,.012.129,1.608,1.608,0,0,0,.073.333c.023.066.047.14.08.214s.075.149.119.226.1.15.159.225.127.141.193.211a2.764,2.764,0,0,0,.223.181,1.759,1.759,0,0,0,.238.144,1.69,1.69,0,0,0,.239.1,1.747,1.747,0,0,0,.224.059,1.346,1.346,0,0,0,.195.022,1,1,0,0,0,.151,0A.668.668,0,0,0,277.233,379.45Z" transform="translate(-275.198 -377.627)"/></g><g transform="translate(1.947)"><path class="t" d="M284.231,373.72l.09-.051c.056-.034.133-.079.22-.139.044-.029.09-.061.137-.1s.1-.07.146-.111.1-.081.149-.123.1-.089.148-.133l.142-.141c.043-.05.09-.1.134-.142s.083-.1.124-.139l.111-.13c.036-.04.071-.076.1-.111s.055-.064.077-.088c.044-.049.074-.076.074-.076s0,.039-.01.1a1.3,1.3,0,0,1-.059.27c-.019.054-.038.113-.065.173s-.061.12-.1.183-.083.121-.128.182-.1.114-.157.171-.117.1-.181.146a1.415,1.415,0,0,1-.193.116,1.359,1.359,0,0,1-.375.131,1.1,1.1,0,0,1-.158.018.821.821,0,0,1-.122,0A.541.541,0,0,1,284.231,373.72Z" transform="translate(-282.694 -372.242)"/><path class="t" d="M278.61,373.72l-.09-.051c-.056-.034-.133-.079-.22-.139-.044-.029-.09-.061-.137-.1s-.1-.07-.146-.111-.1-.081-.149-.123-.1-.089-.148-.133l-.142-.141c-.043-.05-.09-.1-.134-.142s-.083-.1-.124-.139l-.111-.13c-.036-.04-.071-.076-.1-.111s-.055-.064-.076-.088c-.044-.049-.074-.076-.074-.076a.993.993,0,0,0,.01.1,1.3,1.3,0,0,0,.059.27c.019.054.038.113.065.173s.061.12.1.183.083.121.129.182.1.114.156.171.117.1.181.146a1.42,1.42,0,0,0,.193.116,1.353,1.353,0,0,0,.375.131,1.1,1.1,0,0,0,.158.018.822.822,0,0,0,.122,0A.535.535,0,0,0,278.61,373.72Z" transform="translate(-276.961 -372.242)"/></g><path class="r" d="M279.84,373a.37.37,0,0,0,.119.127,2.956,2.956,0,0,1,.264.235,1.768,1.768,0,0,1,.5.757.871.871,0,0,1,.034.5,1.776,1.776,0,0,1-.41.558.8.8,0,0,0-.273.595,1.087,1.087,0,0,0,.291.613,2.178,2.178,0,0,1,.4.613c.068.2.137.4.186.594a1.178,1.178,0,0,1,.009.555,2.12,2.12,0,0,1-.188.5,2.732,2.732,0,0,1-.276.42,2.17,2.17,0,0,1-.155.175,1.833,1.833,0,0,1-.149.149,1.379,1.379,0,0,1-.25.148c-.07.048-.107.013-.107.013H279.6s-.037.035-.107-.013a1.925,1.925,0,0,1-.25-.178,1.677,1.677,0,0,1-.149-.134,2.07,2.07,0,0,1-.155-.168,2.693,2.693,0,0,1-.276-.416,2.1,2.1,0,0,1-.188-.5,1.179,1.179,0,0,1,.009-.554c.05-.192.118-.391.186-.593a2.167,2.167,0,0,1,.4-.612,1.086,1.086,0,0,0,.291-.612.8.8,0,0,0-.273-.593,1.767,1.767,0,0,1-.41-.555.847.847,0,0,1,.034-.5,1.724,1.724,0,0,1,.5-.744c.1-.09.194-.214.264-.262A.37.37,0,0,0,279.6,373Z" transform="translate(-276.188 -372.84)"/><g transform="translate(0.585 6.704)"><path class="u" d="M275.97,409.134h-4.929l-.525-5.172H276.5Z" transform="translate(-270.516 -403.962)"/><path class="v" d="M276.4,404.936l.1-.974h-5.979l.1.974Z" transform="translate(-270.516 -403.962)"/></g></g><g class="w" transform="translate(0.801 1.138)"><g transform="translate(1.486)"><path class="t" d="M283.906,392.322l.2-.114c.123-.076.3-.176.488-.309.1-.064.2-.136.305-.212s.216-.156.324-.246.219-.181.332-.272.217-.2.328-.295l.315-.312c.1-.111.2-.213.3-.317s.184-.212.275-.309l.246-.288c.079-.089.158-.169.217-.246s.121-.141.17-.2c.1-.108.164-.168.164-.168a2.329,2.329,0,0,1-.021.233,2.9,2.9,0,0,1-.131.6c-.042.119-.084.252-.144.385s-.136.268-.215.407-.183.27-.286.405-.229.254-.348.379a5.107,5.107,0,0,1-.4.325,3.2,3.2,0,0,1-.429.259,3.025,3.025,0,0,1-.429.184,3.115,3.115,0,0,1-.4.107,2.407,2.407,0,0,1-.35.04,1.827,1.827,0,0,1-.271,0A1.2,1.2,0,0,1,283.906,392.322Z" transform="translate(-282.779 -386.627)"/><path class="t" d="M279.261,401.587c-.1-.064-.2-.136-.305-.212l-.071-.053c-.1.18-.205.358-.312.536l.117.045a3.127,3.127,0,0,0,.4.107,2.406,2.406,0,0,0,.35.04,1.823,1.823,0,0,0,.271,0,1.2,1.2,0,0,0,.234-.038l-.2-.114C279.626,401.82,279.453,401.72,279.261,401.587Z" transform="translate(-278.573 -396.315)"/><g transform="translate(0.509 2.368)"><path class="t" d="M284.077,391.165l.143-.081c.088-.054.21-.125.347-.219.069-.046.142-.1.217-.15s.153-.111.23-.175.155-.129.236-.194.154-.141.233-.21l.224-.222c.068-.079.143-.151.212-.225s.131-.15.2-.219l.175-.2c.056-.063.112-.12.155-.175s.086-.1.121-.139c.07-.077.116-.119.116-.119s0,.061-.015.165a2.073,2.073,0,0,1-.093.426c-.03.085-.06.179-.1.273s-.1.19-.153.29-.13.192-.2.288-.163.181-.247.27a3.63,3.63,0,0,1-.285.231,2.251,2.251,0,0,1-.3.184,2.146,2.146,0,0,1-.305.131,2.229,2.229,0,0,1-.287.076,1.727,1.727,0,0,1-.249.029,1.283,1.283,0,0,1-.193,0A.852.852,0,0,1,284.077,391.165Z" transform="translate(-283.423 -388.832)"/><path class="t" d="M281.324,398.042c-.05-.033-.1-.072-.157-.11q-.09.178-.184.353a2.225,2.225,0,0,0,.223.057,1.727,1.727,0,0,0,.249.029,1.31,1.31,0,0,0,.193,0,.847.847,0,0,0,.166-.027l-.142-.081C281.583,398.207,281.461,398.136,281.324,398.042Z" transform="translate(-280.982 -396.009)"/></g><g transform="translate(1.175 1.174)"><path class="t" d="M286.366,383.291c-.031.035-.07.076-.109.125s-.089.1-.139.158l-.157.184c-.058.062-.118.128-.176.2s-.129.131-.19.2l-.2.2c-.071.061-.138.129-.21.188s-.14.121-.212.174-.14.107-.207.157-.133.094-.195.135c-.123.085-.233.149-.312.2l-.124.07,0,0a.8.8,0,0,0,.147.023,1.19,1.19,0,0,0,.173,0,1.551,1.551,0,0,0,.224-.026,2.009,2.009,0,0,0,.258-.068,1.964,1.964,0,0,0,.274-.118,2.054,2.054,0,0,0,.274-.165c.091-.061.171-.137.256-.208s.154-.158.222-.242.128-.172.182-.259.1-.177.137-.26.065-.17.092-.246a1.835,1.835,0,0,0,.084-.383,1.463,1.463,0,0,0,.014-.149S286.429,383.221,286.366,383.291Z" transform="translate(-284.133 -383.183)"/></g><g transform="translate(1.755)"><path class="t" d="M288.249,377.72c-.027.03-.061.066-.094.109s-.077.087-.121.137l-.136.16c-.051.054-.1.111-.153.172s-.112.114-.165.176l-.175.173c-.062.053-.121.112-.182.164s-.122.105-.184.151l-.005,0c-.049.154-.1.306-.154.459.042-.011.083-.019.127-.034a1.691,1.691,0,0,0,.239-.1,1.759,1.759,0,0,0,.238-.144,2.805,2.805,0,0,0,.223-.181c.066-.07.134-.137.193-.211s.111-.15.159-.225.083-.154.119-.226.057-.147.08-.214a1.618,1.618,0,0,0,.073-.333,1.269,1.269,0,0,0,.012-.129S288.3,377.66,288.249,377.72Z" transform="translate(-286.878 -377.627)"/></g></g><path class="r" d="M282.189,388.3a2.177,2.177,0,0,0-.4-.613,1.49,1.49,0,0,1-.227-.361,20.211,20.211,0,0,1-1.311,2.879c.037.052.073.1.112.152a2.087,2.087,0,0,0,.155.168,1.663,1.663,0,0,0,.149.134,1.923,1.923,0,0,0,.25.178c.07.048.107.013.107.013h.237s.037.035.107-.013a1.373,1.373,0,0,0,.25-.148,1.838,1.838,0,0,0,.149-.149,2.164,2.164,0,0,0,.155-.175,2.728,2.728,0,0,0,.276-.42,2.122,2.122,0,0,0,.188-.5,1.179,1.179,0,0,0-.009-.555C282.326,388.7,282.257,388.5,282.189,388.3Z" transform="translate(-278.41 -385.277)"/><g transform="translate(0 5.566)"><path class="u" d="M273.015,403.962a20.336,20.336,0,0,1-1.473,2.135l.308,3.037h4.929l.525-5.172Z" transform="translate(-271.542 -403.962)"/><path class="v" d="M276.195,403.962c-.2.33-.4.656-.621.973h4.811l.1-.973Z" transform="translate(-274.722 -403.962)"/></g></g></g></g></g><g transform="translate(-182.144 194.204)"><path class="x" d="M409.262,217.867l.65,2.405s.967.962,1.679.806.856-1.372.856-1.372l-.681-1.839Z" transform="translate(-50.953 -121.743)"/><path class="x" d="M364.049,219.9l.63-1.234-2-.8-1.165,2.6s.58,1.128,1.419.991S364.049,219.9,364.049,219.9Z" transform="translate(-20.203 -121.743)"/><path class="x" d="M403.793,76.046l2.228,1.47,9.671.9-.379,1.707s-8.481,1.76-11.283,1.517-5.168-5.023-5.168-5.023Z" transform="translate(-44.255 -30.408)"/><path class="y" d="M375.788,113.108l-1.918,19.521L363.71,151.624a.2.2,0,0,1-.129.1c-.565.147-3.714.867-4.8-1.113a.206.206,0,0,1-.01-.173l8.02-20.829.572-17.072Z" transform="translate(-18.427 -53.909)"/><path class="z" d="M405.576,82.822a21.632,21.632,0,0,0,1.654-4.671h0l-4.795,1.89A7.678,7.678,0,0,0,405.576,82.822Z" transform="translate(-46.557 -31.764)"/><path class="aa" d="M389.371,138.383,387.61,136.5l-6.077,2.817-.184,5.482,1.688,13.325,5.383-10.063Z" transform="translate(-32.977 -69.342)"/><path class="aa" d="M399.265,121.447l.762-7.752-3.633-.246Z" transform="translate(-42.666 -54.496)"/><path class="y" d="M391,145.917a5.239,5.239,0,0,1-4.862-.021.142.142,0,0,1-.063-.075c-.414-1.179-8.14-23.241-9.456-31.077a12.041,12.041,0,0,1-1.654-4.233,8.7,8.7,0,0,1-.053-2.812,7.38,7.38,0,0,1,.562-1.906c1.525-3.393,6.261.671,8.307,2.661.59.576.957.979.957.979l.287,1.65,6.046,34.691A.136.136,0,0,1,391,145.917Z" transform="translate(-28.77 -48.723)"/><path class="aa" d="M385.021,116.892c-2.875,1.081-6.287.247-7.717-.221a8.592,8.592,0,0,0-2.344-.35,8.7,8.7,0,0,1-.053-2.812l8.869.754c.59.576.957.979.957.979Z" transform="translate(-28.77 -54.534)"/><path class="ab" d="M394.177,55.87s4.276,4.345,7.15,7.408a.353.353,0,0,1,.116.4,17.5,17.5,0,0,1-3,4.445S390.906,62.341,394.177,55.87Z" transform="translate(-40.709 -17.414)"/><path class="ac" d="M402.455,68.247l-1.7,5.385A16.452,16.452,0,0,0,403.21,76.1a10.309,10.309,0,0,0,1.687-2.121A10.431,10.431,0,0,0,402.455,68.247Z" transform="translate(-45.475 -25.385)"/><path class="ab" d="M385.382,77.827c-4.637,2.41-10-.289-12.538-.142-.251.015-.235-.254-.2-.424,2.286-11.306,3.2-18.342,6.277-22.079a8.208,8.208,0,0,1,.712-.771,41.612,41.612,0,0,1,3.482,3.215,10.931,10.931,0,0,1,2.665,6.854,58.215,58.215,0,0,0-.2,12.954A.386.386,0,0,1,385.382,77.827Z" transform="translate(-27.358 -16.475)"/><path class="ac" d="M383.388,87.159a15.559,15.559,0,0,0,.355,1.615c.142.532.3,1.059.492,1.576a18.655,18.655,0,0,0,1.369,3,15.634,15.634,0,0,0,1.9,2.684c.088.105.181.207.276.306l.284.3c.2.19.389.389.6.567a14.935,14.935,0,0,0,1.284,1.04,12.747,12.747,0,0,1-2.532-2.133,14.954,14.954,0,0,1-1.949-2.687,17.693,17.693,0,0,1-1.346-3.034A15.742,15.742,0,0,1,383.388,87.159Z" transform="translate(-34.29 -37.565)"/><path class="ac" d="M381.394,76.994c-.07.65-.129,1.3-.173,1.953s-.085,1.3-.11,1.956c-.05,1.305-.062,2.612,0,3.915.03.651.074,1.3.144,1.951s.172,1.292.294,1.933a13.829,13.829,0,0,0,.51,1.885,8.008,8.008,0,0,0,.842,1.762,9.91,9.91,0,0,1-1.469-3.622,24.386,24.386,0,0,1-.476-3.9q-.077-1.964.034-3.928C381.069,79.591,381.191,78.286,381.394,76.994Z" transform="translate(-32.704 -31.018)"/><path class="ad" d="M376.391,101.553s4.694-1.955,6.825-4.079l.654.738s-5.25,4.253-7.744,4.625Z" transform="translate(-29.613 -44.208)"/><path class="ac" d="M392.531,65.952l-3.348.516s-1.079,6.251.738,10.832l5.986-1.231q.051-.909.129-1.91C395.17,71.66,393.555,67.243,392.531,65.952Z" transform="translate(-37.817 -23.907)"/><path class="x" d="M409.288,88.481c-2.275,1.658-11.756,3.46-13.511,2.939s-3.745-6.305-3.745-6.305L396.2,83.55l1.285,3.318H408.34Z" transform="translate(-39.857 -35.241)"/><path class="z" d="M393.509,91.531a7.426,7.426,0,0,0,3.715-2.558s-3.027.027-4.761.059C392.661,89.565,393.036,90.531,393.509,91.531Z" transform="translate(-40.134 -38.733)"/><path class="ab" d="M391.007,61.957c-3.3,0-.711,11.663-.711,11.663s1.991.213,5.12-2.2C395.416,71.415,393.781,61.957,391.007,61.957Z" transform="translate(-38.117 -21.334)"/><g transform="translate(358.309 97.963)"><path class="ae" d="M418.88,228.982h0a.391.391,0,0,1-.391.391H413.14a8.279,8.279,0,0,0-1.374-.274c-.389,0-.4.274-.4.274h-2.1v-.391S416.535,228.533,418.88,228.982Z" transform="translate(-409.262 -226.735)"/><path class="af" d="M409.912,223.6a2.386,2.386,0,0,0,2.535-.566,26.82,26.82,0,0,1,3.15,1.026c.947.432,3.263.342,3.282,1.221h-9.618A2.6,2.6,0,0,1,409.912,223.6Z" transform="translate(-409.262 -223.032)"/><g transform="translate(3.063 0.195)"><path class="ae" d="M417.9,224.157a.029.029,0,0,0,.018-.006l.655-.518a.029.029,0,0,0,0-.041.029.029,0,0,0-.041,0l-.655.518a.029.029,0,0,0,0,.041A.029.029,0,0,0,417.9,224.157Z" transform="translate(-417.866 -223.58)"/></g><g transform="translate(3.459 0.348)"><path class="ae" d="M419.007,224.587a.033.033,0,0,0,.018-.006l.654-.518a.029.029,0,0,0,0-.041.03.03,0,0,0-.041,0l-.655.518a.029.029,0,0,0,.018.052Z" transform="translate(-418.978 -224.01)"/></g><g transform="translate(3.898 0.505)"><path class="ae" d="M420.242,225.026a.029.029,0,0,0,.018-.006l.655-.518a.029.029,0,0,0,0-.041.029.029,0,0,0-.041,0l-.655.518a.029.029,0,0,0,0,.041A.028.028,0,0,0,420.242,225.026Z" transform="translate(-420.213 -224.449)"/></g><g transform="translate(4.338 0.651)"><path class="ae" d="M421.477,225.438a.029.029,0,0,0,.018-.006l.655-.518a.029.029,0,0,0-.036-.046l-.655.518a.029.029,0,0,0-.005.041A.031.031,0,0,0,421.477,225.438Z" transform="translate(-421.447 -224.861)"/></g></g><g transform="translate(340.661 98.159)"><path class="ae" d="M369.305,229.531h0a.391.391,0,0,1-.391.391h-5.349a8.273,8.273,0,0,0-1.374-.274c-.389,0-.4.274-.4.274h-2.1v-.391S366.961,229.082,369.305,229.531Z" transform="translate(-359.688 -227.284)"/><path class="af" d="M360.338,224.147a2.386,2.386,0,0,0,2.535-.566,26.816,26.816,0,0,1,3.15,1.026c.947.432,3.263.342,3.282,1.221h-9.617A2.6,2.6,0,0,1,360.338,224.147Z" transform="translate(-359.688 -223.581)"/><g transform="translate(3.063 0.195)"><path class="ae" d="M368.321,224.706a.028.028,0,0,0,.018-.006l.655-.518a.029.029,0,0,0-.036-.046l-.655.518a.029.029,0,0,0,.018.052Z" transform="translate(-368.291 -224.129)"/></g><g transform="translate(3.459 0.348)"><path class="ae" d="M369.433,225.136a.029.029,0,0,0,.018-.006l.655-.518a.029.029,0,0,0-.036-.046l-.655.518a.029.029,0,0,0-.005.041A.031.031,0,0,0,369.433,225.136Z" transform="translate(-369.403 -224.559)"/></g><g transform="translate(3.898 0.505)"><path class="ae" d="M370.668,225.575a.029.029,0,0,0,.018-.006l.655-.518A.029.029,0,0,0,371.3,225l-.654.518a.029.029,0,0,0,0,.041A.031.031,0,0,0,370.668,225.575Z" transform="translate(-370.638 -224.998)"/></g><g transform="translate(4.338 0.651)"><path class="ae" d="M371.9,225.986a.029.029,0,0,0,.018-.006l.654-.518a.029.029,0,1,0-.036-.046l-.654.518a.029.029,0,0,0,0,.041A.03.03,0,0,0,371.9,225.986Z" transform="translate(-371.873 -225.41)"/></g></g><g transform="translate(350.145 28.83)"><g transform="translate(0.39 2.339)"><path class="ad" d="M387.508,42.418s-.341.44.344.914.488.895,1.2,1.1,1.047-3.362,1.047-3.362Z" transform="translate(-387.423 -39.049)"/><path class="x" d="M394.276,47.04s-1.486,1.874-.954,3.676-2.488-.828-2.488-.828l.7-3.966Z" transform="translate(-389.62 -42.176)"/><path class="z" d="M395.811,48.15l-2.3-.921s.66,2.556,1.464,2.966A5.462,5.462,0,0,1,395.811,48.15Z" transform="translate(-391.344 -43.018)"/><path class="x" d="M391.674,39.145s1.005,2.324,3.07,2.237,2.537-4.147,1.625-5.17-3.646-1.709-4.409,1.963c0,0-.249-.531-.595-.191S390.767,39.8,391.674,39.145Z" transform="translate(-389.758 -35.4)"/><path class="ad" d="M400.624,39.347a3.134,3.134,0,0,1-2.27,1.018s1.009-.314,1.132-.685A.809.809,0,0,1,400.624,39.347Z" transform="translate(-394.463 -37.862)"/><path class="e" d="M400.571,48.78l1.453.166s-.342.683-.9.591S400.571,48.78,400.571,48.78Z" transform="translate(-395.89 -44.017)"/><path class="z" d="M402.613,46.388a.431.431,0,0,0,.687.061A.715.715,0,0,1,402.613,46.388Z" transform="translate(-397.206 -42.476)"/><path class="ae" d="M400.477,43.7s.58-.616.863.124A.745.745,0,0,0,400.477,43.7Z" transform="translate(-395.83 -40.591)"/><path class="z" d="M392.155,43.526c-.053.221-.176.382-.275.358s-.137-.222-.085-.443.176-.382.275-.358S392.207,43.3,392.155,43.526Z" transform="translate(-390.223 -40.346)"/><path class="ad" d="M392.793,39.949s.21.306.473.216.643-1.214,2.175-1.72-3.1-.2-3.1-.2Z" transform="translate(-390.592 -37.173)"/></g><g transform="translate(0 0)"><path class="ag" d="M401.373,38.42s4.364,1.6,5.478.012a.151.151,0,0,0-.085-.229l-2.61-.743Z" transform="translate(-396.017 -34.388)"/><path class="af" d="M394.466,32.005s-5.385,2.392-7.663,2.636c0,0-1.3-3.01.407-4.181a19.591,19.591,0,0,1,1.953-1.269,9.185,9.185,0,0,1,3.091-.082C393.165,29.418,394.125,31.013,394.466,32.005Z" transform="translate(-386.328 -28.933)"/><path class="ag" d="M393.092,29.179c.032.108.239.141.463.075s.38-.207.348-.315-.239-.141-.463-.075S393.06,29.071,393.092,29.179Z" transform="translate(-390.682 -28.83)"/><g transform="translate(1.969 0.669)"><path class="ah" d="M392.678,34.912a15.981,15.981,0,0,1-.813-2.929,11.062,11.062,0,0,1,.441-1.274l.056.023A11.354,11.354,0,0,0,391.924,32a16.73,16.73,0,0,0,.811,2.9Z" transform="translate(-391.859 -30.709)"/></g><g transform="translate(3.642 0.277)"><path class="ah" d="M399.3,32.74a19.221,19.221,0,0,0-1.2-2.417,3.521,3.521,0,0,0-1.544-.656l.011-.059a3.484,3.484,0,0,1,1.58.678,18.683,18.683,0,0,1,1.209,2.431Z" transform="translate(-396.558 -29.607)"/></g></g></g><path class="ab" d="M454.5,85.813v2.216a.181.181,0,0,1-.181.181H434.147a.181.181,0,0,1-.181-.181V85.813a.18.18,0,0,1,.181-.18h20.171A.18.18,0,0,1,454.5,85.813Z" transform="translate(-66.863 -36.582)"/><path class="ac" d="M454.5,91.686v.241a.181.181,0,0,1-.181.181H434.147a.181.181,0,0,1-.181-.181v-.241Z" transform="translate(-66.863 -40.48)"/><path class="af" d="M458.964,79.088v2.033a.181.181,0,0,1-.181.181H438.22a.18.18,0,0,1-.18-.181V79.088a.18.18,0,0,1,.18-.179h20.563A.181.181,0,0,1,458.964,79.088Z" transform="translate(-69.487 -32.252)"/><path class="x" d="M394.507,57.57c-1.174.467-3.448-1.688-4.194-2.444a8.541,8.541,0,0,1,.711-.8A45.58,45.58,0,0,1,394.507,57.57Z" transform="translate(-38.75 -16.418)"/><path class="ac" d="M398.935,73.631a8.716,8.716,0,0,1,.246,1.671A9.481,9.481,0,0,1,399.124,77a7.347,7.347,0,0,1-.409,1.646,5.628,5.628,0,0,1-.837,1.467q.105-.184.213-.363c.035-.061.074-.118.1-.182l.088-.19c.057-.127.127-.248.174-.38l.144-.392a8.939,8.939,0,0,0,.367-1.626,12.368,12.368,0,0,0,.092-1.669c0-.279-.015-.559-.038-.838S398.973,73.909,398.935,73.631Z" transform="translate(-43.622 -28.853)"/><path class="ac" d="M402.737,77.69a6.551,6.551,0,0,1,.223.937,7.4,7.4,0,0,1,.1.96,5.26,5.26,0,0,1-.043.967,2.793,2.793,0,0,1-.282.923,4.241,4.241,0,0,0,.161-.936,8.185,8.185,0,0,0,.008-.948c-.01-.316-.037-.633-.066-.95S402.776,78.009,402.737,77.69Z" transform="translate(-46.751 -31.467)"/><path class="x" d="M436.969,90.373a2.753,2.753,0,0,1,1.4-.61c.761-.059,1.21-1.269,1.529-.537.234.537-.431,1.028-1.017,1.146h2.884a.06.06,0,0,1,.043.1,4.683,4.683,0,0,1-3.888,1.512C435.4,91.695,436.969,90.373,436.969,90.373Z" transform="translate(-68.485 -38.745)"/><path class="aa" d="M381.35,132.846c.364,1.176.741,2.346,1.118,3.514.193.583.382,1.167.583,1.746s.4,1.161.609,1.736.421,1.152.647,1.721.457,1.137.7,1.7.508,1.114.794,1.655a11.718,11.718,0,0,0,.962,1.566,13.459,13.459,0,0,1-1.977-3.119,35.714,35.714,0,0,1-1.423-3.415q-.625-1.741-1.131-3.518C381.9,135.247,381.6,134.052,381.35,132.846Z" transform="translate(-32.977 -66.988)"/><path class="aa" d="M393.061,169.883c.183.813.377,1.624.592,2.428s.432,1.608.666,2.406.481,1.592.746,2.38.538,1.573.838,2.347.609,1.545.95,2.3c.164.381.347.754.524,1.129s.37.743.569,1.106a23.225,23.225,0,0,0,1.283,2.132,17.185,17.185,0,0,0,1.535,1.964,17.119,17.119,0,0,1-3.032-3.977c-.423-.723-.8-1.473-1.15-2.232s-.673-1.532-.973-2.313a47.5,47.5,0,0,1-1.526-4.774A45.1,45.1,0,0,1,393.061,169.883Z" transform="translate(-40.519 -90.84)"/><path class="aa" d="M371.305,167.4c-.446,1.522-.88,3.047-1.315,4.569s-.852,3.051-1.25,4.583-.773,3.07-1.1,4.616a30.6,30.6,0,0,0-.7,4.69,23.181,23.181,0,0,1,.464-4.736c.283-1.563.638-3.113,1.041-4.648s.839-3.061,1.319-4.574S370.745,168.889,371.305,167.4Z" transform="translate(-23.689 -89.244)"/><path class="z" d="M409.927,92.871a24.973,24.973,0,0,1-5.609,0Z" transform="translate(-47.769 -41.243)"/><g transform="translate(353.689 62.913)"><path class="aa" d="M396.323,128.339a.039.039,0,0,1-.014-.076c1.819-.66,2.116-3.624,2.119-3.653a.04.04,0,0,1,.043-.035.039.039,0,0,1,.035.042c0,.031-.305,3.043-2.17,3.72Z" transform="translate(-396.284 -124.574)"/></g><g transform="translate(353.689 67.12)"><path class="aa" d="M402.632,165.982a.039.039,0,0,1-.038-.031l-6.308-29.512a.039.039,0,0,1,.03-.046.04.04,0,0,1,.046.03l6.308,29.512a.039.039,0,0,1-.03.046Z" transform="translate(-396.284 -136.392)"/></g><g transform="translate(343.336 80.939)"><path class="aa" d="M367.241,190.591a.038.038,0,0,1-.016,0,.039.039,0,0,1-.02-.052l6.824-15.3a.039.039,0,1,1,.071.032l-6.824,15.3A.039.039,0,0,1,367.241,190.591Z" transform="translate(-367.202 -175.211)"/></g><path class="ai" d="M458.964,84.449v.24a.181.181,0,0,1-.181.181H438.22a.18.18,0,0,1-.18-.181v-.24Z" transform="translate(-69.487 -35.82)"/><g transform="translate(330.144 33.974)"><path class="af" d="M345.765,71.642,330.451,68.85a.375.375,0,0,1-.3-.436L334.3,45.643l16.051,2.926L346.2,71.341A.375.375,0,0,1,345.765,71.642Z" transform="translate(-330.144 -44.802)"/><path class="aj" d="M338.806,47.075l-.262-.048a.236.236,0,0,1-.19-.275l.616-3.377a.117.117,0,0,1,.136-.094l.612.111-.637,3.492A.236.236,0,0,1,338.806,47.075Z" transform="translate(-335.429 -43.279)"/><rect class="aj" width="0.739" height="16.792" transform="matrix(0.179, -0.984, 0.984, 0.179, 3.685, 0.754)"/><g transform="translate(4.015 1.446)"><path class="ai" d="M354.8,54.379l-12.321-2.246a1.285,1.285,0,0,1-1.033-1.493l.575-3.154a.176.176,0,0,1,.347.063l-.575,3.154a.933.933,0,0,0,.75,1.084l12.321,2.246a.933.933,0,0,0,1.084-.75l.575-3.154a.176.176,0,1,1,.346.063l-.575,3.154A1.285,1.285,0,0,1,354.8,54.379Z" transform="translate(-341.421 -47.341)"/></g><g transform="translate(0.6 6.565)"><path class="ah" d="M343.3,80.867c-1.012-.184-2.337-.428-4.075-.748C335.61,79.452,332,78.779,332,78.779l-.172-.032,3.078-16.881a.176.176,0,0,1,.346.063l-3.014,16.536c3.8.708,12.865,2.389,14.153,2.59l3.016-16.545a.176.176,0,1,1,.346.063l-3.059,16.78-.06.042C346.567,81.441,346.543,81.458,343.3,80.867Z" transform="translate(-331.829 -61.722)"/></g><g transform="translate(4.142 7.685)"><path class="ai" d="M355.232,67.644l-13.31-2.427a.176.176,0,0,1,.063-.346L355.3,67.3a.176.176,0,1,1-.063.346Z" transform="translate(-341.778 -64.868)"/></g><g transform="translate(2.702 10.242)"><path class="ah" d="M349.508,84.565l-11.775-2.147L339.614,72.1a.066.066,0,0,1,.13.024l-1.857,10.185,11.514,2.1,1.845-10.12L340.2,72.278l4.364,6.392,6.072-4.068a.067.067,0,0,1,.092.018.066.066,0,0,1-.018.091l-6.181,4.14-4.616-6.761,11.49,2.095Z" transform="translate(-337.733 -72.05)"/></g></g><path class="ad" d="M384.525,63.134s2.385-2.817,4.95-.739,3.794,7.394,2.637,8.581l.438,1.13s2.576-5.305-2.526-9.975a3.9,3.9,0,0,0-5.3-.06Z" transform="translate(-35.022 -20.737)"/></g></g></svg>